<?xml version="1.0" encoding="UTF-8" standalone="no"?><svg xmlns="http://www.w3.org/2000/svg" xmlns:xlink="http://www.w3.org/1999/xlink" contentScriptType="application/ecmascript" contentStyleType="text/css" height="653px" preserveAspectRatio="none" style="width:277px;height:653px;background:#FFFFFF;" version="1.1" viewBox="0 0 277 653" width="277px" zoomAndPan="magnify"><defs><filter height="300%" id="fofhge24kwzh3" width="300%" x="-1" y="-1"><feGaussianBlur result="blurOut" stdDeviation="2.0"/><feColorMatrix in="blurOut" result="blurOut2" type="matrix" values="0 0 0 0 0 0 0 0 0 0 0 0 0 0 0 0 0 0 .4 0"/><feOffset dx="4.0" dy="4.0" in="blurOut2" result="blurOut3"/><feBlend in="SourceGraphic" in2="blurOut3" mode="normal"/></filter></defs><g><!--MD5=[9dd4458791199fa45785259e7581e7a7]
cluster <<aggregate>> Order--><polygon fill="#FFFFFF" filter="url(#fofhge24kwzh3)" points="16,195,171,195,178,218.6094,222,218.6094,222,457,16,457,16,195" style="stroke:#000000;stroke-width:1.5;"/><line style="stroke:#000000;stroke-width:1.5;" x1="16" x2="178" y1="218.6094" y2="218.6094"/><text fill="#000000" font-family="sans-serif" font-size="14" font-weight="bold" lengthAdjust="spacing" textLength="149" x="20" y="211.5332">&lt;&lt;aggregate&gt;&gt; Order</text><!--MD5=[22b4f80a245276e25c9cb3ee67d19758]
cluster <<aggregate>> AGV--><polygon fill="#FFFFFF" filter="url(#fofhge24kwzh3)" points="50,6,193,6,200,29.6094,210,29.6094,210,171,50,171,50,6" style="stroke:#000000;stroke-width:1.5;"/><line style="stroke:#000000;stroke-width:1.5;" x1="50" x2="200" y1="29.6094" y2="29.6094"/><text fill="#000000" font-family="sans-serif" font-size="14" font-weight="bold" lengthAdjust="spacing" textLength="137" x="54" y="22.5332">&lt;&lt;aggregate&gt;&gt; AGV</text><!--MD5=[25f907a8c0a5ee29f7fd0ca541600fab]
cluster <<aggragte>> Task--><polygon fill="#FFFFFF" filter="url(#fofhge24kwzh3)" points="60,481,197,481,204,504.6094,207,504.6094,207,646,60,646,60,481" style="stroke:#000000;stroke-width:1.5;"/><line style="stroke:#000000;stroke-width:1.5;" x1="60" x2="204" y1="504.6094" y2="504.6094"/><text fill="#000000" font-family="sans-serif" font-size="14" font-weight="bold" lengthAdjust="spacing" textLength="131" x="64" y="497.5332">&lt;&lt;aggragte&gt;&gt; Task</text><!--MD5=[cf4d6237fcae255cd2e1656cf84a30e2]
class Order--><rect codeLine="19" fill="#F5F5DC" filter="url(#fofhge24kwzh3)" height="209.6406" id="Order" style="stroke:#A80036;stroke-width:1.5;" width="173" x="32.5" y="231"/><ellipse cx="95.25" cy="258.6406" fill="#ADD1B2" rx="11" ry="11" style="stroke:#A80036;stroke-width:1.0;"/><path d="M93.75,259.6406 L93.75,261.6406 L97.75,261.6406 L97.75,260.6406 L97.75,260.1563 L98.375,259.6406 L98.75,259.6406 L99.125,259.6406 L99.75,260.1563 L99.75,260.6406 L99.75,263.6406 L91.75,263.6406 L91.2656,263.6406 L90.75,263.0156 L90.75,262.6406 L90.75,262.2656 L91.2656,261.6406 L91.75,261.6406 L91.75,261.6406 L91.75,255.6406 L91.75,255.6406 L91.2656,255.6406 L90.75,255.0156 L90.75,254.6406 L90.75,254.2656 L91.2656,253.6406 L91.75,253.6406 L99.75,253.6406 L99.75,256.6406 L99.75,257.125 L99.125,257.6406 L98.75,257.6406 L98.375,257.6406 L97.75,257.125 L97.75,256.6406 L97.75,255.6406 L93.75,255.6406 L93.75,257.6406 L94.75,257.6406 L94.75,257.1563 L94.75,257.1563 L95.375,256.6406 L95.75,256.6406 L96.125,256.6406 L96.75,257.1563 L96.75,257.6406 L96.75,259.6406 L96.75,260.125 L96.125,260.6406 L96.125,260.6406 L95.75,260.6406 L95.375,260.6406 L94.75,260.125 L94.75,260.125 L94.75,259.6406 L93.75,259.6406 Z " fill="#000000"/><text fill="#000000" font-family="sans-serif" font-size="12" font-style="italic" lengthAdjust="spacing" textLength="43" x="113.75" y="248.457">«entity»</text><text fill="#000000" font-family="sans-serif" font-size="12" font-style="italic" lengthAdjust="spacing" textLength="35" x="117.75" y="263.5508">«root»</text><text fill="#000000" font-family="sans-serif" font-size="12" lengthAdjust="spacing" textLength="31" x="119.75" y="278.6445">Order</text><line style="stroke:#A80036;stroke-width:1.5;" x1="33.5" x2="204.5" y1="286.2813" y2="286.2813"/><text fill="#000000" font-family="sans-serif" font-size="11" lengthAdjust="spacing" textLength="71" x="38.5" y="301.7002">-«VO» OrderId</text><text fill="#000000" font-family="sans-serif" font-size="11" lengthAdjust="spacing" textLength="79" x="38.5" y="315.5361">-«VO» DateTime</text><text fill="#000000" font-family="sans-serif" font-size="11" lengthAdjust="spacing" textLength="104" x="38.5" y="329.3721">-«VO» BillingAddress</text><text fill="#000000" font-family="sans-serif" font-size="11" lengthAdjust="spacing" textLength="116" x="38.5" y="343.208">-«VO» DeliveryAddress</text><text fill="#000000" font-family="sans-serif" font-size="11" lengthAdjust="spacing" textLength="161" x="38.5" y="357.0439">-«VO» TotalAmountWithoutTaxes</text><text fill="#000000" font-family="sans-serif" font-size="11" lengthAdjust="spacing" textLength="146" x="38.5" y="370.8799">-«VO» TotalAmountWithTaxes</text><text fill="#000000" font-family="sans-serif" font-size="11" lengthAdjust="spacing" textLength="91" x="38.5" y="384.7158">-«VO» TotalWeight</text><text fill="#000000" font-family="sans-serif" font-size="11" lengthAdjust="spacing" textLength="94" x="38.5" y="398.5518">-«VO» TotalVolume</text><text fill="#000000" font-family="sans-serif" font-size="11" lengthAdjust="spacing" textLength="78" x="38.5" y="412.3877">-«VO» Operator</text><text fill="#000000" font-family="sans-serif" font-size="11" lengthAdjust="spacing" textLength="66" x="38.5" y="426.2236">-«VO» Status</text><line style="stroke:#A80036;stroke-width:1.5;" x1="33.5" x2="204.5" y1="432.6406" y2="432.6406"/><!--MD5=[53b2c06ade5903185ca3326dce80e141]
class AGV--><rect codeLine="32" fill="#F5F5DC" filter="url(#fofhge24kwzh3)" height="112.7891" id="AGV" style="stroke:#A80036;stroke-width:1.5;" width="127" x="66.5" y="42"/><ellipse cx="106.7" cy="69.6406" fill="#ADD1B2" rx="11" ry="11" style="stroke:#A80036;stroke-width:1.0;"/><path d="M105.2,70.6406 L105.2,72.6406 L109.2,72.6406 L109.2,71.6406 L109.2,71.1563 L109.825,70.6406 L110.2,70.6406 L110.575,70.6406 L111.2,71.1563 L111.2,71.6406 L111.2,74.6406 L103.2,74.6406 L102.7156,74.6406 L102.2,74.0156 L102.2,73.6406 L102.2,73.2656 L102.7156,72.6406 L103.2,72.6406 L103.2,72.6406 L103.2,66.6406 L103.2,66.6406 L102.7156,66.6406 L102.2,66.0156 L102.2,65.6406 L102.2,65.2656 L102.7156,64.6406 L103.2,64.6406 L111.2,64.6406 L111.2,67.6406 L111.2,68.125 L110.575,68.6406 L110.2,68.6406 L109.825,68.6406 L109.2,68.125 L109.2,67.6406 L109.2,66.6406 L105.2,66.6406 L105.2,68.6406 L106.2,68.6406 L106.2,68.1563 L106.2,68.1563 L106.825,67.6406 L107.2,67.6406 L107.575,67.6406 L108.2,68.1563 L108.2,68.6406 L108.2,70.6406 L108.2,71.125 L107.575,71.6406 L107.575,71.6406 L107.2,71.6406 L106.825,71.6406 L106.2,71.125 L106.2,71.125 L106.2,70.6406 L105.2,70.6406 Z " fill="#000000"/><text fill="#000000" font-family="sans-serif" font-size="12" font-style="italic" lengthAdjust="spacing" textLength="43" x="124.3" y="59.457">«entity»</text><text fill="#000000" font-family="sans-serif" font-size="12" font-style="italic" lengthAdjust="spacing" textLength="35" x="128.3" y="74.5508">«root»</text><text fill="#000000" font-family="sans-serif" font-size="12" lengthAdjust="spacing" textLength="23" x="134.3" y="89.6445">AGV</text><line style="stroke:#A80036;stroke-width:1.5;" x1="67.5" x2="192.5" y1="97.2813" y2="97.2813"/><text fill="#000000" font-family="sans-serif" font-size="11" lengthAdjust="spacing" textLength="64" x="72.5" y="112.7002">-«VO» AgvID</text><text fill="#000000" font-family="sans-serif" font-size="11" lengthAdjust="spacing" textLength="115" x="72.5" y="126.5361">-«VO» AutonomyStatus</text><text fill="#000000" font-family="sans-serif" font-size="11" lengthAdjust="spacing" textLength="89" x="72.5" y="140.3721">-«VO» TaskStatus</text><line style="stroke:#A80036;stroke-width:1.5;" x1="67.5" x2="192.5" y1="146.7891" y2="146.7891"/><!--MD5=[b34797a66dc35cbf1d65f7e3ca75530e]
class Task--><rect codeLine="38" fill="#F5F5DC" filter="url(#fofhge24kwzh3)" height="112.7891" id="Task" style="stroke:#A80036;stroke-width:1.5;" width="83" x="91.5" y="517"/><ellipse cx="111.9" cy="544.6406" fill="#ADD1B2" rx="11" ry="11" style="stroke:#A80036;stroke-width:1.0;"/><path d="M110.4,545.6406 L110.4,547.6406 L114.4,547.6406 L114.4,546.6406 L114.4,546.1563 L115.025,545.6406 L115.4,545.6406 L115.775,545.6406 L116.4,546.1563 L116.4,546.6406 L116.4,549.6406 L108.4,549.6406 L107.9156,549.6406 L107.4,549.0156 L107.4,548.6406 L107.4,548.2656 L107.9156,547.6406 L108.4,547.6406 L108.4,547.6406 L108.4,541.6406 L108.4,541.6406 L107.9156,541.6406 L107.4,541.0156 L107.4,540.6406 L107.4,540.2656 L107.9156,539.6406 L108.4,539.6406 L116.4,539.6406 L116.4,542.6406 L116.4,543.125 L115.775,543.6406 L115.4,543.6406 L115.025,543.6406 L114.4,543.125 L114.4,542.6406 L114.4,541.6406 L110.4,541.6406 L110.4,543.6406 L111.4,543.6406 L111.4,543.1563 L111.4,543.1563 L112.025,542.6406 L112.4,542.6406 L112.775,542.6406 L113.4,543.1563 L113.4,543.6406 L113.4,545.6406 L113.4,546.125 L112.775,546.6406 L112.775,546.6406 L112.4,546.6406 L112.025,546.6406 L111.4,546.125 L111.4,546.125 L111.4,545.6406 L110.4,545.6406 Z " fill="#000000"/><text fill="#000000" font-family="sans-serif" font-size="12" font-style="italic" lengthAdjust="spacing" textLength="43" x="125.1" y="534.457">«entity»</text><text fill="#000000" font-family="sans-serif" font-size="12" font-style="italic" lengthAdjust="spacing" textLength="35" x="129.1" y="549.5508">«root»</text><text fill="#000000" font-family="sans-serif" font-size="12" lengthAdjust="spacing" textLength="27" x="133.1" y="564.6445">Task</text><line style="stroke:#A80036;stroke-width:1.5;" x1="92.5" x2="173.5" y1="572.2813" y2="572.2813"/><text fill="#000000" font-family="sans-serif" font-size="11" lengthAdjust="spacing" textLength="67" x="97.5" y="587.7002">-«VO» TaskID</text><text fill="#000000" font-family="sans-serif" font-size="11" lengthAdjust="spacing" textLength="71" x="97.5" y="601.5361">-«VO» OrderId</text><text fill="#000000" font-family="sans-serif" font-size="11" lengthAdjust="spacing" textLength="64" x="97.5" y="615.3721">-«VO» AgvID</text><line style="stroke:#A80036;stroke-width:1.5;" x1="92.5" x2="173.5" y1="621.7891" y2="621.7891"/><!--MD5=[b15788600414bc85f7a85bb1ca6bcc0d]
link AGV to Order--><path codeLine="44" d="M127.41,155.01 C126.42,176.21 125.25,201.19 124.11,225.68 " fill="none" id="AGV-to-Order" style="stroke:#222222;stroke-width:1.0;"/><polygon fill="#222222" points="123.86,230.9,128.2931,222.1053,124.1033,225.9059,120.3026,221.716,123.86,230.9" style="stroke:#222222;stroke-width:1.0;"/><text fill="#000000" font-family="sans-serif" font-size="13" lengthAdjust="spacing" textLength="20" x="103.4825" y="220.1154">1..*</text><!--MD5=[c06a90e562707a92c0851bfe84eae6d6]
link Order to Task--><path codeLine="45" d="M125.2,441.32 C126.63,465.36 128.1,490.14 129.38,511.61 " fill="none" id="Order-to-Task" style="stroke:#222222;stroke-width:1.0;"/><polygon fill="#222222" points="129.68,516.71,133.1585,507.4959,129.3939,511.7182,125.1716,507.9536,129.68,516.71" style="stroke:#222222;stroke-width:1.0;"/><text fill="#000000" font-family="sans-serif" font-size="13" lengthAdjust="spacing" textLength="7" x="121.8488" y="506.3431">1</text><!--MD5=[436492a8722677b8f40c7c1b2a179142]
link AGV to Task--><path codeLine="46" d="M193.63,146.56 C205.17,158.37 215.57,172.01 222,187 C270.71,300.55 263.87,348.76 222,465 C213.07,489.8 195.66,512.93 178.59,531.33 " fill="none" id="AGV-to-Task" style="stroke:#222222;stroke-width:1.0;"/><polygon fill="#222222" points="174.72,535.43,183.8011,531.6177,178.1468,531.789,177.9755,526.1347,174.72,535.43" style="stroke:#222222;stroke-width:1.0;"/><text fill="#000000" font-family="sans-serif" font-size="13" lengthAdjust="spacing" textLength="7" x="182.4922" y="525.0552">1</text><!--MD5=[96e20834e3e8c8c8df676e24cab980bf]
@startuml

skinparam classAttributeIconSize 0
hide empty attributes
skinparam classBackgroundColor beige
skinparam ArrowColor #222222

package "<<aggregate>> Order" {
    entity Order
}

package "<<aggregate>> AGV" {
    entity AGV
}

package "<<aggragte>> Task" {
    entity Task
}

entity Order <<entity>> <<root>> {
    -<<VO>> OrderId /'automatically generated'/
    -<<VO>> DateTime /'automatically generated na hora do registo do sistema'/
    -<<VO>> BillingAddress
    -<<VO>> DeliveryAddress
    -<<VO>> TotalAmountWithoutTaxes
    -<<VO>> TotalAmountWithTaxes
    -<<VO>> TotalWeight
    -<<VO>> TotalVolume
    -<<VO>> Operator
    -<<VO>> Status /'(CONFIRM WITH CLIENT: registered, payment pending, being prepared on the warehouse, dispatched, delivered by carrier, received by customer)'/
}

entity AGV <<entity>> <<root>> {
    - <<VO>> AgvID
    - <<VO>> AutonomyStatus /' number of hours left until it runs out of battery '/
    - <<VO>> TaskStatus /' free charging or occupied '/
}

entity Task <<entity>> <<root>>{
    - <<VO>> TaskID
    - <<VO>> OrderId
    - <<VO>> AgvID
}

AGV - -> "1..*" Order
Order - -> "1" Task
AGV - -> "1" Task



@enduml

@startuml

skinparam classAttributeIconSize 0
hide empty attributes
skinparam classBackgroundColor beige
skinparam ArrowColor #222222

package "<<aggregate>> Order" {
    entity Order
}

package "<<aggregate>> AGV" {
    entity AGV
}

package "<<aggragte>> Task" {
    entity Task
}

entity Order <<entity>> <<root>> {
    -<<VO>> OrderId 
    -<<VO>> DateTime 
    -<<VO>> BillingAddress
    -<<VO>> DeliveryAddress
    -<<VO>> TotalAmountWithoutTaxes
    -<<VO>> TotalAmountWithTaxes
    -<<VO>> TotalWeight
    -<<VO>> TotalVolume
    -<<VO>> Operator
    -<<VO>> Status 
}

entity AGV <<entity>> <<root>> {
    - <<VO>> AgvID
    - <<VO>> AutonomyStatus 
    - <<VO>> TaskStatus 
}

entity Task <<entity>> <<root>>{
    - <<VO>> TaskID
    - <<VO>> OrderId
    - <<VO>> AgvID
}

AGV - -> "1..*" Order
Order - -> "1" Task
AGV - -> "1" Task



@enduml

PlantUML version 1.2021.11(Sat Oct 02 14:26:11 BST 2021)
(GPL source distribution)
Java Runtime: OpenJDK Runtime Environment
JVM: OpenJDK 64-Bit Server VM
Default Encoding: Cp1252
Language: pt
Country: PT
--></g></svg>