<?xml version="1.0" encoding="UTF-8" standalone="no"?><svg xmlns="http://www.w3.org/2000/svg" xmlns:xlink="http://www.w3.org/1999/xlink" contentScriptType="application/ecmascript" contentStyleType="text/css" height="449px" preserveAspectRatio="none" style="width:758px;height:449px;background:#FFFFFF;" version="1.1" viewBox="0 0 758 449" width="758px" zoomAndPan="magnify"><defs><filter height="300%" id="f140etmr5yjmj4" width="300%" x="-1" y="-1"><feGaussianBlur result="blurOut" stdDeviation="2.0"/><feColorMatrix in="blurOut" result="blurOut2" type="matrix" values="0 0 0 0 0 0 0 0 0 0 0 0 0 0 0 0 0 0 .4 0"/><feOffset dx="4.0" dy="4.0" in="blurOut2" result="blurOut3"/><feBlend in="SourceGraphic" in2="blurOut3" mode="normal"/></filter></defs><g><!--MD5=[435c65a0bab2a1d04bc88e370aaa4382]
entity OrderRepository--><path d="M6,397.5 C6,387.5 68.5,387.5 68.5,387.5 C68.5,387.5 131,387.5 131,397.5 L131,424.1094 C131,434.1094 68.5,434.1094 68.5,434.1094 C68.5,434.1094 6,434.1094 6,424.1094 L6,397.5 " fill="#FFFFFF" filter="url(#f140etmr5yjmj4)" style="stroke:#000000;stroke-width:1.5;"/><path d="M6,397.5 C6,407.5 68.5,407.5 68.5,407.5 C68.5,407.5 131,407.5 131,397.5 " fill="none" style="stroke:#000000;stroke-width:1.5;"/><text fill="#000000" font-family="sans-serif" font-size="14" lengthAdjust="spacing" textLength="105" x="16" y="426.0332">OrderRepository</text><!--MD5=[4796114f7023b488b818675d85ea7191]
entity TaskRepository--><path d="M166,397.5 C166,387.5 225.5,387.5 225.5,387.5 C225.5,387.5 285,387.5 285,397.5 L285,424.1094 C285,434.1094 225.5,434.1094 225.5,434.1094 C225.5,434.1094 166,434.1094 166,424.1094 L166,397.5 " fill="#FFFFFF" filter="url(#f140etmr5yjmj4)" style="stroke:#000000;stroke-width:1.5;"/><path d="M166,397.5 C166,407.5 225.5,407.5 225.5,407.5 C225.5,407.5 285,407.5 285,397.5 " fill="none" style="stroke:#000000;stroke-width:1.5;"/><text fill="#000000" font-family="sans-serif" font-size="14" lengthAdjust="spacing" textLength="99" x="176" y="426.0332">TaskRepository</text><!--MD5=[ca48ba2b2721fd6e9a002e16be14b362]
class TcpSrvAgvManager--><rect codeLine="2" fill="#FEFECE" filter="url(#f140etmr5yjmj4)" height="75.6719" id="TcpSrvAgvManager" style="stroke:#A80036;stroke-width:1.5;" width="136" x="400.5" y="7"/><ellipse cx="415.5" cy="23" fill="#ADD1B2" rx="11" ry="11" style="stroke:#A80036;stroke-width:1.0;"/><path d="M417.5,19.5 Q417.7031,19 417.9375,18.75 Q418.1719,18.5 418.4375,18.5 Q418.9063,18.5 419.2031,18.7813 Q419.5,19.0625 419.5,19.7188 L419.5,21.2813 Q419.5,21.9375 419.2188,22.2188 Q418.9375,22.5 418.5,22.5 Q418.1094,22.5 417.8594,22.3281 Q417.6094,22.1563 417.5,21.7031 Q417.4531,21.3906 417.2813,21.2188 Q416.9688,20.8906 416.4063,20.7031 Q415.8438,20.5 415.2813,20.5 Q414.5781,20.5 413.9844,20.7813 Q413.4063,21.0625 412.9531,21.6875 Q412.5,22.3125 412.5,23.1719 L412.5,24.0938 Q412.5,25.125 413.3438,25.8125 Q414.1875,26.5 415.6875,26.5 Q416.5781,26.5 417.2031,26.2969 Q417.5625,26.1875 417.9688,25.8281 Q418.2344,25.625 418.375,25.5625 Q418.5156,25.5 418.6875,25.5 Q419.0156,25.5 419.25,25.7656 Q419.5,26.0156 419.5,26.375 Q419.5,26.7188 419.1563,27.125 Q418.6563,27.7188 417.8594,28.0469 Q416.8125,28.5 415.5313,28.5 Q414.0313,28.5 412.8281,27.9063 Q411.8594,27.4375 411.1719,26.4219 Q410.5,25.4063 410.5,24.2031 L410.5,23.1094 Q410.5,21.8594 411.0938,20.7656 Q411.7031,19.6719 412.75,19.0938 Q413.8125,18.5 415,18.5 Q415.7188,18.5 416.3438,18.75 Q416.9688,19 417.5,19.5 Z " fill="#000000"/><text fill="#000000" font-family="sans-serif" font-size="12" lengthAdjust="spacing" textLength="104" x="429.5" y="27.9102">TcpSrvAgvManager</text><line style="stroke:#A80036;stroke-width:1.5;" x1="401.5" x2="535.5" y1="39" y2="39"/><line style="stroke:#A80036;stroke-width:1.5;" x1="401.5" x2="535.5" y1="47" y2="47"/><ellipse cx="411.5" cy="58" fill="#84BE84" rx="3" ry="3" style="stroke:#038048;stroke-width:1.0;"/><text fill="#000000" font-family="sans-serif" font-size="11" lengthAdjust="spacing" textLength="52" x="420.5" y="62.4189">main(args)</text><ellipse cx="411.5" cy="71.8359" fill="#84BE84" rx="3" ry="3" style="stroke:#038048;stroke-width:1.0;"/><text fill="#000000" font-family="sans-serif" font-size="11" lengthAdjust="spacing" textLength="24" x="420.5" y="76.2549">run()</text><!--MD5=[e8c189551b7885b999ad7cefb30fc2a3]
class PersistenceContext--><rect codeLine="7" fill="#FEFECE" filter="url(#f140etmr5yjmj4)" height="61.8359" id="PersistenceContext" style="stroke:#A80036;stroke-width:1.5;" width="139" x="156" y="143"/><ellipse cx="171" cy="159" fill="#ADD1B2" rx="11" ry="11" style="stroke:#A80036;stroke-width:1.0;"/><path d="M173,155.5 Q173.2031,155 173.4375,154.75 Q173.6719,154.5 173.9375,154.5 Q174.4063,154.5 174.7031,154.7813 Q175,155.0625 175,155.7188 L175,157.2813 Q175,157.9375 174.7188,158.2188 Q174.4375,158.5 174,158.5 Q173.6094,158.5 173.3594,158.3281 Q173.1094,158.1563 173,157.7031 Q172.9531,157.3906 172.7813,157.2188 Q172.4688,156.8906 171.9063,156.7031 Q171.3438,156.5 170.7813,156.5 Q170.0781,156.5 169.4844,156.7813 Q168.9063,157.0625 168.4531,157.6875 Q168,158.3125 168,159.1719 L168,160.0938 Q168,161.125 168.8438,161.8125 Q169.6875,162.5 171.1875,162.5 Q172.0781,162.5 172.7031,162.2969 Q173.0625,162.1875 173.4688,161.8281 Q173.7344,161.625 173.875,161.5625 Q174.0156,161.5 174.1875,161.5 Q174.5156,161.5 174.75,161.7656 Q175,162.0156 175,162.375 Q175,162.7188 174.6563,163.125 Q174.1563,163.7188 173.3594,164.0469 Q172.3125,164.5 171.0313,164.5 Q169.5313,164.5 168.3281,163.9063 Q167.3594,163.4375 166.6719,162.4219 Q166,161.4063 166,160.2031 L166,159.1094 Q166,157.8594 166.5938,156.7656 Q167.2031,155.6719 168.25,155.0938 Q169.3125,154.5 170.5,154.5 Q171.2188,154.5 171.8438,154.75 Q172.4688,155 173,155.5 Z " fill="#000000"/><text fill="#000000" font-family="sans-serif" font-size="12" lengthAdjust="spacing" textLength="107" x="185" y="163.9102">PersistenceContext</text><line style="stroke:#A80036;stroke-width:1.5;" x1="157" x2="294" y1="175" y2="175"/><line style="stroke:#A80036;stroke-width:1.5;" x1="157" x2="294" y1="183" y2="183"/><ellipse cx="167" cy="194" fill="#84BE84" rx="3" ry="3" style="stroke:#038048;stroke-width:1.0;"/><text fill="#000000" font-family="sans-serif" font-size="11" lengthAdjust="spacing" textLength="65" x="176" y="198.4189">repositories()</text><!--MD5=[48590afff58a68e2fcba47824d6f8a11]
class RepositoryFactory--><rect codeLine="11" fill="#FEFECE" filter="url(#f140etmr5yjmj4)" height="61.8359" id="RepositoryFactory" style="stroke:#A80036;stroke-width:1.5;" width="130" x="160.5" y="265"/><ellipse cx="175.5" cy="281" fill="#ADD1B2" rx="11" ry="11" style="stroke:#A80036;stroke-width:1.0;"/><path d="M177.5,277.5 Q177.7031,277 177.9375,276.75 Q178.1719,276.5 178.4375,276.5 Q178.9063,276.5 179.2031,276.7813 Q179.5,277.0625 179.5,277.7188 L179.5,279.2813 Q179.5,279.9375 179.2188,280.2188 Q178.9375,280.5 178.5,280.5 Q178.1094,280.5 177.8594,280.3281 Q177.6094,280.1563 177.5,279.7031 Q177.4531,279.3906 177.2813,279.2188 Q176.9688,278.8906 176.4063,278.7031 Q175.8438,278.5 175.2813,278.5 Q174.5781,278.5 173.9844,278.7813 Q173.4063,279.0625 172.9531,279.6875 Q172.5,280.3125 172.5,281.1719 L172.5,282.0938 Q172.5,283.125 173.3438,283.8125 Q174.1875,284.5 175.6875,284.5 Q176.5781,284.5 177.2031,284.2969 Q177.5625,284.1875 177.9688,283.8281 Q178.2344,283.625 178.375,283.5625 Q178.5156,283.5 178.6875,283.5 Q179.0156,283.5 179.25,283.7656 Q179.5,284.0156 179.5,284.375 Q179.5,284.7188 179.1563,285.125 Q178.6563,285.7188 177.8594,286.0469 Q176.8125,286.5 175.5313,286.5 Q174.0313,286.5 172.8281,285.9063 Q171.8594,285.4375 171.1719,284.4219 Q170.5,283.4063 170.5,282.2031 L170.5,281.1094 Q170.5,279.8594 171.0938,278.7656 Q171.7031,277.6719 172.75,277.0938 Q173.8125,276.5 175,276.5 Q175.7188,276.5 176.3438,276.75 Q176.9688,277 177.5,277.5 Z " fill="#000000"/><text fill="#000000" font-family="sans-serif" font-size="12" lengthAdjust="spacing" textLength="98" x="189.5" y="285.9102">RepositoryFactory</text><line style="stroke:#A80036;stroke-width:1.5;" x1="161.5" x2="289.5" y1="297" y2="297"/><line style="stroke:#A80036;stroke-width:1.5;" x1="161.5" x2="289.5" y1="305" y2="305"/><ellipse cx="171.5" cy="316" fill="#84BE84" rx="3" ry="3" style="stroke:#038048;stroke-width:1.0;"/><text fill="#000000" font-family="sans-serif" font-size="11" lengthAdjust="spacing" textLength="39" x="180.5" y="320.4189">create()</text><!--MD5=[a47aae9a185d1ab845eea61ac3f47c15]
class TheOrder--><rect codeLine="21" fill="#FEFECE" filter="url(#f140etmr5yjmj4)" height="61.8359" id="TheOrder" style="stroke:#A80036;stroke-width:1.5;" width="110" x="330.5" y="143"/><ellipse cx="357.2" cy="159" fill="#ADD1B2" rx="11" ry="11" style="stroke:#A80036;stroke-width:1.0;"/><path d="M359.2,155.5 Q359.4031,155 359.6375,154.75 Q359.8719,154.5 360.1375,154.5 Q360.6063,154.5 360.9031,154.7813 Q361.2,155.0625 361.2,155.7188 L361.2,157.2813 Q361.2,157.9375 360.9188,158.2188 Q360.6375,158.5 360.2,158.5 Q359.8094,158.5 359.5594,158.3281 Q359.3094,158.1563 359.2,157.7031 Q359.1531,157.3906 358.9813,157.2188 Q358.6688,156.8906 358.1063,156.7031 Q357.5438,156.5 356.9813,156.5 Q356.2781,156.5 355.6844,156.7813 Q355.1063,157.0625 354.6531,157.6875 Q354.2,158.3125 354.2,159.1719 L354.2,160.0938 Q354.2,161.125 355.0438,161.8125 Q355.8875,162.5 357.3875,162.5 Q358.2781,162.5 358.9031,162.2969 Q359.2625,162.1875 359.6688,161.8281 Q359.9344,161.625 360.075,161.5625 Q360.2156,161.5 360.3875,161.5 Q360.7156,161.5 360.95,161.7656 Q361.2,162.0156 361.2,162.375 Q361.2,162.7188 360.8563,163.125 Q360.3563,163.7188 359.5594,164.0469 Q358.5125,164.5 357.2313,164.5 Q355.7313,164.5 354.5281,163.9063 Q353.5594,163.4375 352.8719,162.4219 Q352.2,161.4063 352.2,160.2031 L352.2,159.1094 Q352.2,157.8594 352.7938,156.7656 Q353.4031,155.6719 354.45,155.0938 Q355.5125,154.5 356.7,154.5 Q357.4188,154.5 358.0438,154.75 Q358.6688,155 359.2,155.5 Z " fill="#000000"/><text fill="#000000" font-family="sans-serif" font-size="12" lengthAdjust="spacing" textLength="52" x="373.8" y="163.9102">TheOrder</text><line style="stroke:#A80036;stroke-width:1.5;" x1="331.5" x2="439.5" y1="175" y2="175"/><line style="stroke:#A80036;stroke-width:1.5;" x1="331.5" x2="439.5" y1="183" y2="183"/><ellipse cx="341.5" cy="194" fill="#84BE84" rx="3" ry="3" style="stroke:#038048;stroke-width:1.0;"/><text fill="#000000" font-family="sans-serif" font-size="11" lengthAdjust="spacing" textLength="84" x="350.5" y="198.4189">setStatus(status)</text><!--MD5=[53b2c06ade5903185ca3326dce80e141]
class AGV--><rect codeLine="25" fill="#FEFECE" filter="url(#f140etmr5yjmj4)" height="61.8359" id="AGV" style="stroke:#A80036;stroke-width:1.5;" width="154" x="475.5" y="143"/><ellipse cx="536.75" cy="159" fill="#ADD1B2" rx="11" ry="11" style="stroke:#A80036;stroke-width:1.0;"/><path d="M538.75,155.5 Q538.9531,155 539.1875,154.75 Q539.4219,154.5 539.6875,154.5 Q540.1563,154.5 540.4531,154.7813 Q540.75,155.0625 540.75,155.7188 L540.75,157.2813 Q540.75,157.9375 540.4688,158.2188 Q540.1875,158.5 539.75,158.5 Q539.3594,158.5 539.1094,158.3281 Q538.8594,158.1563 538.75,157.7031 Q538.7031,157.3906 538.5313,157.2188 Q538.2188,156.8906 537.6563,156.7031 Q537.0938,156.5 536.5313,156.5 Q535.8281,156.5 535.2344,156.7813 Q534.6563,157.0625 534.2031,157.6875 Q533.75,158.3125 533.75,159.1719 L533.75,160.0938 Q533.75,161.125 534.5938,161.8125 Q535.4375,162.5 536.9375,162.5 Q537.8281,162.5 538.4531,162.2969 Q538.8125,162.1875 539.2188,161.8281 Q539.4844,161.625 539.625,161.5625 Q539.7656,161.5 539.9375,161.5 Q540.2656,161.5 540.5,161.7656 Q540.75,162.0156 540.75,162.375 Q540.75,162.7188 540.4063,163.125 Q539.9063,163.7188 539.1094,164.0469 Q538.0625,164.5 536.7813,164.5 Q535.2813,164.5 534.0781,163.9063 Q533.1094,163.4375 532.4219,162.4219 Q531.75,161.4063 531.75,160.2031 L531.75,159.1094 Q531.75,157.8594 532.3438,156.7656 Q532.9531,155.6719 534,155.0938 Q535.0625,154.5 536.25,154.5 Q536.9688,154.5 537.5938,154.75 Q538.2188,155 538.75,155.5 Z " fill="#000000"/><text fill="#000000" font-family="sans-serif" font-size="12" lengthAdjust="spacing" textLength="23" x="557.25" y="163.9102">AGV</text><line style="stroke:#A80036;stroke-width:1.5;" x1="476.5" x2="628.5" y1="175" y2="175"/><line style="stroke:#A80036;stroke-width:1.5;" x1="476.5" x2="628.5" y1="183" y2="183"/><ellipse cx="486.5" cy="194" fill="#84BE84" rx="3" ry="3" style="stroke:#038048;stroke-width:1.0;"/><text fill="#000000" font-family="sans-serif" font-size="11" lengthAdjust="spacing" textLength="128" x="495.5" y="198.4189">setTaskStatus(taskStatus)</text><!--MD5=[1d65eb01825e4bfd50e3fe76bc4aa14f]
class TheTask--><rect codeLine="29" fill="#FEFECE" filter="url(#f140etmr5yjmj4)" height="61.8359" id="TheTask" style="stroke:#A80036;stroke-width:1.5;" width="80" x="664.5" y="143"/><ellipse cx="679.5" cy="159" fill="#ADD1B2" rx="11" ry="11" style="stroke:#A80036;stroke-width:1.0;"/><path d="M681.5,155.5 Q681.7031,155 681.9375,154.75 Q682.1719,154.5 682.4375,154.5 Q682.9063,154.5 683.2031,154.7813 Q683.5,155.0625 683.5,155.7188 L683.5,157.2813 Q683.5,157.9375 683.2188,158.2188 Q682.9375,158.5 682.5,158.5 Q682.1094,158.5 681.8594,158.3281 Q681.6094,158.1563 681.5,157.7031 Q681.4531,157.3906 681.2813,157.2188 Q680.9688,156.8906 680.4063,156.7031 Q679.8438,156.5 679.2813,156.5 Q678.5781,156.5 677.9844,156.7813 Q677.4063,157.0625 676.9531,157.6875 Q676.5,158.3125 676.5,159.1719 L676.5,160.0938 Q676.5,161.125 677.3438,161.8125 Q678.1875,162.5 679.6875,162.5 Q680.5781,162.5 681.2031,162.2969 Q681.5625,162.1875 681.9688,161.8281 Q682.2344,161.625 682.375,161.5625 Q682.5156,161.5 682.6875,161.5 Q683.0156,161.5 683.25,161.7656 Q683.5,162.0156 683.5,162.375 Q683.5,162.7188 683.1563,163.125 Q682.6563,163.7188 681.8594,164.0469 Q680.8125,164.5 679.5313,164.5 Q678.0313,164.5 676.8281,163.9063 Q675.8594,163.4375 675.1719,162.4219 Q674.5,161.4063 674.5,160.2031 L674.5,159.1094 Q674.5,157.8594 675.0938,156.7656 Q675.7031,155.6719 676.75,155.0938 Q677.8125,154.5 679,154.5 Q679.7188,154.5 680.3438,154.75 Q680.9688,155 681.5,155.5 Z " fill="#000000"/><text fill="#000000" font-family="sans-serif" font-size="12" lengthAdjust="spacing" textLength="48" x="693.5" y="163.9102">TheTask</text><line style="stroke:#A80036;stroke-width:1.5;" x1="665.5" x2="743.5" y1="175" y2="175"/><line style="stroke:#A80036;stroke-width:1.5;" x1="665.5" x2="743.5" y1="183" y2="183"/><ellipse cx="675.5" cy="194" fill="#84BE84" rx="3" ry="3" style="stroke:#038048;stroke-width:1.0;"/><text fill="#000000" font-family="sans-serif" font-size="11" lengthAdjust="spacing" textLength="39" x="684.5" y="198.4189">create()</text><!--MD5=[a2934c79e3adc781b0cd87c74812aba5]
class AGVRepository--><rect fill="#FEFECE" filter="url(#f140etmr5yjmj4)" height="48" id="AGVRepository" style="stroke:#A80036;stroke-width:1.5;" width="114" x="320.5" y="387"/><ellipse cx="335.5" cy="403" fill="#ADD1B2" rx="11" ry="11" style="stroke:#A80036;stroke-width:1.0;"/><path d="M337.5,399.5 Q337.7031,399 337.9375,398.75 Q338.1719,398.5 338.4375,398.5 Q338.9063,398.5 339.2031,398.7813 Q339.5,399.0625 339.5,399.7188 L339.5,401.2813 Q339.5,401.9375 339.2188,402.2188 Q338.9375,402.5 338.5,402.5 Q338.1094,402.5 337.8594,402.3281 Q337.6094,402.1563 337.5,401.7031 Q337.4531,401.3906 337.2813,401.2188 Q336.9688,400.8906 336.4063,400.7031 Q335.8438,400.5 335.2813,400.5 Q334.5781,400.5 333.9844,400.7813 Q333.4063,401.0625 332.9531,401.6875 Q332.5,402.3125 332.5,403.1719 L332.5,404.0938 Q332.5,405.125 333.3438,405.8125 Q334.1875,406.5 335.6875,406.5 Q336.5781,406.5 337.2031,406.2969 Q337.5625,406.1875 337.9688,405.8281 Q338.2344,405.625 338.375,405.5625 Q338.5156,405.5 338.6875,405.5 Q339.0156,405.5 339.25,405.7656 Q339.5,406.0156 339.5,406.375 Q339.5,406.7188 339.1563,407.125 Q338.6563,407.7188 337.8594,408.0469 Q336.8125,408.5 335.5313,408.5 Q334.0313,408.5 332.8281,407.9063 Q331.8594,407.4375 331.1719,406.4219 Q330.5,405.4063 330.5,404.2031 L330.5,403.1094 Q330.5,401.8594 331.0938,400.7656 Q331.7031,399.6719 332.75,399.0938 Q333.8125,398.5 335,398.5 Q335.7188,398.5 336.3438,398.75 Q336.9688,399 337.5,399.5 Z " fill="#000000"/><text fill="#000000" font-family="sans-serif" font-size="12" lengthAdjust="spacing" textLength="82" x="349.5" y="407.9102">AGVRepository</text><line style="stroke:#A80036;stroke-width:1.5;" x1="321.5" x2="433.5" y1="419" y2="419"/><line style="stroke:#A80036;stroke-width:1.5;" x1="321.5" x2="433.5" y1="427" y2="427"/><!--MD5=[3530a4b6eaf4970e324cdd1c6edbde55]
link TcpSrvAgvManager to PersistenceContext--><path codeLine="33" d="M400.49,81.55 C365.15,100.02 322.26,122.43 287.8,140.44 " fill="none" id="TcpSrvAgvManager-to-PersistenceContext" style="stroke:#A80036;stroke-width:1.0;"/><polygon fill="#A80036" points="283.2,142.84,293.0299,142.2297,287.6344,140.5301,289.3341,135.1346,283.2,142.84" style="stroke:#A80036;stroke-width:1.0;"/><!--MD5=[754b775031405e096442b27febffa290]
link PersistenceContext to RepositoryFactory--><path codeLine="35" d="M225.5,205.28 C225.5,221.77 225.5,242.26 225.5,259.49 " fill="none" id="PersistenceContext-to-RepositoryFactory" style="stroke:#A80036;stroke-width:1.0;"/><polygon fill="#A80036" points="225.5,264.73,229.5,255.73,225.5,259.73,221.5,255.73,225.5,264.73" style="stroke:#A80036;stroke-width:1.0;"/><!--MD5=[4961dc0a1f38b4bb8bde6c7779428d74]
link RepositoryFactory to OrderRepository--><path codeLine="37" d="M183.43,327.28 C158.8,345.01 128.03,367.15 104.52,384.07 " fill="none" id="RepositoryFactory-to-OrderRepository" style="stroke:#A80036;stroke-width:1.0;"/><polygon fill="#A80036" points="100.22,387.17,109.8633,385.1681,104.2809,384.253,105.1961,378.6707,100.22,387.17" style="stroke:#A80036;stroke-width:1.0;"/><!--MD5=[d05eaea78b8765320ad56e3795dd7d42]
link RepositoryFactory to AGVRepository--><path codeLine="38" d="M266.23,327.28 C289.91,344.88 319.45,366.85 342.15,383.72 " fill="none" id="RepositoryFactory-to-AGVRepository" style="stroke:#A80036;stroke-width:1.0;"/><polygon fill="#A80036" points="346.3,386.81,341.446,378.2404,342.2812,383.8352,336.6863,384.6705,346.3,386.81" style="stroke:#A80036;stroke-width:1.0;"/><!--MD5=[8982f41bad9004a09ffb6c14ad72077a]
link RepositoryFactory to TaskRepository--><path codeLine="39" d="M225.5,327.28 C225.5,344.34 225.5,365.51 225.5,382.15 " fill="none" id="RepositoryFactory-to-TaskRepository" style="stroke:#A80036;stroke-width:1.0;"/><polygon fill="#A80036" points="225.5,387.17,229.5,378.17,225.5,382.17,221.5,378.17,225.5,387.17" style="stroke:#A80036;stroke-width:1.0;"/><!--MD5=[3c2eab83c629b61c53785ad0c57ab528]
link TcpSrvAgvManager to TheOrder--><path codeLine="41" d="M444.27,83.08 C432.8,100.62 419.19,121.45 407.96,138.64 " fill="none" id="TcpSrvAgvManager-to-TheOrder" style="stroke:#A80036;stroke-width:1.0;"/><polygon fill="#A80036" points="405.16,142.93,413.4385,137.5946,407.9005,138.7479,406.7472,133.2099,405.16,142.93" style="stroke:#A80036;stroke-width:1.0;"/><!--MD5=[c1e76d441b9aa27fd52dec027911917e]
link TcpSrvAgvManager to AGV--><path codeLine="42" d="M493.02,83.08 C504.63,100.62 518.4,121.45 529.77,138.64 " fill="none" id="TcpSrvAgvManager-to-AGV" style="stroke:#A80036;stroke-width:1.0;"/><polygon fill="#A80036" points="532.61,142.93,530.9844,133.2162,529.853,138.7588,524.3104,137.6274,532.61,142.93" style="stroke:#A80036;stroke-width:1.0;"/><!--MD5=[12b73549b48b4ab6b690a65d5ab9efe6]
link TcpSrvAgvManager to TheTask--><path codeLine="43" d="M536.76,82.73 C576.37,104.05 625.12,130.28 659.84,148.97 " fill="none" id="TcpSrvAgvManager-to-TheTask" style="stroke:#A80036;stroke-width:1.0;"/><polygon fill="#A80036" points="664.43,151.44,658.4052,143.6489,660.0286,149.0678,654.6096,150.6912,664.43,151.44" style="stroke:#A80036;stroke-width:1.0;"/><!--MD5=[0a13291e625a7844ad0d31642700d753]
@startuml

class TcpSrvAgvManager{
+main(args)
+run()
}

class PersistenceContext{
+repositories()
}

class RepositoryFactory{
+create()
}

database OrderRepository{
}

database TaskRepository{
}

class TheOrder{
+setStatus(status)
}

class AGV{
+setTaskStatus(taskStatus)
}

class TheTask{
+create()
}

TcpSrvAgvManager - -> PersistenceContext

PersistenceContext - -> RepositoryFactory

RepositoryFactory - -> OrderRepository
RepositoryFactory - -> AGVRepository
RepositoryFactory - -> TaskRepository

TcpSrvAgvManager - -> TheOrder
TcpSrvAgvManager - -> AGV
TcpSrvAgvManager - -> TheTask

@enduml

PlantUML version 1.2021.11(Sat Oct 02 14:26:11 BST 2021)
(GPL source distribution)
Java Runtime: OpenJDK Runtime Environment
JVM: OpenJDK 64-Bit Server VM
Default Encoding: Cp1252
Language: pt
Country: PT
--></g></svg>