<?xml version="1.0" encoding="UTF-8" standalone="no"?><svg xmlns="http://www.w3.org/2000/svg" xmlns:xlink="http://www.w3.org/1999/xlink" contentStyleType="text/css" height="613px" preserveAspectRatio="none" style="width:396px;height:613px;background:#FFFFFF;" version="1.1" viewBox="0 0 396 613" width="396px" zoomAndPan="magnify"><defs/><g><rect fill="#FFFFFF" height="428.9219" style="stroke:#181818;stroke-width:1.0;" width="10" x="54" y="92.6094"/><rect fill="#FFFFFF" height="30.3516" style="stroke:#181818;stroke-width:1.0;" width="10" x="343" y="114.9609"/><rect fill="#FFFFFF" height="30.3516" style="stroke:#181818;stroke-width:1.0;" width="10" x="343" y="201.0156"/><rect fill="#FFFFFF" height="30.3516" style="stroke:#181818;stroke-width:1.0;" width="10" x="343" y="261.7188"/><rect fill="#FFFFFF" height="30.3516" style="stroke:#181818;stroke-width:1.0;" width="10" x="343" y="322.4219"/><rect fill="#FFFFFF" height="30.3516" style="stroke:#181818;stroke-width:1.0;" width="10" x="343" y="415.4766"/><rect fill="#FFFFFF" height="30.3516" style="stroke:#181818;stroke-width:1.0;" width="10" x="343" y="476.1797"/><rect height="200.4609" style="stroke:#000000;stroke-width:1.5;fill:none;" width="380" x="10" y="160.3125"/><rect height="139.7578" style="stroke:#000000;stroke-width:1.5;fill:none;" width="380" x="10" y="374.7734"/><line style="stroke:#181818;stroke-width:0.5;fill:none;stroke-dasharray:5.0,5.0;" x1="59" x2="59" y1="82.6094" y2="531.5313"/><line style="stroke:#181818;stroke-width:0.5;fill:none;stroke-dasharray:5.0,5.0;" x1="348" x2="348" y1="82.6094" y2="531.5313"/><text fill="#000000" font-family="sans-serif" font-size="14" lengthAdjust="spacing" textLength="72" x="20" y="79.5332">Sales Clerk</text><ellipse cx="59" cy="13.5" fill="#E2E2F0" rx="8" ry="8" style="stroke:#181818;stroke-width:0.5;"/><path d="M59,21.5 L59,48.5 M46,29.5 L72,29.5 M59,48.5 L46,63.5 M59,48.5 L72,63.5 " fill="none" style="stroke:#181818;stroke-width:0.5;"/><text fill="#000000" font-family="sans-serif" font-size="14" lengthAdjust="spacing" textLength="72" x="20" y="545.0645">Sales Clerk</text><ellipse cx="59" cy="556.6406" fill="#E2E2F0" rx="8" ry="8" style="stroke:#181818;stroke-width:0.5;"/><path d="M59,564.6406 L59,591.6406 M46,572.6406 L72,572.6406 M59,591.6406 L46,606.6406 M59,591.6406 L72,606.6406 " fill="none" style="stroke:#181818;stroke-width:0.5;"/><rect fill="#E2E2F0" height="31.6094" rx="2.5" ry="2.5" style="stroke:#181818;stroke-width:0.5;" width="64" x="316" y="50"/><text fill="#000000" font-family="sans-serif" font-size="14" lengthAdjust="spacing" textLength="50" x="323" y="71.5332">:System</text><rect fill="#E2E2F0" height="31.6094" rx="2.5" ry="2.5" style="stroke:#181818;stroke-width:0.5;" width="64" x="316" y="530.5313"/><text fill="#000000" font-family="sans-serif" font-size="14" lengthAdjust="spacing" textLength="50" x="323" y="552.0645">:System</text><rect fill="#FFFFFF" height="428.9219" style="stroke:#181818;stroke-width:1.0;" width="10" x="54" y="92.6094"/><rect fill="#FFFFFF" height="30.3516" style="stroke:#181818;stroke-width:1.0;" width="10" x="343" y="114.9609"/><rect fill="#FFFFFF" height="30.3516" style="stroke:#181818;stroke-width:1.0;" width="10" x="343" y="201.0156"/><rect fill="#FFFFFF" height="30.3516" style="stroke:#181818;stroke-width:1.0;" width="10" x="343" y="261.7188"/><rect fill="#FFFFFF" height="30.3516" style="stroke:#181818;stroke-width:1.0;" width="10" x="343" y="322.4219"/><rect fill="#FFFFFF" height="30.3516" style="stroke:#181818;stroke-width:1.0;" width="10" x="343" y="415.4766"/><rect fill="#FFFFFF" height="30.3516" style="stroke:#181818;stroke-width:1.0;" width="10" x="343" y="476.1797"/><polygon fill="#181818" points="331,110.9609,341,114.9609,331,118.9609,335,114.9609" style="stroke:#181818;stroke-width:1.0;"/><line style="stroke:#181818;stroke-width:1.0;" x1="64" x2="337" y1="114.9609" y2="114.9609"/><text fill="#000000" font-family="sans-serif" font-size="13" font-weight="bold" lengthAdjust="spacing" textLength="7" x="71" y="110.1045">1</text><text fill="#000000" font-family="sans-serif" font-size="13" lengthAdjust="spacing" textLength="196" x="82" y="110.1045">Wants to view the product catalog</text><polygon fill="#181818" points="75,141.3125,65,145.3125,75,149.3125,71,145.3125" style="stroke:#181818;stroke-width:1.0;"/><line style="stroke:#181818;stroke-width:1.0;stroke-dasharray:2.0,2.0;" x1="69" x2="347" y1="145.3125" y2="145.3125"/><text fill="#000000" font-family="sans-serif" font-size="13" font-weight="bold" lengthAdjust="spacing" textLength="7" x="81" y="140.4561">2</text><text fill="#000000" font-family="sans-serif" font-size="13" lengthAdjust="spacing" textLength="244" x="92" y="140.4561">asks if the Sales Clerk wants to use filters</text><path d="M10,160.3125 L71,160.3125 L71,168.6641 L61,178.6641 L10,178.6641 L10,160.3125 " fill="#EEEEEE" style="stroke:#000000;stroke-width:1.5;"/><rect fill="none" height="200.4609" style="stroke:#000000;stroke-width:1.5;" width="380" x="10" y="160.3125"/><text fill="#000000" font-family="sans-serif" font-size="13" font-weight="bold" lengthAdjust="spacing" textLength="16" x="25" y="174.8076">alt</text><text fill="#000000" font-family="sans-serif" font-size="11" font-weight="bold" lengthAdjust="spacing" textLength="117" x="86" y="173.7314">[if the answer is yes]</text><polygon fill="#181818" points="331,197.0156,341,201.0156,331,205.0156,335,201.0156" style="stroke:#181818;stroke-width:1.0;"/><line style="stroke:#181818;stroke-width:1.0;" x1="64" x2="337" y1="201.0156" y2="201.0156"/><text fill="#000000" font-family="sans-serif" font-size="13" font-weight="bold" lengthAdjust="spacing" textLength="7" x="71" y="196.1592">3</text><text fill="#000000" font-family="sans-serif" font-size="13" lengthAdjust="spacing" textLength="73" x="82" y="196.1592">answers yes</text><polygon fill="#181818" points="75,227.3672,65,231.3672,75,235.3672,71,231.3672" style="stroke:#181818;stroke-width:1.0;"/><line style="stroke:#181818;stroke-width:1.0;stroke-dasharray:2.0,2.0;" x1="69" x2="347" y1="231.3672" y2="231.3672"/><text fill="#000000" font-family="sans-serif" font-size="13" font-weight="bold" lengthAdjust="spacing" textLength="7" x="81" y="226.5107">4</text><text fill="#000000" font-family="sans-serif" font-size="13" lengthAdjust="spacing" textLength="239" x="92" y="226.5107">asks which filter or filters he wants to use</text><polygon fill="#181818" points="331,257.7188,341,261.7188,331,265.7188,335,261.7188" style="stroke:#181818;stroke-width:1.0;"/><line style="stroke:#181818;stroke-width:1.0;" x1="64" x2="337" y1="261.7188" y2="261.7188"/><text fill="#000000" font-family="sans-serif" font-size="13" font-weight="bold" lengthAdjust="spacing" textLength="7" x="71" y="256.8623">5</text><text fill="#000000" font-family="sans-serif" font-size="13" lengthAdjust="spacing" textLength="150" x="82" y="256.8623">selects one or more filters</text><polygon fill="#181818" points="75,288.0703,65,292.0703,75,296.0703,71,292.0703" style="stroke:#181818;stroke-width:1.0;"/><line style="stroke:#181818;stroke-width:1.0;stroke-dasharray:2.0,2.0;" x1="69" x2="347" y1="292.0703" y2="292.0703"/><text fill="#000000" font-family="sans-serif" font-size="13" font-weight="bold" lengthAdjust="spacing" textLength="7" x="81" y="287.2139">6</text><text fill="#000000" font-family="sans-serif" font-size="13" lengthAdjust="spacing" textLength="187" x="92" y="287.2139">show the product catalog filtered</text><polygon fill="#181818" points="331,318.4219,341,322.4219,331,326.4219,335,322.4219" style="stroke:#181818;stroke-width:1.0;"/><line style="stroke:#181818;stroke-width:1.0;" x1="64" x2="337" y1="322.4219" y2="322.4219"/><text fill="#000000" font-family="sans-serif" font-size="13" font-weight="bold" lengthAdjust="spacing" textLength="7" x="71" y="317.5654">7</text><text fill="#000000" font-family="sans-serif" font-size="13" lengthAdjust="spacing" textLength="78" x="82" y="317.5654">confirms data</text><polygon fill="#181818" points="75,348.7734,65,352.7734,75,356.7734,71,352.7734" style="stroke:#181818;stroke-width:1.0;"/><line style="stroke:#181818;stroke-width:1.0;stroke-dasharray:2.0,2.0;" x1="69" x2="347" y1="352.7734" y2="352.7734"/><text fill="#000000" font-family="sans-serif" font-size="13" font-weight="bold" lengthAdjust="spacing" textLength="7" x="81" y="347.917">8</text><text fill="#000000" font-family="sans-serif" font-size="13" lengthAdjust="spacing" textLength="152" x="92" y="347.917">informs operation success</text><path d="M10,374.7734 L71,374.7734 L71,383.125 L61,393.125 L10,393.125 L10,374.7734 " fill="#EEEEEE" style="stroke:#000000;stroke-width:1.5;"/><rect fill="none" height="139.7578" style="stroke:#000000;stroke-width:1.5;" width="380" x="10" y="374.7734"/><text fill="#000000" font-family="sans-serif" font-size="13" font-weight="bold" lengthAdjust="spacing" textLength="16" x="25" y="389.2686">alt</text><text fill="#000000" font-family="sans-serif" font-size="11" font-weight="bold" lengthAdjust="spacing" textLength="111" x="86" y="388.1924">[if the answer is no]</text><polygon fill="#181818" points="331,411.4766,341,415.4766,331,419.4766,335,415.4766" style="stroke:#181818;stroke-width:1.0;"/><line style="stroke:#181818;stroke-width:1.0;" x1="64" x2="337" y1="415.4766" y2="415.4766"/><text fill="#000000" font-family="sans-serif" font-size="13" font-weight="bold" lengthAdjust="spacing" textLength="7" x="71" y="410.6201">9</text><text fill="#000000" font-family="sans-serif" font-size="13" lengthAdjust="spacing" textLength="66" x="82" y="410.6201">answers no</text><polygon fill="#181818" points="75,441.8281,65,445.8281,75,449.8281,71,445.8281" style="stroke:#181818;stroke-width:1.0;"/><line style="stroke:#181818;stroke-width:1.0;stroke-dasharray:2.0,2.0;" x1="69" x2="347" y1="445.8281" y2="445.8281"/><text fill="#000000" font-family="sans-serif" font-size="13" font-weight="bold" lengthAdjust="spacing" textLength="14" x="81" y="440.9717">10</text><text fill="#000000" font-family="sans-serif" font-size="13" lengthAdjust="spacing" textLength="225" x="99" y="440.9717">show the product catalog without filters</text><polygon fill="#181818" points="331,472.1797,341,476.1797,331,480.1797,335,476.1797" style="stroke:#181818;stroke-width:1.0;"/><line style="stroke:#181818;stroke-width:1.0;" x1="64" x2="337" y1="476.1797" y2="476.1797"/><text fill="#000000" font-family="sans-serif" font-size="13" font-weight="bold" lengthAdjust="spacing" textLength="14" x="71" y="471.3232">11</text><text fill="#000000" font-family="sans-serif" font-size="13" lengthAdjust="spacing" textLength="78" x="89" y="471.3232">confirms data</text><polygon fill="#181818" points="75,502.5313,65,506.5313,75,510.5313,71,506.5313" style="stroke:#181818;stroke-width:1.0;"/><line style="stroke:#181818;stroke-width:1.0;stroke-dasharray:2.0,2.0;" x1="69" x2="347" y1="506.5313" y2="506.5313"/><text fill="#000000" font-family="sans-serif" font-size="13" font-weight="bold" lengthAdjust="spacing" textLength="14" x="81" y="501.6748">12</text><text fill="#000000" font-family="sans-serif" font-size="13" lengthAdjust="spacing" textLength="152" x="99" y="501.6748">informs operation success</text><!--MD5=[f397f84959cf8c19e5af33183f6af3ee]
@startuml
'https://plantuml.com/sequence-diagram

autonumber

Actor "Sales Clerk" as SC
participant ":System" as system

activate SC

SC -> system: Wants to view the product catalog

activate system

system - -> SC: asks if the Sales Clerk wants to use filters

deactivate system

alt if the answer is yes

SC -> system: answers yes

activate system

system - -> SC: asks which filter or filters he wants to use

deactivate system

SC -> system: selects one or more filters

activate system

system - -> SC: show the product catalog filtered

deactivate system

SC -> system: confirms data

activate system

system - -> SC: informs operation success

deactivate system

end

alt if the answer is no

SC -> system: answers no

activate system

system - -> SC: show the product catalog without filters

deactivate system

SC -> system: confirms data

activate system

system - -> SC: informs operation success

deactivate system

end

deactivate SC

@enduml

@startuml

autonumber

Actor "Sales Clerk" as SC
participant ":System" as system

activate SC

SC -> system: Wants to view the product catalog

activate system

system - -> SC: asks if the Sales Clerk wants to use filters

deactivate system

alt if the answer is yes

SC -> system: answers yes

activate system

system - -> SC: asks which filter or filters he wants to use

deactivate system

SC -> system: selects one or more filters

activate system

system - -> SC: show the product catalog filtered

deactivate system

SC -> system: confirms data

activate system

system - -> SC: informs operation success

deactivate system

end

alt if the answer is no

SC -> system: answers no

activate system

system - -> SC: show the product catalog without filters

deactivate system

SC -> system: confirms data

activate system

system - -> SC: informs operation success

deactivate system

end

deactivate SC

@enduml

PlantUML version 1.2022.4(Sat Apr 09 14:29:17 BST 2022)
(GPL source distribution)
Java Runtime: OpenJDK Runtime Environment
JVM: OpenJDK 64-Bit Server VM
Default Encoding: Cp1252
Language: pt
Country: PT
--></g></svg>