<?xml version="1.0" encoding="UTF-8" standalone="no"?><svg xmlns="http://www.w3.org/2000/svg" xmlns:xlink="http://www.w3.org/1999/xlink" contentScriptType="application/ecmascript" contentStyleType="text/css" height="701px" preserveAspectRatio="none" style="width:697px;height:701px;background:#FFFFFF;" version="1.1" viewBox="0 0 697 701" width="697px" zoomAndPan="magnify"><defs><filter height="300%" id="f1kxbe0qj1lutv" width="300%" x="-1" y="-1"><feGaussianBlur result="blurOut" stdDeviation="2.0"/><feColorMatrix in="blurOut" result="blurOut2" type="matrix" values="0 0 0 0 0 0 0 0 0 0 0 0 0 0 0 0 0 0 .4 0"/><feOffset dx="4.0" dy="4.0" in="blurOut2" result="blurOut3"/><feBlend in="SourceGraphic" in2="blurOut3" mode="normal"/></filter></defs><g><!--MD5=[12f71b9d3baf0514c5e38d7f3b9d2b2e]
entity SurveyQuestionnareRepository--><path d="M6,658 C6,648 115,648 115,648 C115,648 224,648 224,658 L224,684.6094 C224,694.6094 115,694.6094 115,694.6094 C115,694.6094 6,694.6094 6,684.6094 L6,658 " fill="#FFFFFF" filter="url(#f1kxbe0qj1lutv)" style="stroke:#000000;stroke-width:1.5;"/><path d="M6,658 C6,668 115,668 115,668 C115,668 224,668 224,658 " fill="none" style="stroke:#000000;stroke-width:1.5;"/><text fill="#000000" font-family="sans-serif" font-size="14" lengthAdjust="spacing" textLength="198" x="16" y="686.5332">SurveyQuestionnareRepository</text><!--MD5=[0f99798558d14458cefa0d4c21ea6378]
entity AnswerQuestionnaireRepository--><path d="M259.5,658 C259.5,648 371,648 371,648 C371,648 482.5,648 482.5,658 L482.5,684.6094 C482.5,694.6094 371,694.6094 371,694.6094 C371,694.6094 259.5,694.6094 259.5,684.6094 L259.5,658 " fill="#FFFFFF" filter="url(#f1kxbe0qj1lutv)" style="stroke:#000000;stroke-width:1.5;"/><path d="M259.5,658 C259.5,668 371,668 371,668 C371,668 482.5,668 482.5,658 " fill="none" style="stroke:#000000;stroke-width:1.5;"/><text fill="#000000" font-family="sans-serif" font-size="14" lengthAdjust="spacing" textLength="203" x="269.5" y="686.5332">AnswerQuestionnaireRepository</text><!--MD5=[b1aca6ef41e0fa1b12d21504c9b9af62]
class GenerateReportUI--><rect codeLine="2" fill="#FEFECE" filter="url(#f1kxbe0qj1lutv)" height="89.5078" id="GenerateReportUI" style="stroke:#A80036;stroke-width:1.5;" width="331" x="292.5" y="7"/><ellipse cx="403.75" cy="23" fill="#ADD1B2" rx="11" ry="11" style="stroke:#A80036;stroke-width:1.0;"/><path d="M405.75,19.5 Q405.9531,19 406.1875,18.75 Q406.4219,18.5 406.6875,18.5 Q407.1563,18.5 407.4531,18.7813 Q407.75,19.0625 407.75,19.7188 L407.75,21.2813 Q407.75,21.9375 407.4688,22.2188 Q407.1875,22.5 406.75,22.5 Q406.3594,22.5 406.1094,22.3281 Q405.8594,22.1563 405.75,21.7031 Q405.7031,21.3906 405.5313,21.2188 Q405.2188,20.8906 404.6563,20.7031 Q404.0938,20.5 403.5313,20.5 Q402.8281,20.5 402.2344,20.7813 Q401.6563,21.0625 401.2031,21.6875 Q400.75,22.3125 400.75,23.1719 L400.75,24.0938 Q400.75,25.125 401.5938,25.8125 Q402.4375,26.5 403.9375,26.5 Q404.8281,26.5 405.4531,26.2969 Q405.8125,26.1875 406.2188,25.8281 Q406.4844,25.625 406.625,25.5625 Q406.7656,25.5 406.9375,25.5 Q407.2656,25.5 407.5,25.7656 Q407.75,26.0156 407.75,26.375 Q407.75,26.7188 407.4063,27.125 Q406.9063,27.7188 406.1094,28.0469 Q405.0625,28.5 403.7813,28.5 Q402.2813,28.5 401.0781,27.9063 Q400.1094,27.4375 399.4219,26.4219 Q398.75,25.4063 398.75,24.2031 L398.75,23.1094 Q398.75,21.8594 399.3438,20.7656 Q399.9531,19.6719 401,19.0938 Q402.0625,18.5 403.25,18.5 Q403.9688,18.5 404.5938,18.75 Q405.2188,19 405.75,19.5 Z " fill="#000000"/><text fill="#000000" font-family="sans-serif" font-size="12" lengthAdjust="spacing" textLength="100" x="424.25" y="27.9102">GenerateReportUI</text><line style="stroke:#A80036;stroke-width:1.5;" x1="293.5" x2="622.5" y1="39" y2="39"/><line style="stroke:#A80036;stroke-width:1.5;" x1="293.5" x2="622.5" y1="47" y2="47"/><ellipse cx="303.5" cy="58" fill="#84BE84" rx="3" ry="3" style="stroke:#038048;stroke-width:1.0;"/><text fill="#000000" font-family="sans-serif" font-size="11" lengthAdjust="spacing" textLength="120" x="312.5" y="62.4189">generateReport(survey);</text><ellipse cx="303.5" cy="71.8359" fill="#84BE84" rx="3" ry="3" style="stroke:#038048;stroke-width:1.0;"/><text fill="#000000" font-family="sans-serif" font-size="11" lengthAdjust="spacing" textLength="120" x="312.5" y="76.2549">extracctSurvey(survey);</text><ellipse cx="303.5" cy="85.6719" fill="#84BE84" rx="3" ry="3" style="stroke:#038048;stroke-width:1.0;"/><text fill="#000000" font-family="sans-serif" font-size="11" lengthAdjust="spacing" textLength="305" x="312.5" y="90.0908">parseSurveyQuestionsWithVisitor(survey, questionsAnswers)</text><!--MD5=[d2625fb2425eaea3b7daa471f6a70da9]
class GenerateReportController--><rect codeLine="8" fill="#FEFECE" filter="url(#f1kxbe0qj1lutv)" height="103.3438" id="GenerateReportController" style="stroke:#A80036;stroke-width:1.5;" width="238" x="213" y="192"/><ellipse cx="256.8" cy="208" fill="#ADD1B2" rx="11" ry="11" style="stroke:#A80036;stroke-width:1.0;"/><path d="M258.8,204.5 Q259.0031,204 259.2375,203.75 Q259.4719,203.5 259.7375,203.5 Q260.2063,203.5 260.5031,203.7813 Q260.8,204.0625 260.8,204.7188 L260.8,206.2813 Q260.8,206.9375 260.5188,207.2188 Q260.2375,207.5 259.8,207.5 Q259.4094,207.5 259.1594,207.3281 Q258.9094,207.1563 258.8,206.7031 Q258.7531,206.3906 258.5813,206.2188 Q258.2688,205.8906 257.7063,205.7031 Q257.1438,205.5 256.5813,205.5 Q255.8781,205.5 255.2844,205.7813 Q254.7063,206.0625 254.2531,206.6875 Q253.8,207.3125 253.8,208.1719 L253.8,209.0938 Q253.8,210.125 254.6438,210.8125 Q255.4875,211.5 256.9875,211.5 Q257.8781,211.5 258.5031,211.2969 Q258.8625,211.1875 259.2688,210.8281 Q259.5344,210.625 259.675,210.5625 Q259.8156,210.5 259.9875,210.5 Q260.3156,210.5 260.55,210.7656 Q260.8,211.0156 260.8,211.375 Q260.8,211.7188 260.4563,212.125 Q259.9563,212.7188 259.1594,213.0469 Q258.1125,213.5 256.8313,213.5 Q255.3313,213.5 254.1281,212.9063 Q253.1594,212.4375 252.4719,211.4219 Q251.8,210.4063 251.8,209.2031 L251.8,208.1094 Q251.8,206.8594 252.3938,205.7656 Q253.0031,204.6719 254.05,204.0938 Q255.1125,203.5 256.3,203.5 Q257.0188,203.5 257.6438,203.75 Q258.2688,204 258.8,204.5 Z " fill="#000000"/><text fill="#000000" font-family="sans-serif" font-size="12" lengthAdjust="spacing" textLength="142" x="277.2" y="212.9102">GenerateReportController</text><line style="stroke:#A80036;stroke-width:1.5;" x1="214" x2="450" y1="224" y2="224"/><line style="stroke:#A80036;stroke-width:1.5;" x1="214" x2="450" y1="232" y2="232"/><ellipse cx="224" cy="243" fill="#84BE84" rx="3" ry="3" style="stroke:#038048;stroke-width:1.0;"/><text fill="#000000" font-family="sans-serif" font-size="11" lengthAdjust="spacing" textLength="39" x="233" y="247.4189">create()</text><ellipse cx="224" cy="256.8359" fill="#84BE84" rx="3" ry="3" style="stroke:#038048;stroke-width:1.0;"/><text fill="#000000" font-family="sans-serif" font-size="11" lengthAdjust="spacing" textLength="212" x="233" y="261.2549">numberOfQuestionnaireResponses(survey)</text><ellipse cx="224" cy="270.6719" fill="#84BE84" rx="3" ry="3" style="stroke:#038048;stroke-width:1.0;"/><text fill="#000000" font-family="sans-serif" font-size="11" lengthAdjust="spacing" textLength="131" x="233" y="275.0908">answeredQuestionnaires()</text><ellipse cx="224" cy="284.5078" fill="#84BE84" rx="3" ry="3" style="stroke:#038048;stroke-width:1.0;"/><text fill="#000000" font-family="sans-serif" font-size="11" lengthAdjust="spacing" textLength="202" x="233" y="288.9268">questionnaireQuestionsAnswers(survey)</text><!--MD5=[e8c189551b7885b999ad7cefb30fc2a3]
class PersistenceContext--><rect codeLine="15" fill="#FEFECE" filter="url(#f1kxbe0qj1lutv)" height="61.8359" id="PersistenceContext" style="stroke:#A80036;stroke-width:1.5;" width="139" x="173.5" y="397"/><ellipse cx="188.5" cy="413" fill="#ADD1B2" rx="11" ry="11" style="stroke:#A80036;stroke-width:1.0;"/><path d="M190.5,409.5 Q190.7031,409 190.9375,408.75 Q191.1719,408.5 191.4375,408.5 Q191.9063,408.5 192.2031,408.7813 Q192.5,409.0625 192.5,409.7188 L192.5,411.2813 Q192.5,411.9375 192.2188,412.2188 Q191.9375,412.5 191.5,412.5 Q191.1094,412.5 190.8594,412.3281 Q190.6094,412.1563 190.5,411.7031 Q190.4531,411.3906 190.2813,411.2188 Q189.9688,410.8906 189.4063,410.7031 Q188.8438,410.5 188.2813,410.5 Q187.5781,410.5 186.9844,410.7813 Q186.4063,411.0625 185.9531,411.6875 Q185.5,412.3125 185.5,413.1719 L185.5,414.0938 Q185.5,415.125 186.3438,415.8125 Q187.1875,416.5 188.6875,416.5 Q189.5781,416.5 190.2031,416.2969 Q190.5625,416.1875 190.9688,415.8281 Q191.2344,415.625 191.375,415.5625 Q191.5156,415.5 191.6875,415.5 Q192.0156,415.5 192.25,415.7656 Q192.5,416.0156 192.5,416.375 Q192.5,416.7188 192.1563,417.125 Q191.6563,417.7188 190.8594,418.0469 Q189.8125,418.5 188.5313,418.5 Q187.0313,418.5 185.8281,417.9063 Q184.8594,417.4375 184.1719,416.4219 Q183.5,415.4063 183.5,414.2031 L183.5,413.1094 Q183.5,411.8594 184.0938,410.7656 Q184.7031,409.6719 185.75,409.0938 Q186.8125,408.5 188,408.5 Q188.7188,408.5 189.3438,408.75 Q189.9688,409 190.5,409.5 Z " fill="#000000"/><text fill="#000000" font-family="sans-serif" font-size="12" lengthAdjust="spacing" textLength="107" x="202.5" y="417.9102">PersistenceContext</text><line style="stroke:#A80036;stroke-width:1.5;" x1="174.5" x2="311.5" y1="429" y2="429"/><line style="stroke:#A80036;stroke-width:1.5;" x1="174.5" x2="311.5" y1="437" y2="437"/><ellipse cx="184.5" cy="448" fill="#84BE84" rx="3" ry="3" style="stroke:#038048;stroke-width:1.0;"/><text fill="#000000" font-family="sans-serif" font-size="11" lengthAdjust="spacing" textLength="65" x="193.5" y="452.4189">repositories()</text><!--MD5=[48590afff58a68e2fcba47824d6f8a11]
class RepositoryFactory--><rect codeLine="19" fill="#FEFECE" filter="url(#f1kxbe0qj1lutv)" height="61.8359" id="RepositoryFactory" style="stroke:#A80036;stroke-width:1.5;" width="130" x="178" y="526"/><ellipse cx="193" cy="542" fill="#ADD1B2" rx="11" ry="11" style="stroke:#A80036;stroke-width:1.0;"/><path d="M195,538.5 Q195.2031,538 195.4375,537.75 Q195.6719,537.5 195.9375,537.5 Q196.4063,537.5 196.7031,537.7813 Q197,538.0625 197,538.7188 L197,540.2813 Q197,540.9375 196.7188,541.2188 Q196.4375,541.5 196,541.5 Q195.6094,541.5 195.3594,541.3281 Q195.1094,541.1563 195,540.7031 Q194.9531,540.3906 194.7813,540.2188 Q194.4688,539.8906 193.9063,539.7031 Q193.3438,539.5 192.7813,539.5 Q192.0781,539.5 191.4844,539.7813 Q190.9063,540.0625 190.4531,540.6875 Q190,541.3125 190,542.1719 L190,543.0938 Q190,544.125 190.8438,544.8125 Q191.6875,545.5 193.1875,545.5 Q194.0781,545.5 194.7031,545.2969 Q195.0625,545.1875 195.4688,544.8281 Q195.7344,544.625 195.875,544.5625 Q196.0156,544.5 196.1875,544.5 Q196.5156,544.5 196.75,544.7656 Q197,545.0156 197,545.375 Q197,545.7188 196.6563,546.125 Q196.1563,546.7188 195.3594,547.0469 Q194.3125,547.5 193.0313,547.5 Q191.5313,547.5 190.3281,546.9063 Q189.3594,546.4375 188.6719,545.4219 Q188,544.4063 188,543.2031 L188,542.1094 Q188,540.8594 188.5938,539.7656 Q189.2031,538.6719 190.25,538.0938 Q191.3125,537.5 192.5,537.5 Q193.2188,537.5 193.8438,537.75 Q194.4688,538 195,538.5 Z " fill="#000000"/><text fill="#000000" font-family="sans-serif" font-size="12" lengthAdjust="spacing" textLength="98" x="207" y="546.9102">RepositoryFactory</text><line style="stroke:#A80036;stroke-width:1.5;" x1="179" x2="307" y1="558" y2="558"/><line style="stroke:#A80036;stroke-width:1.5;" x1="179" x2="307" y1="566" y2="566"/><ellipse cx="189" cy="577" fill="#84BE84" rx="3" ry="3" style="stroke:#038048;stroke-width:1.0;"/><text fill="#000000" font-family="sans-serif" font-size="11" lengthAdjust="spacing" textLength="39" x="198" y="581.4189">create()</text><!--MD5=[288bffab58163169a8d16c57b889bc0c]
class TransactionalContext--><rect codeLine="29" fill="#FEFECE" filter="url(#f1kxbe0qj1lutv)" height="75.6719" id="TransactionalContext" style="stroke:#A80036;stroke-width:1.5;" width="148" x="348" y="390"/><ellipse cx="363" cy="406" fill="#ADD1B2" rx="11" ry="11" style="stroke:#A80036;stroke-width:1.0;"/><path d="M365,402.5 Q365.2031,402 365.4375,401.75 Q365.6719,401.5 365.9375,401.5 Q366.4063,401.5 366.7031,401.7813 Q367,402.0625 367,402.7188 L367,404.2813 Q367,404.9375 366.7188,405.2188 Q366.4375,405.5 366,405.5 Q365.6094,405.5 365.3594,405.3281 Q365.1094,405.1563 365,404.7031 Q364.9531,404.3906 364.7813,404.2188 Q364.4688,403.8906 363.9063,403.7031 Q363.3438,403.5 362.7813,403.5 Q362.0781,403.5 361.4844,403.7813 Q360.9063,404.0625 360.4531,404.6875 Q360,405.3125 360,406.1719 L360,407.0938 Q360,408.125 360.8438,408.8125 Q361.6875,409.5 363.1875,409.5 Q364.0781,409.5 364.7031,409.2969 Q365.0625,409.1875 365.4688,408.8281 Q365.7344,408.625 365.875,408.5625 Q366.0156,408.5 366.1875,408.5 Q366.5156,408.5 366.75,408.7656 Q367,409.0156 367,409.375 Q367,409.7188 366.6563,410.125 Q366.1563,410.7188 365.3594,411.0469 Q364.3125,411.5 363.0313,411.5 Q361.5313,411.5 360.3281,410.9063 Q359.3594,410.4375 358.6719,409.4219 Q358,408.4063 358,407.2031 L358,406.1094 Q358,404.8594 358.5938,403.7656 Q359.2031,402.6719 360.25,402.0938 Q361.3125,401.5 362.5,401.5 Q363.2188,401.5 363.8438,401.75 Q364.4688,402 365,402.5 Z " fill="#000000"/><text fill="#000000" font-family="sans-serif" font-size="12" lengthAdjust="spacing" textLength="116" x="377" y="410.9102">TransactionalContext</text><line style="stroke:#A80036;stroke-width:1.5;" x1="349" x2="495" y1="422" y2="422"/><line style="stroke:#A80036;stroke-width:1.5;" x1="349" x2="495" y1="430" y2="430"/><ellipse cx="359" cy="441" fill="#84BE84" rx="3" ry="3" style="stroke:#038048;stroke-width:1.0;"/><text fill="#000000" font-family="sans-serif" font-size="11" lengthAdjust="spacing" textLength="91" x="368" y="445.4189">beginTransaction()</text><ellipse cx="359" cy="454.8359" fill="#84BE84" rx="3" ry="3" style="stroke:#038048;stroke-width:1.0;"/><text fill="#000000" font-family="sans-serif" font-size="11" lengthAdjust="spacing" textLength="41" x="368" y="459.2549">commit()</text><!--MD5=[b0229cafe28b34f1c916a14108ae6e0e]
class SurveyQuestionsVisitor--><rect codeLine="34" fill="#FEFECE" filter="url(#f1kxbe0qj1lutv)" height="172.5234" id="SurveyQuestionsVisitor" style="stroke:#A80036;stroke-width:1.5;" width="197" x="486.5" y="157"/><ellipse cx="518.6" cy="173" fill="#ADD1B2" rx="11" ry="11" style="stroke:#A80036;stroke-width:1.0;"/><path d="M520.6,169.5 Q520.8031,169 521.0375,168.75 Q521.2719,168.5 521.5375,168.5 Q522.0063,168.5 522.3031,168.7813 Q522.6,169.0625 522.6,169.7188 L522.6,171.2813 Q522.6,171.9375 522.3188,172.2188 Q522.0375,172.5 521.6,172.5 Q521.2094,172.5 520.9594,172.3281 Q520.7094,172.1563 520.6,171.7031 Q520.5531,171.3906 520.3813,171.2188 Q520.0688,170.8906 519.5063,170.7031 Q518.9438,170.5 518.3813,170.5 Q517.6781,170.5 517.0844,170.7813 Q516.5063,171.0625 516.0531,171.6875 Q515.6,172.3125 515.6,173.1719 L515.6,174.0938 Q515.6,175.125 516.4438,175.8125 Q517.2875,176.5 518.7875,176.5 Q519.6781,176.5 520.3031,176.2969 Q520.6625,176.1875 521.0688,175.8281 Q521.3344,175.625 521.475,175.5625 Q521.6156,175.5 521.7875,175.5 Q522.1156,175.5 522.35,175.7656 Q522.6,176.0156 522.6,176.375 Q522.6,176.7188 522.2563,177.125 Q521.7563,177.7188 520.9594,178.0469 Q519.9125,178.5 518.6313,178.5 Q517.1313,178.5 515.9281,177.9063 Q514.9594,177.4375 514.2719,176.4219 Q513.6,175.4063 513.6,174.2031 L513.6,173.1094 Q513.6,171.8594 514.1938,170.7656 Q514.8031,169.6719 515.85,169.0938 Q516.9125,168.5 518.1,168.5 Q518.8188,168.5 519.4438,168.75 Q520.0688,169 520.6,169.5 Z " fill="#000000"/><text fill="#000000" font-family="sans-serif" font-size="12" lengthAdjust="spacing" textLength="127" x="536.4" y="177.9102">SurveyQuestionsVisitor</text><line style="stroke:#A80036;stroke-width:1.5;" x1="487.5" x2="682.5" y1="189" y2="189"/><line style="stroke:#A80036;stroke-width:1.5;" x1="487.5" x2="682.5" y1="197" y2="197"/><ellipse cx="497.5" cy="208" fill="#84BE84" rx="3" ry="3" style="stroke:#038048;stroke-width:1.0;"/><text fill="#000000" font-family="sans-serif" font-size="11" lengthAdjust="spacing" textLength="39" x="506.5" y="212.4189">create()</text><ellipse cx="497.5" cy="221.8359" fill="#84BE84" rx="3" ry="3" style="stroke:#038048;stroke-width:1.0;"/><text fill="#000000" font-family="sans-serif" font-size="11" lengthAdjust="spacing" textLength="88" x="506.5" y="226.2549">visitFree_text(ctx)</text><ellipse cx="497.5" cy="235.6719" fill="#84BE84" rx="3" ry="3" style="stroke:#038048;stroke-width:1.0;"/><text fill="#000000" font-family="sans-serif" font-size="11" lengthAdjust="spacing" textLength="81" x="506.5" y="240.0908">visitNumeric(ctx)</text><ellipse cx="497.5" cy="249.5078" fill="#84BE84" rx="3" ry="3" style="stroke:#038048;stroke-width:1.0;"/><text fill="#000000" font-family="sans-serif" font-size="11" lengthAdjust="spacing" textLength="165" x="506.5" y="253.9268">visitSingle_choice_with_input(ctx)</text><ellipse cx="497.5" cy="263.3438" fill="#84BE84" rx="3" ry="3" style="stroke:#038048;stroke-width:1.0;"/><text fill="#000000" font-family="sans-serif" font-size="11" lengthAdjust="spacing" textLength="109" x="506.5" y="267.7627">visitSingle_choice(ctx)</text><ellipse cx="497.5" cy="277.1797" fill="#84BE84" rx="3" ry="3" style="stroke:#038048;stroke-width:1.0;"/><text fill="#000000" font-family="sans-serif" font-size="11" lengthAdjust="spacing" textLength="115" x="506.5" y="281.5986">visitMultiple_choice(ctx)</text><ellipse cx="497.5" cy="291.0156" fill="#84BE84" rx="3" ry="3" style="stroke:#038048;stroke-width:1.0;"/><text fill="#000000" font-family="sans-serif" font-size="11" lengthAdjust="spacing" textLength="171" x="506.5" y="295.4346">visitMultiple_choice_with_input(ctx)</text><ellipse cx="497.5" cy="304.8516" fill="#84BE84" rx="3" ry="3" style="stroke:#038048;stroke-width:1.0;"/><text fill="#000000" font-family="sans-serif" font-size="11" lengthAdjust="spacing" textLength="111" x="506.5" y="309.2705">visitSorting_option(ctx)</text><ellipse cx="497.5" cy="318.6875" fill="#84BE84" rx="3" ry="3" style="stroke:#038048;stroke-width:1.0;"/><text fill="#000000" font-family="sans-serif" font-size="11" lengthAdjust="spacing" textLength="112" x="506.5" y="323.1064">visitScaling_option(ctx)</text><!--MD5=[d1276f4193269f471aad501e2c3c03bb]
link GenerateReportUI to GenerateReportController--><path codeLine="46" d="M428.46,97.43 C410.5,124.43 387.44,159.12 368.37,187.81 " fill="none" id="GenerateReportUI-to-GenerateReportController" style="stroke:#A80036;stroke-width:1.0;"/><polygon fill="#A80036" points="365.58,191.99,373.8922,186.7072,368.3469,187.8254,367.2287,182.2801,365.58,191.99" style="stroke:#A80036;stroke-width:1.0;"/><!--MD5=[8087d14f8442e7cc65240dd39fb76625]
link GenerateReportUI to SurveyQuestionsVisitor--><path codeLine="47" d="M487.78,97.43 C498.82,113.91 511.78,133.24 524.57,152.33 " fill="none" id="GenerateReportUI-to-SurveyQuestionsVisitor" style="stroke:#A80036;stroke-width:1.0;"/><polygon fill="#A80036" points="527.47,156.65,525.8059,146.9427,524.6965,152.4897,519.1495,151.3803,527.47,156.65" style="stroke:#A80036;stroke-width:1.0;"/><!--MD5=[9218a9a2fbfd87de573571cf4e96a10d]
link GenerateReportController to PersistenceContext--><path codeLine="49" d="M307.21,295.34 C292.14,326.24 273.28,364.9 259.91,392.32 " fill="none" id="GenerateReportController-to-PersistenceContext" style="stroke:#A80036;stroke-width:1.0;"/><polygon fill="#A80036" points="257.65,396.96,265.1802,390.612,259.8345,392.4625,257.9841,387.1168,257.65,396.96" style="stroke:#A80036;stroke-width:1.0;"/><!--MD5=[ab7616e157486d4f60a6ca832bc149de]
link GenerateReportController to TransactionalContext--><path codeLine="50" d="M357.07,295.34 C371.03,323.65 388.21,358.47 401.38,385.19 " fill="none" id="GenerateReportController-to-TransactionalContext" style="stroke:#A80036;stroke-width:1.0;"/><polygon fill="#A80036" points="403.63,389.75,403.2583,379.9082,401.4283,385.2608,396.0756,383.4309,403.63,389.75" style="stroke:#A80036;stroke-width:1.0;"/><!--MD5=[754b775031405e096442b27febffa290]
link PersistenceContext to RepositoryFactory--><path codeLine="52" d="M243,459.1 C243,477.47 243,501.05 243,520.36 " fill="none" id="PersistenceContext-to-RepositoryFactory" style="stroke:#A80036;stroke-width:1.0;"/><polygon fill="#A80036" points="243,525.68,247,516.68,243,520.68,239,516.68,243,525.68" style="stroke:#A80036;stroke-width:1.0;"/><!--MD5=[cbe25ee09372ed4e6bb65e53c6e6ebf4]
link RepositoryFactory to SurveyQuestionnareRepository--><path codeLine="54" d="M208.7,588.15 C188.87,605.57 164.16,627.3 145.09,644.05 " fill="none" id="RepositoryFactory-to-SurveyQuestionnareRepository" style="stroke:#A80036;stroke-width:1.0;"/><polygon fill="#A80036" points="140.86,647.77,150.2554,644.8159,144.6096,644.4624,144.9632,638.8166,140.86,647.77" style="stroke:#A80036;stroke-width:1.0;"/><!--MD5=[2af3db838f3cca45d958218a419092a8]
link RepositoryFactory to AnswerQuestionnaireRepository--><path codeLine="55" d="M277.3,588.15 C297.13,605.57 321.84,627.3 340.91,644.05 " fill="none" id="RepositoryFactory-to-AnswerQuestionnaireRepository" style="stroke:#A80036;stroke-width:1.0;"/><polygon fill="#A80036" points="345.14,647.77,341.0368,638.8166,341.3904,644.4624,335.7446,644.8159,345.14,647.77" style="stroke:#A80036;stroke-width:1.0;"/><!--MD5=[4e6c8e06ff8bd0bbdc8712d425e6fc70]
@startuml

class GenerateReportUI{
+generateReport(survey);
+extracctSurvey(survey);
+parseSurveyQuestionsWithVisitor(survey, questionsAnswers)
}

class GenerateReportController{
+create()
+numberOfQuestionnaireResponses(survey)
+answeredQuestionnaires()
+questionnaireQuestionsAnswers(survey)
}

class PersistenceContext{
+repositories()
}

class RepositoryFactory{
+create()
}

database SurveyQuestionnareRepository{
}

database AnswerQuestionnaireRepository{
}

class TransactionalContext{
+beginTransaction()
+commit()
}

class SurveyQuestionsVisitor{
+create()
+visitFree_text(ctx)
+visitNumeric(ctx)
+visitSingle_choice_with_input(ctx)
+visitSingle_choice(ctx)
+visitMultiple_choice(ctx)
+visitMultiple_choice_with_input(ctx)
+visitSorting_option(ctx)
+visitScaling_option(ctx)
}

GenerateReportUI - -> GenerateReportController
GenerateReportUI - -> SurveyQuestionsVisitor

GenerateReportController - -> PersistenceContext
GenerateReportController - -> TransactionalContext

PersistenceContext - -> RepositoryFactory

RepositoryFactory - -> SurveyQuestionnareRepository
RepositoryFactory - -> AnswerQuestionnaireRepository

@enduml

PlantUML version 1.2021.11(Sat Oct 02 14:26:11 BST 2021)
(GPL source distribution)
Java Runtime: OpenJDK Runtime Environment
JVM: OpenJDK 64-Bit Server VM
Default Encoding: Cp1252
Language: pt
Country: PT
--></g></svg>