<?xml version="1.0" encoding="UTF-8" standalone="no"?><svg xmlns="http://www.w3.org/2000/svg" xmlns:xlink="http://www.w3.org/1999/xlink" contentScriptType="application/ecmascript" contentStyleType="text/css" height="700px" preserveAspectRatio="none" style="width:594px;height:700px;" version="1.1" viewBox="0 0 594 700" width="594px" zoomAndPan="magnify"><defs><filter height="300%" id="f16zhtq3p41897" width="300%" x="-1" y="-1"><feGaussianBlur result="blurOut" stdDeviation="2.0"/><feColorMatrix in="blurOut" result="blurOut2" type="matrix" values="0 0 0 0 0 0 0 0 0 0 0 0 0 0 0 0 0 0 .4 0"/><feOffset dx="4.0" dy="4.0" in="blurOut2" result="blurOut3"/><feBlend in="SourceGraphic" in2="blurOut3" mode="normal"/></filter></defs><g><!--MD5=[dfccfb5894388a46eaa5d679d3ea0882]
entity ClientRepository--><path d="M46.5,657 C46.5,647 108.5,647 108.5,647 C108.5,647 170.5,647 170.5,657 L170.5,683.6094 C170.5,693.6094 108.5,693.6094 108.5,693.6094 C108.5,693.6094 46.5,693.6094 46.5,683.6094 L46.5,657 " fill="#FFFFFF" filter="url(#f16zhtq3p41897)" style="stroke:#000000;stroke-width:1.5;"/><path d="M46.5,657 C46.5,667 108.5,667 108.5,667 C108.5,667 170.5,667 170.5,657 " fill="none" style="stroke:#000000;stroke-width:1.5;"/><text fill="#000000" font-family="sans-serif" font-size="14" lengthAdjust="spacing" textLength="104" x="56.5" y="685.5332">ClientRepository</text><!--MD5=[71152100d89f377ebd8dc97f1c2b0d02]
class RegisterClientUI--><rect codeLine="1" fill="#FEFECE" filter="url(#f16zhtq3p41897)" height="48" id="RegisterClientUI" style="stroke:#A80036;stroke-width:1.5;" width="123" x="192" y="7"/><ellipse cx="207" cy="23" fill="#ADD1B2" rx="11" ry="11" style="stroke:#A80036;stroke-width:1.0;"/><path d="M209,19.5 Q209.2031,19 209.4375,18.75 Q209.6719,18.5 209.9375,18.5 Q210.4063,18.5 210.7031,18.7813 Q211,19.0625 211,19.7188 L211,21.2813 Q211,21.9375 210.7188,22.2188 Q210.4375,22.5 210,22.5 Q209.6094,22.5 209.3594,22.3281 Q209.1094,22.1563 209,21.7031 Q208.9531,21.3906 208.7813,21.2188 Q208.4688,20.8906 207.9063,20.7031 Q207.3438,20.5 206.7813,20.5 Q206.0781,20.5 205.4844,20.7813 Q204.9063,21.0625 204.4531,21.6875 Q204,22.3125 204,23.1719 L204,24.0938 Q204,25.125 204.8438,25.8125 Q205.6875,26.5 207.1875,26.5 Q208.0781,26.5 208.7031,26.2969 Q209.0625,26.1875 209.4688,25.8281 Q209.7344,25.625 209.875,25.5625 Q210.0156,25.5 210.1875,25.5 Q210.5156,25.5 210.75,25.7656 Q211,26.0156 211,26.375 Q211,26.7188 210.6563,27.125 Q210.1563,27.7188 209.3594,28.0469 Q208.3125,28.5 207.0313,28.5 Q205.5313,28.5 204.3281,27.9063 Q203.3594,27.4375 202.6719,26.4219 Q202,25.4063 202,24.2031 L202,23.1094 Q202,21.8594 202.5938,20.7656 Q203.2031,19.6719 204.25,19.0938 Q205.3125,18.5 206.5,18.5 Q207.2188,18.5 207.8438,18.75 Q208.4688,19 209,19.5 Z " fill="#000000"/><text fill="#000000" font-family="sans-serif" font-size="12" lengthAdjust="spacing" textLength="91" x="221" y="27.9102">RegisterClientUI</text><line style="stroke:#A80036;stroke-width:1.5;" x1="193" x2="314" y1="39" y2="39"/><line style="stroke:#A80036;stroke-width:1.5;" x1="193" x2="314" y1="47" y2="47"/><!--MD5=[1a7fda4a36185bcd740bdf14b2b3a45e]
class RegisterClientController--><rect codeLine="4" fill="#FEFECE" filter="url(#f16zhtq3p41897)" height="75.6719" id="RegisterClientController" style="stroke:#A80036;stroke-width:1.5;" width="493" x="7" y="115"/><ellipse cx="182.75" cy="131" fill="#ADD1B2" rx="11" ry="11" style="stroke:#A80036;stroke-width:1.0;"/><path d="M184.75,127.5 Q184.9531,127 185.1875,126.75 Q185.4219,126.5 185.6875,126.5 Q186.1563,126.5 186.4531,126.7813 Q186.75,127.0625 186.75,127.7188 L186.75,129.2813 Q186.75,129.9375 186.4688,130.2188 Q186.1875,130.5 185.75,130.5 Q185.3594,130.5 185.1094,130.3281 Q184.8594,130.1563 184.75,129.7031 Q184.7031,129.3906 184.5313,129.2188 Q184.2188,128.8906 183.6563,128.7031 Q183.0938,128.5 182.5313,128.5 Q181.8281,128.5 181.2344,128.7813 Q180.6563,129.0625 180.2031,129.6875 Q179.75,130.3125 179.75,131.1719 L179.75,132.0938 Q179.75,133.125 180.5938,133.8125 Q181.4375,134.5 182.9375,134.5 Q183.8281,134.5 184.4531,134.2969 Q184.8125,134.1875 185.2188,133.8281 Q185.4844,133.625 185.625,133.5625 Q185.7656,133.5 185.9375,133.5 Q186.2656,133.5 186.5,133.7656 Q186.75,134.0156 186.75,134.375 Q186.75,134.7188 186.4063,135.125 Q185.9063,135.7188 185.1094,136.0469 Q184.0625,136.5 182.7813,136.5 Q181.2813,136.5 180.0781,135.9063 Q179.1094,135.4375 178.4219,134.4219 Q177.75,133.4063 177.75,132.2031 L177.75,131.1094 Q177.75,129.8594 178.3438,128.7656 Q178.9531,127.6719 180,127.0938 Q181.0625,126.5 182.25,126.5 Q182.9688,126.5 183.5938,126.75 Q184.2188,127 184.75,127.5 Z " fill="#000000"/><text fill="#000000" font-family="sans-serif" font-size="12" lengthAdjust="spacing" textLength="133" x="203.25" y="135.9102">RegisterClientController</text><line style="stroke:#A80036;stroke-width:1.5;" x1="8" x2="499" y1="147" y2="147"/><line style="stroke:#A80036;stroke-width:1.5;" x1="8" x2="499" y1="155" y2="155"/><ellipse cx="18" cy="166" fill="#84BE84" rx="3" ry="3" style="stroke:#038048;stroke-width:1.0;"/><text fill="#000000" font-family="sans-serif" font-size="11" lengthAdjust="spacing" textLength="39" x="27" y="170.4189">create()</text><ellipse cx="18" cy="179.8359" fill="#84BE84" rx="3" ry="3" style="stroke:#038048;stroke-width:1.0;"/><text fill="#000000" font-family="sans-serif" font-size="11" lengthAdjust="spacing" textLength="467" x="27" y="184.2549">registerClient(firstnames, surnames, email, phoneNumber,vat, postalAddress, birthDate, gender)}</text><!--MD5=[e8c189551b7885b999ad7cefb30fc2a3]
class PersistenceContext--><rect codeLine="10" fill="#FEFECE" filter="url(#f16zhtq3p41897)" height="61.8359" id="PersistenceContext" style="stroke:#A80036;stroke-width:1.5;" width="139" x="101" y="327"/><ellipse cx="116" cy="343" fill="#ADD1B2" rx="11" ry="11" style="stroke:#A80036;stroke-width:1.0;"/><path d="M118,339.5 Q118.2031,339 118.4375,338.75 Q118.6719,338.5 118.9375,338.5 Q119.4063,338.5 119.7031,338.7813 Q120,339.0625 120,339.7188 L120,341.2813 Q120,341.9375 119.7188,342.2188 Q119.4375,342.5 119,342.5 Q118.6094,342.5 118.3594,342.3281 Q118.1094,342.1563 118,341.7031 Q117.9531,341.3906 117.7813,341.2188 Q117.4688,340.8906 116.9063,340.7031 Q116.3438,340.5 115.7813,340.5 Q115.0781,340.5 114.4844,340.7813 Q113.9063,341.0625 113.4531,341.6875 Q113,342.3125 113,343.1719 L113,344.0938 Q113,345.125 113.8438,345.8125 Q114.6875,346.5 116.1875,346.5 Q117.0781,346.5 117.7031,346.2969 Q118.0625,346.1875 118.4688,345.8281 Q118.7344,345.625 118.875,345.5625 Q119.0156,345.5 119.1875,345.5 Q119.5156,345.5 119.75,345.7656 Q120,346.0156 120,346.375 Q120,346.7188 119.6563,347.125 Q119.1563,347.7188 118.3594,348.0469 Q117.3125,348.5 116.0313,348.5 Q114.5313,348.5 113.3281,347.9063 Q112.3594,347.4375 111.6719,346.4219 Q111,345.4063 111,344.2031 L111,343.1094 Q111,341.8594 111.5938,340.7656 Q112.2031,339.6719 113.25,339.0938 Q114.3125,338.5 115.5,338.5 Q116.2188,338.5 116.8438,338.75 Q117.4688,339 118,339.5 Z " fill="#000000"/><text fill="#000000" font-family="sans-serif" font-size="12" lengthAdjust="spacing" textLength="107" x="130" y="347.9102">PersistenceContext</text><line style="stroke:#A80036;stroke-width:1.5;" x1="102" x2="239" y1="359" y2="359"/><line style="stroke:#A80036;stroke-width:1.5;" x1="102" x2="239" y1="367" y2="367"/><ellipse cx="112" cy="378" fill="#84BE84" rx="3" ry="3" style="stroke:#038048;stroke-width:1.0;"/><text fill="#000000" font-family="sans-serif" font-size="11" lengthAdjust="spacing" textLength="65" x="121" y="382.4189">repositories()</text><!--MD5=[48590afff58a68e2fcba47824d6f8a11]
class RepositoryFactory--><rect codeLine="14" fill="#FEFECE" filter="url(#f16zhtq3p41897)" height="61.8359" id="RepositoryFactory" style="stroke:#A80036;stroke-width:1.5;" width="130" x="103.5" y="525"/><ellipse cx="118.5" cy="541" fill="#ADD1B2" rx="11" ry="11" style="stroke:#A80036;stroke-width:1.0;"/><path d="M120.5,537.5 Q120.7031,537 120.9375,536.75 Q121.1719,536.5 121.4375,536.5 Q121.9063,536.5 122.2031,536.7813 Q122.5,537.0625 122.5,537.7188 L122.5,539.2813 Q122.5,539.9375 122.2188,540.2188 Q121.9375,540.5 121.5,540.5 Q121.1094,540.5 120.8594,540.3281 Q120.6094,540.1563 120.5,539.7031 Q120.4531,539.3906 120.2813,539.2188 Q119.9688,538.8906 119.4063,538.7031 Q118.8438,538.5 118.2813,538.5 Q117.5781,538.5 116.9844,538.7813 Q116.4063,539.0625 115.9531,539.6875 Q115.5,540.3125 115.5,541.1719 L115.5,542.0938 Q115.5,543.125 116.3438,543.8125 Q117.1875,544.5 118.6875,544.5 Q119.5781,544.5 120.2031,544.2969 Q120.5625,544.1875 120.9688,543.8281 Q121.2344,543.625 121.375,543.5625 Q121.5156,543.5 121.6875,543.5 Q122.0156,543.5 122.25,543.7656 Q122.5,544.0156 122.5,544.375 Q122.5,544.7188 122.1563,545.125 Q121.6563,545.7188 120.8594,546.0469 Q119.8125,546.5 118.5313,546.5 Q117.0313,546.5 115.8281,545.9063 Q114.8594,545.4375 114.1719,544.4219 Q113.5,543.4063 113.5,542.2031 L113.5,541.1094 Q113.5,539.8594 114.0938,538.7656 Q114.7031,537.6719 115.75,537.0938 Q116.8125,536.5 118,536.5 Q118.7188,536.5 119.3438,536.75 Q119.9688,537 120.5,537.5 Z " fill="#000000"/><text fill="#000000" font-family="sans-serif" font-size="12" lengthAdjust="spacing" textLength="98" x="132.5" y="545.9102">RepositoryFactory</text><line style="stroke:#A80036;stroke-width:1.5;" x1="104.5" x2="232.5" y1="557" y2="557"/><line style="stroke:#A80036;stroke-width:1.5;" x1="104.5" x2="232.5" y1="565" y2="565"/><ellipse cx="114.5" cy="576" fill="#84BE84" rx="3" ry="3" style="stroke:#038048;stroke-width:1.0;"/><text fill="#000000" font-family="sans-serif" font-size="11" lengthAdjust="spacing" textLength="39" x="123.5" y="580.4189">create()</text><!--MD5=[ed6624c6556d5e7b1bd23032162d20b7]
class Client--><rect codeLine="21" fill="#FEFECE" filter="url(#f16zhtq3p41897)" height="61.8359" id="Client" style="stroke:#A80036;stroke-width:1.5;" width="65" x="304" y="525"/><ellipse cx="319.45" cy="541" fill="#ADD1B2" rx="11" ry="11" style="stroke:#A80036;stroke-width:1.0;"/><path d="M321.45,537.5 Q321.6531,537 321.8875,536.75 Q322.1219,536.5 322.3875,536.5 Q322.8563,536.5 323.1531,536.7813 Q323.45,537.0625 323.45,537.7188 L323.45,539.2813 Q323.45,539.9375 323.1688,540.2188 Q322.8875,540.5 322.45,540.5 Q322.0594,540.5 321.8094,540.3281 Q321.5594,540.1563 321.45,539.7031 Q321.4031,539.3906 321.2313,539.2188 Q320.9188,538.8906 320.3563,538.7031 Q319.7938,538.5 319.2313,538.5 Q318.5281,538.5 317.9344,538.7813 Q317.3563,539.0625 316.9031,539.6875 Q316.45,540.3125 316.45,541.1719 L316.45,542.0938 Q316.45,543.125 317.2938,543.8125 Q318.1375,544.5 319.6375,544.5 Q320.5281,544.5 321.1531,544.2969 Q321.5125,544.1875 321.9188,543.8281 Q322.1844,543.625 322.325,543.5625 Q322.4656,543.5 322.6375,543.5 Q322.9656,543.5 323.2,543.7656 Q323.45,544.0156 323.45,544.375 Q323.45,544.7188 323.1063,545.125 Q322.6063,545.7188 321.8094,546.0469 Q320.7625,546.5 319.4813,546.5 Q317.9813,546.5 316.7781,545.9063 Q315.8094,545.4375 315.1219,544.4219 Q314.45,543.4063 314.45,542.2031 L314.45,541.1094 Q314.45,539.8594 315.0438,538.7656 Q315.6531,537.6719 316.7,537.0938 Q317.7625,536.5 318.95,536.5 Q319.6688,536.5 320.2938,536.75 Q320.9188,537 321.45,537.5 Z " fill="#000000"/><text fill="#000000" font-family="sans-serif" font-size="12" lengthAdjust="spacing" textLength="32" x="333.55" y="545.9102">Client</text><line style="stroke:#A80036;stroke-width:1.5;" x1="305" x2="368" y1="557" y2="557"/><line style="stroke:#A80036;stroke-width:1.5;" x1="305" x2="368" y1="565" y2="565"/><ellipse cx="315" cy="576" fill="#84BE84" rx="3" ry="3" style="stroke:#038048;stroke-width:1.0;"/><text fill="#000000" font-family="sans-serif" font-size="11" lengthAdjust="spacing" textLength="39" x="324" y="580.4189">create()</text><!--MD5=[9f4370a08c17b73d6022f342818566e2]
class ClientBuilder--><rect codeLine="25" fill="#FEFECE" filter="url(#f16zhtq3p41897)" height="214.0313" id="ClientBuilder" style="stroke:#A80036;stroke-width:1.5;" width="122" x="275.5" y="251"/><ellipse cx="299.05" cy="267" fill="#ADD1B2" rx="11" ry="11" style="stroke:#A80036;stroke-width:1.0;"/><path d="M301.05,263.5 Q301.2531,263 301.4875,262.75 Q301.7219,262.5 301.9875,262.5 Q302.4563,262.5 302.7531,262.7813 Q303.05,263.0625 303.05,263.7188 L303.05,265.2813 Q303.05,265.9375 302.7688,266.2188 Q302.4875,266.5 302.05,266.5 Q301.6594,266.5 301.4094,266.3281 Q301.1594,266.1563 301.05,265.7031 Q301.0031,265.3906 300.8313,265.2188 Q300.5188,264.8906 299.9563,264.7031 Q299.3938,264.5 298.8313,264.5 Q298.1281,264.5 297.5344,264.7813 Q296.9563,265.0625 296.5031,265.6875 Q296.05,266.3125 296.05,267.1719 L296.05,268.0938 Q296.05,269.125 296.8938,269.8125 Q297.7375,270.5 299.2375,270.5 Q300.1281,270.5 300.7531,270.2969 Q301.1125,270.1875 301.5188,269.8281 Q301.7844,269.625 301.925,269.5625 Q302.0656,269.5 302.2375,269.5 Q302.5656,269.5 302.8,269.7656 Q303.05,270.0156 303.05,270.375 Q303.05,270.7188 302.7063,271.125 Q302.2063,271.7188 301.4094,272.0469 Q300.3625,272.5 299.0813,272.5 Q297.5813,272.5 296.3781,271.9063 Q295.4094,271.4375 294.7219,270.4219 Q294.05,269.4063 294.05,268.2031 L294.05,267.1094 Q294.05,265.8594 294.6438,264.7656 Q295.2531,263.6719 296.3,263.0938 Q297.3625,262.5 298.55,262.5 Q299.2688,262.5 299.8938,262.75 Q300.5188,263 301.05,263.5 Z " fill="#000000"/><text fill="#000000" font-family="sans-serif" font-size="12" lengthAdjust="spacing" textLength="71" x="314.95" y="271.9102">ClientBuilder</text><line style="stroke:#A80036;stroke-width:1.5;" x1="276.5" x2="396.5" y1="283" y2="283"/><line style="stroke:#A80036;stroke-width:1.5;" x1="276.5" x2="396.5" y1="291" y2="291"/><ellipse cx="286.5" cy="302" fill="#84BE84" rx="3" ry="3" style="stroke:#038048;stroke-width:1.0;"/><text fill="#000000" font-family="sans-serif" font-size="11" lengthAdjust="spacing" textLength="39" x="295.5" y="306.4189">create()</text><ellipse cx="286.5" cy="315.8359" fill="#84BE84" rx="3" ry="3" style="stroke:#038048;stroke-width:1.0;"/><text fill="#000000" font-family="sans-serif" font-size="11" lengthAdjust="spacing" textLength="65" x="295.5" y="320.2549">createClient()</text><ellipse cx="286.5" cy="329.6719" fill="#84BE84" rx="3" ry="3" style="stroke:#038048;stroke-width:1.0;"/><text fill="#000000" font-family="sans-serif" font-size="11" lengthAdjust="spacing" textLength="51" x="295.5" y="334.0908">withVAT()</text><ellipse cx="286.5" cy="343.5078" fill="#84BE84" rx="3" ry="3" style="stroke:#038048;stroke-width:1.0;"/><text fill="#000000" font-family="sans-serif" font-size="11" lengthAdjust="spacing" textLength="53" x="295.5" y="347.9268">withEmail()</text><ellipse cx="286.5" cy="357.3438" fill="#84BE84" rx="3" ry="3" style="stroke:#038048;stroke-width:1.0;"/><text fill="#000000" font-family="sans-serif" font-size="11" lengthAdjust="spacing" textLength="96" x="295.5" y="361.7627">withPhoneNumber()</text><ellipse cx="286.5" cy="371.1797" fill="#84BE84" rx="3" ry="3" style="stroke:#038048;stroke-width:1.0;"/><text fill="#000000" font-family="sans-serif" font-size="11" lengthAdjust="spacing" textLength="40" x="295.5" y="375.5986">named()</text><ellipse cx="286.5" cy="385.0156" fill="#84BE84" rx="3" ry="3" style="stroke:#038048;stroke-width:1.0;"/><text fill="#000000" font-family="sans-serif" font-size="11" lengthAdjust="spacing" textLength="83" x="295.5" y="389.4346">withAddresses()</text><ellipse cx="286.5" cy="398.8516" fill="#84BE84" rx="3" ry="3" style="stroke:#038048;stroke-width:1.0;"/><text fill="#000000" font-family="sans-serif" font-size="11" lengthAdjust="spacing" textLength="71" x="295.5" y="403.2705">withAddress()</text><ellipse cx="286.5" cy="412.6875" fill="#84BE84" rx="3" ry="3" style="stroke:#038048;stroke-width:1.0;"/><text fill="#000000" font-family="sans-serif" font-size="11" lengthAdjust="spacing" textLength="74" x="295.5" y="417.1064">buildOrThrow()</text><ellipse cx="286.5" cy="426.5234" fill="#84BE84" rx="3" ry="3" style="stroke:#038048;stroke-width:1.0;"/><text fill="#000000" font-family="sans-serif" font-size="11" lengthAdjust="spacing" textLength="73" x="295.5" y="430.9424">withBirthDate()</text><ellipse cx="286.5" cy="440.3594" fill="#84BE84" rx="3" ry="3" style="stroke:#038048;stroke-width:1.0;"/><text fill="#000000" font-family="sans-serif" font-size="11" lengthAdjust="spacing" textLength="65" x="295.5" y="444.7783">withGender()</text><ellipse cx="286.5" cy="454.1953" fill="#84BE84" rx="3" ry="3" style="stroke:#038048;stroke-width:1.0;"/><text fill="#000000" font-family="sans-serif" font-size="11" lengthAdjust="spacing" textLength="30" x="295.5" y="458.6143">build()</text><!--MD5=[288bffab58163169a8d16c57b889bc0c]
class TransactionalContext--><rect codeLine="40" fill="#FEFECE" filter="url(#f16zhtq3p41897)" height="75.6719" id="TransactionalContext" style="stroke:#A80036;stroke-width:1.5;" width="148" x="432.5" y="320"/><ellipse cx="447.5" cy="336" fill="#ADD1B2" rx="11" ry="11" style="stroke:#A80036;stroke-width:1.0;"/><path d="M449.5,332.5 Q449.7031,332 449.9375,331.75 Q450.1719,331.5 450.4375,331.5 Q450.9063,331.5 451.2031,331.7813 Q451.5,332.0625 451.5,332.7188 L451.5,334.2813 Q451.5,334.9375 451.2188,335.2188 Q450.9375,335.5 450.5,335.5 Q450.1094,335.5 449.8594,335.3281 Q449.6094,335.1563 449.5,334.7031 Q449.4531,334.3906 449.2813,334.2188 Q448.9688,333.8906 448.4063,333.7031 Q447.8438,333.5 447.2813,333.5 Q446.5781,333.5 445.9844,333.7813 Q445.4063,334.0625 444.9531,334.6875 Q444.5,335.3125 444.5,336.1719 L444.5,337.0938 Q444.5,338.125 445.3438,338.8125 Q446.1875,339.5 447.6875,339.5 Q448.5781,339.5 449.2031,339.2969 Q449.5625,339.1875 449.9688,338.8281 Q450.2344,338.625 450.375,338.5625 Q450.5156,338.5 450.6875,338.5 Q451.0156,338.5 451.25,338.7656 Q451.5,339.0156 451.5,339.375 Q451.5,339.7188 451.1563,340.125 Q450.6563,340.7188 449.8594,341.0469 Q448.8125,341.5 447.5313,341.5 Q446.0313,341.5 444.8281,340.9063 Q443.8594,340.4375 443.1719,339.4219 Q442.5,338.4063 442.5,337.2031 L442.5,336.1094 Q442.5,334.8594 443.0938,333.7656 Q443.7031,332.6719 444.75,332.0938 Q445.8125,331.5 447,331.5 Q447.7188,331.5 448.3438,331.75 Q448.9688,332 449.5,332.5 Z " fill="#000000"/><text fill="#000000" font-family="sans-serif" font-size="12" lengthAdjust="spacing" textLength="116" x="461.5" y="340.9102">TransactionalContext</text><line style="stroke:#A80036;stroke-width:1.5;" x1="433.5" x2="579.5" y1="352" y2="352"/><line style="stroke:#A80036;stroke-width:1.5;" x1="433.5" x2="579.5" y1="360" y2="360"/><ellipse cx="443.5" cy="371" fill="#84BE84" rx="3" ry="3" style="stroke:#038048;stroke-width:1.0;"/><text fill="#000000" font-family="sans-serif" font-size="11" lengthAdjust="spacing" textLength="91" x="452.5" y="375.4189">beginTransaction()</text><ellipse cx="443.5" cy="384.8359" fill="#84BE84" rx="3" ry="3" style="stroke:#038048;stroke-width:1.0;"/><text fill="#000000" font-family="sans-serif" font-size="11" lengthAdjust="spacing" textLength="41" x="452.5" y="389.2549">commit()</text><!--MD5=[98d2d934d445daef8d5bcbeea20c1f70]
link RegisterClientUI to RegisterClientController--><path codeLine="46" d="M253.5,55.14 C253.5,70.58 253.5,91.33 253.5,109.67 " fill="none" id="RegisterClientUI-to-RegisterClientController" style="stroke:#A80036;stroke-width:1.0;"/><polygon fill="#A80036" points="253.5,114.77,257.5,105.77,253.5,109.77,249.5,105.77,253.5,114.77" style="stroke:#A80036;stroke-width:1.0;"/><!--MD5=[5081d4e448db8b8cb1d0ca0a7becc4bf]
link RegisterClientController to ClientBuilder--><path codeLine="48" d="M268.72,191.23 C275.18,207.02 283.08,226.34 291.17,246.13 " fill="none" id="RegisterClientController-to-ClientBuilder" style="stroke:#A80036;stroke-width:1.0;"/><polygon fill="#A80036" points="293.12,250.9,293.4287,241.056,291.2335,246.2695,286.02,244.0744,293.12,250.9" style="stroke:#A80036;stroke-width:1.0;"/><!--MD5=[e8079491a6e8ae6a03c4a3346b264e99]
link RegisterClientController to PersistenceContext--><path codeLine="49" d="M238.28,191.23 C223,228.59 199.66,285.67 184.75,322.15 " fill="none" id="RegisterClientController-to-PersistenceContext" style="stroke:#A80036;stroke-width:1.0;"/><polygon fill="#A80036" points="182.79,326.94,189.9081,320.1332,184.6887,322.3145,182.5073,317.0952,182.79,326.94" style="stroke:#A80036;stroke-width:1.0;"/><!--MD5=[5c0e0e5c4aeb1089221a7a8f0f2aad6a]
link RegisterClientController to TransactionalContext--><path codeLine="50" d="M325.67,191.03 C354.66,207.51 387.52,228.32 414.5,251 C437.14,270.04 459,294.86 475.73,315.7 " fill="none" id="RegisterClientController-to-TransactionalContext" style="stroke:#A80036;stroke-width:1.0;"/><polygon fill="#A80036" points="479,319.81,476.5097,310.2812,475.88,315.9029,470.2583,315.2731,479,319.81" style="stroke:#A80036;stroke-width:1.0;"/><!--MD5=[a0584be5259757c605c5c63f81a157d7]
link RegisterClientController to ClientRepository--><path codeLine="51" d="M149.36,191.09 C123.3,205.6 98.52,225.14 83.5,251 C8.54,380.08 69.72,570.92 97.03,641.73 " fill="none" id="RegisterClientController-to-ClientRepository" style="stroke:#A80036;stroke-width:1.0;"/><polygon fill="#A80036" points="98.93,646.62,99.3902,636.7819,97.115,641.9611,91.9359,639.6859,98.93,646.62" style="stroke:#A80036;stroke-width:1.0;"/><!--MD5=[8c440798e6cc41a7fca2b3bfdfdce304]
link ClientBuilder to Client--><path codeLine="53" d="M336.5,465.03 C336.5,484.8 336.5,504.14 336.5,519.78 " fill="none" id="ClientBuilder-to-Client" style="stroke:#A80036;stroke-width:1.0;"/><polygon fill="#A80036" points="336.5,524.94,340.5257,515.9515,336.5143,519.94,332.5257,515.9286,336.5,524.94" style="stroke:#A80036;stroke-width:1.0;"/><!--MD5=[754b775031405e096442b27febffa290]
link PersistenceContext to RepositoryFactory--><path codeLine="55" d="M170.19,389.2 C169.83,424.3 169.24,482.18 168.86,519.43 " fill="none" id="PersistenceContext-to-RepositoryFactory" style="stroke:#A80036;stroke-width:1.0;"/><polygon fill="#A80036" points="168.81,524.77,172.9126,515.8163,168.8671,519.7703,164.9131,515.7249,168.81,524.77" style="stroke:#A80036;stroke-width:1.0;"/><!--MD5=[7e98ba641e2771e3efc9b333390cc0aa]
link RepositoryFactory to ClientRepository--><path codeLine="57" d="M152.42,587.15 C143.28,604.28 131.93,625.57 123.06,642.21 " fill="none" id="RepositoryFactory-to-ClientRepository" style="stroke:#A80036;stroke-width:1.0;"/><polygon fill="#A80036" points="120.62,646.77,128.3878,640.7151,122.9752,642.3594,121.3308,636.9468,120.62,646.77" style="stroke:#A80036;stroke-width:1.0;"/><!--MD5=[8ffc5eb84d2fd29474b72ae547ced4f1]
@startuml
class RegisterClientUI{
}

class RegisterClientController{
+create()
+registerClient(firstnames, surnames, email, phoneNumber,vat, postalAddress, birthDate, gender)}
}


class PersistenceContext{
+repositories()
}

class RepositoryFactory{
+create()
}

database ClientRepository{
}

class Client{
+create()
}

class ClientBuilder{
+create()
+createClient()
+withVAT()
+withEmail()
+withPhoneNumber()
+named()
+withAddresses()
+withAddress()
+buildOrThrow()
+withBirthDate()
+withGender()
+build()
}

class TransactionalContext{
+beginTransaction()
+commit()
}


RegisterClientUI - -> RegisterClientController

RegisterClientController- ->ClientBuilder
RegisterClientController - ->PersistenceContext
RegisterClientController - ->TransactionalContext
RegisterClientController- ->ClientRepository

ClientBuilder - -> Client

PersistenceContext - ->RepositoryFactory

RepositoryFactory - ->ClientRepository

@enduml

PlantUML version 1.2021.4(Sun Apr 04 09:49:39 BST 2021)
(GPL source distribution)
Java Runtime: OpenJDK Runtime Environment
JVM: OpenJDK 64-Bit Server VM
Default Encoding: Cp1252
Language: pt
Country: PT
--></g></svg>