<?xml version="1.0" encoding="UTF-8" standalone="no"?><svg xmlns="http://www.w3.org/2000/svg" xmlns:xlink="http://www.w3.org/1999/xlink" contentStyleType="text/css" height="1232px" preserveAspectRatio="none" style="width:947px;height:1232px;background:#FFFFFF;" version="1.1" viewBox="0 0 947 1232" width="947px" zoomAndPan="magnify"><defs/><g><!--MD5=[22b4f80a245276e25c9cb3ee67d19758]
cluster <<aggregate>> AGV--><g id="cluster_&lt;&lt;aggregate&gt;&gt; AGV"><path d="M299.5,6 L437.5,6 A3.75,3.75 0 0 1 440,8.5 L447,29.6094 L486.5,29.6094 A2.5,2.5 0 0 1 489,32.1094 L489,355.5 A2.5,2.5 0 0 1 486.5,358 L299.5,358 A2.5,2.5 0 0 1 297,355.5 L297,8.5 A2.5,2.5 0 0 1 299.5,6 " style="stroke:#000000;stroke-width:1.5;fill:none;"/><line style="stroke:#000000;stroke-width:1.5;fill:none;" x1="297" x2="447" y1="29.6094" y2="29.6094"/><text fill="#000000" font-family="sans-serif" font-size="14" font-weight="bold" lengthAdjust="spacing" textLength="137" x="301" y="22.5332">&lt;&lt;aggregate&gt;&gt; AGV</text></g><!--MD5=[89a40d3b9877e2c9c1ba7f6f50c24be4]
cluster <<aggregate>> AGVDock--><g id="cluster_&lt;&lt;aggregate&gt;&gt; AGVDock"><path d="M527.5,515 L700.5,515 A3.75,3.75 0 0 1 703,517.5 L710,538.6094 L744.5,538.6094 A2.5,2.5 0 0 1 747,541.1094 L747,726.5 A2.5,2.5 0 0 1 744.5,729 L527.5,729 A2.5,2.5 0 0 1 525,726.5 L525,517.5 A2.5,2.5 0 0 1 527.5,515 " style="stroke:#000000;stroke-width:1.5;fill:none;"/><line style="stroke:#000000;stroke-width:1.5;fill:none;" x1="525" x2="710" y1="538.6094" y2="538.6094"/><text fill="#000000" font-family="sans-serif" font-size="14" font-weight="bold" lengthAdjust="spacing" textLength="172" x="529" y="531.5332">&lt;&lt;aggregate&gt;&gt; AGVDock</text></g><!--MD5=[9dd4458791199fa45785259e7581e7a7]
cluster <<aggregate>> Order--><g id="cluster_&lt;&lt;aggregate&gt;&gt; Order"><path d="M8.5,762 L158.5,762 A3.75,3.75 0 0 1 161,764.5 L168,785.6094 L766.5,785.6094 A2.5,2.5 0 0 1 769,788.1094 L769,1223 A2.5,2.5 0 0 1 766.5,1225.5 L8.5,1225.5 A2.5,2.5 0 0 1 6,1223 L6,764.5 A2.5,2.5 0 0 1 8.5,762 " style="stroke:#000000;stroke-width:1.5;fill:none;"/><line style="stroke:#000000;stroke-width:1.5;fill:none;" x1="6" x2="168" y1="785.6094" y2="785.6094"/><text fill="#000000" font-family="sans-serif" font-size="14" font-weight="bold" lengthAdjust="spacing" textLength="149" x="10" y="778.5332">&lt;&lt;aggregate&gt;&gt; Order</text></g><!--MD5=[25f907a8c0a5ee29f7fd0ca541600fab]
cluster <<aggragte>> Task--><g id="cluster_&lt;&lt;aggragte&gt;&gt; Task"><path d="M795.5,1112 L927.5,1112 A3.75,3.75 0 0 1 930,1114.5 L937,1135.6094 L937.5,1135.6094 A2.5,2.5 0 0 1 940,1138.1094 L940,1201.5 A2.5,2.5 0 0 1 937.5,1204 L795.5,1204 A2.5,2.5 0 0 1 793,1201.5 L793,1114.5 A2.5,2.5 0 0 1 795.5,1112 " style="stroke:#000000;stroke-width:1.5;fill:none;"/><line style="stroke:#000000;stroke-width:1.5;fill:none;" x1="793" x2="937" y1="1135.6094" y2="1135.6094"/><text fill="#000000" font-family="sans-serif" font-size="14" font-weight="bold" lengthAdjust="spacing" textLength="131" x="797" y="1128.5332">&lt;&lt;aggragte&gt;&gt; Task</text></g><!--MD5=[53b2c06ade5903185ca3326dce80e141]
class AGV--><g id="elem_AGV"><rect codeLine="28" fill="#F5F5DC" height="126.625" id="AGV" rx="2.5" ry="2.5" style="stroke:#181818;stroke-width:0.5;" width="160" x="313" y="42"/><ellipse cx="369.25" cy="70.8984" fill="#ADD1B2" rx="11" ry="11" style="stroke:#181818;stroke-width:1.0;"/><path d="M367.75,71.8984 L367.75,73.8984 L371.75,73.8984 L371.75,72.8984 L371.75,72.4141 L372.375,71.8984 L372.75,71.8984 L373.125,71.8984 L373.75,72.4141 L373.75,72.8984 L373.75,75.8984 L365.75,75.8984 L365.2656,75.8984 L364.75,75.2734 L364.75,74.8984 L364.75,74.5234 L365.2656,73.8984 L365.75,73.8984 L365.75,73.8984 L365.75,67.8984 L365.75,67.8984 L365.2656,67.8984 L364.75,67.2734 L364.75,66.8984 L364.75,66.5234 L365.2656,65.8984 L365.75,65.8984 L373.75,65.8984 L373.75,68.8984 L373.75,69.3828 L373.125,69.8984 L372.75,69.8984 L372.375,69.8984 L371.75,69.3828 L371.75,68.8984 L371.75,67.8984 L367.75,67.8984 L367.75,69.8984 L368.75,69.8984 L368.75,69.4141 L368.75,69.4141 L369.375,68.8984 L369.75,68.8984 L370.125,68.8984 L370.75,69.4141 L370.75,69.8984 L370.75,71.8984 L370.75,72.3828 L370.125,72.8984 L370.125,72.8984 L369.75,72.8984 L369.375,72.8984 L368.75,72.3828 L368.75,72.3828 L368.75,71.8984 L367.75,71.8984 Z " fill="#000000"/><text fill="#000000" font-family="sans-serif" font-size="12" font-style="italic" lengthAdjust="spacing" textLength="43" x="387.75" y="59.457">«entity»</text><text fill="#000000" font-family="sans-serif" font-size="12" font-style="italic" lengthAdjust="spacing" textLength="35" x="391.75" y="74.5508">«root»</text><text fill="#000000" font-family="sans-serif" font-size="14" lengthAdjust="spacing" textLength="29" x="394.75" y="91.7207">AGV</text><line style="stroke:#181818;stroke-width:0.5;" x1="314" x2="472" y1="99.7969" y2="99.7969"/><text fill="#000000" font-family="sans-serif" font-size="14" lengthAdjust="spacing" textLength="82" x="319" y="118.3301">-«VO» AgvID</text><text fill="#000000" font-family="sans-serif" font-size="14" lengthAdjust="spacing" textLength="148" x="319" y="135.9395">-«VO» AutonomyStatus</text><text fill="#000000" font-family="sans-serif" font-size="14" lengthAdjust="spacing" textLength="116" x="319" y="153.5488">-«VO» TaskStatus</text><line style="stroke:#181818;stroke-width:0.5;" x1="314" x2="472" y1="160.625" y2="160.625"/></g><!--MD5=[7e20e022571e30ec1001cf6eabd7f3e2]
class Model--><g id="elem_Model"><rect codeLine="63" fill="#F5F5DC" height="111.5313" id="Model" rx="2.5" ry="2.5" style="stroke:#181818;stroke-width:0.5;" width="122" x="313" y="230"/><ellipse cx="333.85" cy="251.3516" fill="#FF8B40" rx="11" ry="11" style="stroke:#A80036;stroke-width:1.0;"/><path d="M333.85,254.6328 L335.3813,249.1016 L335.3813,249.1016 L334.8656,249.1016 L334.35,248.4766 L334.35,248.1016 L334.35,247.7266 L334.8656,247.1016 L335.3813,247.1016 L337.2563,247.1016 L337.8344,247.1016 L338.35,247.7266 L338.35,248.1016 L338.35,248.4766 L337.8344,249.1016 L337.8344,249.1016 L337.3813,249.1016 L335.0375,257.1016 L332.6625,257.1016 L330.1938,249.1016 L329.8656,249.1016 L329.8656,249.1016 L329.35,248.4766 L329.35,248.1016 L329.35,247.7266 L329.8656,247.1016 L330.4438,247.1016 L332.3188,247.1016 L332.8344,247.1016 L333.35,247.7266 L333.35,248.1016 L333.35,248.4766 L332.8344,249.1016 L332.3188,249.1016 L332.3188,249.1016 L333.85,254.6328 Z " fill="#000000"/><text fill="#000000" font-family="sans-serif" font-size="12" font-style="italic" lengthAdjust="spacing" textLength="81" x="347.15" y="247.457">«value object»</text><text fill="#000000" font-family="sans-serif" font-size="14" lengthAdjust="spacing" textLength="38" x="368.65" y="264.627">Model</text><line style="stroke:#181818;stroke-width:0.5;" x1="314" x2="434" y1="272.7031" y2="272.7031"/><text fill="#000000" font-family="sans-serif" font-size="14" lengthAdjust="spacing" textLength="56" x="319" y="291.2363">-ModelID</text><text fill="#000000" font-family="sans-serif" font-size="14" lengthAdjust="spacing" textLength="110" x="319" y="308.8457">-ShortDescription</text><text fill="#000000" font-family="sans-serif" font-size="14" lengthAdjust="spacing" textLength="74" x="319" y="326.4551">-MaxWeight</text><line style="stroke:#181818;stroke-width:0.5;" x1="314" x2="434" y1="333.5313" y2="333.5313"/></g><!--MD5=[6c8d26f6d50c9b5da41494faa6136af8]
class AGVDock--><g id="elem_AGVDock"><rect codeLine="38" fill="#F5F5DC" height="161.8438" id="AGVDock" rx="2.5" ry="2.5" style="stroke:#181818;stroke-width:0.5;" width="189" x="541.5" y="551"/><ellipse cx="601.25" cy="579.8984" fill="#ADD1B2" rx="11" ry="11" style="stroke:#181818;stroke-width:1.0;"/><path d="M599.75,580.8984 L599.75,582.8984 L603.75,582.8984 L603.75,581.8984 L603.75,581.4141 L604.375,580.8984 L604.75,580.8984 L605.125,580.8984 L605.75,581.4141 L605.75,581.8984 L605.75,584.8984 L597.75,584.8984 L597.2656,584.8984 L596.75,584.2734 L596.75,583.8984 L596.75,583.5234 L597.2656,582.8984 L597.75,582.8984 L597.75,582.8984 L597.75,576.8984 L597.75,576.8984 L597.2656,576.8984 L596.75,576.2734 L596.75,575.8984 L596.75,575.5234 L597.2656,574.8984 L597.75,574.8984 L605.75,574.8984 L605.75,577.8984 L605.75,578.3828 L605.125,578.8984 L604.75,578.8984 L604.375,578.8984 L603.75,578.3828 L603.75,577.8984 L603.75,576.8984 L599.75,576.8984 L599.75,578.8984 L600.75,578.8984 L600.75,578.4141 L600.75,578.4141 L601.375,577.8984 L601.75,577.8984 L602.125,577.8984 L602.75,578.4141 L602.75,578.8984 L602.75,580.8984 L602.75,581.3828 L602.125,581.8984 L602.125,581.8984 L601.75,581.8984 L601.375,581.8984 L600.75,581.3828 L600.75,581.3828 L600.75,580.8984 L599.75,580.8984 Z " fill="#000000"/><text fill="#000000" font-family="sans-serif" font-size="12" font-style="italic" lengthAdjust="spacing" textLength="43" x="630.75" y="568.457">«entity»</text><text fill="#000000" font-family="sans-serif" font-size="12" font-style="italic" lengthAdjust="spacing" textLength="35" x="634.75" y="583.5508">«root»</text><text fill="#000000" font-family="sans-serif" font-size="14" lengthAdjust="spacing" textLength="61" x="621.75" y="600.7207">AGVDock</text><line style="stroke:#181818;stroke-width:0.5;" x1="542.5" x2="729.5" y1="608.7969" y2="608.7969"/><text fill="#000000" font-family="sans-serif" font-size="14" lengthAdjust="spacing" textLength="90" x="547.5" y="627.3301">-«VO» DockID</text><text fill="#000000" font-family="sans-serif" font-size="14" lengthAdjust="spacing" textLength="127" x="547.5" y="644.9395">-«VO» BeginSquare</text><text fill="#000000" font-family="sans-serif" font-size="14" lengthAdjust="spacing" textLength="116" x="547.5" y="662.5488">-«VO» EndSquare</text><text fill="#000000" font-family="sans-serif" font-size="14" lengthAdjust="spacing" textLength="129" x="547.5" y="680.1582">-«VO» DepthSquare</text><text fill="#000000" font-family="sans-serif" font-size="14" lengthAdjust="spacing" textLength="177" x="547.5" y="697.7676">-«VO» AccessibilityDirection</text><line style="stroke:#181818;stroke-width:0.5;" x1="542.5" x2="729.5" y1="704.8438" y2="704.8438"/></g><!--MD5=[cf4d6237fcae255cd2e1656cf84a30e2]
class Order--><g id="elem_Order"><rect codeLine="46" fill="#F5F5DC" height="249.8906" id="Order" rx="2.5" ry="2.5" style="stroke:#181818;stroke-width:0.5;" width="223" x="319.5" y="798"/><ellipse cx="407.25" cy="826.8984" fill="#ADD1B2" rx="11" ry="11" style="stroke:#181818;stroke-width:1.0;"/><path d="M405.75,827.8984 L405.75,829.8984 L409.75,829.8984 L409.75,828.8984 L409.75,828.4141 L410.375,827.8984 L410.75,827.8984 L411.125,827.8984 L411.75,828.4141 L411.75,828.8984 L411.75,831.8984 L403.75,831.8984 L403.2656,831.8984 L402.75,831.2734 L402.75,830.8984 L402.75,830.5234 L403.2656,829.8984 L403.75,829.8984 L403.75,829.8984 L403.75,823.8984 L403.75,823.8984 L403.2656,823.8984 L402.75,823.2734 L402.75,822.8984 L402.75,822.5234 L403.2656,821.8984 L403.75,821.8984 L411.75,821.8984 L411.75,824.8984 L411.75,825.3828 L411.125,825.8984 L410.75,825.8984 L410.375,825.8984 L409.75,825.3828 L409.75,824.8984 L409.75,823.8984 L405.75,823.8984 L405.75,825.8984 L406.75,825.8984 L406.75,825.4141 L406.75,825.4141 L407.375,824.8984 L407.75,824.8984 L408.125,824.8984 L408.75,825.4141 L408.75,825.8984 L408.75,827.8984 L408.75,828.3828 L408.125,828.8984 L408.125,828.8984 L407.75,828.8984 L407.375,828.8984 L406.75,828.3828 L406.75,828.3828 L406.75,827.8984 L405.75,827.8984 Z " fill="#000000"/><text fill="#000000" font-family="sans-serif" font-size="12" font-style="italic" lengthAdjust="spacing" textLength="43" x="425.75" y="815.457">«entity»</text><text fill="#000000" font-family="sans-serif" font-size="12" font-style="italic" lengthAdjust="spacing" textLength="35" x="429.75" y="830.5508">«root»</text><text fill="#000000" font-family="sans-serif" font-size="14" lengthAdjust="spacing" textLength="37" x="428.75" y="847.7207">Order</text><line style="stroke:#181818;stroke-width:0.5;" x1="320.5" x2="541.5" y1="855.7969" y2="855.7969"/><text fill="#000000" font-family="sans-serif" font-size="14" lengthAdjust="spacing" textLength="93" x="325.5" y="874.3301">-«VO» OrderId</text><text fill="#000000" font-family="sans-serif" font-size="14" lengthAdjust="spacing" textLength="106" x="325.5" y="891.9395">-«VO» DateTime</text><text fill="#000000" font-family="sans-serif" font-size="14" lengthAdjust="spacing" textLength="134" x="325.5" y="909.5488">-«VO» BillingAddress</text><text fill="#000000" font-family="sans-serif" font-size="14" lengthAdjust="spacing" textLength="148" x="325.5" y="927.1582">-«VO» DeliveryAddress</text><text fill="#000000" font-family="sans-serif" font-size="14" lengthAdjust="spacing" textLength="211" x="325.5" y="944.7676">-«VO» TotalAmountWithoutTaxes</text><text fill="#000000" font-family="sans-serif" font-size="14" lengthAdjust="spacing" textLength="191" x="325.5" y="962.377">-«VO» TotalAmountWithTaxes</text><text fill="#000000" font-family="sans-serif" font-size="14" lengthAdjust="spacing" textLength="121" x="325.5" y="979.9863">-«VO» TotalWeight</text><text fill="#000000" font-family="sans-serif" font-size="14" lengthAdjust="spacing" textLength="124" x="325.5" y="997.5957">-«VO» TotalVolume</text><text fill="#000000" font-family="sans-serif" font-size="14" lengthAdjust="spacing" textLength="102" x="325.5" y="1015.2051">-«VO» Operator</text><text fill="#000000" font-family="sans-serif" font-size="14" lengthAdjust="spacing" textLength="85" x="325.5" y="1032.8145">-«VO» Status</text><line style="stroke:#181818;stroke-width:0.5;" x1="320.5" x2="541.5" y1="1039.8906" y2="1039.8906"/></g><!--MD5=[962bf8d17154efae8864e2ec046f4b93]
class Shipment--><g id="elem_Shipment"><rect codeLine="73" fill="#F5F5DC" height="83.2188" id="Shipment" rx="2.5" ry="2.5" style="stroke:#181818;stroke-width:0.5;" width="91" x="22.5" y="1126.5"/><ellipse cx="37.5" cy="1142.5" fill="#EB937F" rx="11" ry="11" style="stroke:#181818;stroke-width:1.0;"/><path d="M36,1143.5 L36,1145.5 L40,1145.5 L40,1144.5 L40,1144.0156 L40.625,1143.5 L41,1143.5 L41.375,1143.5 L42,1144.0156 L42,1144.5 L42,1147.5 L34,1147.5 L33.5156,1147.5 L33,1146.875 L33,1146.5 L33,1146.125 L33.5156,1145.5 L34,1145.5 L34,1145.5 L34,1139.5 L34,1139.5 L33.5156,1139.5 L33,1138.875 L33,1138.5 L33,1138.125 L33.5156,1137.5 L34,1137.5 L42,1137.5 L42,1140.5 L42,1140.9844 L41.375,1141.5 L41,1141.5 L40.625,1141.5 L40,1140.9844 L40,1140.5 L40,1139.5 L36,1139.5 L36,1141.5 L37,1141.5 L37,1141.0156 L37,1141.0156 L37.625,1140.5 L38,1140.5 L38.375,1140.5 L39,1141.0156 L39,1141.5 L39,1143.5 L39,1143.9844 L38.375,1144.5 L38.375,1144.5 L38,1144.5 L37.625,1144.5 L37,1143.9844 L37,1143.9844 L37,1143.5 L36,1143.5 Z " fill="#000000"/><text fill="#000000" font-family="sans-serif" font-size="14" lengthAdjust="spacing" textLength="59" x="51.5" y="1148.2285">Shipment</text><line style="stroke:#181818;stroke-width:0.5;" x1="23.5" x2="112.5" y1="1158.5" y2="1158.5"/><text fill="#000000" font-family="sans-serif" font-size="14" lengthAdjust="spacing" textLength="52" x="28.5" y="1177.0332">-method</text><text fill="#000000" font-family="sans-serif" font-size="14" lengthAdjust="spacing" textLength="31" x="28.5" y="1194.6426">-cost</text><line style="stroke:#181818;stroke-width:0.5;" x1="23.5" x2="112.5" y1="1201.7188" y2="1201.7188"/></g><!--MD5=[764fca796ce7f635542948d8fc39db5e]
class Payment--><g id="elem_Payment"><rect codeLine="78" fill="#F5F5DC" height="83.2188" id="Payment" rx="2.5" ry="2.5" style="stroke:#181818;stroke-width:0.5;" width="87" x="148.5" y="1126.5"/><ellipse cx="163.5" cy="1142.5" fill="#EB937F" rx="11" ry="11" style="stroke:#181818;stroke-width:1.0;"/><path d="M162,1143.5 L162,1145.5 L166,1145.5 L166,1144.5 L166,1144.0156 L166.625,1143.5 L167,1143.5 L167.375,1143.5 L168,1144.0156 L168,1144.5 L168,1147.5 L160,1147.5 L159.5156,1147.5 L159,1146.875 L159,1146.5 L159,1146.125 L159.5156,1145.5 L160,1145.5 L160,1145.5 L160,1139.5 L160,1139.5 L159.5156,1139.5 L159,1138.875 L159,1138.5 L159,1138.125 L159.5156,1137.5 L160,1137.5 L168,1137.5 L168,1140.5 L168,1140.9844 L167.375,1141.5 L167,1141.5 L166.625,1141.5 L166,1140.9844 L166,1140.5 L166,1139.5 L162,1139.5 L162,1141.5 L163,1141.5 L163,1141.0156 L163,1141.0156 L163.625,1140.5 L164,1140.5 L164.375,1140.5 L165,1141.0156 L165,1141.5 L165,1143.5 L165,1143.9844 L164.375,1144.5 L164.375,1144.5 L164,1144.5 L163.625,1144.5 L163,1143.9844 L163,1143.9844 L163,1143.5 L162,1143.5 Z " fill="#000000"/><text fill="#000000" font-family="sans-serif" font-size="14" lengthAdjust="spacing" textLength="55" x="177.5" y="1148.2285">Payment</text><line style="stroke:#181818;stroke-width:0.5;" x1="149.5" x2="234.5" y1="1158.5" y2="1158.5"/><text fill="#000000" font-family="sans-serif" font-size="14" lengthAdjust="spacing" textLength="52" x="154.5" y="1177.0332">-method</text><text fill="#000000" font-family="sans-serif" font-size="14" lengthAdjust="spacing" textLength="43" x="154.5" y="1194.6426">-status</text><line style="stroke:#181818;stroke-width:0.5;" x1="149.5" x2="234.5" y1="1201.7188" y2="1201.7188"/></g><!--MD5=[003718b22fee2486eeba0fa029a176b7]
class OrderItem--><g id="elem_OrderItem"><rect codeLine="59" fill="#F5F5DC" height="76.3125" id="OrderItem" rx="2.5" ry="2.5" style="stroke:#181818;stroke-width:0.5;" width="96" x="657" y="885"/><ellipse cx="672.45" cy="906.3516" fill="#ADD1B2" rx="11" ry="11" style="stroke:#181818;stroke-width:1.0;"/><path d="M670.95,907.3516 L670.95,909.3516 L674.95,909.3516 L674.95,908.3516 L674.95,907.8672 L675.575,907.3516 L675.95,907.3516 L676.325,907.3516 L676.95,907.8672 L676.95,908.3516 L676.95,911.3516 L668.95,911.3516 L668.4656,911.3516 L667.95,910.7266 L667.95,910.3516 L667.95,909.9766 L668.4656,909.3516 L668.95,909.3516 L668.95,909.3516 L668.95,903.3516 L668.95,903.3516 L668.4656,903.3516 L667.95,902.7266 L667.95,902.3516 L667.95,901.9766 L668.4656,901.3516 L668.95,901.3516 L676.95,901.3516 L676.95,904.3516 L676.95,904.8359 L676.325,905.3516 L675.95,905.3516 L675.575,905.3516 L674.95,904.8359 L674.95,904.3516 L674.95,903.3516 L670.95,903.3516 L670.95,905.3516 L671.95,905.3516 L671.95,904.8672 L671.95,904.8672 L672.575,904.3516 L672.95,904.3516 L673.325,904.3516 L673.95,904.8672 L673.95,905.3516 L673.95,907.3516 L673.95,907.8359 L673.325,908.3516 L673.325,908.3516 L672.95,908.3516 L672.575,908.3516 L671.95,907.8359 L671.95,907.8359 L671.95,907.3516 L670.95,907.3516 Z " fill="#000000"/><text fill="#000000" font-family="sans-serif" font-size="12" font-style="italic" lengthAdjust="spacing" textLength="43" x="696.55" y="902.457">«entity»</text><text fill="#000000" font-family="sans-serif" font-size="14" lengthAdjust="spacing" textLength="63" x="686.55" y="919.627">OrderItem</text><line style="stroke:#181818;stroke-width:0.5;" x1="658" x2="752" y1="927.7031" y2="927.7031"/><text fill="#000000" font-family="sans-serif" font-size="14" lengthAdjust="spacing" textLength="84" x="663" y="946.2363">-itemQuantity</text><line style="stroke:#181818;stroke-width:0.5;" x1="658" x2="752" y1="953.3125" y2="953.3125"/></g><!--MD5=[c53bda17ef36a061746eb50c611c55c9]
class SourceChannel--><g id="elem_SourceChannel"><rect codeLine="69" fill="#F5F5DC" height="50.7031" id="SourceChannel" rx="2.5" ry="2.5" style="stroke:#181818;stroke-width:0.5;" width="130" x="271" y="1142.5"/><ellipse cx="286" cy="1163.8516" fill="#FF8B40" rx="11" ry="11" style="stroke:#A80036;stroke-width:1.0;"/><path d="M286,1167.1328 L287.5313,1161.6016 L287.5313,1161.6016 L287.0156,1161.6016 L286.5,1160.9766 L286.5,1160.6016 L286.5,1160.2266 L287.0156,1159.6016 L287.5313,1159.6016 L289.4063,1159.6016 L289.9844,1159.6016 L290.5,1160.2266 L290.5,1160.6016 L290.5,1160.9766 L289.9844,1161.6016 L289.9844,1161.6016 L289.5313,1161.6016 L287.1875,1169.6016 L284.8125,1169.6016 L282.3438,1161.6016 L282.0156,1161.6016 L282.0156,1161.6016 L281.5,1160.9766 L281.5,1160.6016 L281.5,1160.2266 L282.0156,1159.6016 L282.5938,1159.6016 L284.4688,1159.6016 L284.9844,1159.6016 L285.5,1160.2266 L285.5,1160.6016 L285.5,1160.9766 L284.9844,1161.6016 L284.4688,1161.6016 L284.4688,1161.6016 L286,1167.1328 Z " fill="#000000"/><text fill="#000000" font-family="sans-serif" font-size="12" font-style="italic" lengthAdjust="spacing" textLength="81" x="308.5" y="1159.957">«value object»</text><text fill="#000000" font-family="sans-serif" font-size="14" lengthAdjust="spacing" textLength="98" x="300" y="1177.127">SourceChannel</text><line style="stroke:#181818;stroke-width:0.5;" x1="272" x2="400" y1="1185.2031" y2="1185.2031"/></g><!--MD5=[8f844795de809fa32119c391d2855d3e]
class AdditionalComment--><g id="elem_AdditionalComment"><rect codeLine="71" fill="#F5F5DC" height="50.7031" id="AdditionalComment" rx="2.5" ry="2.5" style="stroke:#181818;stroke-width:0.5;" width="154" x="436" y="1142.5"/><ellipse cx="451" cy="1163.8516" fill="#FF8B40" rx="11" ry="11" style="stroke:#A80036;stroke-width:1.0;"/><path d="M451,1167.1328 L452.5313,1161.6016 L452.5313,1161.6016 L452.0156,1161.6016 L451.5,1160.9766 L451.5,1160.6016 L451.5,1160.2266 L452.0156,1159.6016 L452.5313,1159.6016 L454.4063,1159.6016 L454.9844,1159.6016 L455.5,1160.2266 L455.5,1160.6016 L455.5,1160.9766 L454.9844,1161.6016 L454.9844,1161.6016 L454.5313,1161.6016 L452.1875,1169.6016 L449.8125,1169.6016 L447.3438,1161.6016 L447.0156,1161.6016 L447.0156,1161.6016 L446.5,1160.9766 L446.5,1160.6016 L446.5,1160.2266 L447.0156,1159.6016 L447.5938,1159.6016 L449.4688,1159.6016 L449.9844,1159.6016 L450.5,1160.2266 L450.5,1160.6016 L450.5,1160.9766 L449.9844,1161.6016 L449.4688,1161.6016 L449.4688,1161.6016 L451,1167.1328 Z " fill="#000000"/><text fill="#000000" font-family="sans-serif" font-size="12" font-style="italic" lengthAdjust="spacing" textLength="81" x="485.5" y="1159.957">«value object»</text><text fill="#000000" font-family="sans-serif" font-size="14" lengthAdjust="spacing" textLength="122" x="465" y="1177.127">AdditionalComment</text><line style="stroke:#181818;stroke-width:0.5;" x1="437" x2="589" y1="1185.2031" y2="1185.2031"/></g><!--MD5=[c78e32ed571ada68c9f6fb76f9dafada]
class InteractionDate--><g id="elem_InteractionDate"><rect codeLine="70" fill="#F5F5DC" height="50.7031" id="InteractionDate" rx="2.5" ry="2.5" style="stroke:#181818;stroke-width:0.5;" width="128" x="625" y="1142.5"/><ellipse cx="640" cy="1163.8516" fill="#FF8B40" rx="11" ry="11" style="stroke:#A80036;stroke-width:1.0;"/><path d="M640,1167.1328 L641.5313,1161.6016 L641.5313,1161.6016 L641.0156,1161.6016 L640.5,1160.9766 L640.5,1160.6016 L640.5,1160.2266 L641.0156,1159.6016 L641.5313,1159.6016 L643.4063,1159.6016 L643.9844,1159.6016 L644.5,1160.2266 L644.5,1160.6016 L644.5,1160.9766 L643.9844,1161.6016 L643.9844,1161.6016 L643.5313,1161.6016 L641.1875,1169.6016 L638.8125,1169.6016 L636.3438,1161.6016 L636.0156,1161.6016 L636.0156,1161.6016 L635.5,1160.9766 L635.5,1160.6016 L635.5,1160.2266 L636.0156,1159.6016 L636.5938,1159.6016 L638.4688,1159.6016 L638.9844,1159.6016 L639.5,1160.2266 L639.5,1160.6016 L639.5,1160.9766 L638.9844,1161.6016 L638.4688,1161.6016 L638.4688,1161.6016 L640,1167.1328 Z " fill="#000000"/><text fill="#000000" font-family="sans-serif" font-size="12" font-style="italic" lengthAdjust="spacing" textLength="81" x="661.5" y="1159.957">«value object»</text><text fill="#000000" font-family="sans-serif" font-size="14" lengthAdjust="spacing" textLength="96" x="654" y="1177.127">InteractionDate</text><line style="stroke:#181818;stroke-width:0.5;" x1="626" x2="752" y1="1185.2031" y2="1185.2031"/></g><!--MD5=[b34797a66dc35cbf1d65f7e3ca75530e]
class Task--><g id="elem_Task"><rect codeLine="35" fill="#F5F5DC" height="40" id="Task" rx="2.5" ry="2.5" style="stroke:#181818;stroke-width:0.5;" width="63" x="809.5" y="1148"/><ellipse cx="824.5" cy="1164" fill="#ADD1B2" rx="11" ry="11" style="stroke:#181818;stroke-width:1.0;"/><path d="M823,1165 L823,1167 L827,1167 L827,1166 L827,1165.5156 L827.625,1165 L828,1165 L828.375,1165 L829,1165.5156 L829,1166 L829,1169 L821,1169 L820.5156,1169 L820,1168.375 L820,1168 L820,1167.625 L820.5156,1167 L821,1167 L821,1167 L821,1161 L821,1161 L820.5156,1161 L820,1160.375 L820,1160 L820,1159.625 L820.5156,1159 L821,1159 L829,1159 L829,1162 L829,1162.4844 L828.375,1163 L828,1163 L827.625,1163 L827,1162.4844 L827,1162 L827,1161 L823,1161 L823,1163 L824,1163 L824,1162.5156 L824,1162.5156 L824.625,1162 L825,1162 L825.375,1162 L826,1162.5156 L826,1163 L826,1165 L826,1165.4844 L825.375,1166 L825.375,1166 L825,1166 L824.625,1166 L824,1165.4844 L824,1165.4844 L824,1165 L823,1165 Z " fill="#000000"/><text fill="#000000" font-family="sans-serif" font-size="14" lengthAdjust="spacing" textLength="31" x="838.5" y="1169.7285">Task</text><line style="stroke:#181818;stroke-width:0.5;" x1="810.5" x2="871.5" y1="1180" y2="1180"/></g><!--MD5=[90de021bb2aa8991bb28cb59916c543e]
link AGV to Model--><g id="link_AGV_Model"><path codeLine="83" d="M386.33,169.18 C384.4,187.27 382.31,206.96 380.4,224.89 " fill="none" id="AGV-to-Model" style="stroke:#222222;stroke-width:1.0;"/><polygon fill="#222222" points="379.87,229.9,384.7991,221.3733,380.3986,224.928,376.844,220.5275,379.87,229.9" style="stroke:#222222;stroke-width:1.0;"/><text fill="#000000" font-family="sans-serif" font-size="13" lengthAdjust="spacing" textLength="7" x="373.1737" y="219.2349">1</text></g><!--MD5=[f109197b03652dc794d321c2b6eb6935]
link AGV to AGVDock--><g id="link_AGV_AGVDock"><path codeLine="84" d="M473.04,138.69 C530.19,167.56 597,216.06 597,285 C597,285 597,285 597,468 C597,493.64 601.62,520.95 607.68,545.73 " fill="none" id="AGV-to-AGVDock" style="stroke:#222222;stroke-width:1.0;"/><polygon fill="#222222" points="608.91,550.65,610.6077,540.9486,607.6973,545.7993,602.8466,542.8889,608.91,550.65" style="stroke:#222222;stroke-width:1.0;"/><text fill="#000000" font-family="sans-serif" font-size="13" lengthAdjust="spacing" textLength="7" x="599.1856" y="540.21">1</text></g><!--MD5=[b15788600414bc85f7a85bb1ca6bcc0d]
link AGV to Order--><g id="link_AGV_Order"><path codeLine="85" d="M445.5,169.26 C467.47,201.72 488,243.22 488,285 C488,285 488,285 488,633 C488,685.9 478.69,743.24 467.6,792.79 " fill="none" id="AGV-to-Order" style="stroke:#222222;stroke-width:1.0;"/><polygon fill="#222222" points="466.45,797.87,472.3341,789.9721,467.5513,792.9928,464.5306,788.21,466.45,797.87" style="stroke:#222222;stroke-width:1.0;"/><text fill="#000000" font-family="sans-serif" font-size="13" lengthAdjust="spacing" textLength="20" x="448.0009" y="787.2666">1..*</text></g><!--MD5=[436492a8722677b8f40c7c1b2a179142]
link AGV to Task--><g id="link_AGV_Task"><path codeLine="86" d="M473.12,122.65 C597.53,150.07 823,210.08 823,285 C823,285 823,285 823,924 C823,1004.28 832.89,1099.08 838.01,1142.75 " fill="none" id="AGV-to-Task" style="stroke:#222222;stroke-width:1.0;"/><polygon fill="#222222" points="838.61,1147.82,841.5295,1138.4138,838.025,1142.8543,833.5844,1139.3498,838.61,1147.82" style="stroke:#222222;stroke-width:1.0;"/><text fill="#000000" font-family="sans-serif" font-size="13" lengthAdjust="spacing" textLength="7" x="829.8798" y="1137.0889">1</text></g><!--MD5=[3b8460d43649065ec6b873117ac06c59]
link Order to Shipment--><g id="link_Order_Shipment"><path codeLine="88" d="M319.44,978.96 C260.18,1011.01 188.01,1054.78 131,1104 C124.18,1109.88 117.21,1116.35 110.5,1122.83 " fill="none" id="Order-to-Shipment" style="stroke:#222222;stroke-width:1.0;"/><polygon fill="#222222" points="106.8,1126.43,116.0346,1123.0064,110.3782,1122.9377,110.4469,1117.2812,106.8,1126.43" style="stroke:#222222;stroke-width:1.0;"/><text fill="#000000" font-family="sans-serif" font-size="13" lengthAdjust="spacing" textLength="81" x="161" y="1092.4951">has info about</text><text fill="#000000" font-family="sans-serif" font-size="13" lengthAdjust="spacing" textLength="7" x="105.6466" y="1115.7261">1</text></g><!--MD5=[2dd35b9e342a33989aa9b5490e0b19cd]
link Order to Payment--><g id="link_Order_Payment"><path codeLine="89" d="M319.24,1031.29 C303.57,1046.82 287.77,1062.71 273,1078 C259.33,1092.14 244.76,1107.92 231.8,1122.22 " fill="none" id="Order-to-Payment" style="stroke:#222222;stroke-width:1.0;"/><polygon fill="#222222" points="228.19,1126.21,237.2,1122.2326,231.5498,1122.5071,231.2753,1116.8569,228.19,1126.21" style="stroke:#222222;stroke-width:1.0;"/><text fill="#000000" font-family="sans-serif" font-size="13" lengthAdjust="spacing" textLength="81" x="274" y="1092.4951">has info about</text><text fill="#000000" font-family="sans-serif" font-size="13" lengthAdjust="spacing" textLength="7" x="226.4" y="1115.7804">1</text></g><!--MD5=[06a6064c5cdd443a62b5eb59fb550c27]
link Order to OrderItem--><g id="link_Order_OrderItem"><path codeLine="90" d="M542.84,923 C580.47,923 620.72,923 651.71,923 " fill="none" id="Order-to-OrderItem" style="stroke:#222222;stroke-width:1.0;"/><polygon fill="#222222" points="656.99,923,647.99,919,651.99,923,647.99,927,656.99,923" style="stroke:#222222;stroke-width:1.0;"/><text fill="#000000" font-family="sans-serif" font-size="13" lengthAdjust="spacing" textLength="78" x="560.75" y="916.4951">composed by</text><text fill="#000000" font-family="sans-serif" font-size="13" lengthAdjust="spacing" textLength="20" x="628.8323" y="937.6229">1..*</text></g><!--MD5=[5b3b91e031ec2f8e2ebc90bed23d71bc]
link Order to SourceChannel--><g id="link_Order_SourceChannel"><path codeLine="91" d="M382.39,1048.35 C369.35,1081.71 356.42,1114.78 347.53,1137.5 " fill="none" id="Order-to-SourceChannel" style="stroke:#222222;stroke-width:1.0;"/><polygon fill="#222222" points="345.7,1142.19,352.7126,1135.2745,347.5274,1137.5359,345.266,1132.3507,345.7,1142.19" style="stroke:#222222;stroke-width:1.0;"/><text fill="#000000" font-family="sans-serif" font-size="13" lengthAdjust="spacing" textLength="22" x="323.3831" y="1131.523">0..1</text></g><!--MD5=[90c5b0c66bdceefdcc6cbf9b3e1604ba]
link Order to InteractionDate--><g id="link_Order_InteractionDate"><path codeLine="92" d="M542.66,1029.17 C585.28,1069.31 630.47,1111.88 659.17,1138.9 " fill="none" id="Order-to-InteractionDate" style="stroke:#222222;stroke-width:1.0;"/><polygon fill="#222222" points="662.93,1142.45,659.1355,1133.3615,659.2957,1139.016,653.6411,1139.1763,662.93,1142.45" style="stroke:#222222;stroke-width:1.0;"/><text fill="#000000" font-family="sans-serif" font-size="13" lengthAdjust="spacing" textLength="22" x="631.8942" y="1131.8463">0..1</text></g><!--MD5=[d1cec3bfb6c74cc6c038b6c1677ed110]
link Order to AdditionalComment--><g id="link_Order_AdditionalComment"><path codeLine="93" d="M472.96,1048.35 C484.17,1081.57 495.28,1114.5 502.95,1137.21 " fill="none" id="Order-to-AdditionalComment" style="stroke:#222222;stroke-width:1.0;"/><polygon fill="#222222" points="504.63,1142.19,505.5433,1132.3836,503.0317,1137.4523,497.963,1134.9408,504.63,1142.19" style="stroke:#222222;stroke-width:1.0;"/><text fill="#000000" font-family="sans-serif" font-size="13" lengthAdjust="spacing" textLength="22" x="477.9086" y="1131.523">0..1</text></g><!--MD5=[c06a90e562707a92c0851bfe84eae6d6]
link Order to Task--><g id="link_Order_Task"><path codeLine="94" d="M542.62,993.74 C573.7,1012.19 607.79,1031.53 640,1048 C695.65,1076.45 716.18,1070.58 769,1104 C787.09,1115.45 805.21,1131.34 818.75,1144.29 " fill="none" id="Order-to-Task" style="stroke:#222222;stroke-width:1.0;"/><polygon fill="#222222" points="822.45,1147.86,818.7479,1138.7334,818.8508,1144.3893,813.1949,1144.4922,822.45,1147.86" style="stroke:#222222;stroke-width:1.0;"/><text fill="#000000" font-family="sans-serif" font-size="13" lengthAdjust="spacing" textLength="7" x="808.9728" y="1137.1406">1</text></g><!--MD5=[0c0c389898872d78d7681575744df663]
@startuml
'https://plantuml.com/class-diagram

skinparam classAttributeIconSize 0
hide empty attributes
skinparam classBackgroundColor beige
skinparam ArrowColor #222222

package "<<aggregate>> AGV" {
    entity AGV
    /'class AGVPosition'/
    class Model
}

package "<<aggregate>> AGVDock" {
    entity AGVDock
}

package "<<aggregate>> Order" {
    entity Order
    class Shipment
    class Payment
    entity OrderItem
    class SourceChannel
    class AdditionalComment
    class InteractionDate
}

entity AGV <<entity>> <<root>> {
    - <<VO>> AgvID
    - <<VO>> AutonomyStatus /' number of hours left until it runs out of battery '/
    - <<VO>> TaskStatus /' free charging or occupied '/
}

package "<<aggragte>> Task" {
    entity Task
}

entity AGVDock <<entity>> <<root>> {
    - <<VO>> DockID
    - <<VO>> BeginSquare
    - <<VO>> EndSquare
    - <<VO>> DepthSquare
    - <<VO>> AccessibilityDirection
}

entity Order <<entity>> <<root>> {
    -<<VO>> OrderId /'automatically generated'/
    -<<VO>> DateTime /'automatically generated na hora do registo do sistema'/
    -<<VO>> BillingAddress
    -<<VO>> DeliveryAddress
    -<<VO>> TotalAmountWithoutTaxes
    -<<VO>> TotalAmountWithTaxes
    -<<VO>> TotalWeight
    -<<VO>> TotalVolume
    -<<VO>> Operator
    -<<VO>> Status /'(CONFIRM WITH CLIENT: registered, payment pending, being prepared on the warehouse, dispatched, delivered by carrier, received by customer)'/
}

entity OrderItem <<entity>> {
    -itemQuantity
}

class Model <<(V,#FF8B40) value object>> {
    - ModelID
    - ShortDescription
    - MaxWeight
}

class SourceChannel <<(V,#FF8B40) value object>>
class InteractionDate <<(V,#FF8B40) value object>>
class AdditionalComment <<(V,#FF8B40) value object>>

enum Shipment {
    -method
    -cost
}

enum Payment {
    -method
    -status
}

AGV - -> "1" Model
AGV - - - - -> "1" AGVDock
AGV - - - - - -> "1..*" Order
AGV - -> "1" Task

Order - -> "1" Shipment : has info about
Order - -> "1" Payment : has info about
Order -> "1..*" OrderItem : composed by
Order - -> "0..1" SourceChannel
Order - -> "0..1" InteractionDate
Order - -> "0..1" AdditionalComment
Order - -> "1" Task

@enduml

@startuml

skinparam classAttributeIconSize 0
hide empty attributes
skinparam classBackgroundColor beige
skinparam ArrowColor #222222

package "<<aggregate>> AGV" {
    entity AGV
    class Model
}

package "<<aggregate>> AGVDock" {
    entity AGVDock
}

package "<<aggregate>> Order" {
    entity Order
    class Shipment
    class Payment
    entity OrderItem
    class SourceChannel
    class AdditionalComment
    class InteractionDate
}

entity AGV <<entity>> <<root>> {
    - <<VO>> AgvID
    - <<VO>> AutonomyStatus 
    - <<VO>> TaskStatus 
}

package "<<aggragte>> Task" {
    entity Task
}

entity AGVDock <<entity>> <<root>> {
    - <<VO>> DockID
    - <<VO>> BeginSquare
    - <<VO>> EndSquare
    - <<VO>> DepthSquare
    - <<VO>> AccessibilityDirection
}

entity Order <<entity>> <<root>> {
    -<<VO>> OrderId 
    -<<VO>> DateTime 
    -<<VO>> BillingAddress
    -<<VO>> DeliveryAddress
    -<<VO>> TotalAmountWithoutTaxes
    -<<VO>> TotalAmountWithTaxes
    -<<VO>> TotalWeight
    -<<VO>> TotalVolume
    -<<VO>> Operator
    -<<VO>> Status 
}

entity OrderItem <<entity>> {
    -itemQuantity
}

class Model <<(V,#FF8B40) value object>> {
    - ModelID
    - ShortDescription
    - MaxWeight
}

class SourceChannel <<(V,#FF8B40) value object>>
class InteractionDate <<(V,#FF8B40) value object>>
class AdditionalComment <<(V,#FF8B40) value object>>

enum Shipment {
    -method
    -cost
}

enum Payment {
    -method
    -status
}

AGV - -> "1" Model
AGV - - - - -> "1" AGVDock
AGV - - - - - -> "1..*" Order
AGV - -> "1" Task

Order - -> "1" Shipment : has info about
Order - -> "1" Payment : has info about
Order -> "1..*" OrderItem : composed by
Order - -> "0..1" SourceChannel
Order - -> "0..1" InteractionDate
Order - -> "0..1" AdditionalComment
Order - -> "1" Task

@enduml

PlantUML version 1.2022.4(Sat Apr 09 14:29:17 BST 2022)
(GPL source distribution)
Java Runtime: OpenJDK Runtime Environment
JVM: OpenJDK 64-Bit Server VM
Default Encoding: Cp1252
Language: pt
Country: PT
--></g></svg>