<?xml version="1.0" encoding="UTF-8" standalone="no"?><svg xmlns="http://www.w3.org/2000/svg" xmlns:xlink="http://www.w3.org/1999/xlink" contentScriptType="application/ecmascript" contentStyleType="text/css" height="960.6px" preserveAspectRatio="none" style="width:724px;height:960px;" version="1.1" viewBox="0 0 724 960" width="724.2px" zoomAndPan="magnify"><defs><filter height="300%" id="f19nchmqrlwy9d" width="300%" x="-1" y="-1"><feGaussianBlur result="blurOut" stdDeviation="1.2"/><feColorMatrix in="blurOut" result="blurOut2" type="matrix" values="0 0 0 0 0 0 0 0 0 0 0 0 0 0 0 0 0 0 .4 0"/><feOffset dx="2.4" dy="2.4" in="blurOut2" result="blurOut3"/><feBlend in="SourceGraphic" in2="blurOut3" mode="normal"/></filter></defs><g><!--MD5=[149a1c7f023ae6618377eaa02fe6b13d]
entity AnswerRepository--><path d="M3.6,864.6 C3.6,858.6 43.8,858.6 43.8,858.6 C43.8,858.6 84,858.6 84,864.6 L84,880.5656 C84,886.5656 43.8,886.5656 43.8,886.5656 C43.8,886.5656 3.6,886.5656 3.6,880.5656 L3.6,864.6 " fill="#FFFFFF" filter="url(#f19nchmqrlwy9d)" style="stroke:#000000;stroke-width:0.8999999999999999;"/><path d="M3.6,864.6 C3.6,870.6 43.8,870.6 43.8,870.6 C43.8,870.6 84,870.6 84,864.6 " fill="none" style="stroke:#000000;stroke-width:0.8999999999999999;"/><text fill="#000000" font-family="sans-serif" font-size="8.4" lengthAdjust="spacing" textLength="68.4" x="9.6" y="881.7199">AnswerRepository</text><!--MD5=[dfccfb5894388a46eaa5d679d3ea0882]
entity ClientRepository--><path d="M232.8,864.6 C232.8,858.6 270,858.6 270,858.6 C270,858.6 307.2,858.6 307.2,864.6 L307.2,880.5656 C307.2,886.5656 270,886.5656 270,886.5656 C270,886.5656 232.8,886.5656 232.8,880.5656 L232.8,864.6 " fill="#FFFFFF" filter="url(#f19nchmqrlwy9d)" style="stroke:#000000;stroke-width:0.8999999999999999;"/><path d="M232.8,864.6 C232.8,870.6 270,870.6 270,870.6 C270,870.6 307.2,870.6 307.2,864.6 " fill="none" style="stroke:#000000;stroke-width:0.8999999999999999;"/><text fill="#000000" font-family="sans-serif" font-size="8.4" lengthAdjust="spacing" textLength="62.4" x="238.8" y="881.7199">ClientRepository</text><!--MD5=[3c5169e17193d7f77a961b4379f4f90e]
entity QuestionnaireRepository--><path d="M105.3,864.6 C105.3,858.6 158.4,858.6 158.4,858.6 C158.4,858.6 211.5,858.6 211.5,864.6 L211.5,880.5656 C211.5,886.5656 158.4,886.5656 158.4,886.5656 C158.4,886.5656 105.3,886.5656 105.3,880.5656 L105.3,864.6 " fill="#FFFFFF" filter="url(#f19nchmqrlwy9d)" style="stroke:#000000;stroke-width:0.8999999999999999;"/><path d="M105.3,864.6 C105.3,870.6 158.4,870.6 158.4,870.6 C158.4,870.6 211.5,870.6 211.5,864.6 " fill="none" style="stroke:#000000;stroke-width:0.8999999999999999;"/><text fill="#000000" font-family="sans-serif" font-size="8.4" lengthAdjust="spacing" textLength="94.2" x="111.3" y="881.7199">QuestionnaireRepository</text><!--MD5=[18acaa364f4805d257305ca4b9f7272c]
class AnswerQuestionnaireUI--><rect codeLine="5" fill="#FEFECE" filter="url(#f19nchmqrlwy9d)" height="28.8" id="AnswerQuestionnaireUI" style="stroke:#A80036;stroke-width:0.8999999999999999;" width="97.8" x="401.7" y="4.2"/><ellipse cx="410.7" cy="13.8" fill="#ADD1B2" rx="6.6" ry="6.6" style="stroke:#A80036;stroke-width:0.6;"/><path d="M411.9,11.7 Q412.0219,11.4 412.1625,11.25 Q412.3031,11.1 412.4625,11.1 Q412.7438,11.1 412.9219,11.2687 Q413.1,11.4375 413.1,11.8312 L413.1,12.7687 Q413.1,13.1625 412.9313,13.3312 Q412.7625,13.5 412.5,13.5 Q412.2656,13.5 412.1156,13.3969 Q411.9656,13.2938 411.9,13.0219 Q411.8719,12.8344 411.7688,12.7313 Q411.5813,12.5344 411.2438,12.4219 Q410.9063,12.3 410.5687,12.3 Q410.1469,12.3 409.7906,12.4688 Q409.4437,12.6375 409.1719,13.0125 Q408.9,13.3875 408.9,13.9031 L408.9,14.4562 Q408.9,15.075 409.4063,15.4875 Q409.9125,15.9 410.8125,15.9 Q411.3469,15.9 411.7219,15.7781 Q411.9375,15.7125 412.1813,15.4969 Q412.3406,15.375 412.425,15.3375 Q412.5094,15.3 412.6125,15.3 Q412.8094,15.3 412.95,15.4594 Q413.1,15.6094 413.1,15.825 Q413.1,16.0313 412.8938,16.275 Q412.5938,16.6312 412.1156,16.8281 Q411.4875,17.1 410.7188,17.1 Q409.8187,17.1 409.0969,16.7438 Q408.5156,16.4625 408.1031,15.8531 Q407.7,15.2437 407.7,14.5219 L407.7,13.8656 Q407.7,13.1156 408.0563,12.4594 Q408.4219,11.8031 409.05,11.4562 Q409.6875,11.1 410.4,11.1 Q410.8313,11.1 411.2063,11.25 Q411.5813,11.4 411.9,11.7 Z " fill="#000000"/><text fill="#000000" font-family="sans-serif" font-size="7.2" lengthAdjust="spacing" textLength="78.6" x="419.1" y="16.7461">AnswerQuestionnaireUI</text><line style="stroke:#A80036;stroke-width:0.8999999999999999;" x1="402.3" x2="498.9" y1="23.4" y2="23.4"/><line style="stroke:#A80036;stroke-width:0.8999999999999999;" x1="402.3" x2="498.9" y1="28.2" y2="28.2"/><!--MD5=[75270bfa90600a60da60853ef1f46cd4]
class AnswerQuestionnaireController--><rect codeLine="45" fill="#FEFECE" filter="url(#f19nchmqrlwy9d)" height="53.7047" id="AnswerQuestionnaireController" style="stroke:#A80036;stroke-width:0.8999999999999999;" width="159" x="371.1" y="69.6"/><ellipse cx="396.3" cy="79.2" fill="#ADD1B2" rx="6.6" ry="6.6" style="stroke:#A80036;stroke-width:0.6;"/><path d="M397.5,77.1 Q397.6219,76.8 397.7625,76.65 Q397.9031,76.5 398.0625,76.5 Q398.3438,76.5 398.5219,76.6688 Q398.7,76.8375 398.7,77.2313 L398.7,78.1688 Q398.7,78.5625 398.5313,78.7313 Q398.3625,78.9 398.1,78.9 Q397.8656,78.9 397.7156,78.7969 Q397.5656,78.6938 397.5,78.4219 Q397.4719,78.2344 397.3688,78.1313 Q397.1813,77.9344 396.8438,77.8219 Q396.5062,77.7 396.1688,77.7 Q395.7469,77.7 395.3906,77.8687 Q395.0438,78.0375 394.7719,78.4125 Q394.5,78.7875 394.5,79.3031 L394.5,79.8563 Q394.5,80.475 395.0062,80.8875 Q395.5125,81.3 396.4125,81.3 Q396.9469,81.3 397.3219,81.1781 Q397.5375,81.1125 397.7813,80.8969 Q397.9406,80.775 398.025,80.7375 Q398.1094,80.7 398.2125,80.7 Q398.4094,80.7 398.55,80.8594 Q398.7,81.0094 398.7,81.225 Q398.7,81.4312 398.4938,81.675 Q398.1937,82.0313 397.7156,82.2281 Q397.0875,82.5 396.3187,82.5 Q395.4188,82.5 394.6969,82.1438 Q394.1156,81.8625 393.7031,81.2531 Q393.3,80.6438 393.3,79.9219 L393.3,79.2656 Q393.3,78.5156 393.6563,77.8594 Q394.0219,77.2031 394.65,76.8563 Q395.2875,76.5 396,76.5 Q396.4313,76.5 396.8063,76.65 Q397.1813,76.8 397.5,77.1 Z " fill="#000000"/><text fill="#000000" font-family="sans-serif" font-size="7.2" lengthAdjust="spacing" textLength="103.8" x="408.3" y="82.1461">AnswerQuestionnaireController</text><line style="stroke:#A80036;stroke-width:0.8999999999999999;" x1="371.7" x2="529.5" y1="88.8" y2="88.8"/><line style="stroke:#A80036;stroke-width:0.8999999999999999;" x1="371.7" x2="529.5" y1="93.6" y2="93.6"/><ellipse cx="377.7" cy="100.2" fill="#84BE84" rx="1.8" ry="1.8" style="stroke:#038048;stroke-width:0.6;"/><text fill="#000000" font-family="sans-serif" font-size="6.6" lengthAdjust="spacing" textLength="72.6" x="383.1" y="102.8514">questionnairesForClient()</text><ellipse cx="377.7" cy="108.5016" fill="#84BE84" rx="1.8" ry="1.8" style="stroke:#038048;stroke-width:0.6;"/><text fill="#000000" font-family="sans-serif" font-size="6.6" lengthAdjust="spacing" textLength="105" x="383.1" y="111.1529">verifyIfClientAnswered(surveyDTO)</text><ellipse cx="377.7" cy="116.8031" fill="#84BE84" rx="1.8" ry="1.8" style="stroke:#038048;stroke-width:0.6;"/><text fill="#000000" font-family="sans-serif" font-size="6.6" lengthAdjust="spacing" textLength="143.4" x="383.1" y="119.4545">sendAnswersToBeSaved(answers, surveyDTO)</text><!--MD5=[8d7df4fa0fb77a6975df06a4312a0e7c]
class AnswerQuestionnaireService--><rect codeLine="52" fill="#FEFECE" filter="url(#f19nchmqrlwy9d)" height="53.7047" id="AnswerQuestionnaireService" style="stroke:#A80036;stroke-width:0.8999999999999999;" width="164.4" x="368.4" y="160.2"/><ellipse cx="400.35" cy="169.8" fill="#ADD1B2" rx="6.6" ry="6.6" style="stroke:#A80036;stroke-width:0.6;"/><path d="M401.55,167.7 Q401.6719,167.4 401.8125,167.25 Q401.9531,167.1 402.1125,167.1 Q402.3938,167.1 402.5719,167.2687 Q402.75,167.4375 402.75,167.8312 L402.75,168.7687 Q402.75,169.1625 402.5813,169.3312 Q402.4125,169.5 402.15,169.5 Q401.9156,169.5 401.7656,169.3969 Q401.6156,169.2938 401.55,169.0219 Q401.5219,168.8344 401.4188,168.7313 Q401.2313,168.5344 400.8938,168.4219 Q400.5563,168.3 400.2188,168.3 Q399.7969,168.3 399.4406,168.4688 Q399.0938,168.6375 398.8219,169.0125 Q398.55,169.3875 398.55,169.9031 L398.55,170.4562 Q398.55,171.075 399.0563,171.4875 Q399.5625,171.9 400.4625,171.9 Q400.9969,171.9 401.3719,171.7781 Q401.5875,171.7125 401.8313,171.4969 Q401.9906,171.375 402.075,171.3375 Q402.1594,171.3 402.2625,171.3 Q402.4594,171.3 402.6,171.4594 Q402.75,171.6094 402.75,171.825 Q402.75,172.0313 402.5438,172.275 Q402.2438,172.6313 401.7656,172.8281 Q401.1375,173.1 400.3688,173.1 Q399.4688,173.1 398.7469,172.7438 Q398.1656,172.4625 397.7531,171.8531 Q397.35,171.2438 397.35,170.5219 L397.35,169.8656 Q397.35,169.1156 397.7063,168.4594 Q398.0719,167.8031 398.7,167.4562 Q399.3375,167.1 400.05,167.1 Q400.4813,167.1 400.8563,167.25 Q401.2313,167.4 401.55,167.7 Z " fill="#000000"/><text fill="#000000" font-family="sans-serif" font-size="7.2" lengthAdjust="spacing" textLength="95.4" x="412.65" y="172.7461">AnswerQuestionnaireService</text><line style="stroke:#A80036;stroke-width:0.8999999999999999;" x1="369" x2="532.2" y1="179.4" y2="179.4"/><line style="stroke:#A80036;stroke-width:0.8999999999999999;" x1="369" x2="532.2" y1="184.2" y2="184.2"/><ellipse cx="375" cy="190.8" fill="#84BE84" rx="1.8" ry="1.8" style="stroke:#038048;stroke-width:0.6;"/><text fill="#000000" font-family="sans-serif" font-size="6.6" lengthAdjust="spacing" textLength="87" x="380.4" y="193.4514">questionnairesForClient(email)</text><ellipse cx="375" cy="199.1016" fill="#84BE84" rx="1.8" ry="1.8" style="stroke:#038048;stroke-width:0.6;"/><text fill="#000000" font-family="sans-serif" font-size="6.6" lengthAdjust="spacing" textLength="105" x="380.4" y="201.7529">verifyIfClientAnswered(surveyDTO)</text><ellipse cx="375" cy="207.4031" fill="#84BE84" rx="1.8" ry="1.8" style="stroke:#038048;stroke-width:0.6;"/><text fill="#000000" font-family="sans-serif" font-size="6.6" lengthAdjust="spacing" textLength="148.8" x="380.4" y="210.0545">sendAnswersToBeSaved(answers, survey, email)</text><!--MD5=[f9fadfa5a66b7e5a67b370cd443ffe52]
class Answer--><rect codeLine="8" fill="#FEFECE" filter="url(#f19nchmqrlwy9d)" height="28.8" id="Answer" style="stroke:#A80036;stroke-width:0.8999999999999999;" width="43.8" x="594.3" y="550.8"/><ellipse cx="603.3" cy="560.4" fill="#ADD1B2" rx="6.6" ry="6.6" style="stroke:#A80036;stroke-width:0.6;"/><path d="M604.5,558.3 Q604.6219,558 604.7625,557.85 Q604.9031,557.7 605.0625,557.7 Q605.3438,557.7 605.5219,557.8688 Q605.7,558.0375 605.7,558.4313 L605.7,559.3688 Q605.7,559.7625 605.5313,559.9313 Q605.3625,560.1 605.1,560.1 Q604.8656,560.1 604.7156,559.9969 Q604.5656,559.8938 604.5,559.6219 Q604.4719,559.4344 604.3688,559.3313 Q604.1813,559.1344 603.8438,559.0219 Q603.5063,558.9 603.1687,558.9 Q602.7469,558.9 602.3906,559.0688 Q602.0437,559.2375 601.7719,559.6125 Q601.5,559.9875 601.5,560.5031 L601.5,561.0563 Q601.5,561.675 602.0063,562.0875 Q602.5125,562.5 603.4125,562.5 Q603.9469,562.5 604.3219,562.3781 Q604.5375,562.3125 604.7813,562.0969 Q604.9406,561.975 605.025,561.9375 Q605.1094,561.9 605.2125,561.9 Q605.4094,561.9 605.55,562.0594 Q605.7,562.2094 605.7,562.425 Q605.7,562.6313 605.4938,562.875 Q605.1938,563.2312 604.7156,563.4281 Q604.0875,563.7 603.3188,563.7 Q602.4187,563.7 601.6969,563.3438 Q601.1156,563.0625 600.7031,562.4531 Q600.3,561.8438 600.3,561.1219 L600.3,560.4656 Q600.3,559.7156 600.6563,559.0594 Q601.0219,558.4031 601.65,558.0563 Q602.2875,557.7 603,557.7 Q603.4313,557.7 603.8063,557.85 Q604.1813,558 604.5,558.3 Z " fill="#000000"/><text fill="#000000" font-family="sans-serif" font-size="7.2" lengthAdjust="spacing" textLength="24.6" x="611.7" y="563.3461">Answer</text><line style="stroke:#A80036;stroke-width:0.8999999999999999;" x1="594.9" x2="637.5" y1="570" y2="570"/><line style="stroke:#A80036;stroke-width:0.8999999999999999;" x1="594.9" x2="637.5" y1="574.8" y2="574.8"/><!--MD5=[ed6624c6556d5e7b1bd23032162d20b7]
class Client--><rect codeLine="28" fill="#FEFECE" filter="url(#f19nchmqrlwy9d)" height="28.8" id="Client" style="stroke:#A80036;stroke-width:0.8999999999999999;" width="38.4" x="597" y="923.4"/><ellipse cx="606" cy="933" fill="#ADD1B2" rx="6.6" ry="6.6" style="stroke:#A80036;stroke-width:0.6;"/><path d="M607.2,930.9 Q607.3219,930.6 607.4625,930.45 Q607.6031,930.3 607.7625,930.3 Q608.0437,930.3 608.2219,930.4688 Q608.4,930.6375 608.4,931.0313 L608.4,931.9688 Q608.4,932.3625 608.2312,932.5313 Q608.0625,932.7 607.8,932.7 Q607.5656,932.7 607.4156,932.5969 Q607.2656,932.4938 607.2,932.2219 Q607.1719,932.0344 607.0688,931.9313 Q606.8813,931.7344 606.5437,931.6219 Q606.2063,931.5 605.8688,931.5 Q605.4469,931.5 605.0906,931.6687 Q604.7438,931.8375 604.4719,932.2125 Q604.2,932.5875 604.2,933.1031 L604.2,933.6563 Q604.2,934.275 604.7063,934.6875 Q605.2125,935.1 606.1125,935.1 Q606.6469,935.1 607.0219,934.9781 Q607.2375,934.9125 607.4812,934.6969 Q607.6406,934.575 607.725,934.5375 Q607.8094,934.5 607.9125,934.5 Q608.1094,934.5 608.25,934.6594 Q608.4,934.8094 608.4,935.025 Q608.4,935.2312 608.1938,935.475 Q607.8938,935.8313 607.4156,936.0281 Q606.7875,936.3 606.0188,936.3 Q605.1188,936.3 604.3969,935.9437 Q603.8156,935.6625 603.4031,935.0531 Q603,934.4437 603,933.7219 L603,933.0656 Q603,932.3156 603.3562,931.6594 Q603.7219,931.0031 604.35,930.6563 Q604.9875,930.3 605.7,930.3 Q606.1313,930.3 606.5063,930.45 Q606.8813,930.6 607.2,930.9 Z " fill="#000000"/><text fill="#000000" font-family="sans-serif" font-size="7.2" lengthAdjust="spacing" textLength="19.2" x="614.4" y="935.9461">Client</text><line style="stroke:#A80036;stroke-width:0.8999999999999999;" x1="597.6" x2="634.8" y1="942.6" y2="942.6"/><line style="stroke:#A80036;stroke-width:0.8999999999999999;" x1="597.6" x2="634.8" y1="947.4" y2="947.4"/><!--MD5=[5a3b85c54cc1c79904e0b827443986bf]
class Questionnaire--><rect codeLine="10" fill="#FEFECE" filter="url(#f19nchmqrlwy9d)" height="28.8" id="Questionnaire" style="stroke:#A80036;stroke-width:0.8999999999999999;" width="66" x="583.2" y="647.4"/><ellipse cx="592.2" cy="657" fill="#ADD1B2" rx="6.6" ry="6.6" style="stroke:#A80036;stroke-width:0.6;"/><path d="M593.4,654.9 Q593.5219,654.6 593.6625,654.45 Q593.8031,654.3 593.9625,654.3 Q594.2438,654.3 594.4219,654.4688 Q594.6,654.6375 594.6,655.0313 L594.6,655.9688 Q594.6,656.3625 594.4313,656.5313 Q594.2625,656.7 594,656.7 Q593.7656,656.7 593.6156,656.5969 Q593.4656,656.4938 593.4,656.2219 Q593.3719,656.0344 593.2688,655.9313 Q593.0813,655.7344 592.7438,655.6219 Q592.4063,655.5 592.0688,655.5 Q591.6469,655.5 591.2906,655.6687 Q590.9438,655.8375 590.6719,656.2125 Q590.4,656.5875 590.4,657.1031 L590.4,657.6563 Q590.4,658.275 590.9063,658.6875 Q591.4125,659.1 592.3125,659.1 Q592.8469,659.1 593.2219,658.9781 Q593.4375,658.9125 593.6813,658.6969 Q593.8406,658.575 593.925,658.5375 Q594.0094,658.5 594.1125,658.5 Q594.3094,658.5 594.45,658.6594 Q594.6,658.8094 594.6,659.025 Q594.6,659.2312 594.3938,659.475 Q594.0938,659.8313 593.6156,660.0281 Q592.9875,660.3 592.2188,660.3 Q591.3188,660.3 590.5969,659.9438 Q590.0156,659.6625 589.6031,659.0531 Q589.2,658.4438 589.2,657.7219 L589.2,657.0656 Q589.2,656.3156 589.5563,655.6594 Q589.9219,655.0031 590.55,654.6563 Q591.1875,654.3 591.9,654.3 Q592.3313,654.3 592.7063,654.45 Q593.0813,654.6 593.4,654.9 Z " fill="#000000"/><text fill="#000000" font-family="sans-serif" font-size="7.2" lengthAdjust="spacing" textLength="46.8" x="600.6" y="659.9461">Questionnaire</text><line style="stroke:#A80036;stroke-width:0.8999999999999999;" x1="583.8" x2="648.6" y1="666.6" y2="666.6"/><line style="stroke:#A80036;stroke-width:0.8999999999999999;" x1="583.8" x2="648.6" y1="671.4" y2="671.4"/><!--MD5=[3ddf2fc78de39a51ca8cbdf3b2a84ba0]
class QuestionnaireDTO--><rect codeLine="11" fill="#FEFECE" filter="url(#f19nchmqrlwy9d)" height="28.8" id="QuestionnaireDTO" style="stroke:#A80036;stroke-width:0.8999999999999999;" width="81" x="480.9" y="647.4"/><ellipse cx="489.9" cy="657" fill="#ADD1B2" rx="6.6" ry="6.6" style="stroke:#A80036;stroke-width:0.6;"/><path d="M491.1,654.9 Q491.2219,654.6 491.3625,654.45 Q491.5031,654.3 491.6625,654.3 Q491.9437,654.3 492.1219,654.4688 Q492.3,654.6375 492.3,655.0313 L492.3,655.9688 Q492.3,656.3625 492.1312,656.5313 Q491.9625,656.7 491.7,656.7 Q491.4656,656.7 491.3156,656.5969 Q491.1656,656.4938 491.1,656.2219 Q491.0719,656.0344 490.9688,655.9313 Q490.7813,655.7344 490.4437,655.6219 Q490.1063,655.5 489.7687,655.5 Q489.3469,655.5 488.9906,655.6687 Q488.6437,655.8375 488.3719,656.2125 Q488.1,656.5875 488.1,657.1031 L488.1,657.6563 Q488.1,658.275 488.6063,658.6875 Q489.1125,659.1 490.0125,659.1 Q490.5469,659.1 490.9219,658.9781 Q491.1375,658.9125 491.3812,658.6969 Q491.5406,658.575 491.625,658.5375 Q491.7094,658.5 491.8125,658.5 Q492.0094,658.5 492.15,658.6594 Q492.3,658.8094 492.3,659.025 Q492.3,659.2312 492.0938,659.475 Q491.7938,659.8313 491.3156,660.0281 Q490.6875,660.3 489.9188,660.3 Q489.0187,660.3 488.2969,659.9438 Q487.7156,659.6625 487.3031,659.0531 Q486.9,658.4438 486.9,657.7219 L486.9,657.0656 Q486.9,656.3156 487.2562,655.6594 Q487.6219,655.0031 488.25,654.6563 Q488.8875,654.3 489.6,654.3 Q490.0313,654.3 490.4063,654.45 Q490.7813,654.6 491.1,654.9 Z " fill="#000000"/><text fill="#000000" font-family="sans-serif" font-size="7.2" lengthAdjust="spacing" textLength="61.8" x="498.3" y="659.9461">QuestionnaireDTO</text><line style="stroke:#A80036;stroke-width:0.8999999999999999;" x1="481.5" x2="561.3" y1="666.6" y2="666.6"/><line style="stroke:#A80036;stroke-width:0.8999999999999999;" x1="481.5" x2="561.3" y1="671.4" y2="671.4"/><!--MD5=[881e719c386dedbbaba7a9d00a16a269]
class ListQuestionnaireDTOService--><rect codeLine="19" fill="#FEFECE" filter="url(#f19nchmqrlwy9d)" height="37.1016" id="ListQuestionnaireDTOService" style="stroke:#A80036;stroke-width:0.8999999999999999;" width="117" x="165.3" y="702.6"/><ellipse cx="174.3" cy="712.2" fill="#ADD1B2" rx="6.6" ry="6.6" style="stroke:#A80036;stroke-width:0.6;"/><path d="M175.5,710.1 Q175.6219,709.8 175.7625,709.65 Q175.9031,709.5 176.0625,709.5 Q176.3438,709.5 176.5219,709.6687 Q176.7,709.8375 176.7,710.2312 L176.7,711.1687 Q176.7,711.5625 176.5313,711.7312 Q176.3625,711.9 176.1,711.9 Q175.8656,711.9 175.7156,711.7969 Q175.5656,711.6938 175.5,711.4219 Q175.4719,711.2344 175.3688,711.1313 Q175.1813,710.9344 174.8438,710.8219 Q174.5063,710.7 174.1688,710.7 Q173.7469,710.7 173.3906,710.8688 Q173.0438,711.0375 172.7719,711.4125 Q172.5,711.7875 172.5,712.3031 L172.5,712.8562 Q172.5,713.475 173.0063,713.8875 Q173.5125,714.3 174.4125,714.3 Q174.9469,714.3 175.3219,714.1781 Q175.5375,714.1125 175.7813,713.8969 Q175.9406,713.775 176.025,713.7375 Q176.1094,713.7 176.2125,713.7 Q176.4094,713.7 176.55,713.8594 Q176.7,714.0094 176.7,714.225 Q176.7,714.4313 176.4938,714.675 Q176.1938,715.0313 175.7156,715.2281 Q175.0875,715.5 174.3188,715.5 Q173.4188,715.5 172.6969,715.1438 Q172.1156,714.8625 171.7031,714.2531 Q171.3,713.6438 171.3,712.9219 L171.3,712.2656 Q171.3,711.5156 171.6563,710.8594 Q172.0219,710.2031 172.65,709.8562 Q173.2875,709.5 174,709.5 Q174.4313,709.5 174.8063,709.65 Q175.1813,709.8 175.5,710.1 Z " fill="#000000"/><text fill="#000000" font-family="sans-serif" font-size="7.2" lengthAdjust="spacing" textLength="97.8" x="182.7" y="715.1461">ListQuestionnaireDTOService</text><line style="stroke:#A80036;stroke-width:0.8999999999999999;" x1="165.9" x2="281.7" y1="721.8" y2="721.8"/><line style="stroke:#A80036;stroke-width:0.8999999999999999;" x1="165.9" x2="281.7" y1="726.6" y2="726.6"/><ellipse cx="171.9" cy="733.2" fill="#84BE84" rx="1.8" ry="1.8" style="stroke:#038048;stroke-width:0.6;"/><text fill="#000000" font-family="sans-serif" font-size="6.6" lengthAdjust="spacing" textLength="93" x="177.3" y="735.8514">questionnairesForClient(clientID)</text><!--MD5=[fe4f3f83a51d21fc9306dfc278fe5ea6]
class TcpOrderSrv--><rect codeLine="13" fill="#FEFECE" filter="url(#f19nchmqrlwy9d)" height="28.8" id="TcpOrderSrv" style="stroke:#A80036;stroke-width:0.8999999999999999;" width="60" x="349.8" y="250.8"/><ellipse cx="358.8" cy="260.4" fill="#ADD1B2" rx="6.6" ry="6.6" style="stroke:#A80036;stroke-width:0.6;"/><path d="M360,258.3 Q360.1219,258 360.2625,257.85 Q360.4031,257.7 360.5625,257.7 Q360.8438,257.7 361.0219,257.8688 Q361.2,258.0375 361.2,258.4313 L361.2,259.3688 Q361.2,259.7625 361.0313,259.9313 Q360.8625,260.1 360.6,260.1 Q360.3656,260.1 360.2156,259.9969 Q360.0656,259.8938 360,259.6219 Q359.9719,259.4344 359.8688,259.3313 Q359.6813,259.1344 359.3438,259.0219 Q359.0062,258.9 358.6688,258.9 Q358.2469,258.9 357.8906,259.0687 Q357.5438,259.2375 357.2719,259.6125 Q357,259.9875 357,260.5031 L357,261.0563 Q357,261.675 357.5062,262.0875 Q358.0125,262.5 358.9125,262.5 Q359.4469,262.5 359.8219,262.3781 Q360.0375,262.3125 360.2813,262.0969 Q360.4406,261.975 360.525,261.9375 Q360.6094,261.9 360.7125,261.9 Q360.9094,261.9 361.05,262.0594 Q361.2,262.2094 361.2,262.425 Q361.2,262.6312 360.9938,262.875 Q360.6937,263.2313 360.2156,263.4281 Q359.5875,263.7 358.8187,263.7 Q357.9188,263.7 357.1969,263.3438 Q356.6156,263.0625 356.2031,262.4531 Q355.8,261.8438 355.8,261.1219 L355.8,260.4656 Q355.8,259.7156 356.1563,259.0594 Q356.5219,258.4031 357.15,258.0563 Q357.7875,257.7 358.5,257.7 Q358.9313,257.7 359.3063,257.85 Q359.6813,258 360,258.3 Z " fill="#000000"/><text fill="#000000" font-family="sans-serif" font-size="7.2" lengthAdjust="spacing" textLength="40.8" x="367.2" y="263.3461">TcpOrderSrv</text><line style="stroke:#A80036;stroke-width:0.8999999999999999;" x1="350.4" x2="409.2" y1="270" y2="270"/><line style="stroke:#A80036;stroke-width:0.8999999999999999;" x1="350.4" x2="409.2" y1="274.8" y2="274.8"/><!--MD5=[3355763bff37aa8f03363dfa268078a5]
class OrderServerMessageParser--><rect codeLine="31" fill="#FEFECE" filter="url(#f19nchmqrlwy9d)" height="37.1016" id="OrderServerMessageParser" style="stroke:#A80036;stroke-width:0.8999999999999999;" width="255" x="252.3" y="334.8"/><ellipse cx="331.05" cy="344.4" fill="#ADD1B2" rx="6.6" ry="6.6" style="stroke:#A80036;stroke-width:0.6;"/><path d="M332.25,342.3 Q332.3719,342 332.5125,341.85 Q332.6531,341.7 332.8125,341.7 Q333.0938,341.7 333.2719,341.8688 Q333.45,342.0375 333.45,342.4313 L333.45,343.3688 Q333.45,343.7625 333.2813,343.9313 Q333.1125,344.1 332.85,344.1 Q332.6156,344.1 332.4656,343.9969 Q332.3156,343.8938 332.25,343.6219 Q332.2219,343.4344 332.1188,343.3313 Q331.9313,343.1344 331.5938,343.0219 Q331.2562,342.9 330.9188,342.9 Q330.4969,342.9 330.1406,343.0687 Q329.7938,343.2375 329.5219,343.6125 Q329.25,343.9875 329.25,344.5031 L329.25,345.0563 Q329.25,345.675 329.7562,346.0875 Q330.2625,346.5 331.1625,346.5 Q331.6969,346.5 332.0719,346.3781 Q332.2875,346.3125 332.5313,346.0969 Q332.6906,345.975 332.775,345.9375 Q332.8594,345.9 332.9625,345.9 Q333.1594,345.9 333.3,346.0594 Q333.45,346.2094 333.45,346.425 Q333.45,346.6312 333.2438,346.875 Q332.9437,347.2313 332.4656,347.4281 Q331.8375,347.7 331.0687,347.7 Q330.1688,347.7 329.4469,347.3438 Q328.8656,347.0625 328.4531,346.4531 Q328.05,345.8438 328.05,345.1219 L328.05,344.4656 Q328.05,343.7156 328.4063,343.0594 Q328.7719,342.4031 329.4,342.0563 Q330.0375,341.7 330.75,341.7 Q331.1813,341.7 331.5563,341.85 Q331.9313,342 332.25,342.3 Z " fill="#000000"/><text fill="#000000" font-family="sans-serif" font-size="7.2" lengthAdjust="spacing" textLength="92.4" x="343.35" y="347.3461">OrderServerMessageParser</text><line style="stroke:#A80036;stroke-width:0.8999999999999999;" x1="252.9" x2="506.7" y1="354" y2="354"/><line style="stroke:#A80036;stroke-width:0.8999999999999999;" x1="252.9" x2="506.7" y1="358.8" y2="358.8"/><ellipse cx="258.9" cy="365.4" fill="#84BE84" rx="1.8" ry="1.8" style="stroke:#038048;stroke-width:0.6;"/><text fill="#000000" font-family="sans-serif" font-size="6.6" lengthAdjust="spacing" textLength="239.4" x="264.3" y="368.0514">parse(messageRequest, sOutputObject, sIn, sOut, clientMessageUS, sInputObject)</text><!--MD5=[1f1407c05b2f79c9f2664dc53c84623c]
class OrderServerRequest--><rect codeLine="35" fill="#FEFECE" filter="url(#f19nchmqrlwy9d)" height="37.1016" id="OrderServerRequest" style="stroke:#A80036;stroke-width:0.8999999999999999;" width="87" x="295.5" y="464.4"/><ellipse cx="304.5" cy="474" fill="#ADD1B2" rx="6.6" ry="6.6" style="stroke:#A80036;stroke-width:0.6;"/><path d="M305.7,471.9 Q305.8219,471.6 305.9625,471.45 Q306.1031,471.3 306.2625,471.3 Q306.5438,471.3 306.7219,471.4688 Q306.9,471.6375 306.9,472.0313 L306.9,472.9688 Q306.9,473.3625 306.7313,473.5313 Q306.5625,473.7 306.3,473.7 Q306.0656,473.7 305.9156,473.5969 Q305.7656,473.4938 305.7,473.2219 Q305.6719,473.0344 305.5687,472.9313 Q305.3812,472.7344 305.0438,472.6219 Q304.7063,472.5 304.3688,472.5 Q303.9469,472.5 303.5906,472.6688 Q303.2438,472.8375 302.9719,473.2125 Q302.7,473.5875 302.7,474.1031 L302.7,474.6563 Q302.7,475.275 303.2063,475.6875 Q303.7125,476.1 304.6125,476.1 Q305.1469,476.1 305.5219,475.9781 Q305.7375,475.9125 305.9813,475.6969 Q306.1406,475.575 306.225,475.5375 Q306.3094,475.5 306.4125,475.5 Q306.6094,475.5 306.75,475.6594 Q306.9,475.8094 306.9,476.025 Q306.9,476.2313 306.6937,476.475 Q306.3938,476.8312 305.9156,477.0281 Q305.2875,477.3 304.5188,477.3 Q303.6188,477.3 302.8969,476.9437 Q302.3156,476.6625 301.9031,476.0531 Q301.5,475.4437 301.5,474.7219 L301.5,474.0656 Q301.5,473.3156 301.8563,472.6594 Q302.2219,472.0031 302.85,471.6563 Q303.4875,471.3 304.2,471.3 Q304.6312,471.3 305.0062,471.45 Q305.3812,471.6 305.7,471.9 Z " fill="#000000"/><text fill="#000000" font-family="sans-serif" font-size="7.2" lengthAdjust="spacing" textLength="67.8" x="312.9" y="476.9461">OrderServerRequest</text><line style="stroke:#A80036;stroke-width:0.8999999999999999;" x1="296.1" x2="381.9" y1="483.6" y2="483.6"/><line style="stroke:#A80036;stroke-width:0.8999999999999999;" x1="296.1" x2="381.9" y1="488.4" y2="488.4"/><ellipse cx="302.1" cy="495" fill="#84BE84" rx="1.8" ry="1.8" style="stroke:#038048;stroke-width:0.6;"/><text fill="#000000" font-family="sans-serif" font-size="6.6" lengthAdjust="spacing" textLength="28.2" x="307.5" y="497.6514">execute()</text><!--MD5=[6f2fd43254dd5add9b8f154792682d7c]
class OrderSrvController--><rect codeLine="76" fill="#FEFECE" filter="url(#f19nchmqrlwy9d)" height="53.7047" id="OrderSrvController" style="stroke:#A80036;stroke-width:0.8999999999999999;" width="183.6" x="247.2" y="538.2"/><ellipse cx="305.85" cy="547.8" fill="#ADD1B2" rx="6.6" ry="6.6" style="stroke:#A80036;stroke-width:0.6;"/><path d="M307.05,545.7 Q307.1719,545.4 307.3125,545.25 Q307.4531,545.1 307.6125,545.1 Q307.8938,545.1 308.0719,545.2688 Q308.25,545.4375 308.25,545.8313 L308.25,546.7688 Q308.25,547.1625 308.0813,547.3313 Q307.9125,547.5 307.65,547.5 Q307.4156,547.5 307.2656,547.3969 Q307.1156,547.2937 307.05,547.0219 Q307.0219,546.8344 306.9188,546.7312 Q306.7313,546.5344 306.3938,546.4219 Q306.0563,546.3 305.7188,546.3 Q305.2969,546.3 304.9406,546.4688 Q304.5938,546.6375 304.3219,547.0125 Q304.05,547.3875 304.05,547.9031 L304.05,548.4563 Q304.05,549.075 304.5563,549.4875 Q305.0625,549.9 305.9625,549.9 Q306.4969,549.9 306.8719,549.7781 Q307.0875,549.7125 307.3313,549.4969 Q307.4906,549.375 307.575,549.3375 Q307.6594,549.3 307.7625,549.3 Q307.9594,549.3 308.1,549.4594 Q308.25,549.6094 308.25,549.825 Q308.25,550.0313 308.0438,550.275 Q307.7438,550.6313 307.2656,550.8281 Q306.6375,551.1 305.8688,551.1 Q304.9688,551.1 304.2469,550.7438 Q303.6656,550.4625 303.2531,549.8531 Q302.85,549.2438 302.85,548.5219 L302.85,547.8656 Q302.85,547.1156 303.2063,546.4594 Q303.5719,545.8031 304.2,545.4563 Q304.8375,545.1 305.55,545.1 Q305.9813,545.1 306.3563,545.25 Q306.7313,545.4 307.05,545.7 Z " fill="#000000"/><text fill="#000000" font-family="sans-serif" font-size="7.2" lengthAdjust="spacing" textLength="61.2" x="318.15" y="550.7461">OrderSrvController</text><line style="stroke:#A80036;stroke-width:0.8999999999999999;" x1="247.8" x2="430.2" y1="557.4" y2="557.4"/><line style="stroke:#A80036;stroke-width:0.8999999999999999;" x1="247.8" x2="430.2" y1="562.2" y2="562.2"/><ellipse cx="253.8" cy="568.8" fill="#84BE84" rx="1.8" ry="1.8" style="stroke:#038048;stroke-width:0.6;"/><text fill="#000000" font-family="sans-serif" font-size="6.6" lengthAdjust="spacing" textLength="87.6" x="259.2" y="571.4514">questionnairesForClient(client)</text><ellipse cx="253.8" cy="577.1016" fill="#84BE84" rx="1.8" ry="1.8" style="stroke:#038048;stroke-width:0.6;"/><text fill="#000000" font-family="sans-serif" font-size="6.6" lengthAdjust="spacing" textLength="168" x="259.2" y="579.7529">saveQuestionnaireAnswers(answers, surveyDTO, email)</text><ellipse cx="253.8" cy="585.4031" fill="#84BE84" rx="1.8" ry="1.8" style="stroke:#038048;stroke-width:0.6;"/><text fill="#000000" font-family="sans-serif" font-size="6.6" lengthAdjust="spacing" textLength="125.4" x="259.2" y="588.0545">verifyIfClientAnswered(email, surveyCode)</text><!--MD5=[e8c189551b7885b999ad7cefb30fc2a3]
class PersistenceContext--><rect codeLine="23" fill="#FEFECE" filter="url(#f19nchmqrlwy9d)" height="37.1016" id="PersistenceContext" style="stroke:#A80036;stroke-width:0.8999999999999999;" width="83.4" x="119.1" y="643.2"/><ellipse cx="128.1" cy="652.8" fill="#ADD1B2" rx="6.6" ry="6.6" style="stroke:#A80036;stroke-width:0.6;"/><path d="M129.3,650.7 Q129.4219,650.4 129.5625,650.25 Q129.7031,650.1 129.8625,650.1 Q130.1437,650.1 130.3219,650.2688 Q130.5,650.4375 130.5,650.8313 L130.5,651.7688 Q130.5,652.1625 130.3312,652.3313 Q130.1625,652.5 129.9,652.5 Q129.6656,652.5 129.5156,652.3969 Q129.3656,652.2937 129.3,652.0219 Q129.2719,651.8344 129.1688,651.7312 Q128.9813,651.5344 128.6437,651.4219 Q128.3063,651.3 127.9688,651.3 Q127.5469,651.3 127.1906,651.4688 Q126.8438,651.6375 126.5719,652.0125 Q126.3,652.3875 126.3,652.9031 L126.3,653.4563 Q126.3,654.075 126.8062,654.4875 Q127.3125,654.9 128.2125,654.9 Q128.7469,654.9 129.1219,654.7781 Q129.3375,654.7125 129.5812,654.4969 Q129.7406,654.375 129.825,654.3375 Q129.9094,654.3 130.0125,654.3 Q130.2094,654.3 130.35,654.4594 Q130.5,654.6094 130.5,654.825 Q130.5,655.0313 130.2938,655.275 Q129.9938,655.6313 129.5156,655.8281 Q128.8875,656.1 128.1188,656.1 Q127.2188,656.1 126.4969,655.7438 Q125.9156,655.4625 125.5031,654.8531 Q125.1,654.2438 125.1,653.5219 L125.1,652.8656 Q125.1,652.1156 125.4563,651.4594 Q125.8219,650.8031 126.45,650.4563 Q127.0875,650.1 127.8,650.1 Q128.2313,650.1 128.6063,650.25 Q128.9813,650.4 129.3,650.7 Z " fill="#000000"/><text fill="#000000" font-family="sans-serif" font-size="7.2" lengthAdjust="spacing" textLength="64.2" x="136.5" y="655.7461">PersistenceContext</text><line style="stroke:#A80036;stroke-width:0.8999999999999999;" x1="119.7" x2="201.9" y1="662.4" y2="662.4"/><line style="stroke:#A80036;stroke-width:0.8999999999999999;" x1="119.7" x2="201.9" y1="667.2" y2="667.2"/><ellipse cx="125.7" cy="673.8" fill="#84BE84" rx="1.8" ry="1.8" style="stroke:#038048;stroke-width:0.6;"/><text fill="#000000" font-family="sans-serif" font-size="6.6" lengthAdjust="spacing" textLength="39" x="131.1" y="676.4514">repositories()</text><!--MD5=[288bffab58163169a8d16c57b889bc0c]
class TransactionalContext--><rect codeLine="39" fill="#FEFECE" filter="url(#f19nchmqrlwy9d)" height="45.4031" id="TransactionalContext" style="stroke:#A80036;stroke-width:0.8999999999999999;" width="88.8" x="370.8" y="639"/><ellipse cx="379.8" cy="648.6" fill="#ADD1B2" rx="6.6" ry="6.6" style="stroke:#A80036;stroke-width:0.6;"/><path d="M381,646.5 Q381.1219,646.2 381.2625,646.05 Q381.4031,645.9 381.5625,645.9 Q381.8438,645.9 382.0219,646.0688 Q382.2,646.2375 382.2,646.6313 L382.2,647.5688 Q382.2,647.9625 382.0313,648.1313 Q381.8625,648.3 381.6,648.3 Q381.3656,648.3 381.2156,648.1969 Q381.0656,648.0938 381,647.8219 Q380.9719,647.6344 380.8688,647.5313 Q380.6813,647.3344 380.3438,647.2219 Q380.0062,647.1 379.6688,647.1 Q379.2469,647.1 378.8906,647.2688 Q378.5438,647.4375 378.2719,647.8125 Q378,648.1875 378,648.7031 L378,649.2563 Q378,649.875 378.5062,650.2875 Q379.0125,650.7 379.9125,650.7 Q380.4469,650.7 380.8219,650.5781 Q381.0375,650.5125 381.2813,650.2969 Q381.4406,650.175 381.525,650.1375 Q381.6094,650.1 381.7125,650.1 Q381.9094,650.1 382.05,650.2594 Q382.2,650.4094 382.2,650.625 Q382.2,650.8313 381.9938,651.075 Q381.6937,651.4313 381.2156,651.6281 Q380.5875,651.9 379.8187,651.9 Q378.9188,651.9 378.1969,651.5437 Q377.6156,651.2625 377.2031,650.6531 Q376.8,650.0437 376.8,649.3219 L376.8,648.6656 Q376.8,647.9156 377.1563,647.2594 Q377.5219,646.6031 378.15,646.2563 Q378.7875,645.9 379.5,645.9 Q379.9313,645.9 380.3063,646.05 Q380.6813,646.2 381,646.5 Z " fill="#000000"/><text fill="#000000" font-family="sans-serif" font-size="7.2" lengthAdjust="spacing" textLength="69.6" x="388.2" y="651.5461">TransactionalContext</text><line style="stroke:#A80036;stroke-width:0.8999999999999999;" x1="371.4" x2="459" y1="658.2" y2="658.2"/><line style="stroke:#A80036;stroke-width:0.8999999999999999;" x1="371.4" x2="459" y1="663" y2="663"/><ellipse cx="377.4" cy="669.6" fill="#84BE84" rx="1.8" ry="1.8" style="stroke:#038048;stroke-width:0.6;"/><text fill="#000000" font-family="sans-serif" font-size="6.6" lengthAdjust="spacing" textLength="54.6" x="382.8" y="672.2514">beginTransaction()</text><ellipse cx="377.4" cy="677.9016" fill="#84BE84" rx="1.8" ry="1.8" style="stroke:#038048;stroke-width:0.6;"/><text fill="#000000" font-family="sans-serif" font-size="6.6" lengthAdjust="spacing" textLength="24.6" x="382.8" y="680.5529">commit()</text><!--MD5=[48590afff58a68e2fcba47824d6f8a11]
class RepositoryFactory--><rect codeLine="70" fill="#FEFECE" filter="url(#f19nchmqrlwy9d)" height="53.7047" id="RepositoryFactory" style="stroke:#A80036;stroke-width:0.8999999999999999;" width="111" x="88.5" y="757.8"/><ellipse cx="112.35" cy="767.4" fill="#ADD1B2" rx="6.6" ry="6.6" style="stroke:#A80036;stroke-width:0.6;"/><path d="M113.55,765.3 Q113.6719,765 113.8125,764.85 Q113.9531,764.7 114.1125,764.7 Q114.3938,764.7 114.5719,764.8688 Q114.75,765.0375 114.75,765.4313 L114.75,766.3688 Q114.75,766.7625 114.5813,766.9313 Q114.4125,767.1 114.15,767.1 Q113.9156,767.1 113.7656,766.9969 Q113.6156,766.8938 113.55,766.6219 Q113.5219,766.4344 113.4188,766.3313 Q113.2313,766.1344 112.8938,766.0219 Q112.5562,765.9 112.2188,765.9 Q111.7969,765.9 111.4406,766.0688 Q111.0938,766.2375 110.8219,766.6125 Q110.55,766.9875 110.55,767.5031 L110.55,768.0563 Q110.55,768.675 111.0562,769.0875 Q111.5625,769.5 112.4625,769.5 Q112.9969,769.5 113.3719,769.3781 Q113.5875,769.3125 113.8313,769.0969 Q113.9906,768.975 114.075,768.9375 Q114.1594,768.9 114.2625,768.9 Q114.4594,768.9 114.6,769.0594 Q114.75,769.2094 114.75,769.425 Q114.75,769.6313 114.5438,769.875 Q114.2437,770.2312 113.7656,770.4281 Q113.1375,770.7 112.3687,770.7 Q111.4688,770.7 110.7469,770.3438 Q110.1656,770.0625 109.7531,769.4531 Q109.35,768.8438 109.35,768.1219 L109.35,767.4656 Q109.35,766.7156 109.7063,766.0594 Q110.0719,765.4031 110.7,765.0563 Q111.3375,764.7 112.05,764.7 Q112.4813,764.7 112.8563,764.85 Q113.2313,765 113.55,765.3 Z " fill="#000000"/><text fill="#000000" font-family="sans-serif" font-size="7.2" lengthAdjust="spacing" textLength="58.8" x="124.05" y="770.3461">RepositoryFactory</text><line style="stroke:#A80036;stroke-width:0.8999999999999999;" x1="89.1" x2="198.9" y1="777" y2="777"/><line style="stroke:#A80036;stroke-width:0.8999999999999999;" x1="89.1" x2="198.9" y1="781.8" y2="781.8"/><ellipse cx="95.1" cy="788.4" fill="#84BE84" rx="1.8" ry="1.8" style="stroke:#038048;stroke-width:0.6;"/><text fill="#000000" font-family="sans-serif" font-size="6.6" lengthAdjust="spacing" textLength="23.4" x="100.5" y="791.0514">create()</text><ellipse cx="95.1" cy="796.7016" fill="#84BE84" rx="1.8" ry="1.8" style="stroke:#038048;stroke-width:0.6;"/><text fill="#000000" font-family="sans-serif" font-size="6.6" lengthAdjust="spacing" textLength="79.2" x="100.5" y="799.3529">newTransactionalContext()</text><ellipse cx="95.1" cy="805.0031" fill="#84BE84" rx="1.8" ry="1.8" style="stroke:#038048;stroke-width:0.6;"/><text fill="#000000" font-family="sans-serif" font-size="6.6" lengthAdjust="spacing" textLength="95.4" x="100.5" y="807.6545">create(TransactionalContext ctx)</text><!--MD5=[5e428fd067d9910880f9c57b84f1a78f]
link AnswerQuestionnaireUI to AnswerQuestionnaireController--><path codeLine="82" d="M450.6,33.108 C450.6,42.354 450.6,54.852 450.6,66.27 " fill="none" id="AnswerQuestionnaireUI-to-AnswerQuestionnaireController" style="stroke:#A80036;stroke-width:0.6;"/><polygon fill="#A80036" points="450.6,69.456,453,64.056,450.6,66.456,448.2,64.056,450.6,69.456" style="stroke:#A80036;stroke-width:0.6;"/><!--MD5=[52eac7aa0f6c1d8292c360690214f391]
link AnswerQuestionnaireController to AnswerQuestionnaireService--><path codeLine="83" d="M450.6,123.78 C450.6,134.184 450.6,146.16 450.6,156.846 " fill="none" id="AnswerQuestionnaireController-to-AnswerQuestionnaireService" style="stroke:#A80036;stroke-width:0.6;"/><polygon fill="#A80036" points="450.6,160.122,453,154.722,450.6,157.122,448.2,154.722,450.6,160.122" style="stroke:#A80036;stroke-width:0.6;"/><!--MD5=[a3909535b1b513a5b70ccdebc52e1480]
link AnswerQuestionnaireService to TcpOrderSrv--><path codeLine="84" d="M426.234,214.23 C415.836,225.51 404.028,238.32 394.92,248.202 " fill="none" id="AnswerQuestionnaireService-to-TcpOrderSrv" style="stroke:#A80036;stroke-width:0.6;"/><polygon fill="#A80036" points="392.664,250.644,398.0846,248.2908,394.6935,248.4347,394.5496,245.0436,392.664,250.644" style="stroke:#A80036;stroke-width:0.6;"/><!--MD5=[8c71e71981398c02d44198a13577b7ea]
link AnswerQuestionnaireService to QuestionnaireDTO--><path codeLine="85" d="M492.81,214.26 C507.972,227.202 521.4,244.38 521.4,264.6 C521.4,264.6 521.4,264.6 521.4,565.8 C521.4,593.202 521.4,625.026 521.4,644.112 " fill="none" id="AnswerQuestionnaireService-to-QuestionnaireDTO" style="stroke:#A80036;stroke-width:0.6;"/><polygon fill="#A80036" points="521.4,647.298,523.8,641.898,521.4,644.298,519,641.898,521.4,647.298" style="stroke:#A80036;stroke-width:0.6;"/><!--MD5=[5bc9ec1b7e62ab4605e037e9cf2ede90]
link OrderSrvController to ClientRepository--><path codeLine="86" d="M328.998,592.38 C326.994,598.206 325.008,604.374 323.4,610.2 C298.17,701.526 279.216,813.774 272.58,855.48 " fill="none" id="OrderSrvController-to-ClientRepository" style="stroke:#A80036;stroke-width:0.6;"/><polygon fill="#A80036" points="272.082,858.594,275.3022,853.6392,272.5543,855.6314,270.5621,852.8835,272.082,858.594" style="stroke:#A80036;stroke-width:0.6;"/><!--MD5=[03ab93fb6c43f176adb644847556cbc2]
link OrderSrvController to AnswerRepository--><path codeLine="87" d="M246.93,574.284 C199.686,583.266 144.648,601.608 108.6,639 C48.93,700.884 43.254,812.808 43.374,855.204 " fill="none" id="OrderSrvController-to-AnswerRepository" style="stroke:#A80036;stroke-width:0.6;"/><polygon fill="#A80036" points="43.392,858.378,45.7611,852.9644,43.3749,855.378,40.9612,852.9918,43.392,858.378" style="stroke:#A80036;stroke-width:0.6;"/><!--MD5=[40a8f4f83fcbf4ff60242d9297f62106]
link OrderSrvController to QuestionnaireDTO--><path codeLine="88" d="M389.568,592.248 C422.592,609.522 464.55,631.47 492.156,645.906 " fill="none" id="OrderSrvController-to-QuestionnaireDTO" style="stroke:#A80036;stroke-width:0.6;"/><polygon fill="#A80036" points="494.946,647.364,491.2717,642.7359,492.2872,645.9745,489.0485,646.99,494.946,647.364" style="stroke:#A80036;stroke-width:0.6;"/><!--MD5=[27fc92c49c8e819887e2d7762f358590]
link OrderSrvController to Questionnaire--><path codeLine="89" d="M430.842,590.79 C474.348,603.588 526.674,620.388 572.4,639 C577.464,641.058 582.738,643.482 587.802,645.954 " fill="none" id="OrderSrvController-to-Questionnaire" style="stroke:#A80036;stroke-width:0.6;"/><polygon fill="#A80036" points="590.592,647.328,586.8122,642.7857,587.9019,646.0001,584.6875,647.0898,590.592,647.328" style="stroke:#A80036;stroke-width:0.6;"/><!--MD5=[d79b7734feccd29e7964777d75d4d58b]
link OrderSrvController to Client--><path codeLine="90" d="M339,592.326 C339,611.466 339,637.932 339,661.2 C339,661.2 339,661.2 339,873.3 C339,925.5 528.018,935.064 593.886,936.81 " fill="none" id="OrderSrvController-to-Client" style="stroke:#A80036;stroke-width:0.6;"/><polygon fill="#A80036" points="596.928,936.888,591.5915,934.35,593.929,936.8109,591.4681,939.1484,596.928,936.888" style="stroke:#A80036;stroke-width:0.6;"/><!--MD5=[fac3030a88a76af9f00073a3fabdfc7f]
link OrderSrvController to Answer--><path codeLine="91" d="M431.04,565.2 C484.398,565.2 537.756,565.2 591.114,565.2 " fill="none" id="OrderSrvController-to-Answer" style="stroke:#A80036;stroke-width:0.6;"/><polygon fill="#A80036" points="594.138,565.2,588.738,562.8,591.138,565.2,588.738,567.6,594.138,565.2" style="stroke:#A80036;stroke-width:0.6;"/><!--MD5=[dda0f0f3fcdc1275e4ee70193dcc86b5]
link OrderSrvController to ListQuestionnaireDTOService--><path codeLine="92" d="M299.316,592.248 C292.668,597.708 286.188,603.774 280.8,610.2 C257.784,637.644 240.648,675.93 231.444,699.45 " fill="none" id="OrderSrvController-to-ListQuestionnaireDTOService" style="stroke:#A80036;stroke-width:0.6;"/><polygon fill="#A80036" points="230.25,702.528,234.4465,698.3675,231.339,699.7326,229.9739,696.6251,230.25,702.528" style="stroke:#A80036;stroke-width:0.6;"/><!--MD5=[844baf67fe2b2809b8628d3f5f69146f]
link ListQuestionnaireDTOService to QuestionnaireRepository--><path codeLine="94" d="M223.902,739.878 C223.368,758.664 220.674,788.52 210,811.8 C202.14,828.942 187.932,844.992 176.412,856.218 " fill="none" id="ListQuestionnaireDTOService-to-QuestionnaireRepository" style="stroke:#A80036;stroke-width:0.6;"/><polygon fill="#A80036" points="174.15,858.396,179.7072,856.3867,176.3138,856.318,176.3825,852.9246,174.15,858.396" style="stroke:#A80036;stroke-width:0.6;"/><!--MD5=[91e5ddf06ac1f94b1d961e09663f9e08]
link OrderSrvController to PersistenceContext--><path codeLine="96" d="M265.284,592.302 C252.774,597.678 240.114,603.702 228.6,610.2 C212.964,619.02 196.848,631.002 184.254,641.136 " fill="none" id="OrderSrvController-to-PersistenceContext" style="stroke:#A80036;stroke-width:0.6;"/><polygon fill="#A80036" points="181.788,643.134,187.4958,641.6041,184.1205,641.2474,184.4773,637.8721,181.788,643.134" style="stroke:#A80036;stroke-width:0.6;"/><!--MD5=[decc4aa6390819fa2022ca2dfc0275fd]
link OrderSrvController to TransactionalContext--><path codeLine="97" d="M360.228,592.374 C371.256,606.18 384.642,622.944 395.448,636.474 " fill="none" id="OrderSrvController-to-TransactionalContext" style="stroke:#A80036;stroke-width:0.6;"/><polygon fill="#A80036" points="397.434,638.958,395.9373,633.2414,395.561,636.6146,392.1878,636.2382,397.434,638.958" style="stroke:#A80036;stroke-width:0.6;"/><!--MD5=[754b775031405e096442b27febffa290]
link PersistenceContext to RepositoryFactory--><path codeLine="99" d="M158.286,680.634 C155.586,700.194 151.26,731.562 148.074,754.656 " fill="none" id="PersistenceContext-to-RepositoryFactory" style="stroke:#A80036;stroke-width:0.6;"/><polygon fill="#A80036" points="147.654,757.71,150.7713,752.6898,148.0651,754.7383,146.0166,752.0321,147.654,757.71" style="stroke:#A80036;stroke-width:0.6;"/><!--MD5=[7e98ba641e2771e3efc9b333390cc0aa]
link RepositoryFactory to ClientRepository--><path codeLine="100" d="M182.49,811.884 C203.874,826.596 229.722,844.386 247.758,856.794 " fill="none" id="RepositoryFactory-to-ClientRepository" style="stroke:#A80036;stroke-width:0.6;"/><polygon fill="#A80036" points="250.362,858.588,247.2718,853.551,247.8899,856.8884,244.5525,857.5064,250.362,858.588" style="stroke:#A80036;stroke-width:0.6;"/><!--MD5=[f37cb68e0f13ffbb5bd10c710263a6d3]
link RepositoryFactory to QuestionnaireRepository--><path codeLine="101" d="M148.398,811.884 C150.762,826.116 153.606,843.222 155.652,855.558 " fill="none" id="RepositoryFactory-to-QuestionnaireRepository" style="stroke:#A80036;stroke-width:0.6;"/><polygon fill="#A80036" points="156.156,858.588,157.6463,852.8697,155.6684,855.6279,152.9102,853.6499,156.156,858.588" style="stroke:#A80036;stroke-width:0.6;"/><!--MD5=[a081d1a26d5604e7c1db8e565489dcad]
link RepositoryFactory to AnswerRepository--><path codeLine="102" d="M113.394,811.884 C96.528,826.476 76.17,844.092 61.842,856.488 " fill="none" id="RepositoryFactory-to-AnswerRepository" style="stroke:#A80036;stroke-width:0.6;"/><polygon fill="#A80036" points="59.418,858.588,65.073,856.8732,61.6879,856.6265,61.9346,853.2413,59.418,858.588" style="stroke:#A80036;stroke-width:0.6;"/><!--MD5=[ae98dd626aed4ceeb7e150ddb7f62a8f]
link Client to Answer--><path codeLine="104" d="M635.466,928.32 C654.57,918.036 681,899.13 681,873.3 C681,661.2 681,661.2 681,661.2 C681,628.686 654.924,599.034 635.856,581.694 " fill="none" id="Client-to-Answer" style="stroke:#A80036;stroke-width:0.6;"/><polygon fill="#A80036" points="633.564,579.642,635.994,585.0286,635.802,581.6399,639.1906,581.4478,633.564,579.642" style="stroke:#A80036;stroke-width:0.6;"/><text fill="#000000" font-family="sans-serif" font-size="7.8" lengthAdjust="spacing" textLength="37.8" x="681.6" y="788.0971">associated</text><text fill="#000000" font-family="sans-serif" font-size="7.8" lengthAdjust="spacing" textLength="4.2" x="633.0846" y="592.455">1</text><!--MD5=[0778099024762eaa443fa09848852443]
link Questionnaire to Client--><path codeLine="105" d="M616.2,676.218 C616.2,722.214 616.2,870.114 616.2,920.334 " fill="none" id="Questionnaire-to-Client" style="stroke:#A80036;stroke-width:0.6;"/><polygon fill="#A80036" points="616.2,923.358,618.6,917.958,616.2,920.358,613.8,917.958,616.2,923.358" style="stroke:#A80036;stroke-width:0.6;"/><text fill="#000000" font-family="sans-serif" font-size="7.8" lengthAdjust="spacing" textLength="24" x="616.8" y="838.4971">targets</text><text fill="#000000" font-family="sans-serif" font-size="7.8" lengthAdjust="spacing" textLength="12" x="602.6625" y="916.9513">1..*</text><!--MD5=[43f9aa50b9dc3016dca1fb2a9fefae9f]
link Answer to Questionnaire--><path codeLine="106" d="M616.2,579.672 C616.2,596.772 616.2,625.818 616.2,644.226 " fill="none" id="Answer-to-Questionnaire" style="stroke:#A80036;stroke-width:0.6;"/><polygon fill="#A80036" points="616.2,647.31,618.6,641.91,616.2,644.31,613.8,641.91,616.2,647.31" style="stroke:#A80036;stroke-width:0.6;"/><text fill="#000000" font-family="sans-serif" font-size="7.8" lengthAdjust="spacing" textLength="37.8" x="616.8" y="618.8971">associated</text><text fill="#000000" font-family="sans-serif" font-size="7.8" lengthAdjust="spacing" textLength="4.2" x="611.4619" y="640.891">1</text><!--MD5=[621b1f20164a8acfbb638087cf7417b8]
link TcpOrderSrv to OrderServerMessageParser--><path codeLine="109" d="M379.8,279.78 C379.8,293.784 379.8,315.516 379.8,331.638 " fill="none" id="TcpOrderSrv-to-OrderServerMessageParser" style="stroke:#A80036;stroke-width:0.6;"/><polygon fill="#A80036" points="379.8,334.782,382.2,329.382,379.8,331.782,377.4,329.382,379.8,334.782" style="stroke:#A80036;stroke-width:0.6;"/><!--MD5=[5762ca37e98a45f80fdc393ed395cae3]
link TcpOrderSrv to OrderServerRequest--><path codeLine="110" d="M349.77,270.282 C308.202,277.338 238.2,292.716 238.2,316.2 C238.2,316.2 238.2,316.2 238.2,427.8 C238.2,454.536 265.95,468.246 292.332,475.242 " fill="none" id="TcpOrderSrv-to-OrderServerRequest" style="stroke:#A80036;stroke-width:0.6;"/><polygon fill="#A80036" points="295.374,476.016,290.7401,472.349,292.4682,475.2703,289.5469,476.9983,295.374,476.016" style="stroke:#A80036;stroke-width:0.6;"/><!--MD5=[042d004963b33f22e34e65443fe7c7de]
link OrderServerMessageParser to OrderServerRequest--><path codeLine="111" d="M374.04,372.126 C366.57,395.64 353.556,436.584 345.666,461.424 " fill="none" id="OrderServerMessageParser-to-OrderServerRequest" style="stroke:#A80036;stroke-width:0.6;"/><polygon fill="#A80036" points="344.73,464.37,348.6549,459.9524,345.64,461.5113,344.081,458.4964,344.73,464.37" style="stroke:#A80036;stroke-width:0.6;"/><!--MD5=[90985d1eace0eeee05ee50ed4b428cf6]
link OrderServerRequest to OrderSrvController--><path codeLine="112" d="M339,501.78 C339,511.584 339,523.932 339,535.074 " fill="none" id="OrderServerRequest-to-OrderSrvController" style="stroke:#A80036;stroke-width:0.6;"/><polygon fill="#A80036" points="339,538.182,341.4,532.782,339,535.182,336.6,532.782,339,538.182" style="stroke:#A80036;stroke-width:0.6;"/><!--MD5=[db4900c58e9afda72c612d05bd88e0a8]
@startuml
'https://plantuml.com/class-diagram



class AnswerQuestionnaireUI
class AnswerQuestionnaireController
class AnswerQuestionnaireService
class Answer
class Client
class Questionnaire
class QuestionnaireDTO
class ListQuestionnaireDTOService
class TcpOrderSrv

class OrderServerMessageParser
class OrderServerRequest
class OrderSrvController

class ListQuestionnaireDTOService {
+questionnairesForClient(clientID)
}

class PersistenceContext{
+repositories()
}


class Client{
}

class OrderServerMessageParser {
+parse(messageRequest, sOutputObject, sIn, sOut, clientMessageUS, sInputObject)
}

class OrderServerRequest {
+execute()
}

class TransactionalContext{
+beginTransaction()
+commit()
}


class AnswerQuestionnaireController {
+questionnairesForClient()
+verifyIfClientAnswered(surveyDTO)
+sendAnswersToBeSaved(answers, surveyDTO)

}

class AnswerQuestionnaireService {
+questionnairesForClient(email)
+verifyIfClientAnswered(surveyDTO)
+sendAnswersToBeSaved(answers, survey, email)
}

database AnswerRepository{
}


database ClientRepository{
}

database QuestionnaireRepository {
}



class RepositoryFactory{
+create()
+newTransactionalContext()
+create(TransactionalContext ctx)
}

class OrderSrvController {
+questionnairesForClient(client)
+saveQuestionnaireAnswers(answers, surveyDTO, email)
+verifyIfClientAnswered(email, surveyCode)
}

AnswerQuestionnaireUI - -> AnswerQuestionnaireController
AnswerQuestionnaireController - -> AnswerQuestionnaireService
AnswerQuestionnaireService - -> TcpOrderSrv
AnswerQuestionnaireService - -> QuestionnaireDTO
OrderSrvController - -> ClientRepository
OrderSrvController - -> AnswerRepository
OrderSrvController - -> QuestionnaireDTO
OrderSrvController - -> Questionnaire
OrderSrvController - -> Client
OrderSrvController -> Answer
OrderSrvController - -> ListQuestionnaireDTOService

ListQuestionnaireDTOService - -> QuestionnaireRepository

OrderSrvController - ->PersistenceContext
OrderSrvController - ->TransactionalContext

PersistenceContext - ->RepositoryFactory
RepositoryFactory - ->ClientRepository
RepositoryFactory - ->QuestionnaireRepository
RepositoryFactory - ->AnswerRepository

Client - - - - -> "1" Answer : associated
Questionnaire -> "1..*" Client : targets
Answer -> "1"  Questionnaire : associated


TcpOrderSrv - -> OrderServerMessageParser
TcpOrderSrv - - - - -> OrderServerRequest
OrderServerMessageParser - -> OrderServerRequest
OrderServerRequest - -> OrderSrvController

@enduml

@startuml



class AnswerQuestionnaireUI
class AnswerQuestionnaireController
class AnswerQuestionnaireService
class Answer
class Client
class Questionnaire
class QuestionnaireDTO
class ListQuestionnaireDTOService
class TcpOrderSrv

class OrderServerMessageParser
class OrderServerRequest
class OrderSrvController

class ListQuestionnaireDTOService {
+questionnairesForClient(clientID)
}

class PersistenceContext{
+repositories()
}


class Client{
}

class OrderServerMessageParser {
+parse(messageRequest, sOutputObject, sIn, sOut, clientMessageUS, sInputObject)
}

class OrderServerRequest {
+execute()
}

class TransactionalContext{
+beginTransaction()
+commit()
}


class AnswerQuestionnaireController {
+questionnairesForClient()
+verifyIfClientAnswered(surveyDTO)
+sendAnswersToBeSaved(answers, surveyDTO)

}

class AnswerQuestionnaireService {
+questionnairesForClient(email)
+verifyIfClientAnswered(surveyDTO)
+sendAnswersToBeSaved(answers, survey, email)
}

database AnswerRepository{
}


database ClientRepository{
}

database QuestionnaireRepository {
}



class RepositoryFactory{
+create()
+newTransactionalContext()
+create(TransactionalContext ctx)
}

class OrderSrvController {
+questionnairesForClient(client)
+saveQuestionnaireAnswers(answers, surveyDTO, email)
+verifyIfClientAnswered(email, surveyCode)
}

AnswerQuestionnaireUI - -> AnswerQuestionnaireController
AnswerQuestionnaireController - -> AnswerQuestionnaireService
AnswerQuestionnaireService - -> TcpOrderSrv
AnswerQuestionnaireService - -> QuestionnaireDTO
OrderSrvController - -> ClientRepository
OrderSrvController - -> AnswerRepository
OrderSrvController - -> QuestionnaireDTO
OrderSrvController - -> Questionnaire
OrderSrvController - -> Client
OrderSrvController -> Answer
OrderSrvController - -> ListQuestionnaireDTOService

ListQuestionnaireDTOService - -> QuestionnaireRepository

OrderSrvController - ->PersistenceContext
OrderSrvController - ->TransactionalContext

PersistenceContext - ->RepositoryFactory
RepositoryFactory - ->ClientRepository
RepositoryFactory - ->QuestionnaireRepository
RepositoryFactory - ->AnswerRepository

Client - - - - -> "1" Answer : associated
Questionnaire -> "1..*" Client : targets
Answer -> "1"  Questionnaire : associated


TcpOrderSrv - -> OrderServerMessageParser
TcpOrderSrv - - - - -> OrderServerRequest
OrderServerMessageParser - -> OrderServerRequest
OrderServerRequest - -> OrderSrvController

@enduml

PlantUML version 1.2021.4(Sun Apr 04 09:49:39 BST 2021)
(GPL source distribution)
Java Runtime: OpenJDK Runtime Environment
JVM: OpenJDK 64-Bit Server VM
Default Encoding: Cp1252
Language: pt
Country: PT
--></g></svg>