<?xml version="1.0" encoding="UTF-8" standalone="no"?><svg xmlns="http://www.w3.org/2000/svg" xmlns:xlink="http://www.w3.org/1999/xlink" contentScriptType="application/ecmascript" contentStyleType="text/css" height="590px" preserveAspectRatio="none" style="width:330px;height:590px;" version="1.1" viewBox="0 0 330 590" width="330px" zoomAndPan="magnify"><defs><filter height="300%" id="f15xv60s4b312r" width="300%" x="-1" y="-1"><feGaussianBlur result="blurOut" stdDeviation="2.0"/><feColorMatrix in="blurOut" result="blurOut2" type="matrix" values="0 0 0 0 0 0 0 0 0 0 0 0 0 0 0 0 0 0 .4 0"/><feOffset dx="4.0" dy="4.0" in="blurOut2" result="blurOut3"/><feBlend in="SourceGraphic" in2="blurOut3" mode="normal"/></filter></defs><g><!--MD5=[866c9c75b5a90d402a17f81b82ed6e8c]
cluster <<aggregate>> Survey--><polygon fill="#FFFFFF" filter="url(#f15xv60s4b312r)" points="16,207,179,207,186,230.6094,200,230.6094,200,441,16,441,16,207" style="stroke:#000000;stroke-width:1.5;"/><line style="stroke:#000000;stroke-width:1.5;" x1="16" x2="186" y1="230.6094" y2="230.6094"/><text fill="#000000" font-family="sans-serif" font-size="14" font-weight="bold" lengthAdjust="spacing" textLength="157" x="20" y="223.5332">&lt;&lt;aggregate&gt;&gt; Survey</text><!--MD5=[10d670d2a558029dbb3ffc83a3028fde]
cluster <<aggregate>> Answer--><polygon fill="#FFFFFF" filter="url(#f15xv60s4b312r)" points="137,6,303,6,310,29.6094,313,29.6094,313,157,137,157,137,6" style="stroke:#000000;stroke-width:1.5;"/><line style="stroke:#000000;stroke-width:1.5;" x1="137" x2="310" y1="29.6094" y2="29.6094"/><text fill="#000000" font-family="sans-serif" font-size="14" font-weight="bold" lengthAdjust="spacing" textLength="160" x="141" y="22.5332">&lt;&lt;aggregate&gt;&gt; Answer</text><!--MD5=[20e996825fabf2618e164db4892593a3]
cluster <<aggregate>> Client--><polygon fill="#FFFFFF" filter="url(#f15xv60s4b312r)" points="119,491,274,491,281,514.6094,284,514.6094,284,583,119,583,119,491" style="stroke:#000000;stroke-width:1.5;"/><line style="stroke:#000000;stroke-width:1.5;" x1="119" x2="281" y1="514.6094" y2="514.6094"/><text fill="#000000" font-family="sans-serif" font-size="14" font-weight="bold" lengthAdjust="spacing" textLength="149" x="123" y="507.5332">&lt;&lt;aggregate&gt;&gt; Client</text><!--MD5=[3145b4be7c5005b24cda6f18a1d594b0]
class Survey--><rect codeLine="19" fill="#F5F5DC" filter="url(#f15xv60s4b312r)" height="181.9688" id="Survey" style="stroke:#A80036;stroke-width:1.5;" width="151" x="32.5" y="243"/><ellipse cx="84.25" cy="270.6406" fill="#ADD1B2" rx="11" ry="11" style="stroke:#A80036;stroke-width:1.0;"/><path d="M82.75,271.6406 L82.75,273.6406 L86.75,273.6406 L86.75,272.6406 L86.75,272.1563 L87.375,271.6406 L87.75,271.6406 L88.125,271.6406 L88.75,272.1563 L88.75,272.6406 L88.75,275.6406 L80.75,275.6406 L80.2656,275.6406 L79.75,275.0156 L79.75,274.6406 L79.75,274.2656 L80.2656,273.6406 L80.75,273.6406 L80.75,273.6406 L80.75,267.6406 L80.75,267.6406 L80.2656,267.6406 L79.75,267.0156 L79.75,266.6406 L79.75,266.2656 L80.2656,265.6406 L80.75,265.6406 L88.75,265.6406 L88.75,268.6406 L88.75,269.125 L88.125,269.6406 L87.75,269.6406 L87.375,269.6406 L86.75,269.125 L86.75,268.6406 L86.75,267.6406 L82.75,267.6406 L82.75,269.6406 L83.75,269.6406 L83.75,269.1563 L83.75,269.1563 L84.375,268.6406 L84.75,268.6406 L85.125,268.6406 L85.75,269.1563 L85.75,269.6406 L85.75,271.6406 L85.75,272.125 L85.125,272.6406 L85.125,272.6406 L84.75,272.6406 L84.375,272.6406 L83.75,272.125 L83.75,272.125 L83.75,271.6406 L82.75,271.6406 Z " fill="#000000"/><text fill="#000000" font-family="sans-serif" font-size="12" font-style="italic" lengthAdjust="spacing" textLength="43" x="102.75" y="260.457">«entity»</text><text fill="#000000" font-family="sans-serif" font-size="12" font-style="italic" lengthAdjust="spacing" textLength="35" x="106.75" y="275.5508">«root»</text><text fill="#000000" font-family="sans-serif" font-size="12" lengthAdjust="spacing" textLength="36" x="106.25" y="290.6445">Survey</text><line style="stroke:#A80036;stroke-width:1.5;" x1="33.5" x2="182.5" y1="298.2813" y2="298.2813"/><text fill="#000000" font-family="sans-serif" font-size="11" lengthAdjust="spacing" textLength="126" x="38.5" y="313.7002">-«VO» AlphanumericCode</text><text fill="#000000" font-family="sans-serif" font-size="11" lengthAdjust="spacing" textLength="80" x="38.5" y="327.5361">-«VO» InitialDate</text><text fill="#000000" font-family="sans-serif" font-size="11" lengthAdjust="spacing" textLength="79" x="38.5" y="341.3721">-«VO» FinalDate</text><text fill="#000000" font-family="sans-serif" font-size="11" lengthAdjust="spacing" textLength="139" x="38.5" y="355.208">-«VO» TargetAudienceRules</text><text fill="#000000" font-family="sans-serif" font-size="11" lengthAdjust="spacing" textLength="54" x="38.5" y="369.0439">-«VO» Title</text><text fill="#000000" font-family="sans-serif" font-size="11" lengthAdjust="spacing" textLength="123" x="38.5" y="382.8799">-«VO» WelcomeMessage</text><text fill="#000000" font-family="sans-serif" font-size="11" lengthAdjust="spacing" textLength="72" x="38.5" y="396.7158">-«VO» Content</text><text fill="#000000" font-family="sans-serif" font-size="11" lengthAdjust="spacing" textLength="101" x="38.5" y="410.5518">-«VO» FinalMessage</text><line style="stroke:#A80036;stroke-width:1.5;" x1="33.5" x2="182.5" y1="416.9688" y2="416.9688"/><!--MD5=[f9fadfa5a66b7e5a67b370cd443ffe52]
class Answer--><rect codeLine="31" fill="#F5F5DC" filter="url(#f15xv60s4b312r)" height="98.9531" id="Answer" style="stroke:#A80036;stroke-width:1.5;" width="99" x="175.5" y="42"/><ellipse cx="202.2" cy="69.6406" fill="#ADD1B2" rx="11" ry="11" style="stroke:#A80036;stroke-width:1.0;"/><path d="M200.7,70.6406 L200.7,72.6406 L204.7,72.6406 L204.7,71.6406 L204.7,71.1563 L205.325,70.6406 L205.7,70.6406 L206.075,70.6406 L206.7,71.1563 L206.7,71.6406 L206.7,74.6406 L198.7,74.6406 L198.2156,74.6406 L197.7,74.0156 L197.7,73.6406 L197.7,73.2656 L198.2156,72.6406 L198.7,72.6406 L198.7,72.6406 L198.7,66.6406 L198.7,66.6406 L198.2156,66.6406 L197.7,66.0156 L197.7,65.6406 L197.7,65.2656 L198.2156,64.6406 L198.7,64.6406 L206.7,64.6406 L206.7,67.6406 L206.7,68.125 L206.075,68.6406 L205.7,68.6406 L205.325,68.6406 L204.7,68.125 L204.7,67.6406 L204.7,66.6406 L200.7,66.6406 L200.7,68.6406 L201.7,68.6406 L201.7,68.1563 L201.7,68.1563 L202.325,67.6406 L202.7,67.6406 L203.075,67.6406 L203.7,68.1563 L203.7,68.6406 L203.7,70.6406 L203.7,71.125 L203.075,71.6406 L203.075,71.6406 L202.7,71.6406 L202.325,71.6406 L201.7,71.125 L201.7,71.125 L201.7,70.6406 L200.7,70.6406 Z " fill="#000000"/><text fill="#000000" font-family="sans-serif" font-size="12" font-style="italic" lengthAdjust="spacing" textLength="43" x="217.8" y="59.457">«entity»</text><text fill="#000000" font-family="sans-serif" font-size="12" font-style="italic" lengthAdjust="spacing" textLength="35" x="221.8" y="74.5508">«root»</text><text fill="#000000" font-family="sans-serif" font-size="12" lengthAdjust="spacing" textLength="41" x="218.8" y="89.6445">Answer</text><line style="stroke:#A80036;stroke-width:1.5;" x1="176.5" x2="273.5" y1="97.2813" y2="97.2813"/><text fill="#000000" font-family="sans-serif" font-size="11" lengthAdjust="spacing" textLength="87" x="181.5" y="112.7002">-«VO» QuestionID</text><text fill="#000000" font-family="sans-serif" font-size="11" lengthAdjust="spacing" textLength="81" x="181.5" y="126.5361">-«VO» Answers</text><line style="stroke:#A80036;stroke-width:1.5;" x1="176.5" x2="273.5" y1="132.9531" y2="132.9531"/><!--MD5=[ed6624c6556d5e7b1bd23032162d20b7]
class Client--><rect codeLine="16" fill="#F5F5DC" filter="url(#f15xv60s4b312r)" height="40" id="Client" style="stroke:#A80036;stroke-width:1.5;" width="64" x="169" y="527"/><ellipse cx="184" cy="543" fill="#ADD1B2" rx="11" ry="11" style="stroke:#A80036;stroke-width:1.0;"/><path d="M182.5,544 L182.5,546 L186.5,546 L186.5,545 L186.5,544.5156 L187.125,544 L187.5,544 L187.875,544 L188.5,544.5156 L188.5,545 L188.5,548 L180.5,548 L180.0156,548 L179.5,547.375 L179.5,547 L179.5,546.625 L180.0156,546 L180.5,546 L180.5,546 L180.5,540 L180.5,540 L180.0156,540 L179.5,539.375 L179.5,539 L179.5,538.625 L180.0156,538 L180.5,538 L188.5,538 L188.5,541 L188.5,541.4844 L187.875,542 L187.5,542 L187.125,542 L186.5,541.4844 L186.5,541 L186.5,540 L182.5,540 L182.5,542 L183.5,542 L183.5,541.5156 L183.5,541.5156 L184.125,541 L184.5,541 L184.875,541 L185.5,541.5156 L185.5,542 L185.5,544 L185.5,544.4844 L184.875,545 L184.875,545 L184.5,545 L184.125,545 L183.5,544.4844 L183.5,544.4844 L183.5,544 L182.5,544 Z " fill="#000000"/><text fill="#000000" font-family="sans-serif" font-size="12" lengthAdjust="spacing" textLength="32" x="198" y="547.9102">Client</text><line style="stroke:#A80036;stroke-width:1.5;" x1="170" x2="232" y1="559" y2="559"/><!--MD5=[b2c851659ad328287d3e4f757cf524aa]
link Survey to Client--><path codeLine="38" d="M147.71,425.1 C163.29,460.44 179.91,498.14 190.37,521.87 " fill="none" id="Survey-to-Client" style="stroke:#222222;stroke-width:1.0;"/><polygon fill="#222222" points="192.5,526.72,192.5428,516.8712,190.4892,522.1422,185.2182,520.0886,192.5,526.72" style="stroke:#222222;stroke-width:1.0;"/><text fill="#000000" font-family="sans-serif" font-size="13" lengthAdjust="spacing" textLength="40" x="169" y="471.4951">targets</text><text fill="#000000" font-family="sans-serif" font-size="13" lengthAdjust="spacing" textLength="5" x="184.4063" y="516.3108">*</text><!--MD5=[f7b003fee6867e68fc83a788dc45f637]
link Answer to Survey--><path codeLine="39" d="M183.64,141.01 C176.14,151.18 168.85,162.13 163,173 C152.13,193.2 142.77,215.96 135.02,237.85 " fill="none" id="Answer-to-Survey" style="stroke:#222222;stroke-width:1.0;"/><polygon fill="#222222" points="133.29,242.8,140.0483,235.6358,134.9481,238.0829,132.501,232.9828,133.29,242.8" style="stroke:#222222;stroke-width:1.0;"/><text fill="#000000" font-family="sans-serif" font-size="13" lengthAdjust="spacing" textLength="63" x="164" y="187.4951">associated</text><text fill="#000000" font-family="sans-serif" font-size="13" lengthAdjust="spacing" textLength="7" x="128.0945" y="232.096">1</text><!--MD5=[dc9ff66ddd8e13a2e5a6d0f1f8d92a15]
link Answer to Client--><path codeLine="40" d="M229.94,141.41 C230.8,151.83 231.56,162.77 232,173 C232.35,180.99 232.2,183 232,191 C228.89,317.34 235.9,349.9 218,475 C215.73,490.87 211.55,508.39 207.91,522.05 " fill="none" id="Answer-to-Client" style="stroke:#222222;stroke-width:1.0;"/><polygon fill="#222222" points="206.59,526.9,212.7922,519.2494,207.8899,522.0719,205.0673,517.1696,206.59,526.9" style="stroke:#222222;stroke-width:1.0;"/><text fill="#000000" font-family="sans-serif" font-size="13" lengthAdjust="spacing" textLength="73" x="232" y="339.4951">answered by</text><text fill="#000000" font-family="sans-serif" font-size="13" lengthAdjust="spacing" textLength="7" x="200.2039" y="516.1924">1</text><!--MD5=[3adebfb46070fcd255704f69dddca9db]
@startuml

skinparam classAttributeIconSize 0
hide empty attributes
skinparam classBackgroundColor beige
skinparam ArrowColor #222222

package "<<aggregate>> Survey" {
    entity Survey
}

package "<<aggregate>> Answer" {
    entity Answer
}

package "<<aggregate>> Client" {
    entity Client
}

entity Survey <<entity>> <<root>> {
    - <<VO>> AlphanumericCode
    /'- <<VO>> TopicQuestionnaire'/
    - <<VO>> InitialDate
    - <<VO>> FinalDate
    - <<VO>> TargetAudienceRules
    - <<VO>> Title
    - <<VO>> WelcomeMessage
    - <<VO>> Content
    - <<VO>> FinalMessage
}

entity Answer <<entity>> <<root>> {
    - <<VO>> QuestionID
    - <<VO>> Answers
}



Survey - -> "*" Client : targets
Answer - -> "1" Survey : associated
Answer - -> "1" Client : answered by





@enduml

@startuml

skinparam classAttributeIconSize 0
hide empty attributes
skinparam classBackgroundColor beige
skinparam ArrowColor #222222

package "<<aggregate>> Survey" {
    entity Survey
}

package "<<aggregate>> Answer" {
    entity Answer
}

package "<<aggregate>> Client" {
    entity Client
}

entity Survey <<entity>> <<root>> {
    - <<VO>> AlphanumericCode
    - <<VO>> InitialDate
    - <<VO>> FinalDate
    - <<VO>> TargetAudienceRules
    - <<VO>> Title
    - <<VO>> WelcomeMessage
    - <<VO>> Content
    - <<VO>> FinalMessage
}

entity Answer <<entity>> <<root>> {
    - <<VO>> QuestionID
    - <<VO>> Answers
}



Survey - -> "*" Client : targets
Answer - -> "1" Survey : associated
Answer - -> "1" Client : answered by





@enduml

PlantUML version 1.2021.4(Sun Apr 04 09:49:39 BST 2021)
(GPL source distribution)
Java Runtime: OpenJDK Runtime Environment
JVM: OpenJDK 64-Bit Server VM
Default Encoding: Cp1252
Language: pt
Country: PT
--></g></svg>