<?xml version="1.0" encoding="UTF-8" standalone="no"?><svg xmlns="http://www.w3.org/2000/svg" xmlns:xlink="http://www.w3.org/1999/xlink" contentScriptType="application/ecmascript" contentStyleType="text/css" height="737px" preserveAspectRatio="none" style="width:532px;height:737px;" version="1.1" viewBox="0 0 532 737" width="532px" zoomAndPan="magnify"><defs><filter height="300%" id="f1ef7amttxmja" width="300%" x="-1" y="-1"><feGaussianBlur result="blurOut" stdDeviation="2.0"/><feColorMatrix in="blurOut" result="blurOut2" type="matrix" values="0 0 0 0 0 0 0 0 0 0 0 0 0 0 0 0 0 0 .4 0"/><feOffset dx="4.0" dy="4.0" in="blurOut2" result="blurOut3"/><feBlend in="SourceGraphic" in2="blurOut3" mode="normal"/></filter></defs><g><!--MD5=[9dd4458791199fa45785259e7581e7a7]
cluster <<aggregate>> Order--><polygon fill="#FFFFFF" filter="url(#f1ef7amttxmja)" points="161,339,316,339,323,362.6094,326,362.6094,326,684,161,684,161,339" style="stroke:#000000;stroke-width:1.5;"/><line style="stroke:#000000;stroke-width:1.5;" x1="161" x2="323" y1="362.6094" y2="362.6094"/><text fill="#000000" font-family="sans-serif" font-size="14" font-weight="bold" lengthAdjust="spacing" textLength="149" x="165" y="355.5332">&lt;&lt;aggregate&gt;&gt; Order</text><!--MD5=[db53c58abe70499843a85815d88add8b]
cluster <<aggregate>> Employee--><polygon fill="#FFFFFF" filter="url(#f1ef7amttxmja)" points="197,152,379,152,386,175.6094,389,175.6094,389,289,197,289,197,152" style="stroke:#000000;stroke-width:1.5;"/><line style="stroke:#000000;stroke-width:1.5;" x1="197" x2="386" y1="175.6094" y2="175.6094"/><text fill="#000000" font-family="sans-serif" font-size="14" font-weight="bold" lengthAdjust="spacing" textLength="176" x="201" y="168.5332">&lt;&lt;aggregate&gt;&gt; Employee</text><!--MD5=[597c9b6a35d8038d4b40fd8870ba90aa]
cluster <<aggregate>> User--><polygon fill="#FFFFFF" filter="url(#f1ef7amttxmja)" points="16,6,163,6,170,29.6094,173,29.6094,173,270.5,16,270.5,16,6" style="stroke:#000000;stroke-width:1.5;"/><line style="stroke:#000000;stroke-width:1.5;" x1="16" x2="170" y1="29.6094" y2="29.6094"/><text fill="#000000" font-family="sans-serif" font-size="14" font-weight="bold" lengthAdjust="spacing" textLength="141" x="20" y="22.5332">&lt;&lt;aggregate&gt;&gt; User</text><!--MD5=[20e996825fabf2618e164db4892593a3]
cluster <<aggregate>> Client--><polygon fill="#FFFFFF" filter="url(#f1ef7amttxmja)" points="350,538,505,538,512,561.6094,515,561.6094,515,730,350,730,350,538" style="stroke:#000000;stroke-width:1.5;"/><line style="stroke:#000000;stroke-width:1.5;" x1="350" x2="512" y1="561.6094" y2="561.6094"/><text fill="#000000" font-family="sans-serif" font-size="14" font-weight="bold" lengthAdjust="spacing" textLength="149" x="354" y="554.5332">&lt;&lt;aggregate&gt;&gt; Client</text><!--MD5=[cf4d6237fcae255cd2e1656cf84a30e2]
class Order--><rect codeLine="24" fill="#F5F5DC" filter="url(#f1ef7amttxmja)" height="98.9531" id="Order" style="stroke:#A80036;stroke-width:1.5;" width="83" x="222.5" y="375"/><ellipse cx="242.9" cy="402.6406" fill="#ADD1B2" rx="11" ry="11" style="stroke:#A80036;stroke-width:1.0;"/><path d="M241.4,403.6406 L241.4,405.6406 L245.4,405.6406 L245.4,404.6406 L245.4,404.1563 L246.025,403.6406 L246.4,403.6406 L246.775,403.6406 L247.4,404.1563 L247.4,404.6406 L247.4,407.6406 L239.4,407.6406 L238.9156,407.6406 L238.4,407.0156 L238.4,406.6406 L238.4,406.2656 L238.9156,405.6406 L239.4,405.6406 L239.4,405.6406 L239.4,399.6406 L239.4,399.6406 L238.9156,399.6406 L238.4,399.0156 L238.4,398.6406 L238.4,398.2656 L238.9156,397.6406 L239.4,397.6406 L247.4,397.6406 L247.4,400.6406 L247.4,401.125 L246.775,401.6406 L246.4,401.6406 L246.025,401.6406 L245.4,401.125 L245.4,400.6406 L245.4,399.6406 L241.4,399.6406 L241.4,401.6406 L242.4,401.6406 L242.4,401.1563 L242.4,401.1563 L243.025,400.6406 L243.4,400.6406 L243.775,400.6406 L244.4,401.1563 L244.4,401.6406 L244.4,403.6406 L244.4,404.125 L243.775,404.6406 L243.775,404.6406 L243.4,404.6406 L243.025,404.6406 L242.4,404.125 L242.4,404.125 L242.4,403.6406 L241.4,403.6406 Z " fill="#000000"/><text fill="#000000" font-family="sans-serif" font-size="12" font-style="italic" lengthAdjust="spacing" textLength="43" x="256.1" y="392.457">«entity»</text><text fill="#000000" font-family="sans-serif" font-size="12" font-style="italic" lengthAdjust="spacing" textLength="35" x="260.1" y="407.5508">«root»</text><text fill="#000000" font-family="sans-serif" font-size="12" lengthAdjust="spacing" textLength="31" x="262.1" y="422.6445">Order</text><line style="stroke:#A80036;stroke-width:1.5;" x1="223.5" x2="304.5" y1="430.2813" y2="430.2813"/><text fill="#000000" font-family="sans-serif" font-size="11" lengthAdjust="spacing" textLength="71" x="228.5" y="445.7002">-«VO» OrderId</text><text fill="#000000" font-family="sans-serif" font-size="11" lengthAdjust="spacing" textLength="56" x="228.5" y="459.5361">-CreatedOn</text><line style="stroke:#A80036;stroke-width:1.5;" x1="223.5" x2="304.5" y1="465.9531" y2="465.9531"/><!--MD5=[e3d83ec5fd90ea9f3f2bfe265cb53458]
class Status--><rect codeLine="29" fill="#F5F5DC" filter="url(#f1ef7amttxmja)" height="48.1875" id="Status" style="stroke:#A80036;stroke-width:1.5;" width="109" x="200.5" y="620"/><ellipse cx="215.5" cy="640.0938" fill="#FF8B40" rx="11" ry="11" style="stroke:#A80036;stroke-width:1.0;"/><path d="M215.5,643.375 L217.0313,637.8438 L217.0313,637.8438 L216.5156,637.8438 L216,637.2188 L216,636.8438 L216,636.4688 L216.5156,635.8438 L217.0313,635.8438 L218.9063,635.8438 L219.4844,635.8438 L220,636.4688 L220,636.8438 L220,637.2188 L219.4844,637.8438 L219.4844,637.8438 L219.0313,637.8438 L216.6875,645.8438 L214.3125,645.8438 L211.8438,637.8438 L211.5156,637.8438 L211.5156,637.8438 L211,637.2188 L211,636.8438 L211,636.4688 L211.5156,635.8438 L212.0938,635.8438 L213.9688,635.8438 L214.4844,635.8438 L215,636.4688 L215,636.8438 L215,637.2188 L214.4844,637.8438 L213.9688,637.8438 L213.9688,637.8438 L215.5,643.375 Z " fill="#000000"/><text fill="#000000" font-family="sans-serif" font-size="12" font-style="italic" lengthAdjust="spacing" textLength="81" x="227.5" y="637.457">«value object»</text><text fill="#000000" font-family="sans-serif" font-size="12" lengthAdjust="spacing" textLength="35" x="250.5" y="652.5508">Status</text><line style="stroke:#A80036;stroke-width:1.5;" x1="201.5" x2="308.5" y1="660.1875" y2="660.1875"/><!--MD5=[7421f545a0d8420c5bec41e74b387d9c]
class Employee--><rect codeLine="32" fill="#F5F5DC" filter="url(#f1ef7amttxmja)" height="85.1172" id="Employee" style="stroke:#A80036;stroke-width:1.5;" width="102" x="213" y="188"/><ellipse cx="234.75" cy="215.6406" fill="#ADD1B2" rx="11" ry="11" style="stroke:#A80036;stroke-width:1.0;"/><path d="M233.25,216.6406 L233.25,218.6406 L237.25,218.6406 L237.25,217.6406 L237.25,217.1563 L237.875,216.6406 L238.25,216.6406 L238.625,216.6406 L239.25,217.1563 L239.25,217.6406 L239.25,220.6406 L231.25,220.6406 L230.7656,220.6406 L230.25,220.0156 L230.25,219.6406 L230.25,219.2656 L230.7656,218.6406 L231.25,218.6406 L231.25,218.6406 L231.25,212.6406 L231.25,212.6406 L230.7656,212.6406 L230.25,212.0156 L230.25,211.6406 L230.25,211.2656 L230.7656,210.6406 L231.25,210.6406 L239.25,210.6406 L239.25,213.6406 L239.25,214.125 L238.625,214.6406 L238.25,214.6406 L237.875,214.6406 L237.25,214.125 L237.25,213.6406 L237.25,212.6406 L233.25,212.6406 L233.25,214.6406 L234.25,214.6406 L234.25,214.1563 L234.25,214.1563 L234.875,213.6406 L235.25,213.6406 L235.625,213.6406 L236.25,214.1563 L236.25,214.6406 L236.25,216.6406 L236.25,217.125 L235.625,217.6406 L235.625,217.6406 L235.25,217.6406 L234.875,217.6406 L234.25,217.125 L234.25,217.125 L234.25,216.6406 L233.25,216.6406 Z " fill="#000000"/><text fill="#000000" font-family="sans-serif" font-size="12" font-style="italic" lengthAdjust="spacing" textLength="43" x="256.25" y="205.457">«entity»</text><text fill="#000000" font-family="sans-serif" font-size="12" font-style="italic" lengthAdjust="spacing" textLength="35" x="260.25" y="220.5508">«root»</text><text fill="#000000" font-family="sans-serif" font-size="12" lengthAdjust="spacing" textLength="55" x="250.25" y="235.6445">Employee</text><line style="stroke:#A80036;stroke-width:1.5;" x1="214" x2="314" y1="243.2813" y2="243.2813"/><text fill="#000000" font-family="sans-serif" font-size="11" lengthAdjust="spacing" textLength="90" x="219" y="258.7002">-«VO» EmployeeID</text><line style="stroke:#A80036;stroke-width:1.5;" x1="214" x2="314" y1="265.1172" y2="265.1172"/><!--MD5=[3fd616f346a44cd59a91eb10b19e157c]
class User--><rect codeLine="36" fill="#F5F5DC" filter="url(#f1ef7amttxmja)" height="63.2813" id="User" style="stroke:#A80036;stroke-width:1.5;" width="71" x="76.5" y="42"/><ellipse cx="91.5" cy="69.6406" fill="#ADD1B2" rx="11" ry="11" style="stroke:#A80036;stroke-width:1.0;"/><path d="M90,70.6406 L90,72.6406 L94,72.6406 L94,71.6406 L94,71.1563 L94.625,70.6406 L95,70.6406 L95.375,70.6406 L96,71.1563 L96,71.6406 L96,74.6406 L88,74.6406 L87.5156,74.6406 L87,74.0156 L87,73.6406 L87,73.2656 L87.5156,72.6406 L88,72.6406 L88,72.6406 L88,66.6406 L88,66.6406 L87.5156,66.6406 L87,66.0156 L87,65.6406 L87,65.2656 L87.5156,64.6406 L88,64.6406 L96,64.6406 L96,67.6406 L96,68.125 L95.375,68.6406 L95,68.6406 L94.625,68.6406 L94,68.125 L94,67.6406 L94,66.6406 L90,66.6406 L90,68.6406 L91,68.6406 L91,68.1563 L91,68.1563 L91.625,67.6406 L92,67.6406 L92.375,67.6406 L93,68.1563 L93,68.6406 L93,70.6406 L93,71.125 L92.375,71.6406 L92.375,71.6406 L92,71.6406 L91.625,71.6406 L91,71.125 L91,71.125 L91,70.6406 L90,70.6406 Z " fill="#000000"/><text fill="#000000" font-family="sans-serif" font-size="12" font-style="italic" lengthAdjust="spacing" textLength="43" x="103.5" y="59.457">«entity»</text><text fill="#000000" font-family="sans-serif" font-size="12" font-style="italic" lengthAdjust="spacing" textLength="35" x="107.5" y="74.5508">«root»</text><text fill="#000000" font-family="sans-serif" font-size="12" lengthAdjust="spacing" textLength="27" x="111.5" y="89.6445">User</text><line style="stroke:#A80036;stroke-width:1.5;" x1="77.5" x2="146.5" y1="97.2813" y2="97.2813"/><!--MD5=[a3638c1e5b65d287ecad7f06f5c0f212]
class Role--><rect codeLine="39" fill="#F5F5DC" filter="url(#f1ef7amttxmja)" height="48.1875" id="Role" style="stroke:#A80036;stroke-width:1.5;" width="109" x="47.5" y="206.5"/><ellipse cx="62.5" cy="226.5938" fill="#FF8B40" rx="11" ry="11" style="stroke:#A80036;stroke-width:1.0;"/><path d="M62.5,229.875 L64.0313,224.3438 L64.0313,224.3438 L63.5156,224.3438 L63,223.7188 L63,223.3438 L63,222.9688 L63.5156,222.3438 L64.0313,222.3438 L65.9063,222.3438 L66.4844,222.3438 L67,222.9688 L67,223.3438 L67,223.7188 L66.4844,224.3438 L66.4844,224.3438 L66.0313,224.3438 L63.6875,232.3438 L61.3125,232.3438 L58.8438,224.3438 L58.5156,224.3438 L58.5156,224.3438 L58,223.7188 L58,223.3438 L58,222.9688 L58.5156,222.3438 L59.0938,222.3438 L60.9688,222.3438 L61.4844,222.3438 L62,222.9688 L62,223.3438 L62,223.7188 L61.4844,224.3438 L60.9688,224.3438 L60.9688,224.3438 L62.5,229.875 Z " fill="#000000"/><text fill="#000000" font-family="sans-serif" font-size="12" font-style="italic" lengthAdjust="spacing" textLength="81" x="74.5" y="223.957">«value object»</text><text fill="#000000" font-family="sans-serif" font-size="12" lengthAdjust="spacing" textLength="26" x="102" y="239.0508">Role</text><line style="stroke:#A80036;stroke-width:1.5;" x1="48.5" x2="155.5" y1="246.6875" y2="246.6875"/><!--MD5=[ed6624c6556d5e7b1bd23032162d20b7]
class Client--><rect codeLine="42" fill="#F5F5DC" filter="url(#f1ef7amttxmja)" height="140.4609" id="Client" style="stroke:#A80036;stroke-width:1.5;" width="114" x="366" y="574"/><ellipse cx="400.35" cy="601.6406" fill="#ADD1B2" rx="11" ry="11" style="stroke:#A80036;stroke-width:1.0;"/><path d="M398.85,602.6406 L398.85,604.6406 L402.85,604.6406 L402.85,603.6406 L402.85,603.1563 L403.475,602.6406 L403.85,602.6406 L404.225,602.6406 L404.85,603.1563 L404.85,603.6406 L404.85,606.6406 L396.85,606.6406 L396.3656,606.6406 L395.85,606.0156 L395.85,605.6406 L395.85,605.2656 L396.3656,604.6406 L396.85,604.6406 L396.85,604.6406 L396.85,598.6406 L396.85,598.6406 L396.3656,598.6406 L395.85,598.0156 L395.85,597.6406 L395.85,597.2656 L396.3656,596.6406 L396.85,596.6406 L404.85,596.6406 L404.85,599.6406 L404.85,600.125 L404.225,600.6406 L403.85,600.6406 L403.475,600.6406 L402.85,600.125 L402.85,599.6406 L402.85,598.6406 L398.85,598.6406 L398.85,600.6406 L399.85,600.6406 L399.85,600.1563 L399.85,600.1563 L400.475,599.6406 L400.85,599.6406 L401.225,599.6406 L401.85,600.1563 L401.85,600.6406 L401.85,602.6406 L401.85,603.125 L401.225,603.6406 L401.225,603.6406 L400.85,603.6406 L400.475,603.6406 L399.85,603.125 L399.85,603.125 L399.85,602.6406 L398.85,602.6406 Z " fill="#000000"/><text fill="#000000" font-family="sans-serif" font-size="12" font-style="italic" lengthAdjust="spacing" textLength="43" x="416.65" y="591.457">«entity»</text><text fill="#000000" font-family="sans-serif" font-size="12" font-style="italic" lengthAdjust="spacing" textLength="35" x="420.65" y="606.5508">«root»</text><text fill="#000000" font-family="sans-serif" font-size="12" lengthAdjust="spacing" textLength="32" x="422.15" y="621.6445">Client</text><line style="stroke:#A80036;stroke-width:1.5;" x1="367" x2="479" y1="629.2813" y2="629.2813"/><text fill="#000000" font-family="sans-serif" font-size="11" lengthAdjust="spacing" textLength="70" x="372" y="644.7002">-«VO» ClientID</text><text fill="#000000" font-family="sans-serif" font-size="11" lengthAdjust="spacing" textLength="62" x="372" y="658.5361">-«VO» Name</text><text fill="#000000" font-family="sans-serif" font-size="11" lengthAdjust="spacing" textLength="57" x="372" y="672.3721">-«VO» VAT</text><text fill="#000000" font-family="sans-serif" font-size="11" lengthAdjust="spacing" textLength="59" x="372" y="686.208">-«VO» Email</text><text fill="#000000" font-family="sans-serif" font-size="11" lengthAdjust="spacing" textLength="102" x="372" y="700.0439">-«VO» PhoneNumber</text><line style="stroke:#A80036;stroke-width:1.5;" x1="367" x2="479" y1="706.4609" y2="706.4609"/><!--MD5=[70c37dc9bfbc8656942103c36f1181e4]
link User to Role--><path codeLine="52" d="M110.02,105.12 C108.23,132.91 105.61,173.59 103.85,200.77 " fill="none" id="User-to-Role" style="stroke:#222222;stroke-width:1.0;"/><polygon fill="#222222" points="103.51,206.02,108.0932,197.3025,103.8388,201.0308,100.1105,196.7764,103.51,206.02" style="stroke:#222222;stroke-width:1.0;"/><text fill="#000000" font-family="sans-serif" font-size="13" lengthAdjust="spacing" textLength="20" x="81.4406" y="195.6181">1..*</text><!--MD5=[1e9705534ea2f5f3045e58998aa20e5a]
reverse link User to Employee--><path codeLine="53" d="M145.63,108.8 C168.48,132.1 198.85,163.06 223.1,187.79 " fill="none" id="User-backto-Employee" style="stroke:#222222;stroke-width:1.0;"/><polygon fill="#222222" points="142.03,105.12,145.4725,114.3476,145.5296,108.6911,151.1862,108.7482,142.03,105.12" style="stroke:#222222;stroke-width:1.0;"/><text fill="#000000" font-family="sans-serif" font-size="13" lengthAdjust="spacing" textLength="7" x="140.5018" y="126.794">1</text><!--MD5=[c2914b4a672fac54a344b435f240d3ed]
link Employee to Order--><path codeLine="55" d="M264,273.16 C264,303.05 264,343.42 264,374.8 " fill="none" id="Employee-Order" style="stroke:#222222;stroke-width:1.0;"/><polygon fill="#000000" points="269,319.1758,271.9389,310.1307,266.0611,310.1307,269,319.1758" style="stroke:#000000;stroke-width:1.0;"/><text fill="#000000" font-family="sans-serif" font-size="13" lengthAdjust="spacing" textLength="53" x="278" y="319.4951">manages</text><!--MD5=[b4eabd1a63a4ad1f2f93b60573323bf1]
link Order to Client--><path codeLine="56" d="M299.48,474.04 C320.07,502.2 346.4,538.22 369.46,569.76 " fill="none" id="Order-to-Client" style="stroke:#222222;stroke-width:1.0;"/><polygon fill="#222222" points="372.55,573.98,370.4652,564.3543,369.5981,569.9444,364.0081,569.0773,372.55,573.98" style="stroke:#222222;stroke-width:1.0;"/><text fill="#000000" font-family="sans-serif" font-size="13" lengthAdjust="spacing" textLength="61" x="334" y="518.4951">ordered by</text><text fill="#000000" font-family="sans-serif" font-size="13" lengthAdjust="spacing" textLength="7" x="359.6492" y="562.9357">1</text><!--MD5=[122b4dd1f45a639d4ce979ab5433d793]
link Order to Status--><path codeLine="57" d="M261.99,474.04 C260.2,517.36 257.64,579.29 256.16,614.89 " fill="none" id="Order-to-Status" style="stroke:#222222;stroke-width:1.0;"/><polygon fill="#222222" points="255.95,619.95,260.3065,611.1171,256.1498,614.954,252.3129,610.7973,255.95,619.95" style="stroke:#222222;stroke-width:1.0;"/><text fill="#000000" font-family="sans-serif" font-size="13" lengthAdjust="spacing" textLength="32" x="261" y="518.4951">has a</text><text fill="#000000" font-family="sans-serif" font-size="13" lengthAdjust="spacing" textLength="7" x="248.2966" y="609.2533">1</text><!--MD5=[ceef72dbdeeda86c549ece72441a4425]
@startuml
skinparam classAttributeIconSize 0
hide empty attributes
skinparam classBackgroundColor beige
skinparam ArrowColor #222222

package "<<aggregate>> Order" {
    entity Order
    class Status
}

package "<<aggregate>> Employee" {
    entity Employee
}

package "<<aggregate>> User" {
    entity User
    class Role
}

package "<<aggregate>> Client" {
    entity Client
}

entity Order <<entity>> <<root>> {
    -<<VO>> OrderId /'automatically generated'/
    - CreatedOn /'automatically generated na hora do registo do sistema'/
}

class Status <<(V,#FF8B40) value object>> {
}

entity Employee <<entity>> <<root>> {
    - <<VO>> EmployeeID
}

entity User <<entity>> <<root>> {
}

class Role <<(V,#FF8B40) value object>> {
}

entity Client <<entity>> <<root>> {
    - <<VO>> ClientID
    - <<VO>> Name
    - <<VO>> VAT
    - <<VO>> Email
    - <<VO>> PhoneNumber
    /'- <<VO>> BirthDate'/ /'optional'/
    /'- <<VO>> Gender'/ /'optional'/
}

User - -> "1..*" Role
User "1" <- - Employee

Employee  - - Order : manages >
Order - -> "1" Client : ordered by
Order - -> "1" Status : has a


@enduml

@startuml
skinparam classAttributeIconSize 0
hide empty attributes
skinparam classBackgroundColor beige
skinparam ArrowColor #222222

package "<<aggregate>> Order" {
    entity Order
    class Status
}

package "<<aggregate>> Employee" {
    entity Employee
}

package "<<aggregate>> User" {
    entity User
    class Role
}

package "<<aggregate>> Client" {
    entity Client
}

entity Order <<entity>> <<root>> {
    -<<VO>> OrderId 
    - CreatedOn 
}

class Status <<(V,#FF8B40) value object>> {
}

entity Employee <<entity>> <<root>> {
    - <<VO>> EmployeeID
}

entity User <<entity>> <<root>> {
}

class Role <<(V,#FF8B40) value object>> {
}

entity Client <<entity>> <<root>> {
    - <<VO>> ClientID
    - <<VO>> Name
    - <<VO>> VAT
    - <<VO>> Email
    - <<VO>> PhoneNumber
}

User - -> "1..*" Role
User "1" <- - Employee

Employee  - - Order : manages >
Order - -> "1" Client : ordered by
Order - -> "1" Status : has a


@enduml

PlantUML version 1.2021.4(Sun Apr 04 09:49:39 BST 2021)
(GPL source distribution)
Java Runtime: OpenJDK Runtime Environment
JVM: OpenJDK 64-Bit Server VM
Default Encoding: Cp1252
Language: pt
Country: PT
--></g></svg>