<?xml version="1.0" encoding="UTF-8" standalone="no"?><svg xmlns="http://www.w3.org/2000/svg" xmlns:xlink="http://www.w3.org/1999/xlink" contentScriptType="application/ecmascript" contentStyleType="text/css" height="799px" preserveAspectRatio="none" style="width:411px;height:799px;background:#FFFFFF;" version="1.1" viewBox="0 0 411 799" width="411px" zoomAndPan="magnify"><defs><filter height="300%" id="f7cizdh0mjckg" width="300%" x="-1" y="-1"><feGaussianBlur result="blurOut" stdDeviation="2.0"/><feColorMatrix in="blurOut" result="blurOut2" type="matrix" values="0 0 0 0 0 0 0 0 0 0 0 0 0 0 0 0 0 0 .4 0"/><feOffset dx="4.0" dy="4.0" in="blurOut2" result="blurOut3"/><feBlend in="SourceGraphic" in2="blurOut3" mode="normal"/></filter></defs><g><!--MD5=[2f4fc30cc919c3e42c2afe4326b73e5f]
cluster <<aggregate>> WarehousePlant--><polygon fill="#FFFFFF" filter="url(#f7cizdh0mjckg)" points="89,6,318,6,325,29.6094,328,29.6094,328,198,89,198,89,6" style="stroke:#000000;stroke-width:1.5;"/><line style="stroke:#000000;stroke-width:1.5;" x1="89" x2="325" y1="29.6094" y2="29.6094"/><text fill="#000000" font-family="sans-serif" font-size="14" font-weight="bold" lengthAdjust="spacing" textLength="223" x="93" y="22.5332">&lt;&lt;aggregate&gt;&gt; WarehousePlant</text><!--MD5=[89a40d3b9877e2c9c1ba7f6f50c24be4]
cluster <<aggregate>> AGVDock--><polygon fill="#FFFFFF" filter="url(#f7cizdh0mjckg)" points="16,222,194,222,201,245.6094,204,245.6094,204,414,16,414,16,222" style="stroke:#000000;stroke-width:1.5;"/><line style="stroke:#000000;stroke-width:1.5;" x1="16" x2="201" y1="245.6094" y2="245.6094"/><text fill="#000000" font-family="sans-serif" font-size="14" font-weight="bold" lengthAdjust="spacing" textLength="172" x="20" y="238.5332">&lt;&lt;aggregate&gt;&gt; AGVDock</text><!--MD5=[92df8e42e25c454822f586037ee0b276]
cluster <<aggregate>> Aisle--><polygon fill="#FFFFFF" filter="url(#f7cizdh0mjckg)" points="228,222,376,222,383,245.6094,386,245.6094,386,414,228,414,228,222" style="stroke:#000000;stroke-width:1.5;"/><line style="stroke:#000000;stroke-width:1.5;" x1="228" x2="383" y1="245.6094" y2="245.6094"/><text fill="#000000" font-family="sans-serif" font-size="14" font-weight="bold" lengthAdjust="spacing" textLength="142" x="232" y="238.5332">&lt;&lt;aggregate&gt;&gt; Aisle</text><!--MD5=[2594094a489bff019f76cfb8a33fd099]
cluster <<aggregate>> Row--><polygon fill="#FFFFFF" filter="url(#f7cizdh0mjckg)" points="222,438,366,438,373,461.6094,376,461.6094,376,617,222,617,222,438" style="stroke:#000000;stroke-width:1.5;"/><line style="stroke:#000000;stroke-width:1.5;" x1="222" x2="373" y1="461.6094" y2="461.6094"/><text fill="#000000" font-family="sans-serif" font-size="14" font-weight="bold" lengthAdjust="spacing" textLength="138" x="226" y="454.5332">&lt;&lt;aggregate&gt;&gt; Row</text><!--MD5=[0793d3110293920cd1a1d4b92edc6c1e]
cluster <<aggregate>> Shelf--><polygon fill="#FFFFFF" filter="url(#f7cizdh0mjckg)" points="234,641,384,641,391,664.6094,394,664.6094,394,792,234,792,234,641" style="stroke:#000000;stroke-width:1.5;"/><line style="stroke:#000000;stroke-width:1.5;" x1="234" x2="391" y1="664.6094" y2="664.6094"/><text fill="#000000" font-family="sans-serif" font-size="14" font-weight="bold" lengthAdjust="spacing" textLength="144" x="238" y="657.5332">&lt;&lt;aggregate&gt;&gt; Shelf</text><!--MD5=[47d83f15293c58b1530c08457be810b8]
class WarehousePlant--><rect codeLine="55" fill="#F5F5DC" filter="url(#f7cizdh0mjckg)" height="140.4609" id="WarehousePlant" style="stroke:#A80036;stroke-width:1.5;" width="131" x="112.5" y="42"/><ellipse cx="130.65" cy="69.6406" fill="#ADD1B2" rx="11" ry="11" style="stroke:#A80036;stroke-width:1.0;"/><path d="M129.15,70.6406 L129.15,72.6406 L133.15,72.6406 L133.15,71.6406 L133.15,71.1563 L133.775,70.6406 L134.15,70.6406 L134.525,70.6406 L135.15,71.1563 L135.15,71.6406 L135.15,74.6406 L127.15,74.6406 L126.6656,74.6406 L126.15,74.0156 L126.15,73.6406 L126.15,73.2656 L126.6656,72.6406 L127.15,72.6406 L127.15,72.6406 L127.15,66.6406 L127.15,66.6406 L126.6656,66.6406 L126.15,66.0156 L126.15,65.6406 L126.15,65.2656 L126.6656,64.6406 L127.15,64.6406 L135.15,64.6406 L135.15,67.6406 L135.15,68.125 L134.525,68.6406 L134.15,68.6406 L133.775,68.6406 L133.15,68.125 L133.15,67.6406 L133.15,66.6406 L129.15,66.6406 L129.15,68.6406 L130.15,68.6406 L130.15,68.1563 L130.15,68.1563 L130.775,67.6406 L131.15,67.6406 L131.525,67.6406 L132.15,68.1563 L132.15,68.6406 L132.15,70.6406 L132.15,71.125 L131.525,71.6406 L131.525,71.6406 L131.15,71.6406 L130.775,71.6406 L130.15,71.125 L130.15,71.125 L130.15,70.6406 L129.15,70.6406 Z " fill="#000000"/><text fill="#000000" font-family="sans-serif" font-size="12" font-style="italic" lengthAdjust="spacing" textLength="43" x="169.85" y="59.457">«entity»</text><text fill="#000000" font-family="sans-serif" font-size="12" font-style="italic" lengthAdjust="spacing" textLength="35" x="173.85" y="74.5508">«root»</text><text fill="#000000" font-family="sans-serif" font-size="12" lengthAdjust="spacing" textLength="92" x="145.35" y="89.6445">WarehousePlant</text><line style="stroke:#A80036;stroke-width:1.5;" x1="113.5" x2="242.5" y1="97.2813" y2="97.2813"/><text fill="#000000" font-family="sans-serif" font-size="11" lengthAdjust="spacing" textLength="119" x="118.5" y="112.7002">-«VO» WareHouseName</text><text fill="#000000" font-family="sans-serif" font-size="11" lengthAdjust="spacing" textLength="68" x="118.5" y="126.5361">-«VO» Length</text><text fill="#000000" font-family="sans-serif" font-size="11" lengthAdjust="spacing" textLength="62" x="118.5" y="140.3721">-«VO» Width</text><text fill="#000000" font-family="sans-serif" font-size="11" lengthAdjust="spacing" textLength="91" x="118.5" y="154.208">-«VO» SquareSize</text><text fill="#000000" font-family="sans-serif" font-size="11" lengthAdjust="spacing" textLength="53" x="118.5" y="168.0439">-«VO» Unit</text><line style="stroke:#A80036;stroke-width:1.5;" x1="113.5" x2="242.5" y1="174.4609" y2="174.4609"/><!--MD5=[6c8d26f6d50c9b5da41494faa6136af8]
class AGVDock--><rect codeLine="39" fill="#F5F5DC" filter="url(#f7cizdh0mjckg)" height="140.4609" id="AGVDock" style="stroke:#A80036;stroke-width:1.5;" width="150" x="38" y="258"/><ellipse cx="83.25" cy="285.6406" fill="#ADD1B2" rx="11" ry="11" style="stroke:#A80036;stroke-width:1.0;"/><path d="M81.75,286.6406 L81.75,288.6406 L85.75,288.6406 L85.75,287.6406 L85.75,287.1563 L86.375,286.6406 L86.75,286.6406 L87.125,286.6406 L87.75,287.1563 L87.75,287.6406 L87.75,290.6406 L79.75,290.6406 L79.2656,290.6406 L78.75,290.0156 L78.75,289.6406 L78.75,289.2656 L79.2656,288.6406 L79.75,288.6406 L79.75,288.6406 L79.75,282.6406 L79.75,282.6406 L79.2656,282.6406 L78.75,282.0156 L78.75,281.6406 L78.75,281.2656 L79.2656,280.6406 L79.75,280.6406 L87.75,280.6406 L87.75,283.6406 L87.75,284.125 L87.125,284.6406 L86.75,284.6406 L86.375,284.6406 L85.75,284.125 L85.75,283.6406 L85.75,282.6406 L81.75,282.6406 L81.75,284.6406 L82.75,284.6406 L82.75,284.1563 L82.75,284.1563 L83.375,283.6406 L83.75,283.6406 L84.125,283.6406 L84.75,284.1563 L84.75,284.6406 L84.75,286.6406 L84.75,287.125 L84.125,287.6406 L84.125,287.6406 L83.75,287.6406 L83.375,287.6406 L82.75,287.125 L82.75,287.125 L82.75,286.6406 L81.75,286.6406 Z " fill="#000000"/><text fill="#000000" font-family="sans-serif" font-size="12" font-style="italic" lengthAdjust="spacing" textLength="43" x="107.75" y="275.457">«entity»</text><text fill="#000000" font-family="sans-serif" font-size="12" font-style="italic" lengthAdjust="spacing" textLength="35" x="111.75" y="290.5508">«root»</text><text fill="#000000" font-family="sans-serif" font-size="12" lengthAdjust="spacing" textLength="51" x="103.75" y="305.6445">AGVDock</text><line style="stroke:#A80036;stroke-width:1.5;" x1="39" x2="187" y1="313.2813" y2="313.2813"/><text fill="#000000" font-family="sans-serif" font-size="11" lengthAdjust="spacing" textLength="68" x="44" y="328.7002">-DockID «VO»</text><text fill="#000000" font-family="sans-serif" font-size="11" lengthAdjust="spacing" textLength="97" x="44" y="342.5361">-BeginSquare «VO»</text><text fill="#000000" font-family="sans-serif" font-size="11" lengthAdjust="spacing" textLength="88" x="44" y="356.3721">-EndSquare «VO»</text><text fill="#000000" font-family="sans-serif" font-size="11" lengthAdjust="spacing" textLength="98" x="44" y="370.208">-DepthSquare «VO»</text><text fill="#000000" font-family="sans-serif" font-size="11" lengthAdjust="spacing" textLength="138" x="44" y="384.0439">-AccessibilityDirection «VO»</text><line style="stroke:#A80036;stroke-width:1.5;" x1="39" x2="187" y1="390.4609" y2="390.4609"/><!--MD5=[0a2f0ce5c49321e9082933c32b514ce4]
class Aisle--><rect codeLine="47" fill="#F5F5DC" filter="url(#f7cizdh0mjckg)" height="140.4609" id="Aisle" style="stroke:#A80036;stroke-width:1.5;" width="110" x="244" y="258"/><ellipse cx="276.55" cy="285.6406" fill="#ADD1B2" rx="11" ry="11" style="stroke:#A80036;stroke-width:1.0;"/><path d="M275.05,286.6406 L275.05,288.6406 L279.05,288.6406 L279.05,287.6406 L279.05,287.1563 L279.675,286.6406 L280.05,286.6406 L280.425,286.6406 L281.05,287.1563 L281.05,287.6406 L281.05,290.6406 L273.05,290.6406 L272.5656,290.6406 L272.05,290.0156 L272.05,289.6406 L272.05,289.2656 L272.5656,288.6406 L273.05,288.6406 L273.05,288.6406 L273.05,282.6406 L273.05,282.6406 L272.5656,282.6406 L272.05,282.0156 L272.05,281.6406 L272.05,281.2656 L272.5656,280.6406 L273.05,280.6406 L281.05,280.6406 L281.05,283.6406 L281.05,284.125 L280.425,284.6406 L280.05,284.6406 L279.675,284.6406 L279.05,284.125 L279.05,283.6406 L279.05,282.6406 L275.05,282.6406 L275.05,284.6406 L276.05,284.6406 L276.05,284.1563 L276.05,284.1563 L276.675,283.6406 L277.05,283.6406 L277.425,283.6406 L278.05,284.1563 L278.05,284.6406 L278.05,286.6406 L278.05,287.125 L277.425,287.6406 L277.425,287.6406 L277.05,287.6406 L276.675,287.6406 L276.05,287.125 L276.05,287.125 L276.05,286.6406 L275.05,286.6406 Z " fill="#000000"/><text fill="#000000" font-family="sans-serif" font-size="12" font-style="italic" lengthAdjust="spacing" textLength="43" x="292.45" y="275.457">«entity»</text><text fill="#000000" font-family="sans-serif" font-size="12" font-style="italic" lengthAdjust="spacing" textLength="35" x="296.45" y="290.5508">«root»</text><text fill="#000000" font-family="sans-serif" font-size="12" lengthAdjust="spacing" textLength="27" x="300.45" y="305.6445">Aisle</text><line style="stroke:#A80036;stroke-width:1.5;" x1="245" x2="353" y1="313.2813" y2="313.2813"/><text fill="#000000" font-family="sans-serif" font-size="11" lengthAdjust="spacing" textLength="68" x="250" y="328.7002">-AisleID «VO»</text><text fill="#000000" font-family="sans-serif" font-size="11" lengthAdjust="spacing" textLength="97" x="250" y="342.5361">-BeginSquare «VO»</text><text fill="#000000" font-family="sans-serif" font-size="11" lengthAdjust="spacing" textLength="88" x="250" y="356.3721">-EndSquare «VO»</text><text fill="#000000" font-family="sans-serif" font-size="11" lengthAdjust="spacing" textLength="98" x="250" y="370.208">-DepthSquare «VO»</text><text fill="#000000" font-family="sans-serif" font-size="11" lengthAdjust="spacing" textLength="96" x="250" y="384.0439">-Accessibility «VO»</text><line style="stroke:#A80036;stroke-width:1.5;" x1="245" x2="353" y1="390.4609" y2="390.4609"/><!--MD5=[05aedcff764caeeb5d443618a4d90de7]
class Row--><rect codeLine="27" fill="#F5F5DC" filter="url(#f7cizdh0mjckg)" height="126.625" id="Row" style="stroke:#A80036;stroke-width:1.5;" width="109" x="244.5" y="474"/><ellipse cx="276.6" cy="501.6406" fill="#ADD1B2" rx="11" ry="11" style="stroke:#A80036;stroke-width:1.0;"/><path d="M275.1,502.6406 L275.1,504.6406 L279.1,504.6406 L279.1,503.6406 L279.1,503.1563 L279.725,502.6406 L280.1,502.6406 L280.475,502.6406 L281.1,503.1563 L281.1,503.6406 L281.1,506.6406 L273.1,506.6406 L272.6156,506.6406 L272.1,506.0156 L272.1,505.6406 L272.1,505.2656 L272.6156,504.6406 L273.1,504.6406 L273.1,504.6406 L273.1,498.6406 L273.1,498.6406 L272.6156,498.6406 L272.1,498.0156 L272.1,497.6406 L272.1,497.2656 L272.6156,496.6406 L273.1,496.6406 L281.1,496.6406 L281.1,499.6406 L281.1,500.125 L280.475,500.6406 L280.1,500.6406 L279.725,500.6406 L279.1,500.125 L279.1,499.6406 L279.1,498.6406 L275.1,498.6406 L275.1,500.6406 L276.1,500.6406 L276.1,500.1563 L276.1,500.1563 L276.725,499.6406 L277.1,499.6406 L277.475,499.6406 L278.1,500.1563 L278.1,500.6406 L278.1,502.6406 L278.1,503.125 L277.475,503.6406 L277.475,503.6406 L277.1,503.6406 L276.725,503.6406 L276.1,503.125 L276.1,503.125 L276.1,502.6406 L275.1,502.6406 Z " fill="#000000"/><text fill="#000000" font-family="sans-serif" font-size="12" font-style="italic" lengthAdjust="spacing" textLength="43" x="292.4" y="491.457">«entity»</text><text fill="#000000" font-family="sans-serif" font-size="12" font-style="italic" lengthAdjust="spacing" textLength="35" x="296.4" y="506.5508">«root»</text><text fill="#000000" font-family="sans-serif" font-size="12" lengthAdjust="spacing" textLength="25" x="301.4" y="521.6445">Row</text><line style="stroke:#A80036;stroke-width:1.5;" x1="245.5" x2="352.5" y1="529.2813" y2="529.2813"/><text fill="#000000" font-family="sans-serif" font-size="11" lengthAdjust="spacing" textLength="67" x="250.5" y="544.7002">-RowID «VO»</text><text fill="#000000" font-family="sans-serif" font-size="11" lengthAdjust="spacing" textLength="97" x="250.5" y="558.5361">-BeginSquare «VO»</text><text fill="#000000" font-family="sans-serif" font-size="11" lengthAdjust="spacing" textLength="88" x="250.5" y="572.3721">-EndSquare «VO»</text><text fill="#000000" font-family="sans-serif" font-size="11" lengthAdjust="spacing" textLength="68" x="250.5" y="586.208">-AisleID «VO»</text><line style="stroke:#A80036;stroke-width:1.5;" x1="245.5" x2="352.5" y1="592.625" y2="592.625"/><!--MD5=[47ccbbcd9e46084c93562a335102da55]
class Shelf--><rect codeLine="34" fill="#F5F5DC" filter="url(#f7cizdh0mjckg)" height="98.9531" id="Shelf" style="stroke:#A80036;stroke-width:1.5;" width="81" x="258.5" y="677"/><ellipse cx="278" cy="704.6406" fill="#ADD1B2" rx="11" ry="11" style="stroke:#A80036;stroke-width:1.0;"/><path d="M276.5,705.6406 L276.5,707.6406 L280.5,707.6406 L280.5,706.6406 L280.5,706.1563 L281.125,705.6406 L281.5,705.6406 L281.875,705.6406 L282.5,706.1563 L282.5,706.6406 L282.5,709.6406 L274.5,709.6406 L274.0156,709.6406 L273.5,709.0156 L273.5,708.6406 L273.5,708.2656 L274.0156,707.6406 L274.5,707.6406 L274.5,707.6406 L274.5,701.6406 L274.5,701.6406 L274.0156,701.6406 L273.5,701.0156 L273.5,700.6406 L273.5,700.2656 L274.0156,699.6406 L274.5,699.6406 L282.5,699.6406 L282.5,702.6406 L282.5,703.125 L281.875,703.6406 L281.5,703.6406 L281.125,703.6406 L280.5,703.125 L280.5,702.6406 L280.5,701.6406 L276.5,701.6406 L276.5,703.6406 L277.5,703.6406 L277.5,703.1563 L277.5,703.1563 L278.125,702.6406 L278.5,702.6406 L278.875,702.6406 L279.5,703.1563 L279.5,703.6406 L279.5,705.6406 L279.5,706.125 L278.875,706.6406 L278.875,706.6406 L278.5,706.6406 L278.125,706.6406 L277.5,706.125 L277.5,706.125 L277.5,705.6406 L276.5,705.6406 Z " fill="#000000"/><text fill="#000000" font-family="sans-serif" font-size="12" font-style="italic" lengthAdjust="spacing" textLength="43" x="291" y="694.457">«entity»</text><text fill="#000000" font-family="sans-serif" font-size="12" font-style="italic" lengthAdjust="spacing" textLength="35" x="295" y="709.5508">«root»</text><text fill="#000000" font-family="sans-serif" font-size="12" lengthAdjust="spacing" textLength="28" x="298.5" y="724.6445">Shelf</text><line style="stroke:#A80036;stroke-width:1.5;" x1="259.5" x2="338.5" y1="732.2813" y2="732.2813"/><text fill="#000000" font-family="sans-serif" font-size="11" lengthAdjust="spacing" textLength="69" x="264.5" y="747.7002">-ShelfID «VO»</text><text fill="#000000" font-family="sans-serif" font-size="11" lengthAdjust="spacing" textLength="67" x="264.5" y="761.5361">-RowID «VO»</text><line style="stroke:#A80036;stroke-width:1.5;" x1="259.5" x2="338.5" y1="767.9531" y2="767.9531"/><!--MD5=[a33fbdbd9b967946d76bebe54b756481]
link WarehousePlant to Aisle--><path codeLine="63" d="M217.12,182.18 C229.93,204.85 244.22,230.12 257.23,253.12 " fill="none" id="WarehousePlant-to-Aisle" style="stroke:#222222;stroke-width:1.0;"/><polygon fill="#222222" points="259.81,257.69,258.8351,247.8895,257.337,253.3444,251.8821,251.8463,259.81,257.69" style="stroke:#222222;stroke-width:1.0;"/><text fill="#000000" font-family="sans-serif" font-size="13" lengthAdjust="spacing" textLength="20" x="234.7373" y="247.1038">1..*</text><!--MD5=[c7a7c255159fc536cc39704e0abcbfe1]
link Aisle to Row--><path codeLine="64" d="M299,398.09 C299,420.89 299,446.21 299,468.9 " fill="none" id="Aisle-to-Row" style="stroke:#222222;stroke-width:1.0;"/><polygon fill="#222222" points="299,474,303,465,299,469,295,465,299,474" style="stroke:#222222;stroke-width:1.0;"/><text fill="#000000" font-family="sans-serif" font-size="13" lengthAdjust="spacing" textLength="20" x="277.8438" y="463.2699">1..*</text><!--MD5=[38ed9a66bf1af9f2ee01f37d3359ff6c]
link Row to Shelf--><path codeLine="65" d="M299,601.03 C299,623.93 299,649.63 299,671.7 " fill="none" id="Row-to-Shelf" style="stroke:#222222;stroke-width:1.0;"/><polygon fill="#222222" points="299,676.94,303,667.94,299,671.94,295,667.94,299,676.94" style="stroke:#222222;stroke-width:1.0;"/><text fill="#000000" font-family="sans-serif" font-size="13" lengthAdjust="spacing" textLength="20" x="277.5313" y="666.0103">1..*</text><!--MD5=[1ed9b8dac11cdd2f7990b954d759f3f4]
link WarehousePlant to AGVDock--><path codeLine="66" d="M156.99,182.18 C150.13,204.76 142.49,229.91 135.53,252.83 " fill="none" id="WarehousePlant-to-AGVDock" style="stroke:#222222;stroke-width:1.0;"/><polygon fill="#222222" points="134.05,257.69,140.498,250.2453,135.5064,252.9068,132.8449,247.9151,134.05,257.69" style="stroke:#222222;stroke-width:1.0;"/><text fill="#000000" font-family="sans-serif" font-size="13" lengthAdjust="spacing" textLength="7" x="128.8598" y="247.1038">1</text><!--MD5=[6478742cf2e7cd70bbb17f26bdf0eacd]
@startuml

skinparam classAttributeIconSize 0
hide empty attributes
skinparam classBackgroundColor beige
skinparam ArrowColor #222222

package "<<aggregate>> WarehousePlant" {
    entity WarehousePlant
}

package "<<aggregate>> AGVDock" {
    entity AGVDock
}

package "<<aggregate>> Aisle" {
    entity Aisle
}

package "<<aggregate>> Row" {
    entity Row
}

package "<<aggregate>> Shelf" {
    entity Shelf
}

entity Row <<entity>> <<root>> {
    - RowID <<VO>>
    - BeginSquare <<VO>>
    - EndSquare <<VO>>
    - AisleID <<VO>>
}

entity Shelf <<entity>> <<root>> {
    - ShelfID <<VO>>
    - RowID <<VO>>
}

entity AGVDock <<entity>> <<root>> {
    - DockID <<VO>>
    - BeginSquare <<VO>>
    - EndSquare <<VO>>
    - DepthSquare <<VO>>
    - AccessibilityDirection <<VO>>
}

entity Aisle <<entity>> <<root>> {
    - AisleID <<VO>>
    - BeginSquare <<VO>>
    - EndSquare <<VO>>
    - DepthSquare <<VO>>
    - Accessibility <<VO>>
}

entity WarehousePlant <<entity>> <<root>> {
    - <<VO>> WareHouseName
    - <<VO>> Length
    - <<VO>> Width
    - <<VO>> SquareSize
    - <<VO>> Unit
}

WarehousePlant - -> "1..*" Aisle
Aisle - -> "1..*" Row
Row - -> "1..*" Shelf
WarehousePlant - -> "1" AGVDock


@enduml

PlantUML version 1.2021.11(Sat Oct 02 14:26:11 BST 2021)
(GPL source distribution)
Java Runtime: OpenJDK Runtime Environment
JVM: OpenJDK 64-Bit Server VM
Default Encoding: Cp1252
Language: pt
Country: PT
--></g></svg>