<?xml version="1.0" encoding="UTF-8" standalone="no"?><svg xmlns="http://www.w3.org/2000/svg" xmlns:xlink="http://www.w3.org/1999/xlink" contentScriptType="application/ecmascript" contentStyleType="text/css" height="589px" preserveAspectRatio="none" style="width:384px;height:589px;background:#FFFFFF;" version="1.1" viewBox="0 0 384 589" width="384px" zoomAndPan="magnify"><defs><filter height="300%" id="f1g9jipsijpdg0" width="300%" x="-1" y="-1"><feGaussianBlur result="blurOut" stdDeviation="2.0"/><feColorMatrix in="blurOut" result="blurOut2" type="matrix" values="0 0 0 0 0 0 0 0 0 0 0 0 0 0 0 0 0 0 .4 0"/><feOffset dx="4.0" dy="4.0" in="blurOut2" result="blurOut3"/><feBlend in="SourceGraphic" in2="blurOut3" mode="normal"/></filter></defs><g><!--MD5=[55b0942be3f29f38a5f6a8290d990eda]
entity ProductCategoryRepository--><path d="M182.5,546 C182.5,536 280,536 280,536 C280,536 377.5,536 377.5,546 L377.5,572.6094 C377.5,582.6094 280,582.6094 280,582.6094 C280,582.6094 182.5,582.6094 182.5,572.6094 L182.5,546 " fill="#FFFFFF" filter="url(#f1g9jipsijpdg0)" style="stroke:#000000;stroke-width:1.5;"/><path d="M182.5,546 C182.5,556 280,556 280,556 C280,556 377.5,556 377.5,546 " fill="none" style="stroke:#000000;stroke-width:1.5;"/><text fill="#000000" font-family="sans-serif" font-size="14" lengthAdjust="spacing" textLength="175" x="192.5" y="574.5332">ProductCategoryRepository</text><!--MD5=[89031369d4d84145b3a81b21067f80cb]
class CreateCategoryUI--><rect codeLine="3" fill="#FEFECE" filter="url(#f1g9jipsijpdg0)" height="48" id="CreateCategoryUI" style="stroke:#A80036;stroke-width:1.5;" width="130" x="120" y="7"/><ellipse cx="135" cy="23" fill="#ADD1B2" rx="11" ry="11" style="stroke:#A80036;stroke-width:1.0;"/><path d="M137,19.5 Q137.2031,19 137.4375,18.75 Q137.6719,18.5 137.9375,18.5 Q138.4063,18.5 138.7031,18.7813 Q139,19.0625 139,19.7188 L139,21.2813 Q139,21.9375 138.7188,22.2188 Q138.4375,22.5 138,22.5 Q137.6094,22.5 137.3594,22.3281 Q137.1094,22.1563 137,21.7031 Q136.9531,21.3906 136.7813,21.2188 Q136.4688,20.8906 135.9063,20.7031 Q135.3438,20.5 134.7813,20.5 Q134.0781,20.5 133.4844,20.7813 Q132.9063,21.0625 132.4531,21.6875 Q132,22.3125 132,23.1719 L132,24.0938 Q132,25.125 132.8438,25.8125 Q133.6875,26.5 135.1875,26.5 Q136.0781,26.5 136.7031,26.2969 Q137.0625,26.1875 137.4688,25.8281 Q137.7344,25.625 137.875,25.5625 Q138.0156,25.5 138.1875,25.5 Q138.5156,25.5 138.75,25.7656 Q139,26.0156 139,26.375 Q139,26.7188 138.6563,27.125 Q138.1563,27.7188 137.3594,28.0469 Q136.3125,28.5 135.0313,28.5 Q133.5313,28.5 132.3281,27.9063 Q131.3594,27.4375 130.6719,26.4219 Q130,25.4063 130,24.2031 L130,23.1094 Q130,21.8594 130.5938,20.7656 Q131.2031,19.6719 132.25,19.0938 Q133.3125,18.5 134.5,18.5 Q135.2188,18.5 135.8438,18.75 Q136.4688,19 137,19.5 Z " fill="#000000"/><text fill="#000000" font-family="sans-serif" font-size="12" lengthAdjust="spacing" textLength="98" x="149" y="27.9102">CreateCategoryUI</text><line style="stroke:#A80036;stroke-width:1.5;" x1="121" x2="249" y1="39" y2="39"/><line style="stroke:#A80036;stroke-width:1.5;" x1="121" x2="249" y1="47" y2="47"/><!--MD5=[6dd18ba95f5ac9213240d60977dc4d14]
class CreateCategoryController--><rect codeLine="6" fill="#FEFECE" filter="url(#f1g9jipsijpdg0)" height="75.6719" id="CreateCategoryController" style="stroke:#A80036;stroke-width:1.5;" width="258" x="56" y="115"/><ellipse cx="110.75" cy="131" fill="#ADD1B2" rx="11" ry="11" style="stroke:#A80036;stroke-width:1.0;"/><path d="M112.75,127.5 Q112.9531,127 113.1875,126.75 Q113.4219,126.5 113.6875,126.5 Q114.1563,126.5 114.4531,126.7813 Q114.75,127.0625 114.75,127.7188 L114.75,129.2813 Q114.75,129.9375 114.4688,130.2188 Q114.1875,130.5 113.75,130.5 Q113.3594,130.5 113.1094,130.3281 Q112.8594,130.1563 112.75,129.7031 Q112.7031,129.3906 112.5313,129.2188 Q112.2188,128.8906 111.6563,128.7031 Q111.0938,128.5 110.5313,128.5 Q109.8281,128.5 109.2344,128.7813 Q108.6563,129.0625 108.2031,129.6875 Q107.75,130.3125 107.75,131.1719 L107.75,132.0938 Q107.75,133.125 108.5938,133.8125 Q109.4375,134.5 110.9375,134.5 Q111.8281,134.5 112.4531,134.2969 Q112.8125,134.1875 113.2188,133.8281 Q113.4844,133.625 113.625,133.5625 Q113.7656,133.5 113.9375,133.5 Q114.2656,133.5 114.5,133.7656 Q114.75,134.0156 114.75,134.375 Q114.75,134.7188 114.4063,135.125 Q113.9063,135.7188 113.1094,136.0469 Q112.0625,136.5 110.7813,136.5 Q109.2813,136.5 108.0781,135.9063 Q107.1094,135.4375 106.4219,134.4219 Q105.75,133.4063 105.75,132.2031 L105.75,131.1094 Q105.75,129.8594 106.3438,128.7656 Q106.9531,127.6719 108,127.0938 Q109.0625,126.5 110.25,126.5 Q110.9688,126.5 111.5938,126.75 Q112.2188,127 112.75,127.5 Z " fill="#000000"/><text fill="#000000" font-family="sans-serif" font-size="12" lengthAdjust="spacing" textLength="140" x="131.25" y="135.9102">CreateCategoryController</text><line style="stroke:#A80036;stroke-width:1.5;" x1="57" x2="313" y1="147" y2="147"/><line style="stroke:#A80036;stroke-width:1.5;" x1="57" x2="313" y1="155" y2="155"/><ellipse cx="67" cy="166" fill="#84BE84" rx="3" ry="3" style="stroke:#038048;stroke-width:1.0;"/><text fill="#000000" font-family="sans-serif" font-size="11" lengthAdjust="spacing" textLength="39" x="76" y="170.4189">create()</text><ellipse cx="67" cy="179.8359" fill="#84BE84" rx="3" ry="3" style="stroke:#038048;stroke-width:1.0;"/><text fill="#000000" font-family="sans-serif" font-size="11" lengthAdjust="spacing" textLength="232" x="76" y="184.2549">createCategory(alphaNumericCode, description)</text><!--MD5=[c19dcc17d063e341d7edad0a79a2d326]
class CategoryBuilder--><rect codeLine="11" fill="#FEFECE" filter="url(#f1g9jipsijpdg0)" height="103.3438" id="CategoryBuilder" style="stroke:#A80036;stroke-width:1.5;" width="168" x="7" y="251"/><ellipse cx="43.6" cy="267" fill="#ADD1B2" rx="11" ry="11" style="stroke:#A80036;stroke-width:1.0;"/><path d="M45.6,263.5 Q45.8031,263 46.0375,262.75 Q46.2719,262.5 46.5375,262.5 Q47.0063,262.5 47.3031,262.7813 Q47.6,263.0625 47.6,263.7188 L47.6,265.2813 Q47.6,265.9375 47.3188,266.2188 Q47.0375,266.5 46.6,266.5 Q46.2094,266.5 45.9594,266.3281 Q45.7094,266.1563 45.6,265.7031 Q45.5531,265.3906 45.3813,265.2188 Q45.0688,264.8906 44.5063,264.7031 Q43.9438,264.5 43.3813,264.5 Q42.6781,264.5 42.0844,264.7813 Q41.5063,265.0625 41.0531,265.6875 Q40.6,266.3125 40.6,267.1719 L40.6,268.0938 Q40.6,269.125 41.4438,269.8125 Q42.2875,270.5 43.7875,270.5 Q44.6781,270.5 45.3031,270.2969 Q45.6625,270.1875 46.0688,269.8281 Q46.3344,269.625 46.475,269.5625 Q46.6156,269.5 46.7875,269.5 Q47.1156,269.5 47.35,269.7656 Q47.6,270.0156 47.6,270.375 Q47.6,270.7188 47.2563,271.125 Q46.7563,271.7188 45.9594,272.0469 Q44.9125,272.5 43.6313,272.5 Q42.1313,272.5 40.9281,271.9063 Q39.9594,271.4375 39.2719,270.4219 Q38.6,269.4063 38.6,268.2031 L38.6,267.1094 Q38.6,265.8594 39.1938,264.7656 Q39.8031,263.6719 40.85,263.0938 Q41.9125,262.5 43.1,262.5 Q43.8188,262.5 44.4438,262.75 Q45.0688,263 45.6,263.5 Z " fill="#000000"/><text fill="#000000" font-family="sans-serif" font-size="12" lengthAdjust="spacing" textLength="88" x="62.4" y="271.9102">CategoryBuilder</text><line style="stroke:#A80036;stroke-width:1.5;" x1="8" x2="174" y1="283" y2="283"/><line style="stroke:#A80036;stroke-width:1.5;" x1="8" x2="174" y1="291" y2="291"/><ellipse cx="18" cy="302" fill="#84BE84" rx="3" ry="3" style="stroke:#038048;stroke-width:1.0;"/><text fill="#000000" font-family="sans-serif" font-size="11" lengthAdjust="spacing" textLength="39" x="27" y="306.4189">create()</text><ellipse cx="18" cy="315.8359" fill="#84BE84" rx="3" ry="3" style="stroke:#038048;stroke-width:1.0;"/><text fill="#000000" font-family="sans-serif" font-size="11" lengthAdjust="spacing" textLength="142" x="27" y="320.2549">hasAlphaNumericCode(code)</text><ellipse cx="18" cy="329.6719" fill="#84BE84" rx="3" ry="3" style="stroke:#038048;stroke-width:1.0;"/><text fill="#000000" font-family="sans-serif" font-size="11" lengthAdjust="spacing" textLength="133" x="27" y="334.0908">hasDescription(description)</text><ellipse cx="18" cy="343.5078" fill="#84BE84" rx="3" ry="3" style="stroke:#038048;stroke-width:1.0;"/><text fill="#000000" font-family="sans-serif" font-size="11" lengthAdjust="spacing" textLength="30" x="27" y="347.9268">build()</text><!--MD5=[a1db4bf20df23ac2cd9366d22a9e2860]
class ProductCategory--><rect codeLine="18" fill="#FEFECE" filter="url(#f1g9jipsijpdg0)" height="61.8359" id="ProductCategory" style="stroke:#A80036;stroke-width:1.5;" width="123" x="29.5" y="414"/><ellipse cx="44.5" cy="430" fill="#ADD1B2" rx="11" ry="11" style="stroke:#A80036;stroke-width:1.0;"/><path d="M46.5,426.5 Q46.7031,426 46.9375,425.75 Q47.1719,425.5 47.4375,425.5 Q47.9063,425.5 48.2031,425.7813 Q48.5,426.0625 48.5,426.7188 L48.5,428.2813 Q48.5,428.9375 48.2188,429.2188 Q47.9375,429.5 47.5,429.5 Q47.1094,429.5 46.8594,429.3281 Q46.6094,429.1563 46.5,428.7031 Q46.4531,428.3906 46.2813,428.2188 Q45.9688,427.8906 45.4063,427.7031 Q44.8438,427.5 44.2813,427.5 Q43.5781,427.5 42.9844,427.7813 Q42.4063,428.0625 41.9531,428.6875 Q41.5,429.3125 41.5,430.1719 L41.5,431.0938 Q41.5,432.125 42.3438,432.8125 Q43.1875,433.5 44.6875,433.5 Q45.5781,433.5 46.2031,433.2969 Q46.5625,433.1875 46.9688,432.8281 Q47.2344,432.625 47.375,432.5625 Q47.5156,432.5 47.6875,432.5 Q48.0156,432.5 48.25,432.7656 Q48.5,433.0156 48.5,433.375 Q48.5,433.7188 48.1563,434.125 Q47.6563,434.7188 46.8594,435.0469 Q45.8125,435.5 44.5313,435.5 Q43.0313,435.5 41.8281,434.9063 Q40.8594,434.4375 40.1719,433.4219 Q39.5,432.4063 39.5,431.2031 L39.5,430.1094 Q39.5,428.8594 40.0938,427.7656 Q40.7031,426.6719 41.75,426.0938 Q42.8125,425.5 44,425.5 Q44.7188,425.5 45.3438,425.75 Q45.9688,426 46.5,426.5 Z " fill="#000000"/><text fill="#000000" font-family="sans-serif" font-size="12" lengthAdjust="spacing" textLength="91" x="58.5" y="434.9102">ProductCategory</text><line style="stroke:#A80036;stroke-width:1.5;" x1="30.5" x2="151.5" y1="446" y2="446"/><line style="stroke:#A80036;stroke-width:1.5;" x1="30.5" x2="151.5" y1="454" y2="454"/><ellipse cx="40.5" cy="465" fill="#84BE84" rx="3" ry="3" style="stroke:#038048;stroke-width:1.0;"/><text fill="#000000" font-family="sans-serif" font-size="11" lengthAdjust="spacing" textLength="39" x="49.5" y="469.4189">create()</text><!--MD5=[e8c189551b7885b999ad7cefb30fc2a3]
class PersistenceContext--><rect codeLine="22" fill="#FEFECE" filter="url(#f1g9jipsijpdg0)" height="61.8359" id="PersistenceContext" style="stroke:#A80036;stroke-width:1.5;" width="139" x="210.5" y="271.5"/><ellipse cx="225.5" cy="287.5" fill="#ADD1B2" rx="11" ry="11" style="stroke:#A80036;stroke-width:1.0;"/><path d="M227.5,284 Q227.7031,283.5 227.9375,283.25 Q228.1719,283 228.4375,283 Q228.9063,283 229.2031,283.2813 Q229.5,283.5625 229.5,284.2188 L229.5,285.7813 Q229.5,286.4375 229.2188,286.7188 Q228.9375,287 228.5,287 Q228.1094,287 227.8594,286.8281 Q227.6094,286.6563 227.5,286.2031 Q227.4531,285.8906 227.2813,285.7188 Q226.9688,285.3906 226.4063,285.2031 Q225.8438,285 225.2813,285 Q224.5781,285 223.9844,285.2813 Q223.4063,285.5625 222.9531,286.1875 Q222.5,286.8125 222.5,287.6719 L222.5,288.5938 Q222.5,289.625 223.3438,290.3125 Q224.1875,291 225.6875,291 Q226.5781,291 227.2031,290.7969 Q227.5625,290.6875 227.9688,290.3281 Q228.2344,290.125 228.375,290.0625 Q228.5156,290 228.6875,290 Q229.0156,290 229.25,290.2656 Q229.5,290.5156 229.5,290.875 Q229.5,291.2188 229.1563,291.625 Q228.6563,292.2188 227.8594,292.5469 Q226.8125,293 225.5313,293 Q224.0313,293 222.8281,292.4063 Q221.8594,291.9375 221.1719,290.9219 Q220.5,289.9063 220.5,288.7031 L220.5,287.6094 Q220.5,286.3594 221.0938,285.2656 Q221.7031,284.1719 222.75,283.5938 Q223.8125,283 225,283 Q225.7188,283 226.3438,283.25 Q226.9688,283.5 227.5,284 Z " fill="#000000"/><text fill="#000000" font-family="sans-serif" font-size="12" lengthAdjust="spacing" textLength="107" x="239.5" y="292.4102">PersistenceContext</text><line style="stroke:#A80036;stroke-width:1.5;" x1="211.5" x2="348.5" y1="303.5" y2="303.5"/><line style="stroke:#A80036;stroke-width:1.5;" x1="211.5" x2="348.5" y1="311.5" y2="311.5"/><ellipse cx="221.5" cy="322.5" fill="#84BE84" rx="3" ry="3" style="stroke:#038048;stroke-width:1.0;"/><text fill="#000000" font-family="sans-serif" font-size="11" lengthAdjust="spacing" textLength="65" x="230.5" y="326.9189">repositories()</text><!--MD5=[48590afff58a68e2fcba47824d6f8a11]
class RepositoryFactory--><rect codeLine="26" fill="#FEFECE" filter="url(#f1g9jipsijpdg0)" height="61.8359" id="RepositoryFactory" style="stroke:#A80036;stroke-width:1.5;" width="130" x="215" y="414"/><ellipse cx="230" cy="430" fill="#ADD1B2" rx="11" ry="11" style="stroke:#A80036;stroke-width:1.0;"/><path d="M232,426.5 Q232.2031,426 232.4375,425.75 Q232.6719,425.5 232.9375,425.5 Q233.4063,425.5 233.7031,425.7813 Q234,426.0625 234,426.7188 L234,428.2813 Q234,428.9375 233.7188,429.2188 Q233.4375,429.5 233,429.5 Q232.6094,429.5 232.3594,429.3281 Q232.1094,429.1563 232,428.7031 Q231.9531,428.3906 231.7813,428.2188 Q231.4688,427.8906 230.9063,427.7031 Q230.3438,427.5 229.7813,427.5 Q229.0781,427.5 228.4844,427.7813 Q227.9063,428.0625 227.4531,428.6875 Q227,429.3125 227,430.1719 L227,431.0938 Q227,432.125 227.8438,432.8125 Q228.6875,433.5 230.1875,433.5 Q231.0781,433.5 231.7031,433.2969 Q232.0625,433.1875 232.4688,432.8281 Q232.7344,432.625 232.875,432.5625 Q233.0156,432.5 233.1875,432.5 Q233.5156,432.5 233.75,432.7656 Q234,433.0156 234,433.375 Q234,433.7188 233.6563,434.125 Q233.1563,434.7188 232.3594,435.0469 Q231.3125,435.5 230.0313,435.5 Q228.5313,435.5 227.3281,434.9063 Q226.3594,434.4375 225.6719,433.4219 Q225,432.4063 225,431.2031 L225,430.1094 Q225,428.8594 225.5938,427.7656 Q226.2031,426.6719 227.25,426.0938 Q228.3125,425.5 229.5,425.5 Q230.2188,425.5 230.8438,425.75 Q231.4688,426 232,426.5 Z " fill="#000000"/><text fill="#000000" font-family="sans-serif" font-size="12" lengthAdjust="spacing" textLength="98" x="244" y="434.9102">RepositoryFactory</text><line style="stroke:#A80036;stroke-width:1.5;" x1="216" x2="344" y1="446" y2="446"/><line style="stroke:#A80036;stroke-width:1.5;" x1="216" x2="344" y1="454" y2="454"/><ellipse cx="226" cy="465" fill="#84BE84" rx="3" ry="3" style="stroke:#038048;stroke-width:1.0;"/><text fill="#000000" font-family="sans-serif" font-size="11" lengthAdjust="spacing" textLength="39" x="235" y="469.4189">create()</text><!--MD5=[a1bb239bacd381cd6b03a547f4f0550b]
link CreateCategoryUI to CreateCategoryController--><path codeLine="33" d="M185,55.14 C185,70.58 185,91.33 185,109.67 " fill="none" id="CreateCategoryUI-to-CreateCategoryController" style="stroke:#A80036;stroke-width:1.0;"/><polygon fill="#A80036" points="185,114.77,189,105.77,185,109.77,181,105.77,185,114.77" style="stroke:#A80036;stroke-width:1.0;"/><!--MD5=[722988fe1a3dec9263b38399ee13bda2]
link CreateCategoryController to CategoryBuilder--><path codeLine="35" d="M161.28,191.22 C150.65,207.9 137.9,227.91 126.19,246.29 " fill="none" id="CreateCategoryController-to-CategoryBuilder" style="stroke:#A80036;stroke-width:1.0;"/><polygon fill="#A80036" points="123.23,250.92,131.4401,245.4799,125.9172,246.7035,124.6936,241.1805,123.23,250.92" style="stroke:#A80036;stroke-width:1.0;"/><!--MD5=[36e99bd0519b81467b34b1fccc411dbb]
link CreateCategoryController to PersistenceContext--><path codeLine="36" d="M208.97,191.22 C223.92,214.42 243.02,244.08 257.65,266.79 " fill="none" id="CreateCategoryController-to-PersistenceContext" style="stroke:#A80036;stroke-width:1.0;"/><polygon fill="#A80036" points="260.51,271.24,259.0079,261.5064,257.8062,267.0341,252.2785,265.8324,260.51,271.24" style="stroke:#A80036;stroke-width:1.0;"/><!--MD5=[754b775031405e096442b27febffa290]
link PersistenceContext to RepositoryFactory--><path codeLine="37" d="M280,333.64 C280,355.68 280,385.64 280,408.78 " fill="none" id="PersistenceContext-to-RepositoryFactory" style="stroke:#A80036;stroke-width:1.0;"/><polygon fill="#A80036" points="280,413.91,284,404.91,280,408.91,276,404.91,280,413.91" style="stroke:#A80036;stroke-width:1.0;"/><!--MD5=[9e0c7b031ab342ad64f9e6318367261d]
link RepositoryFactory to ProductCategoryRepository--><path codeLine="38" d="M280,476.15 C280,492.99 280,513.84 280,530.35 " fill="none" id="RepositoryFactory-to-ProductCategoryRepository" style="stroke:#A80036;stroke-width:1.0;"/><polygon fill="#A80036" points="280,535.77,284,526.77,280,530.77,276,526.77,280,535.77" style="stroke:#A80036;stroke-width:1.0;"/><!--MD5=[a5d456fe9b5654b2d62c5d32056def8e]
link CategoryBuilder to ProductCategory--><path codeLine="40" d="M91,354.22 C91,372.32 91,392.29 91,408.79 " fill="none" id="CategoryBuilder-to-ProductCategory" style="stroke:#A80036;stroke-width:1.0;"/><polygon fill="#A80036" points="91,413.79,95,404.79,91,408.79,87,404.79,91,413.79" style="stroke:#A80036;stroke-width:1.0;"/><!--MD5=[7fa257940e958eed1353ecc584fd70e6]
@startuml
'https://plantuml.com/class-diagram

class CreateCategoryUI{
}

class CreateCategoryController{
+create()
+createCategory(alphaNumericCode, description)
}

class CategoryBuilder{
+create()
+hasAlphaNumericCode(code)
+hasDescription(description)
+build()
}

class ProductCategory{
+create()
}

class PersistenceContext{
+repositories()
}

class RepositoryFactory{
+create()
}

database ProductCategoryRepository{
}

CreateCategoryUI - -> CreateCategoryController

CreateCategoryController - -> CategoryBuilder
CreateCategoryController - -> PersistenceContext
PersistenceContext - -> RepositoryFactory
RepositoryFactory - -> ProductCategoryRepository

CategoryBuilder - -> ProductCategory
@enduml

@startuml

class CreateCategoryUI{
}

class CreateCategoryController{
+create()
+createCategory(alphaNumericCode, description)
}

class CategoryBuilder{
+create()
+hasAlphaNumericCode(code)
+hasDescription(description)
+build()
}

class ProductCategory{
+create()
}

class PersistenceContext{
+repositories()
}

class RepositoryFactory{
+create()
}

database ProductCategoryRepository{
}

CreateCategoryUI - -> CreateCategoryController

CreateCategoryController - -> CategoryBuilder
CreateCategoryController - -> PersistenceContext
PersistenceContext - -> RepositoryFactory
RepositoryFactory - -> ProductCategoryRepository

CategoryBuilder - -> ProductCategory
@enduml

PlantUML version 1.2021.11(Sat Oct 02 14:26:11 BST 2021)
(GPL source distribution)
Java Runtime: OpenJDK Runtime Environment
JVM: OpenJDK 64-Bit Server VM
Default Encoding: Cp1252
Language: pt
Country: PT
--></g></svg>