<?xml version="1.0" encoding="UTF-8" standalone="no"?><svg xmlns="http://www.w3.org/2000/svg" xmlns:xlink="http://www.w3.org/1999/xlink" contentScriptType="application/ecmascript" contentStyleType="text/css" height="536.4px" preserveAspectRatio="none" style="width:1001px;height:536px;background:#FFFFFF;" version="1.1" viewBox="0 0 1001 536" width="1001.4px" zoomAndPan="magnify"><defs><filter height="300%" id="f645k5e34iga9" width="300%" x="-1" y="-1"><feGaussianBlur result="blurOut" stdDeviation="1.2"/><feColorMatrix in="blurOut" result="blurOut2" type="matrix" values="0 0 0 0 0 0 0 0 0 0 0 0 0 0 0 0 0 0 .4 0"/><feOffset dx="2.4" dy="2.4" in="blurOut2" result="blurOut3"/><feBlend in="SourceGraphic" in2="blurOut3" mode="normal"/></filter></defs><g><rect fill="#FFFFFF" filter="url(#f645k5e34iga9)" height="419.4516" style="stroke:#A80036;stroke-width:0.6;" width="6" x="23.4" y="59.7656"/><rect fill="#FFFFFF" filter="url(#f645k5e34iga9)" height="36.4219" style="stroke:#A80036;stroke-width:0.6;" width="6" x="224.4" y="73.1766"/><rect fill="#FFFFFF" filter="url(#f645k5e34iga9)" height="18.2109" style="stroke:#A80036;stroke-width:0.6;" width="6" x="224.4" y="127.8094"/><rect fill="#FFFFFF" filter="url(#f645k5e34iga9)" height="309.5859" style="stroke:#A80036;stroke-width:0.6;" width="6" x="224.4" y="164.2313"/><rect fill="#FFFFFF" filter="url(#f645k5e34iga9)" height="273.1641" style="stroke:#A80036;stroke-width:0.6;" width="6" x="414" y="182.4422"/><rect fill="#FFFFFF" filter="url(#f645k5e34iga9)" height="54.6328" style="stroke:#A80036;stroke-width:0.6;" width="6" x="537.6" y="255.2859"/><rect fill="#FFFFFF" filter="url(#f645k5e34iga9)" height="36.4219" style="stroke:#A80036;stroke-width:0.6;" width="6" x="754.8" y="328.1297"/><rect fill="#FFFFFF" filter="url(#f645k5e34iga9)" height="36.4219" style="stroke:#A80036;stroke-width:0.6;" width="6" x="843" y="382.7625"/><line style="stroke:#A80036;stroke-width:0.6;stroke-dasharray:5.0,5.0;" x1="26.4" x2="26.4" y1="53.7656" y2="484.6172"/><line style="stroke:#A80036;stroke-width:0.6;stroke-dasharray:5.0,5.0;" x1="227.1" x2="227.1" y1="53.7656" y2="484.6172"/><line style="stroke:#A80036;stroke-width:0.6;stroke-dasharray:5.0,5.0;" x1="416.7" x2="416.7" y1="53.7656" y2="484.6172"/><line style="stroke:#A80036;stroke-width:0.6;stroke-dasharray:5.0,5.0;" x1="540.6" x2="540.6" y1="53.7656" y2="484.6172"/><line style="stroke:#A80036;stroke-width:0.6;stroke-dasharray:5.0,5.0;" x1="654.6" x2="654.6" y1="53.7656" y2="484.6172"/><line style="stroke:#A80036;stroke-width:0.6;stroke-dasharray:5.0,5.0;" x1="757.8" x2="757.8" y1="53.7656" y2="484.6172"/><line style="stroke:#A80036;stroke-width:0.6;stroke-dasharray:5.0,5.0;" x1="846" x2="846" y1="53.7656" y2="484.6172"/><line style="stroke:#A80036;stroke-width:0.6;stroke-dasharray:5.0,5.0;" x1="946.2" x2="946.2" y1="53.7656" y2="484.6172"/><text fill="#000000" font-family="sans-serif" font-size="8.4" lengthAdjust="spacing" textLength="43.2" x="3" y="51.9199">Sales Clerk</text><ellipse cx="26.4" cy="9" fill="#FEFECE" filter="url(#f645k5e34iga9)" rx="4.8" ry="4.8" style="stroke:#A80036;stroke-width:1.2;"/><path d="M26.4,13.8 L26.4,30 M18.6,18.6 L34.2,18.6 M26.4,30 L18.6,39 M26.4,30 L34.2,39 " fill="none" filter="url(#f645k5e34iga9)" style="stroke:#A80036;stroke-width:1.2;"/><text fill="#000000" font-family="sans-serif" font-size="8.4" lengthAdjust="spacing" textLength="43.2" x="3" y="492.7371">Sales Clerk</text><ellipse cx="26.4" cy="500.5828" fill="#FEFECE" filter="url(#f645k5e34iga9)" rx="4.8" ry="4.8" style="stroke:#A80036;stroke-width:1.2;"/><path d="M26.4,505.3828 L26.4,521.5828 M18.6,510.1828 L34.2,510.1828 M26.4,521.5828 L18.6,530.5828 M26.4,521.5828 L34.2,530.5828 " fill="none" filter="url(#f645k5e34iga9)" style="stroke:#A80036;stroke-width:1.2;"/><rect fill="#FEFECE" filter="url(#f645k5e34iga9)" height="29.5313" style="stroke:#A80036;stroke-width:0.8999999999999999;" width="76.2" x="188.1" y="21.2344"/><text fill="#000000" font-family="sans-serif" font-size="8.4" font-style="italic" lengthAdjust="spacing" textLength="57" x="197.7" y="34.1543">«presentation»</text><text fill="#000000" font-family="sans-serif" font-size="8.4" lengthAdjust="spacing" textLength="67.8" x="192.3" y="44.7199">CreateCategoryUI</text><rect fill="#FEFECE" filter="url(#f645k5e34iga9)" height="29.5313" style="stroke:#A80036;stroke-width:0.8999999999999999;" width="76.2" x="188.1" y="484.0172"/><text fill="#000000" font-family="sans-serif" font-size="8.4" font-style="italic" lengthAdjust="spacing" textLength="57" x="197.7" y="496.9371">«presentation»</text><text fill="#000000" font-family="sans-serif" font-size="8.4" lengthAdjust="spacing" textLength="67.8" x="192.3" y="507.5027">CreateCategoryUI</text><rect fill="#FEFECE" filter="url(#f645k5e34iga9)" height="29.5313" style="stroke:#A80036;stroke-width:0.8999999999999999;" width="106.2" x="362.7" y="21.2344"/><text fill="#000000" font-family="sans-serif" font-size="8.4" font-style="italic" lengthAdjust="spacing" textLength="50.4" x="390.6" y="34.1543">«application»</text><text fill="#000000" font-family="sans-serif" font-size="8.4" lengthAdjust="spacing" textLength="97.8" x="366.9" y="44.7199">CreateCategoryController</text><rect fill="#FEFECE" filter="url(#f645k5e34iga9)" height="29.5313" style="stroke:#A80036;stroke-width:0.8999999999999999;" width="106.2" x="362.7" y="484.0172"/><text fill="#000000" font-family="sans-serif" font-size="8.4" font-style="italic" lengthAdjust="spacing" textLength="50.4" x="390.6" y="496.9371">«application»</text><text fill="#000000" font-family="sans-serif" font-size="8.4" lengthAdjust="spacing" textLength="97.8" x="366.9" y="507.5027">CreateCategoryController</text><rect fill="#FEFECE" filter="url(#f645k5e34iga9)" height="29.5313" style="stroke:#A80036;stroke-width:0.8999999999999999;" width="69.6" x="504.6" y="21.2344"/><text fill="#000000" font-family="sans-serif" font-size="8.4" font-style="italic" lengthAdjust="spacing" textLength="35.4" x="521.7" y="34.1543">«builder»</text><text fill="#000000" font-family="sans-serif" font-size="8.4" lengthAdjust="spacing" textLength="61.2" x="508.8" y="44.7199">CategoryBuilder</text><rect fill="#FEFECE" filter="url(#f645k5e34iga9)" height="29.5313" style="stroke:#A80036;stroke-width:0.8999999999999999;" width="69.6" x="504.6" y="484.0172"/><text fill="#000000" font-family="sans-serif" font-size="8.4" font-style="italic" lengthAdjust="spacing" textLength="35.4" x="521.7" y="496.9371">«builder»</text><text fill="#000000" font-family="sans-serif" font-size="8.4" lengthAdjust="spacing" textLength="61.2" x="508.8" y="507.5027">CategoryBuilder</text><rect fill="#FEFECE" filter="url(#f645k5e34iga9)" height="29.5313" style="stroke:#A80036;stroke-width:0.8999999999999999;" width="108" x="599.4" y="21.2344"/><text fill="#000000" font-family="sans-serif" font-size="8.4" font-style="italic" lengthAdjust="spacing" textLength="37.2" x="634.8" y="34.1543">«domain»</text><text fill="#000000" font-family="sans-serif" font-size="8.4" lengthAdjust="spacing" textLength="99.6" x="603.6" y="44.7199">category:ProductCategory</text><rect fill="#FEFECE" filter="url(#f645k5e34iga9)" height="29.5313" style="stroke:#A80036;stroke-width:0.8999999999999999;" width="108" x="599.4" y="484.0172"/><text fill="#000000" font-family="sans-serif" font-size="8.4" font-style="italic" lengthAdjust="spacing" textLength="37.2" x="634.8" y="496.9371">«domain»</text><text fill="#000000" font-family="sans-serif" font-size="8.4" lengthAdjust="spacing" textLength="99.6" x="603.6" y="507.5027">category:ProductCategory</text><rect fill="#FEFECE" filter="url(#f645k5e34iga9)" height="29.5313" style="stroke:#A80036;stroke-width:0.8999999999999999;" width="81.6" x="715.8" y="21.2344"/><text fill="#000000" font-family="sans-serif" font-size="8.4" font-style="italic" lengthAdjust="spacing" textLength="53.4" x="729.9" y="34.1543">«persistence»</text><text fill="#000000" font-family="sans-serif" font-size="8.4" lengthAdjust="spacing" textLength="73.2" x="720" y="44.7199">PersistenceContext</text><rect fill="#FEFECE" filter="url(#f645k5e34iga9)" height="29.5313" style="stroke:#A80036;stroke-width:0.8999999999999999;" width="81.6" x="715.8" y="484.0172"/><text fill="#000000" font-family="sans-serif" font-size="8.4" font-style="italic" lengthAdjust="spacing" textLength="53.4" x="729.9" y="496.9371">«persistence»</text><text fill="#000000" font-family="sans-serif" font-size="8.4" lengthAdjust="spacing" textLength="73.2" x="720" y="507.5027">PersistenceContext</text><rect fill="#FEFECE" filter="url(#f645k5e34iga9)" height="29.5313" style="stroke:#A80036;stroke-width:0.8999999999999999;" width="78" x="805.8" y="21.2344"/><text fill="#000000" font-family="sans-serif" font-size="8.4" font-style="italic" lengthAdjust="spacing" textLength="35.4" x="827.1" y="34.1543">«factory»</text><text fill="#000000" font-family="sans-serif" font-size="8.4" lengthAdjust="spacing" textLength="69.6" x="810" y="44.7199">RepositoryFactory</text><rect fill="#FEFECE" filter="url(#f645k5e34iga9)" height="29.5313" style="stroke:#A80036;stroke-width:0.8999999999999999;" width="78" x="805.8" y="484.0172"/><text fill="#000000" font-family="sans-serif" font-size="8.4" font-style="italic" lengthAdjust="spacing" textLength="35.4" x="827.1" y="496.9371">«factory»</text><text fill="#000000" font-family="sans-serif" font-size="8.4" lengthAdjust="spacing" textLength="69.6" x="810" y="507.5027">RepositoryFactory</text><text fill="#000000" font-family="sans-serif" font-size="8.4" font-style="italic" lengthAdjust="spacing" textLength="47.4" x="921" y="41.3543">«repository»</text><text fill="#000000" font-family="sans-serif" font-size="8.4" lengthAdjust="spacing" textLength="105" x="892.2" y="51.9199">ProductCategoryRepository</text><path d="M935.7,11.0344 C935.7,5.0344 946.5,5.0344 946.5,5.0344 C946.5,5.0344 957.3,5.0344 957.3,11.0344 L957.3,26.6344 C957.3,32.6344 946.5,32.6344 946.5,32.6344 C946.5,32.6344 935.7,32.6344 935.7,26.6344 L935.7,11.0344 " fill="#FEFECE" filter="url(#f645k5e34iga9)" style="stroke:#000000;stroke-width:0.8999999999999999;"/><path d="M935.7,11.0344 C935.7,17.0344 946.5,17.0344 946.5,17.0344 C946.5,17.0344 957.3,17.0344 957.3,11.0344 " fill="none" style="stroke:#000000;stroke-width:0.8999999999999999;"/><text fill="#000000" font-family="sans-serif" font-size="8.4" font-style="italic" lengthAdjust="spacing" textLength="47.4" x="921" y="492.7371">«repository»</text><text fill="#000000" font-family="sans-serif" font-size="8.4" lengthAdjust="spacing" textLength="105" x="892.2" y="503.3027">ProductCategoryRepository</text><path d="M935.7,511.1484 C935.7,505.1484 946.5,505.1484 946.5,505.1484 C946.5,505.1484 957.3,505.1484 957.3,511.1484 L957.3,526.7484 C957.3,532.7484 946.5,532.7484 946.5,532.7484 C946.5,532.7484 935.7,532.7484 935.7,526.7484 L935.7,511.1484 " fill="#FEFECE" filter="url(#f645k5e34iga9)" style="stroke:#000000;stroke-width:0.8999999999999999;"/><path d="M935.7,511.1484 C935.7,517.1484 946.5,517.1484 946.5,517.1484 C946.5,517.1484 957.3,517.1484 957.3,511.1484 " fill="none" style="stroke:#000000;stroke-width:0.8999999999999999;"/><rect fill="#FFFFFF" filter="url(#f645k5e34iga9)" height="419.4516" style="stroke:#A80036;stroke-width:0.6;" width="6" x="23.4" y="59.7656"/><rect fill="#FFFFFF" filter="url(#f645k5e34iga9)" height="36.4219" style="stroke:#A80036;stroke-width:0.6;" width="6" x="224.4" y="73.1766"/><rect fill="#FFFFFF" filter="url(#f645k5e34iga9)" height="18.2109" style="stroke:#A80036;stroke-width:0.6;" width="6" x="224.4" y="127.8094"/><rect fill="#FFFFFF" filter="url(#f645k5e34iga9)" height="309.5859" style="stroke:#A80036;stroke-width:0.6;" width="6" x="224.4" y="164.2313"/><rect fill="#FFFFFF" filter="url(#f645k5e34iga9)" height="273.1641" style="stroke:#A80036;stroke-width:0.6;" width="6" x="414" y="182.4422"/><rect fill="#FFFFFF" filter="url(#f645k5e34iga9)" height="54.6328" style="stroke:#A80036;stroke-width:0.6;" width="6" x="537.6" y="255.2859"/><rect fill="#FFFFFF" filter="url(#f645k5e34iga9)" height="36.4219" style="stroke:#A80036;stroke-width:0.6;" width="6" x="754.8" y="328.1297"/><rect fill="#FFFFFF" filter="url(#f645k5e34iga9)" height="36.4219" style="stroke:#A80036;stroke-width:0.6;" width="6" x="843" y="382.7625"/><polygon fill="#A80036" points="217.2,70.7766,223.2,73.1766,217.2,75.5766,219.6,73.1766" style="stroke:#A80036;stroke-width:0.6;"/><line style="stroke:#A80036;stroke-width:0.6;" x1="29.4" x2="220.8" y1="73.1766" y2="73.1766"/><text fill="#000000" font-family="sans-serif" font-size="7.8" font-weight="bold" lengthAdjust="spacing" textLength="4.2" x="33.6" y="70.2627">1</text><text fill="#000000" font-family="sans-serif" font-size="7.8" lengthAdjust="spacing" textLength="177" x="40.2" y="70.2627">inicia processo de criação da Categoria de Produto</text><polygon fill="#A80036" points="409.8,88.9875,415.8,91.3875,409.8,93.7875,412.2,91.3875" style="stroke:#A80036;stroke-width:0.6;"/><line style="stroke:#A80036;stroke-width:0.6;" x1="230.4" x2="413.4" y1="91.3875" y2="91.3875"/><text fill="#000000" font-family="sans-serif" font-size="7.8" font-weight="bold" lengthAdjust="spacing" textLength="4.2" x="234.6" y="88.4736">2</text><text fill="#000000" font-family="sans-serif" font-size="7.8" lengthAdjust="spacing" textLength="25.8" x="241.2" y="88.4736">creates</text><polygon fill="#A80036" points="36,107.1984,30,109.5984,36,111.9984,33.6,109.5984" style="stroke:#A80036;stroke-width:0.6;"/><line style="stroke:#A80036;stroke-width:0.6;" x1="32.4" x2="226.8" y1="109.5984" y2="109.5984"/><text fill="#000000" font-family="sans-serif" font-size="7.8" font-weight="bold" lengthAdjust="spacing" textLength="4.2" x="39.6" y="106.6846">3</text><text fill="#000000" font-family="sans-serif" font-size="7.8" lengthAdjust="spacing" textLength="96" x="46.2" y="106.6846">solicita código alfanumérico</text><polygon fill="#A80036" points="217.2,125.4094,223.2,127.8094,217.2,130.2094,219.6,127.8094" style="stroke:#A80036;stroke-width:0.6;"/><line style="stroke:#A80036;stroke-width:0.6;" x1="29.4" x2="220.8" y1="127.8094" y2="127.8094"/><text fill="#000000" font-family="sans-serif" font-size="7.8" font-weight="bold" lengthAdjust="spacing" textLength="4.2" x="33.6" y="124.8955">4</text><text fill="#000000" font-family="sans-serif" font-size="7.8" lengthAdjust="spacing" textLength="99" x="40.2" y="124.8955">introduz código alfanumérico</text><polygon fill="#A80036" points="36,143.6203,30,146.0203,36,148.4203,33.6,146.0203" style="stroke:#A80036;stroke-width:0.6;"/><line style="stroke:#A80036;stroke-width:0.6;" x1="32.4" x2="226.8" y1="146.0203" y2="146.0203"/><text fill="#000000" font-family="sans-serif" font-size="7.8" font-weight="bold" lengthAdjust="spacing" textLength="4.2" x="39.6" y="143.1064">5</text><text fill="#000000" font-family="sans-serif" font-size="7.8" lengthAdjust="spacing" textLength="106.8" x="46.2" y="143.1064">solicita descrição da Categoria</text><polygon fill="#A80036" points="217.2,161.8312,223.2,164.2313,217.2,166.6313,219.6,164.2313" style="stroke:#A80036;stroke-width:0.6;"/><line style="stroke:#A80036;stroke-width:0.6;" x1="29.4" x2="220.8" y1="164.2313" y2="164.2313"/><text fill="#000000" font-family="sans-serif" font-size="7.8" font-weight="bold" lengthAdjust="spacing" textLength="4.2" x="33.6" y="161.3174">6</text><text fill="#000000" font-family="sans-serif" font-size="7.8" lengthAdjust="spacing" textLength="109.8" x="40.2" y="161.3174">introduz descrição da Categoria</text><polygon fill="#A80036" points="406.8,180.0422,412.8,182.4422,406.8,184.8422,409.2,182.4422" style="stroke:#A80036;stroke-width:0.6;"/><line style="stroke:#A80036;stroke-width:0.6;" x1="230.4" x2="410.4" y1="182.4422" y2="182.4422"/><text fill="#000000" font-family="sans-serif" font-size="7.8" font-weight="bold" lengthAdjust="spacing" textLength="4.2" x="234.6" y="179.5283">7</text><text fill="#000000" font-family="sans-serif" font-size="7.8" lengthAdjust="spacing" textLength="165.6" x="241.2" y="179.5283">createCategory(alphaNumericCode, description)</text><polygon fill="#A80036" points="533.4,198.2531,539.4,200.6531,533.4,203.0531,535.8,200.6531" style="stroke:#A80036;stroke-width:0.6;"/><line style="stroke:#A80036;stroke-width:0.6;" x1="420" x2="537" y1="200.6531" y2="200.6531"/><text fill="#000000" font-family="sans-serif" font-size="7.8" font-weight="bold" lengthAdjust="spacing" textLength="4.2" x="424.2" y="197.7393">8</text><text fill="#000000" font-family="sans-serif" font-size="7.8" lengthAdjust="spacing" textLength="25.8" x="430.8" y="197.7393">creates</text><polygon fill="#A80036" points="533.4,216.4641,539.4,218.8641,533.4,221.2641,535.8,218.8641" style="stroke:#A80036;stroke-width:0.6;"/><line style="stroke:#A80036;stroke-width:0.6;" x1="420" x2="537" y1="218.8641" y2="218.8641"/><text fill="#000000" font-family="sans-serif" font-size="7.8" font-weight="bold" lengthAdjust="spacing" textLength="4.2" x="424.2" y="215.9502">9</text><text fill="#000000" font-family="sans-serif" font-size="7.8" lengthAdjust="spacing" textLength="99.6" x="430.8" y="215.9502">hasAlphanumericCode(code)</text><polygon fill="#A80036" points="533.4,234.675,539.4,237.075,533.4,239.475,535.8,237.075" style="stroke:#A80036;stroke-width:0.6;"/><line style="stroke:#A80036;stroke-width:0.6;" x1="420" x2="537" y1="237.075" y2="237.075"/><text fill="#000000" font-family="sans-serif" font-size="7.8" font-weight="bold" lengthAdjust="spacing" textLength="8.4" x="424.2" y="234.1611">10</text><text fill="#000000" font-family="sans-serif" font-size="7.8" lengthAdjust="spacing" textLength="94.2" x="435" y="234.1611">hasDescription(description)</text><polygon fill="#A80036" points="530.4,252.8859,536.4,255.2859,530.4,257.6859,532.8,255.2859" style="stroke:#A80036;stroke-width:0.6;"/><line style="stroke:#A80036;stroke-width:0.6;" x1="420" x2="534" y1="255.2859" y2="255.2859"/><text fill="#000000" font-family="sans-serif" font-size="7.8" font-weight="bold" lengthAdjust="spacing" textLength="8.4" x="424.2" y="252.3721">11</text><text fill="#000000" font-family="sans-serif" font-size="7.8" lengthAdjust="spacing" textLength="57.6" x="435" y="252.3721">createCategory()</text><polygon fill="#A80036" points="647.4,271.0969,653.4,273.4969,647.4,275.8969,649.8,273.4969" style="stroke:#A80036;stroke-width:0.6;"/><line style="stroke:#A80036;stroke-width:0.6;" x1="543.6" x2="651" y1="273.4969" y2="273.4969"/><text fill="#000000" font-family="sans-serif" font-size="7.8" font-weight="bold" lengthAdjust="spacing" textLength="8.4" x="547.8" y="270.583">12</text><text fill="#000000" font-family="sans-serif" font-size="7.8" lengthAdjust="spacing" textLength="85.8" x="558.6" y="270.583">create(code, description)</text><polygon fill="#A80036" points="550.2,289.3078,544.2,291.7078,550.2,294.1078,547.8,291.7078" style="stroke:#A80036;stroke-width:0.6;"/><line style="stroke:#A80036;stroke-width:0.6;" x1="546.6" x2="654" y1="291.7078" y2="291.7078"/><text fill="#000000" font-family="sans-serif" font-size="7.8" font-weight="bold" lengthAdjust="spacing" textLength="8.4" x="553.8" y="288.7939">13</text><text fill="#000000" font-family="sans-serif" font-size="7.8" lengthAdjust="spacing" textLength="30" x="564.6" y="288.7939">category</text><polygon fill="#A80036" points="426.6,307.5188,420.6,309.9188,426.6,312.3187,424.2,309.9188" style="stroke:#A80036;stroke-width:0.6;"/><line style="stroke:#A80036;stroke-width:0.6;" x1="423" x2="540" y1="309.9188" y2="309.9188"/><text fill="#000000" font-family="sans-serif" font-size="7.8" font-weight="bold" lengthAdjust="spacing" textLength="8.4" x="430.2" y="307.0049">14</text><text fill="#000000" font-family="sans-serif" font-size="7.8" lengthAdjust="spacing" textLength="30" x="441" y="307.0049">category</text><polygon fill="#A80036" points="747.6,325.7297,753.6,328.1297,747.6,330.5297,750,328.1297" style="stroke:#A80036;stroke-width:0.6;"/><line style="stroke:#A80036;stroke-width:0.6;" x1="420" x2="751.2" y1="328.1297" y2="328.1297"/><text fill="#000000" font-family="sans-serif" font-size="7.8" font-weight="bold" lengthAdjust="spacing" textLength="8.4" x="424.2" y="325.2158">15</text><text fill="#000000" font-family="sans-serif" font-size="7.8" lengthAdjust="spacing" textLength="45" x="435" y="325.2158">repositories()</text><polygon fill="#A80036" points="838.8,343.9406,844.8,346.3406,838.8,348.7406,841.2,346.3406" style="stroke:#A80036;stroke-width:0.6;"/><line style="stroke:#A80036;stroke-width:0.6;" x1="760.8" x2="842.4" y1="346.3406" y2="346.3406"/><text fill="#000000" font-family="sans-serif" font-size="7.8" font-weight="bold" lengthAdjust="spacing" textLength="8.4" x="765" y="343.4268">16</text><text fill="#000000" font-family="sans-serif" font-size="7.8" lengthAdjust="spacing" textLength="25.8" x="775.8" y="343.4268">creates</text><polygon fill="#A80036" points="426.6,362.1516,420.6,364.5516,426.6,366.9516,424.2,364.5516" style="stroke:#A80036;stroke-width:0.6;"/><line style="stroke:#A80036;stroke-width:0.6;" x1="423" x2="757.2" y1="364.5516" y2="364.5516"/><text fill="#000000" font-family="sans-serif" font-size="7.8" font-weight="bold" lengthAdjust="spacing" textLength="8.4" x="430.2" y="361.6377">17</text><text fill="#000000" font-family="sans-serif" font-size="7.8" lengthAdjust="spacing" textLength="23.4" x="441" y="361.6377">factory</text><polygon fill="#A80036" points="835.8,380.3625,841.8,382.7625,835.8,385.1625,838.2,382.7625" style="stroke:#A80036;stroke-width:0.6;"/><line style="stroke:#A80036;stroke-width:0.6;" x1="420" x2="839.4" y1="382.7625" y2="382.7625"/><text fill="#000000" font-family="sans-serif" font-size="7.8" font-weight="bold" lengthAdjust="spacing" textLength="8.4" x="424.2" y="379.8486">18</text><text fill="#000000" font-family="sans-serif" font-size="7.8" lengthAdjust="spacing" textLength="40.8" x="435" y="379.8486">categories()</text><polygon fill="#A80036" points="939.3,398.5734,945.3,400.9734,939.3,403.3734,941.7,400.9734" style="stroke:#A80036;stroke-width:0.6;"/><line style="stroke:#A80036;stroke-width:0.6;" x1="849" x2="942.9" y1="400.9734" y2="400.9734"/><text fill="#000000" font-family="sans-serif" font-size="7.8" font-weight="bold" lengthAdjust="spacing" textLength="8.4" x="853.2" y="398.0596">19</text><text fill="#000000" font-family="sans-serif" font-size="7.8" lengthAdjust="spacing" textLength="21.6" x="864" y="398.0596">create</text><polygon fill="#A80036" points="426.6,416.7844,420.6,419.1844,426.6,421.5844,424.2,419.1844" style="stroke:#A80036;stroke-width:0.6;"/><line style="stroke:#A80036;stroke-width:0.6;" x1="423" x2="845.4" y1="419.1844" y2="419.1844"/><text fill="#000000" font-family="sans-serif" font-size="7.8" font-weight="bold" lengthAdjust="spacing" textLength="8.4" x="430.2" y="416.2705">20</text><text fill="#000000" font-family="sans-serif" font-size="7.8" lengthAdjust="spacing" textLength="67.2" x="441" y="416.2705">categoryRepository</text><polygon fill="#A80036" points="939.3,434.9953,945.3,437.3953,939.3,439.7953,941.7,437.3953" style="stroke:#A80036;stroke-width:0.6;"/><line style="stroke:#A80036;stroke-width:0.6;" x1="420" x2="942.9" y1="437.3953" y2="437.3953"/><text fill="#000000" font-family="sans-serif" font-size="7.8" font-weight="bold" lengthAdjust="spacing" textLength="8.4" x="424.2" y="434.4814">21</text><text fill="#000000" font-family="sans-serif" font-size="7.8" lengthAdjust="spacing" textLength="50.4" x="435" y="434.4814">save(category)</text><polygon fill="#A80036" points="237,453.2063,231,455.6063,237,458.0062,234.6,455.6063" style="stroke:#A80036;stroke-width:0.6;"/><line style="stroke:#A80036;stroke-width:0.6;" x1="233.4" x2="416.4" y1="455.6063" y2="455.6063"/><text fill="#000000" font-family="sans-serif" font-size="7.8" font-weight="bold" lengthAdjust="spacing" textLength="8.4" x="240.6" y="452.6924">22</text><text fill="#000000" font-family="sans-serif" font-size="7.8" lengthAdjust="spacing" textLength="102" x="251.4" y="452.6924">informa sucesso da operação</text><polygon fill="#A80036" points="36,471.4172,30,473.8172,36,476.2172,33.6,473.8172" style="stroke:#A80036;stroke-width:0.6;"/><line style="stroke:#A80036;stroke-width:0.6;" x1="32.4" x2="226.8" y1="473.8172" y2="473.8172"/><text fill="#000000" font-family="sans-serif" font-size="7.8" font-weight="bold" lengthAdjust="spacing" textLength="8.4" x="39.6" y="470.9033">23</text><text fill="#000000" font-family="sans-serif" font-size="7.8" lengthAdjust="spacing" textLength="102" x="50.4" y="470.9033">informa sucesso da operação</text><!--MD5=[8a452fea01789fe08b76d29c3871400e]
@startuml
'https://plantuml.com/sequence-diagram

autonumber
actor "Sales Clerk" as SC
participant CreateCategoryUI as UI <<presentation>>
participant CreateCategoryController as Controller <<application>>
participant CategoryBuilder as Builder <<builder>>
participant "category:ProductCategory" as Domain1 <<domain>>
participant PersistenceContext as Persistence <<persistence>>
participant RepositoryFactory as Factory <<factory>>
database ProductCategoryRepository as Repository1 <<repository>>

activate SC
SC -> UI : inicia processo de criação da Categoria de Produto
activate UI
UI -> Controller : creates
UI -> SC : solicita código alfanumérico
deactivate UI

SC -> UI : introduz código alfanumérico
activate UI
UI -> SC : solicita descrição da Categoria
deactivate UI
SC -> UI : introduz descrição da Categoria
activate UI
UI -> Controller : createCategory(alphaNumericCode, description)
activate Controller
Controller -> Builder : creates
Controller -> Builder : hasAlphanumericCode(code)
Controller -> Builder : hasDescription(description)
Controller -> Builder : createCategory()
activate Builder
Builder -> Domain1 : create(code, description)
Domain1 -> Builder : category
Builder -> Controller : category
deactivate Builder
Controller -> Persistence : repositories()
activate Persistence
Persistence -> Factory : creates
Persistence -> Controller : factory
deactivate Persistence
Controller -> Factory : categories()
activate Factory
Factory -> Repository1 : create
Factory -> Controller : categoryRepository
deactivate Factory
Controller -> Repository1 : save(category)
Controller -> UI : informa sucesso da operação
deactivate Controller
UI -> SC : informa sucesso da operação
deactivate UI
@enduml

@startuml

autonumber
actor "Sales Clerk" as SC
participant CreateCategoryUI as UI <<presentation>>
participant CreateCategoryController as Controller <<application>>
participant CategoryBuilder as Builder <<builder>>
participant "category:ProductCategory" as Domain1 <<domain>>
participant PersistenceContext as Persistence <<persistence>>
participant RepositoryFactory as Factory <<factory>>
database ProductCategoryRepository as Repository1 <<repository>>

activate SC
SC -> UI : inicia processo de criação da Categoria de Produto
activate UI
UI -> Controller : creates
UI -> SC : solicita código alfanumérico
deactivate UI

SC -> UI : introduz código alfanumérico
activate UI
UI -> SC : solicita descrição da Categoria
deactivate UI
SC -> UI : introduz descrição da Categoria
activate UI
UI -> Controller : createCategory(alphaNumericCode, description)
activate Controller
Controller -> Builder : creates
Controller -> Builder : hasAlphanumericCode(code)
Controller -> Builder : hasDescription(description)
Controller -> Builder : createCategory()
activate Builder
Builder -> Domain1 : create(code, description)
Domain1 -> Builder : category
Builder -> Controller : category
deactivate Builder
Controller -> Persistence : repositories()
activate Persistence
Persistence -> Factory : creates
Persistence -> Controller : factory
deactivate Persistence
Controller -> Factory : categories()
activate Factory
Factory -> Repository1 : create
Factory -> Controller : categoryRepository
deactivate Factory
Controller -> Repository1 : save(category)
Controller -> UI : informa sucesso da operação
deactivate Controller
UI -> SC : informa sucesso da operação
deactivate UI
@enduml

PlantUML version 1.2021.11(Sat Oct 02 14:26:11 BST 2021)
(GPL source distribution)
Java Runtime: OpenJDK Runtime Environment
JVM: OpenJDK 64-Bit Server VM
Default Encoding: Cp1252
Language: pt
Country: PT
--></g></svg>