<?xml version="1.0" encoding="UTF-8" standalone="no"?><svg xmlns="http://www.w3.org/2000/svg" xmlns:xlink="http://www.w3.org/1999/xlink" contentScriptType="application/ecmascript" contentStyleType="text/css" height="797px" preserveAspectRatio="none" style="width:1175px;height:797px;background:#FFFFFF;" version="1.1" viewBox="0 0 1175 797" width="1175px" zoomAndPan="magnify"><defs><filter height="300%" id="fcbvhizkt41ld" width="300%" x="-1" y="-1"><feGaussianBlur result="blurOut" stdDeviation="2.0"/><feColorMatrix in="blurOut" result="blurOut2" type="matrix" values="0 0 0 0 0 0 0 0 0 0 0 0 0 0 0 0 0 0 .4 0"/><feOffset dx="4.0" dy="4.0" in="blurOut2" result="blurOut3"/><feBlend in="SourceGraphic" in2="blurOut3" mode="normal"/></filter></defs><g><!--MD5=[f4ecc8f4bd9544a4e59fa7ea999fa228]
entity ProductRepository--><path d="M249.5,754 C249.5,744 318,744 318,744 C318,744 386.5,744 386.5,754 L386.5,780.6094 C386.5,790.6094 318,790.6094 318,790.6094 C318,790.6094 249.5,790.6094 249.5,780.6094 L249.5,754 " fill="#FFFFFF" filter="url(#fcbvhizkt41ld)" style="stroke:#000000;stroke-width:1.5;"/><path d="M249.5,754 C249.5,764 318,764 318,764 C318,764 386.5,764 386.5,754 " fill="none" style="stroke:#000000;stroke-width:1.5;"/><text fill="#000000" font-family="sans-serif" font-size="14" lengthAdjust="spacing" textLength="117" x="259.5" y="782.5332">ProductRepository</text><!--MD5=[55b0942be3f29f38a5f6a8290d990eda]
entity ProductCategoryRepository--><path d="M421.5,754 C421.5,744 519,744 519,744 C519,744 616.5,744 616.5,754 L616.5,780.6094 C616.5,790.6094 519,790.6094 519,790.6094 C519,790.6094 421.5,790.6094 421.5,780.6094 L421.5,754 " fill="#FFFFFF" filter="url(#fcbvhizkt41ld)" style="stroke:#000000;stroke-width:1.5;"/><path d="M421.5,754 C421.5,764 519,764 519,764 C519,764 616.5,764 616.5,754 " fill="none" style="stroke:#000000;stroke-width:1.5;"/><text fill="#000000" font-family="sans-serif" font-size="14" lengthAdjust="spacing" textLength="175" x="431.5" y="782.5332">ProductCategoryRepository</text><!--MD5=[299b4053dc9991fe1806e72450a03f3b]
class RegisterProductUI--><rect codeLine="2" fill="#FEFECE" filter="url(#fcbvhizkt41ld)" height="48" id="RegisterProductUI" style="stroke:#A80036;stroke-width:1.5;" width="133" x="517.5" y="7"/><ellipse cx="532.5" cy="23" fill="#ADD1B2" rx="11" ry="11" style="stroke:#A80036;stroke-width:1.0;"/><path d="M534.5,19.5 Q534.7031,19 534.9375,18.75 Q535.1719,18.5 535.4375,18.5 Q535.9063,18.5 536.2031,18.7813 Q536.5,19.0625 536.5,19.7188 L536.5,21.2813 Q536.5,21.9375 536.2188,22.2188 Q535.9375,22.5 535.5,22.5 Q535.1094,22.5 534.8594,22.3281 Q534.6094,22.1563 534.5,21.7031 Q534.4531,21.3906 534.2813,21.2188 Q533.9688,20.8906 533.4063,20.7031 Q532.8438,20.5 532.2813,20.5 Q531.5781,20.5 530.9844,20.7813 Q530.4063,21.0625 529.9531,21.6875 Q529.5,22.3125 529.5,23.1719 L529.5,24.0938 Q529.5,25.125 530.3438,25.8125 Q531.1875,26.5 532.6875,26.5 Q533.5781,26.5 534.2031,26.2969 Q534.5625,26.1875 534.9688,25.8281 Q535.2344,25.625 535.375,25.5625 Q535.5156,25.5 535.6875,25.5 Q536.0156,25.5 536.25,25.7656 Q536.5,26.0156 536.5,26.375 Q536.5,26.7188 536.1563,27.125 Q535.6563,27.7188 534.8594,28.0469 Q533.8125,28.5 532.5313,28.5 Q531.0313,28.5 529.8281,27.9063 Q528.8594,27.4375 528.1719,26.4219 Q527.5,25.4063 527.5,24.2031 L527.5,23.1094 Q527.5,21.8594 528.0938,20.7656 Q528.7031,19.6719 529.75,19.0938 Q530.8125,18.5 532,18.5 Q532.7188,18.5 533.3438,18.75 Q533.9688,19 534.5,19.5 Z " fill="#000000"/><text fill="#000000" font-family="sans-serif" font-size="12" lengthAdjust="spacing" textLength="101" x="546.5" y="27.9102">RegisterProductUI</text><line style="stroke:#A80036;stroke-width:1.5;" x1="518.5" x2="649.5" y1="39" y2="39"/><line style="stroke:#A80036;stroke-width:1.5;" x1="518.5" x2="649.5" y1="47" y2="47"/><!--MD5=[5c0a51590030aac38a770b3ba1524333]
class RegisterProductController--><rect codeLine="5" fill="#FEFECE" filter="url(#fcbvhizkt41ld)" height="89.5078" id="RegisterProductController" style="stroke:#A80036;stroke-width:1.5;" width="1154" x="7" y="115"/><ellipse cx="508.25" cy="131" fill="#ADD1B2" rx="11" ry="11" style="stroke:#A80036;stroke-width:1.0;"/><path d="M510.25,127.5 Q510.4531,127 510.6875,126.75 Q510.9219,126.5 511.1875,126.5 Q511.6563,126.5 511.9531,126.7813 Q512.25,127.0625 512.25,127.7188 L512.25,129.2813 Q512.25,129.9375 511.9688,130.2188 Q511.6875,130.5 511.25,130.5 Q510.8594,130.5 510.6094,130.3281 Q510.3594,130.1563 510.25,129.7031 Q510.2031,129.3906 510.0313,129.2188 Q509.7188,128.8906 509.1563,128.7031 Q508.5938,128.5 508.0313,128.5 Q507.3281,128.5 506.7344,128.7813 Q506.1563,129.0625 505.7031,129.6875 Q505.25,130.3125 505.25,131.1719 L505.25,132.0938 Q505.25,133.125 506.0938,133.8125 Q506.9375,134.5 508.4375,134.5 Q509.3281,134.5 509.9531,134.2969 Q510.3125,134.1875 510.7188,133.8281 Q510.9844,133.625 511.125,133.5625 Q511.2656,133.5 511.4375,133.5 Q511.7656,133.5 512,133.7656 Q512.25,134.0156 512.25,134.375 Q512.25,134.7188 511.9063,135.125 Q511.4063,135.7188 510.6094,136.0469 Q509.5625,136.5 508.2813,136.5 Q506.7813,136.5 505.5781,135.9063 Q504.6094,135.4375 503.9219,134.4219 Q503.25,133.4063 503.25,132.2031 L503.25,131.1094 Q503.25,129.8594 503.8438,128.7656 Q504.4531,127.6719 505.5,127.0938 Q506.5625,126.5 507.75,126.5 Q508.4688,126.5 509.0938,126.75 Q509.7188,127 510.25,127.5 Z " fill="#000000"/><text fill="#000000" font-family="sans-serif" font-size="12" lengthAdjust="spacing" textLength="143" x="528.75" y="135.9102">RegisterProductController</text><line style="stroke:#A80036;stroke-width:1.5;" x1="8" x2="1160" y1="147" y2="147"/><line style="stroke:#A80036;stroke-width:1.5;" x1="8" x2="1160" y1="155" y2="155"/><ellipse cx="18" cy="166" fill="#84BE84" rx="3" ry="3" style="stroke:#038048;stroke-width:1.0;"/><text fill="#000000" font-family="sans-serif" font-size="11" lengthAdjust="spacing" textLength="39" x="27" y="170.4189">create()</text><ellipse cx="18" cy="179.8359" fill="#84BE84" rx="3" ry="3" style="stroke:#038048;stroke-width:1.0;"/><text fill="#000000" font-family="sans-serif" font-size="11" lengthAdjust="spacing" textLength="1128" x="27" y="184.2549">registerProduct(uniqueInternalCode, barcode, shortDescription, extendedDescription, priceWithoutTaxes, status, weight, volume, priceWithTaxes, productCategory, technicalDescription, brandName, reference, productionCode, photos)</text><ellipse cx="18" cy="193.6719" fill="#84BE84" rx="3" ry="3" style="stroke:#038048;stroke-width:1.0;"/><text fill="#000000" font-family="sans-serif" font-size="11" lengthAdjust="spacing" textLength="97" x="27" y="198.0908">productCategories()</text><!--MD5=[e8c189551b7885b999ad7cefb30fc2a3]
class PersistenceContext--><rect codeLine="11" fill="#FEFECE" filter="url(#fcbvhizkt41ld)" height="61.8359" id="PersistenceContext" style="stroke:#A80036;stroke-width:1.5;" width="139" x="292.5" y="382.5"/><ellipse cx="307.5" cy="398.5" fill="#ADD1B2" rx="11" ry="11" style="stroke:#A80036;stroke-width:1.0;"/><path d="M309.5,395 Q309.7031,394.5 309.9375,394.25 Q310.1719,394 310.4375,394 Q310.9063,394 311.2031,394.2813 Q311.5,394.5625 311.5,395.2188 L311.5,396.7813 Q311.5,397.4375 311.2188,397.7188 Q310.9375,398 310.5,398 Q310.1094,398 309.8594,397.8281 Q309.6094,397.6563 309.5,397.2031 Q309.4531,396.8906 309.2813,396.7188 Q308.9688,396.3906 308.4063,396.2031 Q307.8438,396 307.2813,396 Q306.5781,396 305.9844,396.2813 Q305.4063,396.5625 304.9531,397.1875 Q304.5,397.8125 304.5,398.6719 L304.5,399.5938 Q304.5,400.625 305.3438,401.3125 Q306.1875,402 307.6875,402 Q308.5781,402 309.2031,401.7969 Q309.5625,401.6875 309.9688,401.3281 Q310.2344,401.125 310.375,401.0625 Q310.5156,401 310.6875,401 Q311.0156,401 311.25,401.2656 Q311.5,401.5156 311.5,401.875 Q311.5,402.2188 311.1563,402.625 Q310.6563,403.2188 309.8594,403.5469 Q308.8125,404 307.5313,404 Q306.0313,404 304.8281,403.4063 Q303.8594,402.9375 303.1719,401.9219 Q302.5,400.9063 302.5,399.7031 L302.5,398.6094 Q302.5,397.3594 303.0938,396.2656 Q303.7031,395.1719 304.75,394.5938 Q305.8125,394 307,394 Q307.7188,394 308.3438,394.25 Q308.9688,394.5 309.5,395 Z " fill="#000000"/><text fill="#000000" font-family="sans-serif" font-size="12" lengthAdjust="spacing" textLength="107" x="321.5" y="403.4102">PersistenceContext</text><line style="stroke:#A80036;stroke-width:1.5;" x1="293.5" x2="430.5" y1="414.5" y2="414.5"/><line style="stroke:#A80036;stroke-width:1.5;" x1="293.5" x2="430.5" y1="422.5" y2="422.5"/><ellipse cx="303.5" cy="433.5" fill="#84BE84" rx="3" ry="3" style="stroke:#038048;stroke-width:1.0;"/><text fill="#000000" font-family="sans-serif" font-size="11" lengthAdjust="spacing" textLength="65" x="312.5" y="437.9189">repositories()</text><!--MD5=[48590afff58a68e2fcba47824d6f8a11]
class RepositoryFactory--><rect codeLine="15" fill="#FEFECE" filter="url(#fcbvhizkt41ld)" height="61.8359" id="RepositoryFactory" style="stroke:#A80036;stroke-width:1.5;" width="130" x="262" y="622"/><ellipse cx="277" cy="638" fill="#ADD1B2" rx="11" ry="11" style="stroke:#A80036;stroke-width:1.0;"/><path d="M279,634.5 Q279.2031,634 279.4375,633.75 Q279.6719,633.5 279.9375,633.5 Q280.4063,633.5 280.7031,633.7813 Q281,634.0625 281,634.7188 L281,636.2813 Q281,636.9375 280.7188,637.2188 Q280.4375,637.5 280,637.5 Q279.6094,637.5 279.3594,637.3281 Q279.1094,637.1563 279,636.7031 Q278.9531,636.3906 278.7813,636.2188 Q278.4688,635.8906 277.9063,635.7031 Q277.3438,635.5 276.7813,635.5 Q276.0781,635.5 275.4844,635.7813 Q274.9063,636.0625 274.4531,636.6875 Q274,637.3125 274,638.1719 L274,639.0938 Q274,640.125 274.8438,640.8125 Q275.6875,641.5 277.1875,641.5 Q278.0781,641.5 278.7031,641.2969 Q279.0625,641.1875 279.4688,640.8281 Q279.7344,640.625 279.875,640.5625 Q280.0156,640.5 280.1875,640.5 Q280.5156,640.5 280.75,640.7656 Q281,641.0156 281,641.375 Q281,641.7188 280.6563,642.125 Q280.1563,642.7188 279.3594,643.0469 Q278.3125,643.5 277.0313,643.5 Q275.5313,643.5 274.3281,642.9063 Q273.3594,642.4375 272.6719,641.4219 Q272,640.4063 272,639.2031 L272,638.1094 Q272,636.8594 272.5938,635.7656 Q273.2031,634.6719 274.25,634.0938 Q275.3125,633.5 276.5,633.5 Q277.2188,633.5 277.8438,633.75 Q278.4688,634 279,634.5 Z " fill="#000000"/><text fill="#000000" font-family="sans-serif" font-size="12" lengthAdjust="spacing" textLength="98" x="291" y="642.9102">RepositoryFactory</text><line style="stroke:#A80036;stroke-width:1.5;" x1="263" x2="391" y1="654" y2="654"/><line style="stroke:#A80036;stroke-width:1.5;" x1="263" x2="391" y1="662" y2="662"/><ellipse cx="273" cy="673" fill="#84BE84" rx="3" ry="3" style="stroke:#038048;stroke-width:1.0;"/><text fill="#000000" font-family="sans-serif" font-size="11" lengthAdjust="spacing" textLength="39" x="282" y="677.4189">create()</text><!--MD5=[a5718d46c73396c22464b90a695f8578]
class ListProductCategoryService--><rect codeLine="25" fill="#FEFECE" filter="url(#fcbvhizkt41ld)" height="61.8359" id="ListProductCategoryService" style="stroke:#A80036;stroke-width:1.5;" width="183" x="427.5" y="622"/><ellipse cx="442.5" cy="638" fill="#ADD1B2" rx="11" ry="11" style="stroke:#A80036;stroke-width:1.0;"/><path d="M444.5,634.5 Q444.7031,634 444.9375,633.75 Q445.1719,633.5 445.4375,633.5 Q445.9063,633.5 446.2031,633.7813 Q446.5,634.0625 446.5,634.7188 L446.5,636.2813 Q446.5,636.9375 446.2188,637.2188 Q445.9375,637.5 445.5,637.5 Q445.1094,637.5 444.8594,637.3281 Q444.6094,637.1563 444.5,636.7031 Q444.4531,636.3906 444.2813,636.2188 Q443.9688,635.8906 443.4063,635.7031 Q442.8438,635.5 442.2813,635.5 Q441.5781,635.5 440.9844,635.7813 Q440.4063,636.0625 439.9531,636.6875 Q439.5,637.3125 439.5,638.1719 L439.5,639.0938 Q439.5,640.125 440.3438,640.8125 Q441.1875,641.5 442.6875,641.5 Q443.5781,641.5 444.2031,641.2969 Q444.5625,641.1875 444.9688,640.8281 Q445.2344,640.625 445.375,640.5625 Q445.5156,640.5 445.6875,640.5 Q446.0156,640.5 446.25,640.7656 Q446.5,641.0156 446.5,641.375 Q446.5,641.7188 446.1563,642.125 Q445.6563,642.7188 444.8594,643.0469 Q443.8125,643.5 442.5313,643.5 Q441.0313,643.5 439.8281,642.9063 Q438.8594,642.4375 438.1719,641.4219 Q437.5,640.4063 437.5,639.2031 L437.5,638.1094 Q437.5,636.8594 438.0938,635.7656 Q438.7031,634.6719 439.75,634.0938 Q440.8125,633.5 442,633.5 Q442.7188,633.5 443.3438,633.75 Q443.9688,634 444.5,634.5 Z " fill="#000000"/><text fill="#000000" font-family="sans-serif" font-size="12" lengthAdjust="spacing" textLength="151" x="456.5" y="642.9102">ListProductCategoryService</text><line style="stroke:#A80036;stroke-width:1.5;" x1="428.5" x2="609.5" y1="654" y2="654"/><line style="stroke:#A80036;stroke-width:1.5;" x1="428.5" x2="609.5" y1="662" y2="662"/><ellipse cx="438.5" cy="673" fill="#84BE84" rx="3" ry="3" style="stroke:#038048;stroke-width:1.0;"/><text fill="#000000" font-family="sans-serif" font-size="11" lengthAdjust="spacing" textLength="107" x="447.5" y="677.4189">allProductCategories()</text><!--MD5=[72136138052d025cffdce3c22fbd185f]
class Product--><rect codeLine="29" fill="#FEFECE" filter="url(#fcbvhizkt41ld)" height="61.8359" id="Product" style="stroke:#A80036;stroke-width:1.5;" width="74" x="646" y="622"/><ellipse cx="661" cy="638" fill="#ADD1B2" rx="11" ry="11" style="stroke:#A80036;stroke-width:1.0;"/><path d="M663,634.5 Q663.2031,634 663.4375,633.75 Q663.6719,633.5 663.9375,633.5 Q664.4063,633.5 664.7031,633.7813 Q665,634.0625 665,634.7188 L665,636.2813 Q665,636.9375 664.7188,637.2188 Q664.4375,637.5 664,637.5 Q663.6094,637.5 663.3594,637.3281 Q663.1094,637.1563 663,636.7031 Q662.9531,636.3906 662.7813,636.2188 Q662.4688,635.8906 661.9063,635.7031 Q661.3438,635.5 660.7813,635.5 Q660.0781,635.5 659.4844,635.7813 Q658.9063,636.0625 658.4531,636.6875 Q658,637.3125 658,638.1719 L658,639.0938 Q658,640.125 658.8438,640.8125 Q659.6875,641.5 661.1875,641.5 Q662.0781,641.5 662.7031,641.2969 Q663.0625,641.1875 663.4688,640.8281 Q663.7344,640.625 663.875,640.5625 Q664.0156,640.5 664.1875,640.5 Q664.5156,640.5 664.75,640.7656 Q665,641.0156 665,641.375 Q665,641.7188 664.6563,642.125 Q664.1563,642.7188 663.3594,643.0469 Q662.3125,643.5 661.0313,643.5 Q659.5313,643.5 658.3281,642.9063 Q657.3594,642.4375 656.6719,641.4219 Q656,640.4063 656,639.2031 L656,638.1094 Q656,636.8594 656.5938,635.7656 Q657.2031,634.6719 658.25,634.0938 Q659.3125,633.5 660.5,633.5 Q661.2188,633.5 661.8438,633.75 Q662.4688,634 663,634.5 Z " fill="#000000"/><text fill="#000000" font-family="sans-serif" font-size="12" lengthAdjust="spacing" textLength="42" x="675" y="642.9102">Product</text><line style="stroke:#A80036;stroke-width:1.5;" x1="647" x2="719" y1="654" y2="654"/><line style="stroke:#A80036;stroke-width:1.5;" x1="647" x2="719" y1="662" y2="662"/><ellipse cx="657" cy="673" fill="#84BE84" rx="3" ry="3" style="stroke:#038048;stroke-width:1.0;"/><text fill="#000000" font-family="sans-serif" font-size="11" lengthAdjust="spacing" textLength="39" x="666" y="677.4189">create()</text><!--MD5=[929016e0e3600cf0cff4aa121242a21b]
class ProductBuilder--><rect codeLine="33" fill="#FEFECE" filter="url(#fcbvhizkt41ld)" height="297.0469" id="ProductBuilder" style="stroke:#A80036;stroke-width:1.5;" width="155" x="572.5" y="265"/><ellipse cx="606.4" cy="281" fill="#ADD1B2" rx="11" ry="11" style="stroke:#A80036;stroke-width:1.0;"/><path d="M608.4,277.5 Q608.6031,277 608.8375,276.75 Q609.0719,276.5 609.3375,276.5 Q609.8063,276.5 610.1031,276.7813 Q610.4,277.0625 610.4,277.7188 L610.4,279.2813 Q610.4,279.9375 610.1188,280.2188 Q609.8375,280.5 609.4,280.5 Q609.0094,280.5 608.7594,280.3281 Q608.5094,280.1563 608.4,279.7031 Q608.3531,279.3906 608.1813,279.2188 Q607.8688,278.8906 607.3063,278.7031 Q606.7438,278.5 606.1813,278.5 Q605.4781,278.5 604.8844,278.7813 Q604.3063,279.0625 603.8531,279.6875 Q603.4,280.3125 603.4,281.1719 L603.4,282.0938 Q603.4,283.125 604.2438,283.8125 Q605.0875,284.5 606.5875,284.5 Q607.4781,284.5 608.1031,284.2969 Q608.4625,284.1875 608.8688,283.8281 Q609.1344,283.625 609.275,283.5625 Q609.4156,283.5 609.5875,283.5 Q609.9156,283.5 610.15,283.7656 Q610.4,284.0156 610.4,284.375 Q610.4,284.7188 610.0563,285.125 Q609.5563,285.7188 608.7594,286.0469 Q607.7125,286.5 606.4313,286.5 Q604.9313,286.5 603.7281,285.9063 Q602.7594,285.4375 602.0719,284.4219 Q601.4,283.4063 601.4,282.2031 L601.4,281.1094 Q601.4,279.8594 601.9938,278.7656 Q602.6031,277.6719 603.65,277.0938 Q604.7125,276.5 605.9,276.5 Q606.6188,276.5 607.2438,276.75 Q607.8688,277 608.4,277.5 Z " fill="#000000"/><text fill="#000000" font-family="sans-serif" font-size="12" lengthAdjust="spacing" textLength="81" x="624.6" y="285.9102">ProductBuilder</text><line style="stroke:#A80036;stroke-width:1.5;" x1="573.5" x2="726.5" y1="297" y2="297"/><line style="stroke:#A80036;stroke-width:1.5;" x1="573.5" x2="726.5" y1="305" y2="305"/><ellipse cx="583.5" cy="316" fill="#84BE84" rx="3" ry="3" style="stroke:#038048;stroke-width:1.0;"/><text fill="#000000" font-family="sans-serif" font-size="11" lengthAdjust="spacing" textLength="39" x="592.5" y="320.4189">create()</text><ellipse cx="583.5" cy="329.8359" fill="#84BE84" rx="3" ry="3" style="stroke:#038048;stroke-width:1.0;"/><text fill="#000000" font-family="sans-serif" font-size="11" lengthAdjust="spacing" textLength="52" x="592.5" y="334.2549">codedAs()</text><ellipse cx="583.5" cy="343.6719" fill="#84BE84" rx="3" ry="3" style="stroke:#038048;stroke-width:1.0;"/><text fill="#000000" font-family="sans-serif" font-size="11" lengthAdjust="spacing" textLength="59" x="592.5" y="348.0908">ofBarcode()</text><ellipse cx="583.5" cy="357.5078" fill="#84BE84" rx="3" ry="3" style="stroke:#038048;stroke-width:1.0;"/><text fill="#000000" font-family="sans-serif" font-size="11" lengthAdjust="spacing" textLength="107" x="592.5" y="361.9268">shortlyDescriptedAs()</text><ellipse cx="583.5" cy="371.3438" fill="#84BE84" rx="3" ry="3" style="stroke:#038048;stroke-width:1.0;"/><text fill="#000000" font-family="sans-serif" font-size="11" lengthAdjust="spacing" textLength="127" x="592.5" y="375.7627">extendedlyDescriptedAs()</text><ellipse cx="583.5" cy="385.1797" fill="#84BE84" rx="3" ry="3" style="stroke:#038048;stroke-width:1.0;"/><text fill="#000000" font-family="sans-serif" font-size="11" lengthAdjust="spacing" textLength="81" x="592.5" y="389.5986">initialyPricedAs()</text><ellipse cx="583.5" cy="399.0156" fill="#84BE84" rx="3" ry="3" style="stroke:#038048;stroke-width:1.0;"/><text fill="#000000" font-family="sans-serif" font-size="11" lengthAdjust="spacing" textLength="52" x="592.5" y="403.4346">statusAs()</text><ellipse cx="583.5" cy="412.8516" fill="#84BE84" rx="3" ry="3" style="stroke:#038048;stroke-width:1.0;"/><text fill="#000000" font-family="sans-serif" font-size="11" lengthAdjust="spacing" textLength="55" x="592.5" y="417.2705">weightAs()</text><ellipse cx="583.5" cy="426.6875" fill="#84BE84" rx="3" ry="3" style="stroke:#038048;stroke-width:1.0;"/><text fill="#000000" font-family="sans-serif" font-size="11" lengthAdjust="spacing" textLength="56" x="592.5" y="431.1064">volumeAs()</text><ellipse cx="583.5" cy="440.5234" fill="#84BE84" rx="3" ry="3" style="stroke:#038048;stroke-width:1.0;"/><text fill="#000000" font-family="sans-serif" font-size="11" lengthAdjust="spacing" textLength="105" x="592.5" y="444.9424">afterTaxesPricedAs()</text><ellipse cx="583.5" cy="454.3594" fill="#84BE84" rx="3" ry="3" style="stroke:#038048;stroke-width:1.0;"/><text fill="#000000" font-family="sans-serif" font-size="11" lengthAdjust="spacing" textLength="62" x="592.5" y="458.7783">ofCategory()</text><ellipse cx="583.5" cy="468.1953" fill="#84BE84" rx="3" ry="3" style="stroke:#038048;stroke-width:1.0;"/><text fill="#000000" font-family="sans-serif" font-size="11" lengthAdjust="spacing" textLength="74" x="592.5" y="472.6143">buildOrThrow()</text><ellipse cx="583.5" cy="482.0313" fill="#84BE84" rx="3" ry="3" style="stroke:#038048;stroke-width:1.0;"/><text fill="#000000" font-family="sans-serif" font-size="11" lengthAdjust="spacing" textLength="129" x="592.5" y="486.4502">withTechnicalDescription()</text><ellipse cx="583.5" cy="495.8672" fill="#84BE84" rx="3" ry="3" style="stroke:#038048;stroke-width:1.0;"/><text fill="#000000" font-family="sans-serif" font-size="11" lengthAdjust="spacing" textLength="85" x="592.5" y="500.2861">withBrandName()</text><ellipse cx="583.5" cy="509.7031" fill="#84BE84" rx="3" ry="3" style="stroke:#038048;stroke-width:1.0;"/><text fill="#000000" font-family="sans-serif" font-size="11" lengthAdjust="spacing" textLength="80" x="592.5" y="514.1221">withReference()</text><ellipse cx="583.5" cy="523.5391" fill="#84BE84" rx="3" ry="3" style="stroke:#038048;stroke-width:1.0;"/><text fill="#000000" font-family="sans-serif" font-size="11" lengthAdjust="spacing" textLength="105" x="592.5" y="527.958">withProductionCode()</text><ellipse cx="583.5" cy="537.375" fill="#84BE84" rx="3" ry="3" style="stroke:#038048;stroke-width:1.0;"/><text fill="#000000" font-family="sans-serif" font-size="11" lengthAdjust="spacing" textLength="62" x="592.5" y="541.7939">withPhotos()</text><ellipse cx="583.5" cy="551.2109" fill="#84BE84" rx="3" ry="3" style="stroke:#038048;stroke-width:1.0;"/><text fill="#000000" font-family="sans-serif" font-size="11" lengthAdjust="spacing" textLength="30" x="592.5" y="555.6299">build()</text><!--MD5=[288bffab58163169a8d16c57b889bc0c]
class TransactionalContext--><rect codeLine="54" fill="#FEFECE" filter="url(#fcbvhizkt41ld)" height="75.6719" id="TransactionalContext" style="stroke:#A80036;stroke-width:1.5;" width="148" x="763" y="375.5"/><ellipse cx="778" cy="391.5" fill="#ADD1B2" rx="11" ry="11" style="stroke:#A80036;stroke-width:1.0;"/><path d="M780,388 Q780.2031,387.5 780.4375,387.25 Q780.6719,387 780.9375,387 Q781.4063,387 781.7031,387.2813 Q782,387.5625 782,388.2188 L782,389.7813 Q782,390.4375 781.7188,390.7188 Q781.4375,391 781,391 Q780.6094,391 780.3594,390.8281 Q780.1094,390.6563 780,390.2031 Q779.9531,389.8906 779.7813,389.7188 Q779.4688,389.3906 778.9063,389.2031 Q778.3438,389 777.7813,389 Q777.0781,389 776.4844,389.2813 Q775.9063,389.5625 775.4531,390.1875 Q775,390.8125 775,391.6719 L775,392.5938 Q775,393.625 775.8438,394.3125 Q776.6875,395 778.1875,395 Q779.0781,395 779.7031,394.7969 Q780.0625,394.6875 780.4688,394.3281 Q780.7344,394.125 780.875,394.0625 Q781.0156,394 781.1875,394 Q781.5156,394 781.75,394.2656 Q782,394.5156 782,394.875 Q782,395.2188 781.6563,395.625 Q781.1563,396.2188 780.3594,396.5469 Q779.3125,397 778.0313,397 Q776.5313,397 775.3281,396.4063 Q774.3594,395.9375 773.6719,394.9219 Q773,393.9063 773,392.7031 L773,391.6094 Q773,390.3594 773.5938,389.2656 Q774.2031,388.1719 775.25,387.5938 Q776.3125,387 777.5,387 Q778.2188,387 778.8438,387.25 Q779.4688,387.5 780,388 Z " fill="#000000"/><text fill="#000000" font-family="sans-serif" font-size="12" lengthAdjust="spacing" textLength="116" x="792" y="396.4102">TransactionalContext</text><line style="stroke:#A80036;stroke-width:1.5;" x1="764" x2="910" y1="407.5" y2="407.5"/><line style="stroke:#A80036;stroke-width:1.5;" x1="764" x2="910" y1="415.5" y2="415.5"/><ellipse cx="774" cy="426.5" fill="#84BE84" rx="3" ry="3" style="stroke:#038048;stroke-width:1.0;"/><text fill="#000000" font-family="sans-serif" font-size="11" lengthAdjust="spacing" textLength="91" x="783" y="430.9189">beginTransaction()</text><ellipse cx="774" cy="440.3359" fill="#84BE84" rx="3" ry="3" style="stroke:#038048;stroke-width:1.0;"/><text fill="#000000" font-family="sans-serif" font-size="11" lengthAdjust="spacing" textLength="41" x="783" y="444.7549">commit()</text><!--MD5=[1f5b4bddb425f894a00739dc55d2285e]
link RegisterProductUI to RegisterProductController--><path codeLine="59" d="M584,55.29 C584,70.48 584,90.88 584,109.56 " fill="none" id="RegisterProductUI-to-RegisterProductController" style="stroke:#A80036;stroke-width:1.0;"/><polygon fill="#A80036" points="584,114.78,588,105.78,584,109.78,580,105.78,584,114.78" style="stroke:#A80036;stroke-width:1.0;"/><!--MD5=[66a2c52306f2e7a3d232c6f58f5fd62f]
link RegisterProductController to ProductBuilder--><path codeLine="61" d="M595.57,205.1 C599.75,221 604.73,239.99 609.96,259.91 " fill="none" id="RegisterProductController-to-ProductBuilder" style="stroke:#A80036;stroke-width:1.0;"/><polygon fill="#A80036" points="611.29,264.99,612.8664,255.2681,610.0168,260.1548,605.1301,257.3052,611.29,264.99" style="stroke:#A80036;stroke-width:1.0;"/><!--MD5=[dcfa1bf0fded0010ff9ccf720564765c]
link RegisterProductController to PersistenceContext--><path codeLine="62" d="M545.08,205.1 C501.5,254.46 431.81,333.41 392.17,378.32 " fill="none" id="RegisterProductController-to-PersistenceContext" style="stroke:#A80036;stroke-width:1.0;"/><polygon fill="#A80036" points="388.67,382.29,397.6234,378.1868,391.9776,378.5404,391.6241,372.8946,388.67,382.29" style="stroke:#A80036;stroke-width:1.0;"/><!--MD5=[089e45c72aff31cffb9e3c5b999d7577]
link RegisterProductController to TransactionalContext--><path codeLine="63" d="M667.38,205.16 C694.05,221.71 722.47,242.11 745,265 C775.67,296.16 801.09,339.29 817.38,370.86 " fill="none" id="RegisterProductController-to-TransactionalContext" style="stroke:#A80036;stroke-width:1.0;"/><polygon fill="#A80036" points="819.72,375.44,819.1974,365.605,817.4497,370.9851,812.0696,369.2374,819.72,375.44" style="stroke:#A80036;stroke-width:1.0;"/><!--MD5=[496f0abb8cf13af59794e847940584f7]
link RegisterProductController to ListProductCategoryService--><path codeLine="64" d="M569.81,205.13 C564.41,223.47 558.67,245.09 555,265 C531.39,393.05 522.92,547.95 520.18,616.46 " fill="none" id="RegisterProductController-to-ListProductCategoryService" style="stroke:#A80036;stroke-width:1.0;"/><polygon fill="#A80036" points="519.98,621.64,524.3365,612.8071,520.1798,616.644,516.3429,612.4873,519.98,621.64" style="stroke:#A80036;stroke-width:1.0;"/><!--MD5=[05ee4548aaab947720a05fa74047e08a]
link ProductBuilder to Product--><path codeLine="66" d="M670.52,562.21 C673.33,582.38 675.96,601.37 678.09,616.64 " fill="none" id="ProductBuilder-to-Product" style="stroke:#A80036;stroke-width:1.0;"/><polygon fill="#A80036" points="678.79,621.67,681.4923,612.1991,678.0909,616.7191,673.5709,613.3177,678.79,621.67" style="stroke:#A80036;stroke-width:1.0;"/><!--MD5=[754b775031405e096442b27febffa290]
link PersistenceContext to RepositoryFactory--><path codeLine="68" d="M357.57,444.58 C351.09,488.54 339.06,570.16 332.18,616.83 " fill="none" id="PersistenceContext-to-RepositoryFactory" style="stroke:#A80036;stroke-width:1.0;"/><polygon fill="#A80036" points="331.45,621.79,336.7197,613.4695,332.1791,616.8434,328.8052,612.3029,331.45,621.79" style="stroke:#A80036;stroke-width:1.0;"/><!--MD5=[bb8d496c5d03e81d1174e6834108a81e]
link ListProductCategoryService to ProductCategoryRepository--><path codeLine="70" d="M519,684.15 C519,700.99 519,721.84 519,738.35 " fill="none" id="ListProductCategoryService-to-ProductCategoryRepository" style="stroke:#A80036;stroke-width:1.0;"/><polygon fill="#A80036" points="519,743.77,523,734.77,519,738.77,515,734.77,519,743.77" style="stroke:#A80036;stroke-width:1.0;"/><!--MD5=[a107a52b6e2b3fb29ad79d2f6a7df605]
link RepositoryFactory to ProductRepository--><path codeLine="71" d="M324.59,684.15 C323.23,701.14 321.54,722.2 320.22,738.78 " fill="none" id="RepositoryFactory-to-ProductRepository" style="stroke:#A80036;stroke-width:1.0;"/><polygon fill="#A80036" points="319.82,743.77,324.5269,735.1187,320.2199,738.786,316.5526,734.4789,319.82,743.77" style="stroke:#A80036;stroke-width:1.0;"/><!--MD5=[9e0c7b031ab342ad64f9e6318367261d]
link RepositoryFactory to ProductCategoryRepository--><path codeLine="72" d="M378.2,684 C408.67,701.86 446.91,724.26 475.85,741.21 " fill="none" id="RepositoryFactory-to-ProductCategoryRepository" style="stroke:#A80036;stroke-width:1.0;"/><polygon fill="#A80036" points="480.41,743.89,474.6679,735.8882,476.0963,741.3618,470.6227,742.7901,480.41,743.89" style="stroke:#A80036;stroke-width:1.0;"/><!--MD5=[48707ee2b63d192d4186cfaaadfd823e]
@startuml

class RegisterProductUI{
}

class RegisterProductController{
+create()
+registerProduct(uniqueInternalCode, barcode, shortDescription, extendedDescription, priceWithoutTaxes, status, weight, volume, priceWithTaxes, productCategory, technicalDescription, brandName, reference, productionCode, photos)
+productCategories()
}

class PersistenceContext{
+repositories()
}

class RepositoryFactory{
+create()
}

database ProductRepository{
}

database ProductCategoryRepository{
}

class ListProductCategoryService {
+allProductCategories()
}

class Product{
+create()
}

class ProductBuilder{
+create()
+codedAs()
+ofBarcode()
+shortlyDescriptedAs()
+extendedlyDescriptedAs()
+initialyPricedAs()
+statusAs()
+weightAs()
+volumeAs()
+afterTaxesPricedAs()
+ofCategory()
+buildOrThrow()
+withTechnicalDescription()
+withBrandName()
+withReference()
+withProductionCode()
+withPhotos()
+build()
}

class TransactionalContext{
+beginTransaction()
+commit()
}

RegisterProductUI - -> RegisterProductController

RegisterProductController - -> ProductBuilder
RegisterProductController - -> PersistenceContext
RegisterProductController - -> TransactionalContext
RegisterProductController - -> ListProductCategoryService

ProductBuilder - -> Product

PersistenceContext - -> RepositoryFactory

ListProductCategoryService - -> ProductCategoryRepository
RepositoryFactory - -> ProductRepository
RepositoryFactory - -> ProductCategoryRepository

@enduml

PlantUML version 1.2021.11(Sat Oct 02 14:26:11 BST 2021)
(GPL source distribution)
Java Runtime: OpenJDK Runtime Environment
JVM: OpenJDK 64-Bit Server VM
Default Encoding: Cp1252
Language: pt
Country: PT
--></g></svg>