<?xml version="1.0" encoding="UTF-8" standalone="no"?><svg xmlns="http://www.w3.org/2000/svg" xmlns:xlink="http://www.w3.org/1999/xlink" contentStyleType="text/css" height="647px" preserveAspectRatio="none" style="width:324px;height:647px;background:#FFFFFF;" version="1.1" viewBox="0 0 324 647" width="324px" zoomAndPan="magnify"><defs/><g><!--MD5=[22b4f80a245276e25c9cb3ee67d19758]
cluster <<aggregate>> AGV--><g id="cluster_&lt;&lt;aggregate&gt;&gt; AGV"><path d="M8.5,6 L146.5,6 A3.75,3.75 0 0 1 149,8.5 L156,29.6094 L195.5,29.6094 A2.5,2.5 0 0 1 198,32.1094 L198,354.5 A2.5,2.5 0 0 1 195.5,357 L8.5,357 A2.5,2.5 0 0 1 6,354.5 L6,8.5 A2.5,2.5 0 0 1 8.5,6 " style="stroke:#000000;stroke-width:1.5;fill:none;"/><line style="stroke:#000000;stroke-width:1.5;fill:none;" x1="6" x2="156" y1="29.6094" y2="29.6094"/><text fill="#000000" font-family="sans-serif" font-size="14" font-weight="bold" lengthAdjust="spacing" textLength="137" x="10" y="22.5332">&lt;&lt;aggregate&gt;&gt; AGV</text></g><!--MD5=[89a40d3b9877e2c9c1ba7f6f50c24be4]
cluster <<aggregate>> AGVDock--><g id="cluster_&lt;&lt;aggregate&gt;&gt; AGVDock"><path d="M97.5,426 L270.5,426 A3.75,3.75 0 0 1 273,428.5 L280,449.6094 L314.5,449.6094 A2.5,2.5 0 0 1 317,452.1094 L317,637.5 A2.5,2.5 0 0 1 314.5,640 L97.5,640 A2.5,2.5 0 0 1 95,637.5 L95,428.5 A2.5,2.5 0 0 1 97.5,426 " style="stroke:#000000;stroke-width:1.5;fill:none;"/><line style="stroke:#000000;stroke-width:1.5;fill:none;" x1="95" x2="280" y1="449.6094" y2="449.6094"/><text fill="#000000" font-family="sans-serif" font-size="14" font-weight="bold" lengthAdjust="spacing" textLength="172" x="99" y="442.5332">&lt;&lt;aggregate&gt;&gt; AGVDock</text></g><!--MD5=[53b2c06ade5903185ca3326dce80e141]
class AGV--><g id="elem_AGV"><rect codeLine="18" fill="#F5F5DC" height="126.625" id="AGV" rx="2.5" ry="2.5" style="stroke:#181818;stroke-width:0.5;" width="160" x="22" y="42"/><ellipse cx="78.25" cy="70.8984" fill="#ADD1B2" rx="11" ry="11" style="stroke:#181818;stroke-width:1.0;"/><path d="M76.75,71.8984 L76.75,73.8984 L80.75,73.8984 L80.75,72.8984 L80.75,72.4141 L81.375,71.8984 L81.75,71.8984 L82.125,71.8984 L82.75,72.4141 L82.75,72.8984 L82.75,75.8984 L74.75,75.8984 L74.2656,75.8984 L73.75,75.2734 L73.75,74.8984 L73.75,74.5234 L74.2656,73.8984 L74.75,73.8984 L74.75,73.8984 L74.75,67.8984 L74.75,67.8984 L74.2656,67.8984 L73.75,67.2734 L73.75,66.8984 L73.75,66.5234 L74.2656,65.8984 L74.75,65.8984 L82.75,65.8984 L82.75,68.8984 L82.75,69.3828 L82.125,69.8984 L81.75,69.8984 L81.375,69.8984 L80.75,69.3828 L80.75,68.8984 L80.75,67.8984 L76.75,67.8984 L76.75,69.8984 L77.75,69.8984 L77.75,69.4141 L77.75,69.4141 L78.375,68.8984 L78.75,68.8984 L79.125,68.8984 L79.75,69.4141 L79.75,69.8984 L79.75,71.8984 L79.75,72.3828 L79.125,72.8984 L79.125,72.8984 L78.75,72.8984 L78.375,72.8984 L77.75,72.3828 L77.75,72.3828 L77.75,71.8984 L76.75,71.8984 Z " fill="#000000"/><text fill="#000000" font-family="sans-serif" font-size="12" font-style="italic" lengthAdjust="spacing" textLength="43" x="96.75" y="59.457">«entity»</text><text fill="#000000" font-family="sans-serif" font-size="12" font-style="italic" lengthAdjust="spacing" textLength="35" x="100.75" y="74.5508">«root»</text><text fill="#000000" font-family="sans-serif" font-size="14" lengthAdjust="spacing" textLength="29" x="103.75" y="91.7207">AGV</text><line style="stroke:#181818;stroke-width:0.5;" x1="23" x2="181" y1="99.7969" y2="99.7969"/><text fill="#000000" font-family="sans-serif" font-size="14" lengthAdjust="spacing" textLength="82" x="28" y="118.3301">-«VO» AgvID</text><text fill="#000000" font-family="sans-serif" font-size="14" lengthAdjust="spacing" textLength="148" x="28" y="135.9395">-«VO» AutonomyStatus</text><text fill="#000000" font-family="sans-serif" font-size="14" lengthAdjust="spacing" textLength="116" x="28" y="153.5488">-«VO» TaskStatus</text><line style="stroke:#181818;stroke-width:0.5;" x1="23" x2="181" y1="160.625" y2="160.625"/></g><!--MD5=[7e20e022571e30ec1001cf6eabd7f3e2]
class Model--><g id="elem_Model"><rect codeLine="32" fill="#F5F5DC" height="111.5313" id="Model" rx="2.5" ry="2.5" style="stroke:#181818;stroke-width:0.5;" width="122" x="31" y="229"/><ellipse cx="51.85" cy="250.3516" fill="#FF8B40" rx="11" ry="11" style="stroke:#A80036;stroke-width:1.0;"/><path d="M51.85,253.6328 L53.3813,248.1016 L53.3813,248.1016 L52.8656,248.1016 L52.35,247.4766 L52.35,247.1016 L52.35,246.7266 L52.8656,246.1016 L53.3813,246.1016 L55.2563,246.1016 L55.8344,246.1016 L56.35,246.7266 L56.35,247.1016 L56.35,247.4766 L55.8344,248.1016 L55.8344,248.1016 L55.3813,248.1016 L53.0375,256.1016 L50.6625,256.1016 L48.1938,248.1016 L47.8656,248.1016 L47.8656,248.1016 L47.35,247.4766 L47.35,247.1016 L47.35,246.7266 L47.8656,246.1016 L48.4438,246.1016 L50.3188,246.1016 L50.8344,246.1016 L51.35,246.7266 L51.35,247.1016 L51.35,247.4766 L50.8344,248.1016 L50.3188,248.1016 L50.3188,248.1016 L51.85,253.6328 Z " fill="#000000"/><text fill="#000000" font-family="sans-serif" font-size="12" font-style="italic" lengthAdjust="spacing" textLength="81" x="65.15" y="246.457">«value object»</text><text fill="#000000" font-family="sans-serif" font-size="14" lengthAdjust="spacing" textLength="38" x="86.65" y="263.627">Model</text><line style="stroke:#181818;stroke-width:0.5;" x1="32" x2="152" y1="271.7031" y2="271.7031"/><text fill="#000000" font-family="sans-serif" font-size="14" lengthAdjust="spacing" textLength="56" x="37" y="290.2363">-ModelID</text><text fill="#000000" font-family="sans-serif" font-size="14" lengthAdjust="spacing" textLength="110" x="37" y="307.8457">-ShortDescription</text><text fill="#000000" font-family="sans-serif" font-size="14" lengthAdjust="spacing" textLength="74" x="37" y="325.4551">-MaxWeight</text><line style="stroke:#181818;stroke-width:0.5;" x1="32" x2="152" y1="332.5313" y2="332.5313"/></g><!--MD5=[6c8d26f6d50c9b5da41494faa6136af8]
class AGVDock--><g id="elem_AGVDock"><rect codeLine="24" fill="#F5F5DC" height="161.8438" id="AGVDock" rx="2.5" ry="2.5" style="stroke:#181818;stroke-width:0.5;" width="189" x="111.5" y="462"/><ellipse cx="171.25" cy="490.8984" fill="#ADD1B2" rx="11" ry="11" style="stroke:#181818;stroke-width:1.0;"/><path d="M169.75,491.8984 L169.75,493.8984 L173.75,493.8984 L173.75,492.8984 L173.75,492.4141 L174.375,491.8984 L174.75,491.8984 L175.125,491.8984 L175.75,492.4141 L175.75,492.8984 L175.75,495.8984 L167.75,495.8984 L167.2656,495.8984 L166.75,495.2734 L166.75,494.8984 L166.75,494.5234 L167.2656,493.8984 L167.75,493.8984 L167.75,493.8984 L167.75,487.8984 L167.75,487.8984 L167.2656,487.8984 L166.75,487.2734 L166.75,486.8984 L166.75,486.5234 L167.2656,485.8984 L167.75,485.8984 L175.75,485.8984 L175.75,488.8984 L175.75,489.3828 L175.125,489.8984 L174.75,489.8984 L174.375,489.8984 L173.75,489.3828 L173.75,488.8984 L173.75,487.8984 L169.75,487.8984 L169.75,489.8984 L170.75,489.8984 L170.75,489.4141 L170.75,489.4141 L171.375,488.8984 L171.75,488.8984 L172.125,488.8984 L172.75,489.4141 L172.75,489.8984 L172.75,491.8984 L172.75,492.3828 L172.125,492.8984 L172.125,492.8984 L171.75,492.8984 L171.375,492.8984 L170.75,492.3828 L170.75,492.3828 L170.75,491.8984 L169.75,491.8984 Z " fill="#000000"/><text fill="#000000" font-family="sans-serif" font-size="12" font-style="italic" lengthAdjust="spacing" textLength="43" x="200.75" y="479.457">«entity»</text><text fill="#000000" font-family="sans-serif" font-size="12" font-style="italic" lengthAdjust="spacing" textLength="35" x="204.75" y="494.5508">«root»</text><text fill="#000000" font-family="sans-serif" font-size="14" lengthAdjust="spacing" textLength="61" x="191.75" y="511.7207">AGVDock</text><line style="stroke:#181818;stroke-width:0.5;" x1="112.5" x2="299.5" y1="519.7969" y2="519.7969"/><text fill="#000000" font-family="sans-serif" font-size="14" lengthAdjust="spacing" textLength="90" x="117.5" y="538.3301">-«VO» DockID</text><text fill="#000000" font-family="sans-serif" font-size="14" lengthAdjust="spacing" textLength="127" x="117.5" y="555.9395">-«VO» BeginSquare</text><text fill="#000000" font-family="sans-serif" font-size="14" lengthAdjust="spacing" textLength="116" x="117.5" y="573.5488">-«VO» EndSquare</text><text fill="#000000" font-family="sans-serif" font-size="14" lengthAdjust="spacing" textLength="129" x="117.5" y="591.1582">-«VO» DepthSquare</text><text fill="#000000" font-family="sans-serif" font-size="14" lengthAdjust="spacing" textLength="177" x="117.5" y="608.7676">-«VO» AccessibilityDirection</text><line style="stroke:#181818;stroke-width:0.5;" x1="112.5" x2="299.5" y1="615.8438" y2="615.8438"/></g><!--MD5=[90de021bb2aa8991bb28cb59916c543e]
link AGV to Model--><g id="link_AGV_Model"><path codeLine="38" d="M98.47,169.08 C97.48,186.72 96.4,205.87 95.41,223.39 " fill="none" id="AGV-to-Model" style="stroke:#222222;stroke-width:1.0;"/><polygon fill="#222222" points="95.11,228.77,99.6184,220.0136,95.3961,223.7782,91.6315,219.5559,95.11,228.77" style="stroke:#222222;stroke-width:1.0;"/><text fill="#000000" font-family="sans-serif" font-size="13" lengthAdjust="spacing" textLength="7" x="88.06" y="218.0882">1</text></g><!--MD5=[f109197b03652dc794d321c2b6eb6935]
link AGV to AGVDock--><g id="link_AGV_AGVDock"><path codeLine="39" d="M142.97,169.19 C153.38,187.77 163.46,208.62 170,229 C193.91,303.47 202.34,392.39 205.12,456.39 " fill="none" id="AGV-to-AGVDock" style="stroke:#222222;stroke-width:1.0;"/><polygon fill="#222222" points="205.35,461.73,208.9871,452.5773,205.1502,456.734,200.9935,452.8971,205.35,461.73" style="stroke:#222222;stroke-width:1.0;"/><text fill="#000000" font-family="sans-serif" font-size="13" lengthAdjust="spacing" textLength="7" x="197.9674" y="451.0189">1</text></g><!--MD5=[99bd1d00e163568ba33e5f51dce70ab0]
@startuml
'https://plantuml.com/class-diagram

skinparam classAttributeIconSize 0
hide empty attributes
skinparam classBackgroundColor beige
skinparam ArrowColor #222222

package "<<aggregate>> AGV" {
    entity AGV
    /'class AGVPosition'/
    class Model
}

package "<<aggregate>> AGVDock" {
    entity AGVDock
}

entity AGV <<entity>> <<root>> {
    - <<VO>> AgvID
    - <<VO>> AutonomyStatus /' number of hours left until it runs out of battery '/
    - <<VO>> TaskStatus /' free charging or occupied '/
}

entity AGVDock <<entity>> <<root>> {
    - <<VO>> DockID
    - <<VO>> BeginSquare
    - <<VO>> EndSquare
    - <<VO>> DepthSquare
    - <<VO>> AccessibilityDirection
}

class Model <<(V,#FF8B40) value object>> {
    - ModelID
    - ShortDescription
    - MaxWeight
}

AGV - -> "1" Model
AGV - - - -> "1" AGVDock

@enduml

@startuml

skinparam classAttributeIconSize 0
hide empty attributes
skinparam classBackgroundColor beige
skinparam ArrowColor #222222

package "<<aggregate>> AGV" {
    entity AGV
    class Model
}

package "<<aggregate>> AGVDock" {
    entity AGVDock
}

entity AGV <<entity>> <<root>> {
    - <<VO>> AgvID
    - <<VO>> AutonomyStatus 
    - <<VO>> TaskStatus 
}

entity AGVDock <<entity>> <<root>> {
    - <<VO>> DockID
    - <<VO>> BeginSquare
    - <<VO>> EndSquare
    - <<VO>> DepthSquare
    - <<VO>> AccessibilityDirection
}

class Model <<(V,#FF8B40) value object>> {
    - ModelID
    - ShortDescription
    - MaxWeight
}

AGV - -> "1" Model
AGV - - - -> "1" AGVDock

@enduml

PlantUML version 1.2022.4(Sat Apr 09 14:29:17 BST 2022)
(GPL source distribution)
Java Runtime: OpenJDK Runtime Environment
JVM: OpenJDK 64-Bit Server VM
Default Encoding: Cp1252
Language: pt
Country: PT
--></g></svg>