<?xml version="1.0" encoding="UTF-8" standalone="no"?><svg xmlns="http://www.w3.org/2000/svg" xmlns:xlink="http://www.w3.org/1999/xlink" contentStyleType="text/css" height="427px" preserveAspectRatio="none" style="width:477px;height:427px;background:#FFFFFF;" version="1.1" viewBox="0 0 477 427" width="477px" zoomAndPan="magnify"><defs/><g><rect fill="#FFFFFF" height="234.8125" style="stroke:#181818;stroke-width:1.0;" width="10" x="70.5" y="92.6094"/><rect fill="#FFFFFF" height="30.3516" style="stroke:#181818;stroke-width:1.0;" width="10" x="434.5" y="114.9609"/><rect fill="#FFFFFF" height="30.3516" style="stroke:#181818;stroke-width:1.0;" width="10" x="434.5" y="175.6641"/><rect fill="#FFFFFF" height="30.3516" style="stroke:#181818;stroke-width:1.0;" width="10" x="434.5" y="236.3672"/><rect fill="#FFFFFF" height="30.3516" style="stroke:#181818;stroke-width:1.0;" width="10" x="434.5" y="297.0703"/><line style="stroke:#181818;stroke-width:0.5;stroke-dasharray:5.0,5.0;" x1="75" x2="75" y1="82.6094" y2="345.4219"/><line style="stroke:#181818;stroke-width:0.5;stroke-dasharray:5.0,5.0;" x1="439.5" x2="439.5" y1="82.6094" y2="345.4219"/><text fill="#000000" font-family="sans-serif" font-size="14" lengthAdjust="spacing" textLength="135" x="5" y="79.5332">WarehouseEmployee</text><ellipse cx="75.5" cy="13.5" fill="#E2E2F0" rx="8" ry="8" style="stroke:#181818;stroke-width:0.5;"/><path d="M75.5,21.5 L75.5,48.5 M62.5,29.5 L88.5,29.5 M75.5,48.5 L62.5,63.5 M75.5,48.5 L88.5,63.5 " fill="none" style="stroke:#181818;stroke-width:0.5;"/><text fill="#000000" font-family="sans-serif" font-size="14" lengthAdjust="spacing" textLength="135" x="5" y="358.9551">WarehouseEmployee</text><ellipse cx="75.5" cy="370.5313" fill="#E2E2F0" rx="8" ry="8" style="stroke:#181818;stroke-width:0.5;"/><path d="M75.5,378.5313 L75.5,405.5313 M62.5,386.5313 L88.5,386.5313 M75.5,405.5313 L62.5,420.5313 M75.5,405.5313 L88.5,420.5313 " fill="none" style="stroke:#181818;stroke-width:0.5;"/><rect fill="#E2E2F0" height="31.6094" rx="2.5" ry="2.5" style="stroke:#181818;stroke-width:0.5;" width="64" x="407.5" y="50"/><text fill="#000000" font-family="sans-serif" font-size="14" lengthAdjust="spacing" textLength="50" x="414.5" y="71.5332">:System</text><rect fill="#E2E2F0" height="31.6094" rx="2.5" ry="2.5" style="stroke:#181818;stroke-width:0.5;" width="64" x="407.5" y="344.4219"/><text fill="#000000" font-family="sans-serif" font-size="14" lengthAdjust="spacing" textLength="50" x="414.5" y="365.9551">:System</text><rect fill="#FFFFFF" height="234.8125" style="stroke:#181818;stroke-width:1.0;" width="10" x="70.5" y="92.6094"/><rect fill="#FFFFFF" height="30.3516" style="stroke:#181818;stroke-width:1.0;" width="10" x="434.5" y="114.9609"/><rect fill="#FFFFFF" height="30.3516" style="stroke:#181818;stroke-width:1.0;" width="10" x="434.5" y="175.6641"/><rect fill="#FFFFFF" height="30.3516" style="stroke:#181818;stroke-width:1.0;" width="10" x="434.5" y="236.3672"/><rect fill="#FFFFFF" height="30.3516" style="stroke:#181818;stroke-width:1.0;" width="10" x="434.5" y="297.0703"/><polygon fill="#181818" points="422.5,110.9609,432.5,114.9609,422.5,118.9609,426.5,114.9609" style="stroke:#181818;stroke-width:1.0;"/><line style="stroke:#181818;stroke-width:1.0;" x1="80.5" x2="428.5" y1="114.9609" y2="114.9609"/><text fill="#000000" font-family="sans-serif" font-size="13" font-weight="bold" lengthAdjust="spacing" textLength="7" x="87.5" y="110.1045">1</text><text fill="#000000" font-family="sans-serif" font-size="13" lengthAdjust="spacing" textLength="284" x="98.5" y="110.1045">begins the process to register one or more AGVs</text><polygon fill="#181818" points="91.5,141.3125,81.5,145.3125,91.5,149.3125,87.5,145.3125" style="stroke:#181818;stroke-width:1.0;"/><line style="stroke:#181818;stroke-width:1.0;stroke-dasharray:2.0,2.0;" x1="85.5" x2="438.5" y1="145.3125" y2="145.3125"/><text fill="#000000" font-family="sans-serif" font-size="13" font-weight="bold" lengthAdjust="spacing" textLength="7" x="97.5" y="140.4561">2</text><text fill="#000000" font-family="sans-serif" font-size="13" lengthAdjust="spacing" textLength="282" x="108.5" y="140.4561">requests data in order to create that/those AGVs</text><polygon fill="#181818" points="422.5,171.6641,432.5,175.6641,422.5,179.6641,426.5,175.6641" style="stroke:#181818;stroke-width:1.0;"/><line style="stroke:#181818;stroke-width:1.0;" x1="80.5" x2="428.5" y1="175.6641" y2="175.6641"/><text fill="#000000" font-family="sans-serif" font-size="13" font-weight="bold" lengthAdjust="spacing" textLength="7" x="87.5" y="170.8076">3</text><text fill="#000000" font-family="sans-serif" font-size="13" lengthAdjust="spacing" textLength="136" x="98.5" y="170.8076">inputs the required data</text><polygon fill="#181818" points="91.5,202.0156,81.5,206.0156,91.5,210.0156,87.5,206.0156" style="stroke:#181818;stroke-width:1.0;"/><line style="stroke:#181818;stroke-width:1.0;stroke-dasharray:2.0,2.0;" x1="85.5" x2="438.5" y1="206.0156" y2="206.0156"/><text fill="#000000" font-family="sans-serif" font-size="13" font-weight="bold" lengthAdjust="spacing" textLength="7" x="97.5" y="201.1592">4</text><text fill="#000000" font-family="sans-serif" font-size="13" lengthAdjust="spacing" textLength="112" x="108.5" y="201.1592">creates the AGV(s)</text><polygon fill="#181818" points="422.5,232.3672,432.5,236.3672,422.5,240.3672,426.5,236.3672" style="stroke:#181818;stroke-width:1.0;"/><line style="stroke:#181818;stroke-width:1.0;" x1="80.5" x2="428.5" y1="236.3672" y2="236.3672"/><text fill="#000000" font-family="sans-serif" font-size="13" font-weight="bold" lengthAdjust="spacing" textLength="7" x="87.5" y="231.5107">5</text><text fill="#000000" font-family="sans-serif" font-size="13" lengthAdjust="spacing" textLength="303" x="98.5" y="231.5107">begins the process to configure the available AGV(s)</text><polygon fill="#181818" points="91.5,262.7188,81.5,266.7188,91.5,270.7188,87.5,266.7188" style="stroke:#181818;stroke-width:1.0;"/><line style="stroke:#181818;stroke-width:1.0;stroke-dasharray:2.0,2.0;" x1="85.5" x2="438.5" y1="266.7188" y2="266.7188"/><text fill="#000000" font-family="sans-serif" font-size="13" font-weight="bold" lengthAdjust="spacing" textLength="7" x="97.5" y="261.8623">6</text><text fill="#000000" font-family="sans-serif" font-size="13" lengthAdjust="spacing" textLength="319" x="108.5" y="261.8623">shows the basic information about the available AGV(s)</text><polygon fill="#181818" points="422.5,293.0703,432.5,297.0703,422.5,301.0703,426.5,297.0703" style="stroke:#181818;stroke-width:1.0;"/><line style="stroke:#181818;stroke-width:1.0;" x1="80.5" x2="428.5" y1="297.0703" y2="297.0703"/><text fill="#000000" font-family="sans-serif" font-size="13" font-weight="bold" lengthAdjust="spacing" textLength="7" x="87.5" y="292.2139">7</text><text fill="#000000" font-family="sans-serif" font-size="13" lengthAdjust="spacing" textLength="194" x="98.5" y="292.2139">validates that/those information(s)</text><polygon fill="#181818" points="86.5,323.4219,76.5,327.4219,86.5,331.4219,82.5,327.4219" style="stroke:#181818;stroke-width:1.0;"/><line style="stroke:#181818;stroke-width:1.0;stroke-dasharray:2.0,2.0;" x1="80.5" x2="438.5" y1="327.4219" y2="327.4219"/><text fill="#000000" font-family="sans-serif" font-size="13" font-weight="bold" lengthAdjust="spacing" textLength="7" x="92.5" y="322.5654">8</text><text fill="#000000" font-family="sans-serif" font-size="13" lengthAdjust="spacing" textLength="152" x="103.5" y="322.5654">informs operation success</text><!--MD5=[801ae18ecf91ea29f395d5b081854007]
@startuml
'https://plantuml.com/sequence-diagram

autonumber

actor WarehouseEmployee as WE
participant ":System" as System

activate WE

WE -> System: begins the process to register one or more AGVs

activate System
System - -> WE: requests data in order to create that/those AGVs
deactivate System

WE -> System: inputs the required data

activate System
System - -> WE: creates the AGV(s)
deactivate System

WE -> System: begins the process to configure the available AGV(s)

activate System
System - -> WE: shows the basic information about the available AGV(s)
deactivate System

WE -> System: validates that/those information(s)

activate System
System - -> WE: informs operation success
deactivate System

deactivate WE

@enduml

@startuml

autonumber

actor WarehouseEmployee as WE
participant ":System" as System

activate WE

WE -> System: begins the process to register one or more AGVs

activate System
System - -> WE: requests data in order to create that/those AGVs
deactivate System

WE -> System: inputs the required data

activate System
System - -> WE: creates the AGV(s)
deactivate System

WE -> System: begins the process to configure the available AGV(s)

activate System
System - -> WE: shows the basic information about the available AGV(s)
deactivate System

WE -> System: validates that/those information(s)

activate System
System - -> WE: informs operation success
deactivate System

deactivate WE

@enduml

PlantUML version 1.2022.4(Sat Apr 09 14:29:17 BST 2022)
(GPL source distribution)
Java Runtime: OpenJDK Runtime Environment
JVM: OpenJDK 64-Bit Server VM
Default Encoding: Cp1252
Language: pt
Country: PT
--></g></svg>