<?xml version="1.0" encoding="UTF-8" standalone="no"?><svg xmlns="http://www.w3.org/2000/svg" xmlns:xlink="http://www.w3.org/1999/xlink" contentStyleType="text/css" height="366px" preserveAspectRatio="none" style="width:761px;height:366px;background:#FFFFFF;" version="1.1" viewBox="0 0 761 366" width="761px" zoomAndPan="magnify"><defs/><g><rect fill="#FFFFFF" height="183.1094" style="stroke:#181818;stroke-width:1.0;" width="10" x="116.5" y="92.6094"/><rect fill="#FFFFFF" height="30.3516" style="stroke:#181818;stroke-width:1.0;" width="10" x="709.5" y="114.9609"/><rect fill="#FFFFFF" height="30.3516" style="stroke:#181818;stroke-width:1.0;" width="10" x="709.5" y="175.6641"/><rect fill="#FFFFFF" height="39.3516" style="stroke:#181818;stroke-width:1.0;" width="10" x="714.5" y="236.3672"/><rect fill="#FFFFFF" height="39.3516" style="stroke:#181818;stroke-width:1.0;" width="10" x="714.5" y="236.3672"/><line style="stroke:#181818;stroke-width:0.5;stroke-dasharray:5.0,5.0;" x1="121" x2="121" y1="82.6094" y2="284.7188"/><line style="stroke:#181818;stroke-width:0.5;stroke-dasharray:5.0,5.0;" x1="714" x2="714" y1="82.6094" y2="284.7188"/><text fill="#000000" font-family="sans-serif" font-size="14" lengthAdjust="spacing" textLength="227" x="5" y="79.5332">Client (BackOffice / AGVDigitalTwin)</text><ellipse cx="121.5" cy="13.5" fill="#E2E2F0" rx="8" ry="8" style="stroke:#181818;stroke-width:0.5;"/><path d="M121.5,21.5 L121.5,48.5 M108.5,29.5 L134.5,29.5 M121.5,48.5 L108.5,63.5 M121.5,48.5 L134.5,63.5 " fill="none" style="stroke:#181818;stroke-width:0.5;"/><text fill="#000000" font-family="sans-serif" font-size="14" lengthAdjust="spacing" textLength="227" x="5" y="298.252">Client (BackOffice / AGVDigitalTwin)</text><ellipse cx="121.5" cy="309.8281" fill="#E2E2F0" rx="8" ry="8" style="stroke:#181818;stroke-width:0.5;"/><path d="M121.5,317.8281 L121.5,344.8281 M108.5,325.8281 L134.5,325.8281 M121.5,344.8281 L108.5,359.8281 M121.5,344.8281 L134.5,359.8281 " fill="none" style="stroke:#181818;stroke-width:0.5;"/><text fill="#000000" font-family="sans-serif" font-size="14" lengthAdjust="spacing" textLength="85" x="669" y="79.5332">AGVManager</text><ellipse cx="714.5" cy="13.5" fill="#E2E2F0" rx="8" ry="8" style="stroke:#181818;stroke-width:0.5;"/><path d="M714.5,21.5 L714.5,48.5 M701.5,29.5 L727.5,29.5 M714.5,48.5 L701.5,63.5 M714.5,48.5 L727.5,63.5 " fill="none" style="stroke:#181818;stroke-width:0.5;"/><text fill="#000000" font-family="sans-serif" font-size="14" lengthAdjust="spacing" textLength="85" x="669" y="298.252">AGVManager</text><ellipse cx="714.5" cy="309.8281" fill="#E2E2F0" rx="8" ry="8" style="stroke:#181818;stroke-width:0.5;"/><path d="M714.5,317.8281 L714.5,344.8281 M701.5,325.8281 L727.5,325.8281 M714.5,344.8281 L701.5,359.8281 M714.5,344.8281 L727.5,359.8281 " fill="none" style="stroke:#181818;stroke-width:0.5;"/><rect fill="#FFFFFF" height="183.1094" style="stroke:#181818;stroke-width:1.0;" width="10" x="116.5" y="92.6094"/><rect fill="#FFFFFF" height="30.3516" style="stroke:#181818;stroke-width:1.0;" width="10" x="709.5" y="114.9609"/><rect fill="#FFFFFF" height="30.3516" style="stroke:#181818;stroke-width:1.0;" width="10" x="709.5" y="175.6641"/><rect fill="#FFFFFF" height="39.3516" style="stroke:#181818;stroke-width:1.0;" width="10" x="714.5" y="236.3672"/><rect fill="#FFFFFF" height="39.3516" style="stroke:#181818;stroke-width:1.0;" width="10" x="714.5" y="236.3672"/><polygon fill="#181818" points="697.5,110.9609,707.5,114.9609,697.5,118.9609,701.5,114.9609" style="stroke:#181818;stroke-width:1.0;"/><line style="stroke:#181818;stroke-width:1.0;" x1="126.5" x2="703.5" y1="114.9609" y2="114.9609"/><text fill="#000000" font-family="sans-serif" font-size="13" font-weight="bold" lengthAdjust="spacing" textLength="7" x="133.5" y="110.1045">1</text><text fill="#000000" font-family="sans-serif" font-size="13" lengthAdjust="spacing" textLength="224" x="144.5" y="110.1045">solicita acesso a um recurso protegido</text><polygon fill="#181818" points="137.5,141.3125,127.5,145.3125,137.5,149.3125,133.5,145.3125" style="stroke:#181818;stroke-width:1.0;"/><line style="stroke:#181818;stroke-width:1.0;stroke-dasharray:2.0,2.0;" x1="131.5" x2="713.5" y1="145.3125" y2="145.3125"/><text fill="#000000" font-family="sans-serif" font-size="13" font-weight="bold" lengthAdjust="spacing" textLength="7" x="143.5" y="140.4561">2</text><text fill="#000000" font-family="sans-serif" font-size="13" lengthAdjust="spacing" textLength="216" x="154.5" y="140.4561">apresenta o seu certificado ao cliente</text><polygon fill="#181818" points="697.5,171.6641,707.5,175.6641,697.5,179.6641,701.5,175.6641" style="stroke:#181818;stroke-width:1.0;"/><line style="stroke:#181818;stroke-width:1.0;" x1="126.5" x2="703.5" y1="175.6641" y2="175.6641"/><text fill="#000000" font-family="sans-serif" font-size="13" font-weight="bold" lengthAdjust="spacing" textLength="7" x="133.5" y="170.8076">3</text><text fill="#000000" font-family="sans-serif" font-size="13" lengthAdjust="spacing" textLength="179" x="144.5" y="170.8076">verifica o certificado do servidor</text><polygon fill="#181818" points="137.5,202.0156,127.5,206.0156,137.5,210.0156,133.5,206.0156" style="stroke:#181818;stroke-width:1.0;"/><line style="stroke:#181818;stroke-width:1.0;stroke-dasharray:2.0,2.0;" x1="131.5" x2="713.5" y1="206.0156" y2="206.0156"/><text fill="#000000" font-family="sans-serif" font-size="13" font-weight="bold" lengthAdjust="spacing" textLength="7" x="143.5" y="201.1592">4</text><text fill="#000000" font-family="sans-serif" font-size="13" lengthAdjust="spacing" textLength="194" x="154.5" y="201.1592">envia o seu certificado ao servidor</text><polygon fill="#181818" points="702.5,232.3672,712.5,236.3672,702.5,240.3672,706.5,236.3672" style="stroke:#181818;stroke-width:1.0;"/><line style="stroke:#181818;stroke-width:1.0;" x1="126.5" x2="708.5" y1="236.3672" y2="236.3672"/><text fill="#000000" font-family="sans-serif" font-size="13" font-weight="bold" lengthAdjust="spacing" textLength="7" x="133.5" y="231.5107">5</text><text fill="#000000" font-family="sans-serif" font-size="13" lengthAdjust="spacing" textLength="187" x="144.5" y="231.5107">verifica as credenciais do cliente</text><polygon fill="#181818" points="137.5,262.7188,127.5,266.7188,137.5,270.7188,133.5,266.7188" style="stroke:#181818;stroke-width:1.0;"/><line style="stroke:#181818;stroke-width:1.0;stroke-dasharray:2.0,2.0;" x1="131.5" x2="713.5" y1="266.7188" y2="266.7188"/><text fill="#000000" font-family="sans-serif" font-size="13" font-weight="bold" lengthAdjust="spacing" textLength="7" x="143.5" y="261.8623">6</text><text fill="#000000" font-family="sans-serif" font-size="13" lengthAdjust="spacing" textLength="548" x="154.5" y="261.8623">verifica as credenciais do cliente e concede acesso ao recurso protegido solicitado pelo cliente</text><!--MD5=[f26dd916577656326e8c1f93cf7a1067]
@startuml

autonumber
actor "Client (BackOffice / AGVDigitalTwin)" as SC
actor "AGVManager" as AGVManager

activate SC
SC -> AGVManager : solicita acesso a um recurso protegido
activate AGVManager
AGVManager - -> SC : apresenta o seu certificado ao cliente
deactivate AGVManager
SC -> AGVManager : verifica o certificado do servidor
activate AGVManager


AGVManager - -> SC : envia o seu certificado ao servidor
deactivate AGVManager


SC -> AGVManager : verifica as credenciais do cliente
activate AGVManager


activate AGVManager
AGVManager - -> SC : verifica as credenciais do cliente e concede acesso ao recurso protegido solicitado pelo cliente



@enduml

PlantUML version 1.2022.5(Sat Apr 30 11:55:52 BST 2022)
(GPL source distribution)
Java Runtime: OpenJDK Runtime Environment
JVM: OpenJDK 64-Bit Server VM
Default Encoding: Cp1252
Language: pt
Country: PT
--></g></svg>