<?xml version="1.0" encoding="UTF-8" standalone="no"?><svg xmlns="http://www.w3.org/2000/svg" xmlns:xlink="http://www.w3.org/1999/xlink" contentScriptType="application/ecmascript" contentStyleType="text/css" height="481px" preserveAspectRatio="none" style="width:505px;height:481px;background:#FFFFFF;" version="1.1" viewBox="0 0 505 481" width="505px" zoomAndPan="magnify"><defs><filter height="300%" id="fk359ch80gmxc" width="300%" x="-1" y="-1"><feGaussianBlur result="blurOut" stdDeviation="2.0"/><feColorMatrix in="blurOut" result="blurOut2" type="matrix" values="0 0 0 0 0 0 0 0 0 0 0 0 0 0 0 0 0 0 .4 0"/><feOffset dx="4.0" dy="4.0" in="blurOut2" result="blurOut3"/><feBlend in="SourceGraphic" in2="blurOut3" mode="normal"/></filter></defs><g><!--MD5=[4796114f7023b488b818675d85ea7191]
entity TaskRepository--><path d="M231.5,438 C231.5,428 291,428 291,428 C291,428 350.5,428 350.5,438 L350.5,464.6094 C350.5,474.6094 291,474.6094 291,474.6094 C291,474.6094 231.5,474.6094 231.5,464.6094 L231.5,438 " fill="#FFFFFF" filter="url(#fk359ch80gmxc)" style="stroke:#000000;stroke-width:1.5;"/><path d="M231.5,438 C231.5,448 291,448 291,448 C291,448 350.5,448 350.5,438 " fill="none" style="stroke:#000000;stroke-width:1.5;"/><text fill="#000000" font-family="sans-serif" font-size="14" lengthAdjust="spacing" textLength="99" x="241.5" y="466.5332">TaskRepository</text><!--MD5=[4555e3f0532206b1d682438dba71db0e]
entity AgvRepository--><path d="M386,438 C386,428 442,428 442,428 C442,428 498,428 498,438 L498,464.6094 C498,474.6094 442,474.6094 442,474.6094 C442,474.6094 386,474.6094 386,464.6094 L386,438 " fill="#FFFFFF" filter="url(#fk359ch80gmxc)" style="stroke:#000000;stroke-width:1.5;"/><path d="M386,438 C386,448 442,448 442,448 C442,448 498,448 498,438 " fill="none" style="stroke:#000000;stroke-width:1.5;"/><text fill="#000000" font-family="sans-serif" font-size="14" lengthAdjust="spacing" textLength="92" x="396" y="466.5332">AgvRepository</text><!--MD5=[f7f2442ac648ca55478821656344606c]
class DispatchOrderUI--><rect codeLine="3" fill="#FEFECE" filter="url(#fk359ch80gmxc)" height="48" id="DispatchOrderUI" style="stroke:#A80036;stroke-width:1.5;" width="124" x="134" y="7"/><ellipse cx="149" cy="23" fill="#ADD1B2" rx="11" ry="11" style="stroke:#A80036;stroke-width:1.0;"/><path d="M151,19.5 Q151.2031,19 151.4375,18.75 Q151.6719,18.5 151.9375,18.5 Q152.4063,18.5 152.7031,18.7813 Q153,19.0625 153,19.7188 L153,21.2813 Q153,21.9375 152.7188,22.2188 Q152.4375,22.5 152,22.5 Q151.6094,22.5 151.3594,22.3281 Q151.1094,22.1563 151,21.7031 Q150.9531,21.3906 150.7813,21.2188 Q150.4688,20.8906 149.9063,20.7031 Q149.3438,20.5 148.7813,20.5 Q148.0781,20.5 147.4844,20.7813 Q146.9063,21.0625 146.4531,21.6875 Q146,22.3125 146,23.1719 L146,24.0938 Q146,25.125 146.8438,25.8125 Q147.6875,26.5 149.1875,26.5 Q150.0781,26.5 150.7031,26.2969 Q151.0625,26.1875 151.4688,25.8281 Q151.7344,25.625 151.875,25.5625 Q152.0156,25.5 152.1875,25.5 Q152.5156,25.5 152.75,25.7656 Q153,26.0156 153,26.375 Q153,26.7188 152.6563,27.125 Q152.1563,27.7188 151.3594,28.0469 Q150.3125,28.5 149.0313,28.5 Q147.5313,28.5 146.3281,27.9063 Q145.3594,27.4375 144.6719,26.4219 Q144,25.4063 144,24.2031 L144,23.1094 Q144,21.8594 144.5938,20.7656 Q145.2031,19.6719 146.25,19.0938 Q147.3125,18.5 148.5,18.5 Q149.2188,18.5 149.8438,18.75 Q150.4688,19 151,19.5 Z " fill="#000000"/><text fill="#000000" font-family="sans-serif" font-size="12" lengthAdjust="spacing" textLength="92" x="163" y="27.9102">DispatchOrderUI</text><line style="stroke:#A80036;stroke-width:1.5;" x1="135" x2="257" y1="39" y2="39"/><line style="stroke:#A80036;stroke-width:1.5;" x1="135" x2="257" y1="47" y2="47"/><!--MD5=[18ac228186146f06f90cf81afc1dca47]
class DispatchOrderController--><rect codeLine="5" fill="#FEFECE" filter="url(#fk359ch80gmxc)" height="103.3438" id="DispatchOrderController" style="stroke:#A80036;stroke-width:1.5;" width="166" x="113" y="115"/><ellipse cx="128" cy="131" fill="#ADD1B2" rx="11" ry="11" style="stroke:#A80036;stroke-width:1.0;"/><path d="M130,127.5 Q130.2031,127 130.4375,126.75 Q130.6719,126.5 130.9375,126.5 Q131.4063,126.5 131.7031,126.7813 Q132,127.0625 132,127.7188 L132,129.2813 Q132,129.9375 131.7188,130.2188 Q131.4375,130.5 131,130.5 Q130.6094,130.5 130.3594,130.3281 Q130.1094,130.1563 130,129.7031 Q129.9531,129.3906 129.7813,129.2188 Q129.4688,128.8906 128.9063,128.7031 Q128.3438,128.5 127.7813,128.5 Q127.0781,128.5 126.4844,128.7813 Q125.9063,129.0625 125.4531,129.6875 Q125,130.3125 125,131.1719 L125,132.0938 Q125,133.125 125.8438,133.8125 Q126.6875,134.5 128.1875,134.5 Q129.0781,134.5 129.7031,134.2969 Q130.0625,134.1875 130.4688,133.8281 Q130.7344,133.625 130.875,133.5625 Q131.0156,133.5 131.1875,133.5 Q131.5156,133.5 131.75,133.7656 Q132,134.0156 132,134.375 Q132,134.7188 131.6563,135.125 Q131.1563,135.7188 130.3594,136.0469 Q129.3125,136.5 128.0313,136.5 Q126.5313,136.5 125.3281,135.9063 Q124.3594,135.4375 123.6719,134.4219 Q123,133.4063 123,132.2031 L123,131.1094 Q123,129.8594 123.5938,128.7656 Q124.2031,127.6719 125.25,127.0938 Q126.3125,126.5 127.5,126.5 Q128.2188,126.5 128.8438,126.75 Q129.4688,127 130,127.5 Z " fill="#000000"/><text fill="#000000" font-family="sans-serif" font-size="12" lengthAdjust="spacing" textLength="134" x="142" y="135.9102">DispatchOrderController</text><line style="stroke:#A80036;stroke-width:1.5;" x1="114" x2="278" y1="147" y2="147"/><line style="stroke:#A80036;stroke-width:1.5;" x1="114" x2="278" y1="155" y2="155"/><ellipse cx="124" cy="166" fill="#84BE84" rx="3" ry="3" style="stroke:#038048;stroke-width:1.0;"/><text fill="#000000" font-family="sans-serif" font-size="11" lengthAdjust="spacing" textLength="39" x="133" y="170.4189">create()</text><ellipse cx="124" cy="179.8359" fill="#84BE84" rx="3" ry="3" style="stroke:#038048;stroke-width:1.0;"/><text fill="#000000" font-family="sans-serif" font-size="11" lengthAdjust="spacing" textLength="73" x="133" y="184.2549">showAgvList()</text><ellipse cx="124" cy="193.6719" fill="#84BE84" rx="3" ry="3" style="stroke:#038048;stroke-width:1.0;"/><text fill="#000000" font-family="sans-serif" font-size="11" lengthAdjust="spacing" textLength="107" x="133" y="198.0908">getTasksByAGV(agv)</text><ellipse cx="124" cy="207.5078" fill="#84BE84" rx="3" ry="3" style="stroke:#038048;stroke-width:1.0;"/><text fill="#000000" font-family="sans-serif" font-size="11" lengthAdjust="spacing" textLength="114" x="133" y="211.9268">alterOrderStatus(order)</text><!--MD5=[a47aae9a185d1ab845eea61ac3f47c15]
class TheOrder--><rect codeLine="13" fill="#FEFECE" filter="url(#fk359ch80gmxc)" height="61.8359" id="TheOrder" style="stroke:#A80036;stroke-width:1.5;" width="84" x="7" y="292"/><ellipse cx="22" cy="308" fill="#ADD1B2" rx="11" ry="11" style="stroke:#A80036;stroke-width:1.0;"/><path d="M24,304.5 Q24.2031,304 24.4375,303.75 Q24.6719,303.5 24.9375,303.5 Q25.4063,303.5 25.7031,303.7813 Q26,304.0625 26,304.7188 L26,306.2813 Q26,306.9375 25.7188,307.2188 Q25.4375,307.5 25,307.5 Q24.6094,307.5 24.3594,307.3281 Q24.1094,307.1563 24,306.7031 Q23.9531,306.3906 23.7813,306.2188 Q23.4688,305.8906 22.9063,305.7031 Q22.3438,305.5 21.7813,305.5 Q21.0781,305.5 20.4844,305.7813 Q19.9063,306.0625 19.4531,306.6875 Q19,307.3125 19,308.1719 L19,309.0938 Q19,310.125 19.8438,310.8125 Q20.6875,311.5 22.1875,311.5 Q23.0781,311.5 23.7031,311.2969 Q24.0625,311.1875 24.4688,310.8281 Q24.7344,310.625 24.875,310.5625 Q25.0156,310.5 25.1875,310.5 Q25.5156,310.5 25.75,310.7656 Q26,311.0156 26,311.375 Q26,311.7188 25.6563,312.125 Q25.1563,312.7188 24.3594,313.0469 Q23.3125,313.5 22.0313,313.5 Q20.5313,313.5 19.3281,312.9063 Q18.3594,312.4375 17.6719,311.4219 Q17,310.4063 17,309.2031 L17,308.1094 Q17,306.8594 17.5938,305.7656 Q18.2031,304.6719 19.25,304.0938 Q20.3125,303.5 21.5,303.5 Q22.2188,303.5 22.8438,303.75 Q23.4688,304 24,304.5 Z " fill="#000000"/><text fill="#000000" font-family="sans-serif" font-size="12" lengthAdjust="spacing" textLength="52" x="36" y="312.9102">TheOrder</text><line style="stroke:#A80036;stroke-width:1.5;" x1="8" x2="90" y1="324" y2="324"/><line style="stroke:#A80036;stroke-width:1.5;" x1="8" x2="90" y1="332" y2="332"/><ellipse cx="18" cy="343" fill="#84BE84" rx="3" ry="3" style="stroke:#038048;stroke-width:1.0;"/><text fill="#000000" font-family="sans-serif" font-size="11" lengthAdjust="spacing" textLength="54" x="27" y="347.4189">setStatus()</text><!--MD5=[e8c189551b7885b999ad7cefb30fc2a3]
class PersistenceContext--><rect codeLine="17" fill="#FEFECE" filter="url(#fk359ch80gmxc)" height="61.8359" id="PersistenceContext" style="stroke:#A80036;stroke-width:1.5;" width="139" x="126.5" y="292"/><ellipse cx="141.5" cy="308" fill="#ADD1B2" rx="11" ry="11" style="stroke:#A80036;stroke-width:1.0;"/><path d="M143.5,304.5 Q143.7031,304 143.9375,303.75 Q144.1719,303.5 144.4375,303.5 Q144.9063,303.5 145.2031,303.7813 Q145.5,304.0625 145.5,304.7188 L145.5,306.2813 Q145.5,306.9375 145.2188,307.2188 Q144.9375,307.5 144.5,307.5 Q144.1094,307.5 143.8594,307.3281 Q143.6094,307.1563 143.5,306.7031 Q143.4531,306.3906 143.2813,306.2188 Q142.9688,305.8906 142.4063,305.7031 Q141.8438,305.5 141.2813,305.5 Q140.5781,305.5 139.9844,305.7813 Q139.4063,306.0625 138.9531,306.6875 Q138.5,307.3125 138.5,308.1719 L138.5,309.0938 Q138.5,310.125 139.3438,310.8125 Q140.1875,311.5 141.6875,311.5 Q142.5781,311.5 143.2031,311.2969 Q143.5625,311.1875 143.9688,310.8281 Q144.2344,310.625 144.375,310.5625 Q144.5156,310.5 144.6875,310.5 Q145.0156,310.5 145.25,310.7656 Q145.5,311.0156 145.5,311.375 Q145.5,311.7188 145.1563,312.125 Q144.6563,312.7188 143.8594,313.0469 Q142.8125,313.5 141.5313,313.5 Q140.0313,313.5 138.8281,312.9063 Q137.8594,312.4375 137.1719,311.4219 Q136.5,310.4063 136.5,309.2031 L136.5,308.1094 Q136.5,306.8594 137.0938,305.7656 Q137.7031,304.6719 138.75,304.0938 Q139.8125,303.5 141,303.5 Q141.7188,303.5 142.3438,303.75 Q142.9688,304 143.5,304.5 Z " fill="#000000"/><text fill="#000000" font-family="sans-serif" font-size="12" lengthAdjust="spacing" textLength="107" x="155.5" y="312.9102">PersistenceContext</text><line style="stroke:#A80036;stroke-width:1.5;" x1="127.5" x2="264.5" y1="324" y2="324"/><line style="stroke:#A80036;stroke-width:1.5;" x1="127.5" x2="264.5" y1="332" y2="332"/><ellipse cx="137.5" cy="343" fill="#84BE84" rx="3" ry="3" style="stroke:#038048;stroke-width:1.0;"/><text fill="#000000" font-family="sans-serif" font-size="11" lengthAdjust="spacing" textLength="65" x="146.5" y="347.4189">repositories()</text><!--MD5=[48590afff58a68e2fcba47824d6f8a11]
class RepositoryFactory--><rect codeLine="21" fill="#FEFECE" filter="url(#fk359ch80gmxc)" height="89.5078" id="RepositoryFactory" style="stroke:#A80036;stroke-width:1.5;" width="130" x="301" y="278"/><ellipse cx="316" cy="294" fill="#ADD1B2" rx="11" ry="11" style="stroke:#A80036;stroke-width:1.0;"/><path d="M318,290.5 Q318.2031,290 318.4375,289.75 Q318.6719,289.5 318.9375,289.5 Q319.4063,289.5 319.7031,289.7813 Q320,290.0625 320,290.7188 L320,292.2813 Q320,292.9375 319.7188,293.2188 Q319.4375,293.5 319,293.5 Q318.6094,293.5 318.3594,293.3281 Q318.1094,293.1563 318,292.7031 Q317.9531,292.3906 317.7813,292.2188 Q317.4688,291.8906 316.9063,291.7031 Q316.3438,291.5 315.7813,291.5 Q315.0781,291.5 314.4844,291.7813 Q313.9063,292.0625 313.4531,292.6875 Q313,293.3125 313,294.1719 L313,295.0938 Q313,296.125 313.8438,296.8125 Q314.6875,297.5 316.1875,297.5 Q317.0781,297.5 317.7031,297.2969 Q318.0625,297.1875 318.4688,296.8281 Q318.7344,296.625 318.875,296.5625 Q319.0156,296.5 319.1875,296.5 Q319.5156,296.5 319.75,296.7656 Q320,297.0156 320,297.375 Q320,297.7188 319.6563,298.125 Q319.1563,298.7188 318.3594,299.0469 Q317.3125,299.5 316.0313,299.5 Q314.5313,299.5 313.3281,298.9063 Q312.3594,298.4375 311.6719,297.4219 Q311,296.4063 311,295.2031 L311,294.1094 Q311,292.8594 311.5938,291.7656 Q312.2031,290.6719 313.25,290.0938 Q314.3125,289.5 315.5,289.5 Q316.2188,289.5 316.8438,289.75 Q317.4688,290 318,290.5 Z " fill="#000000"/><text fill="#000000" font-family="sans-serif" font-size="12" lengthAdjust="spacing" textLength="98" x="330" y="298.9102">RepositoryFactory</text><line style="stroke:#A80036;stroke-width:1.5;" x1="302" x2="430" y1="310" y2="310"/><line style="stroke:#A80036;stroke-width:1.5;" x1="302" x2="430" y1="318" y2="318"/><ellipse cx="312" cy="329" fill="#84BE84" rx="3" ry="3" style="stroke:#038048;stroke-width:1.0;"/><text fill="#000000" font-family="sans-serif" font-size="11" lengthAdjust="spacing" textLength="39" x="321" y="333.4189">create()</text><ellipse cx="312" cy="342.8359" fill="#84BE84" rx="3" ry="3" style="stroke:#038048;stroke-width:1.0;"/><text fill="#000000" font-family="sans-serif" font-size="11" lengthAdjust="spacing" textLength="32" x="321" y="347.2549">agvs()</text><ellipse cx="312" cy="356.6719" fill="#84BE84" rx="3" ry="3" style="stroke:#038048;stroke-width:1.0;"/><text fill="#000000" font-family="sans-serif" font-size="11" lengthAdjust="spacing" textLength="34" x="321" y="361.0908">tasks()</text><!--MD5=[1b38e21261a9c15376add097cd9f7b61]
link DispatchOrderUI to DispatchOrderController--><path codeLine="34" d="M196,55.25 C196,70.28 196,90.51 196,109.53 " fill="none" id="DispatchOrderUI-to-DispatchOrderController" style="stroke:#A80036;stroke-width:1.0;"/><polygon fill="#A80036" points="196,114.86,200,105.86,196,109.86,192,105.86,196,114.86" style="stroke:#A80036;stroke-width:1.0;"/><!--MD5=[a77c953fe9edef28be22f014b9aa77c9]
link DispatchOrderController to PersistenceContext--><path codeLine="36" d="M196,218.09 C196,240.48 196,266.28 196,286.57 " fill="none" id="DispatchOrderController-to-PersistenceContext" style="stroke:#A80036;stroke-width:1.0;"/><polygon fill="#A80036" points="196,291.6,200,282.6,196,286.6,192,282.6,196,291.6" style="stroke:#A80036;stroke-width:1.0;"/><!--MD5=[8edec4fe0027243a1f3c8210f36fe53b]
link DispatchOrderController to RepositoryFactory--><path codeLine="37" d="M251.66,218.09 C271.55,236.16 293.87,256.44 313.48,274.26 " fill="none" id="DispatchOrderController-to-RepositoryFactory" style="stroke:#A80036;stroke-width:1.0;"/><polygon fill="#A80036" points="317.36,277.79,313.4016,268.7716,313.6642,274.4224,308.0134,274.6849,317.36,277.79" style="stroke:#A80036;stroke-width:1.0;"/><!--MD5=[f53efe4564714927fb774fc4226c5bde]
link DispatchOrderController to TheOrder--><path codeLine="39" d="M147.87,218.09 C126.11,240.96 100.97,267.37 81.49,287.85 " fill="none" id="DispatchOrderController-to-TheOrder" style="stroke:#A80036;stroke-width:1.0;"/><polygon fill="#A80036" points="77.92,291.6,87.0242,287.8432,81.369,287.98,81.2322,282.3248,77.92,291.6" style="stroke:#A80036;stroke-width:1.0;"/><!--MD5=[8982f41bad9004a09ffb6c14ad72077a]
link RepositoryFactory to TaskRepository--><path codeLine="41" d="M339.77,368.24 C328.88,386.61 316.59,407.33 307.08,423.38 " fill="none" id="RepositoryFactory-to-TaskRepository" style="stroke:#A80036;stroke-width:1.0;"/><polygon fill="#A80036" points="304.47,427.78,312.4942,422.0693,307.0151,423.4762,305.6081,417.9971,304.47,427.78" style="stroke:#A80036;stroke-width:1.0;"/><!--MD5=[7f92e5d4ef8dd73250323a2e827a9969]
link RepositoryFactory to AgvRepository--><path codeLine="42" d="M392.58,368.24 C403.61,386.61 416.06,407.33 425.71,423.38 " fill="none" id="RepositoryFactory-to-AgvRepository" style="stroke:#A80036;stroke-width:1.0;"/><polygon fill="#A80036" points="428.35,427.78,427.1495,418.0046,425.7775,423.4925,420.2896,422.1205,428.35,427.78" style="stroke:#A80036;stroke-width:1.0;"/><!--MD5=[53c0be5f7ba6f76c63ea44120578cca0]
@startuml
'https://plantuml.com/class-diagram

class DispatchOrderUI{}

class DispatchOrderController{
+create()
+showAgvList()
+getTasksByAGV(agv)
+alterOrderStatus(order)
}


class TheOrder{
+setStatus()
}

class PersistenceContext{
+repositories()
}

class RepositoryFactory{
+create()
+agvs()
+tasks()
}

database TaskRepository{
}
database AgvRepository{
}



DispatchOrderUI - -> DispatchOrderController

DispatchOrderController - -> PersistenceContext
DispatchOrderController - -> RepositoryFactory

DispatchOrderController - -> TheOrder

RepositoryFactory - -> TaskRepository
RepositoryFactory - -> AgvRepository


@enduml

@startuml

class DispatchOrderUI{}

class DispatchOrderController{
+create()
+showAgvList()
+getTasksByAGV(agv)
+alterOrderStatus(order)
}


class TheOrder{
+setStatus()
}

class PersistenceContext{
+repositories()
}

class RepositoryFactory{
+create()
+agvs()
+tasks()
}

database TaskRepository{
}
database AgvRepository{
}



DispatchOrderUI - -> DispatchOrderController

DispatchOrderController - -> PersistenceContext
DispatchOrderController - -> RepositoryFactory

DispatchOrderController - -> TheOrder

RepositoryFactory - -> TaskRepository
RepositoryFactory - -> AgvRepository


@enduml

PlantUML version 1.2021.11(Sat Oct 02 14:26:11 BST 2021)
(GPL source distribution)
Java Runtime: OpenJDK Runtime Environment
JVM: OpenJDK 64-Bit Server VM
Default Encoding: Cp1252
Language: pt
Country: PT
--></g></svg>