<?xml version="1.0" encoding="UTF-8" standalone="no"?><svg xmlns="http://www.w3.org/2000/svg" xmlns:xlink="http://www.w3.org/1999/xlink" contentScriptType="application/ecmascript" contentStyleType="text/css" height="740px" preserveAspectRatio="none" style="width:1200px;height:740px;background:#FFFFFF;" version="1.1" viewBox="0 0 1200 740" width="1200.8px" zoomAndPan="magnify"><defs><filter height="300%" id="feyqtmtj98bbv" width="300%" x="-1" y="-1"><feGaussianBlur result="blurOut" stdDeviation="1.6000000000000003"/><feColorMatrix in="blurOut" result="blurOut2" type="matrix" values="0 0 0 0 0 0 0 0 0 0 0 0 0 0 0 0 0 0 .4 0"/><feOffset dx="3.2000000000000006" dy="3.2000000000000006" in="blurOut2" result="blurOut3"/><feBlend in="SourceGraphic" in2="blurOut3" mode="normal"/></filter></defs><g><rect fill="#FFFFFF" filter="url(#feyqtmtj98bbv)" height="576.35" style="stroke:#A80036;stroke-width:0.8000000000000002;" width="8" x="56.4" y="79.6875"/><rect fill="#FFFFFF" filter="url(#feyqtmtj98bbv)" height="218.5313" style="stroke:#A80036;stroke-width:0.8000000000000002;" width="8" x="424.4" y="97.5688"/><rect fill="#FFFFFF" filter="url(#feyqtmtj98bbv)" height="218.5313" style="stroke:#A80036;stroke-width:0.8000000000000002;" width="8" x="424.4" y="340.3813"/><rect fill="#FFFFFF" filter="url(#feyqtmtj98bbv)" height="72.8438" style="stroke:#A80036;stroke-width:0.8000000000000002;" width="8" x="424.4" y="583.1938"/><rect fill="#FFFFFF" filter="url(#feyqtmtj98bbv)" height="169.9688" style="stroke:#A80036;stroke-width:0.8000000000000002;" width="8" x="567.6" y="121.85"/><rect fill="#FFFFFF" filter="url(#feyqtmtj98bbv)" height="169.9688" style="stroke:#A80036;stroke-width:0.8000000000000002;" width="8" x="567.6" y="364.6625"/><rect fill="#FFFFFF" filter="url(#feyqtmtj98bbv)" height="24.2813" style="stroke:#A80036;stroke-width:0.8000000000000002;" width="8" x="567.6" y="607.475"/><rect fill="#FFFFFF" filter="url(#feyqtmtj98bbv)" height="48.5625" style="stroke:#A80036;stroke-width:0.8000000000000002;" width="8" x="841.2" y="146.1313"/><rect fill="#FFFFFF" filter="url(#feyqtmtj98bbv)" height="48.5625" style="stroke:#A80036;stroke-width:0.8000000000000002;" width="8" x="841.2" y="388.9438"/><rect fill="#FFFFFF" filter="url(#feyqtmtj98bbv)" height="48.5625" style="stroke:#A80036;stroke-width:0.8000000000000002;" width="8" x="958.8" y="218.975"/><rect fill="#FFFFFF" filter="url(#feyqtmtj98bbv)" height="48.5625" style="stroke:#A80036;stroke-width:0.8000000000000002;" width="8" x="958.8" y="461.7875"/><line style="stroke:#A80036;stroke-width:0.8000000000000002;stroke-dasharray:5.0,5.0;" x1="60" x2="60" y1="71.6875" y2="670.4375"/><line style="stroke:#A80036;stroke-width:0.8000000000000002;stroke-dasharray:5.0,5.0;" x1="428.4" x2="428.4" y1="71.6875" y2="670.4375"/><line style="stroke:#A80036;stroke-width:0.8000000000000002;stroke-dasharray:5.0,5.0;" x1="571.6" x2="571.6" y1="71.6875" y2="670.4375"/><line style="stroke:#A80036;stroke-width:0.8000000000000002;stroke-dasharray:5.0,5.0;" x1="734" x2="734" y1="71.6875" y2="670.4375"/><line style="stroke:#A80036;stroke-width:0.8000000000000002;stroke-dasharray:5.0,5.0;" x1="845.2" x2="845.2" y1="71.6875" y2="670.4375"/><line style="stroke:#A80036;stroke-width:0.8000000000000002;stroke-dasharray:5.0,5.0;" x1="962.8" x2="962.8" y1="71.6875" y2="670.4375"/><line style="stroke:#A80036;stroke-width:0.8000000000000002;stroke-dasharray:5.0,5.0;" x1="1067.2" x2="1067.2" y1="71.6875" y2="670.4375"/><line style="stroke:#A80036;stroke-width:0.8000000000000002;stroke-dasharray:5.0,5.0;" x1="1158.4" x2="1158.4" y1="71.6875" y2="670.4375"/><text fill="#000000" font-family="sans-serif" font-size="11.2" lengthAdjust="spacing" textLength="108" x="4" y="69.2266">WarehouseEmployee</text><ellipse cx="60.4" cy="12" fill="#FEFECE" filter="url(#feyqtmtj98bbv)" rx="6.4" ry="6.4" style="stroke:#A80036;stroke-width:1.6000000000000003;"/><path d="M60.4,18.4 L60.4,40 M50,24.8 L70.8,24.8 M60.4,40 L50,52 M60.4,40 L70.8,52 " fill="none" filter="url(#feyqtmtj98bbv)" style="stroke:#A80036;stroke-width:1.6000000000000003;"/><text fill="#000000" font-family="sans-serif" font-size="11.2" lengthAdjust="spacing" textLength="108" x="4" y="681.2641">WarehouseEmployee</text><ellipse cx="60.4" cy="691.725" fill="#FEFECE" filter="url(#feyqtmtj98bbv)" rx="6.4" ry="6.4" style="stroke:#A80036;stroke-width:1.6000000000000003;"/><path d="M60.4,698.125 L60.4,719.725 M50,704.525 L70.8,704.525 M60.4,719.725 L50,731.725 M60.4,719.725 L70.8,731.725 " fill="none" filter="url(#feyqtmtj98bbv)" style="stroke:#A80036;stroke-width:1.6000000000000003;"/><rect fill="#FEFECE" filter="url(#feyqtmtj98bbv)" height="25.2875" style="stroke:#A80036;stroke-width:1.2000000000000002;" width="94.4" x="379.6" y="42.4"/><text fill="#000000" font-family="sans-serif" font-size="11.2" lengthAdjust="spacing" textLength="83.2" x="385.2" y="59.6266">DispatchOrderUI</text><rect fill="#FEFECE" filter="url(#feyqtmtj98bbv)" height="25.2875" style="stroke:#A80036;stroke-width:1.2000000000000002;" width="94.4" x="379.6" y="669.6375"/><text fill="#000000" font-family="sans-serif" font-size="11.2" lengthAdjust="spacing" textLength="83.2" x="385.2" y="686.8641">DispatchOrderUI</text><rect fill="#FEFECE" filter="url(#feyqtmtj98bbv)" height="25.2875" style="stroke:#A80036;stroke-width:1.2000000000000002;" width="134.4" x="502.8" y="42.4"/><text fill="#000000" font-family="sans-serif" font-size="11.2" lengthAdjust="spacing" textLength="123.2" x="508.4" y="59.6266">DispatchOrderController</text><rect fill="#FEFECE" filter="url(#feyqtmtj98bbv)" height="25.2875" style="stroke:#A80036;stroke-width:1.2000000000000002;" width="134.4" x="502.8" y="669.6375"/><text fill="#000000" font-family="sans-serif" font-size="11.2" lengthAdjust="spacing" textLength="123.2" x="508.4" y="686.8641">DispatchOrderController</text><rect fill="#FEFECE" filter="url(#feyqtmtj98bbv)" height="39.375" style="stroke:#A80036;stroke-width:1.2000000000000002;" width="91.2" x="686.8" y="28.3125"/><text fill="#000000" font-family="sans-serif" font-size="11.2" font-style="italic" lengthAdjust="spacing" textLength="49.6" x="707.6" y="45.5391">«domain»</text><text fill="#000000" font-family="sans-serif" font-size="11.2" lengthAdjust="spacing" textLength="80" x="692.4" y="59.6266">order:TheOrder</text><rect fill="#FEFECE" filter="url(#feyqtmtj98bbv)" height="39.375" style="stroke:#A80036;stroke-width:1.2000000000000002;" width="91.2" x="686.8" y="669.6375"/><text fill="#000000" font-family="sans-serif" font-size="11.2" font-style="italic" lengthAdjust="spacing" textLength="49.6" x="707.6" y="686.8641">«domain»</text><text fill="#000000" font-family="sans-serif" font-size="11.2" lengthAdjust="spacing" textLength="80" x="692.4" y="700.9516">order:TheOrder</text><rect fill="#FEFECE" filter="url(#feyqtmtj98bbv)" height="39.375" style="stroke:#A80036;stroke-width:1.2000000000000002;" width="108.8" x="789.2" y="28.3125"/><text fill="#000000" font-family="sans-serif" font-size="11.2" font-style="italic" lengthAdjust="spacing" textLength="71.2" x="808" y="45.5391">«persistence»</text><text fill="#000000" font-family="sans-serif" font-size="11.2" lengthAdjust="spacing" textLength="97.6" x="794.8" y="59.6266">PersistenceContext</text><rect fill="#FEFECE" filter="url(#feyqtmtj98bbv)" height="39.375" style="stroke:#A80036;stroke-width:1.2000000000000002;" width="108.8" x="789.2" y="669.6375"/><text fill="#000000" font-family="sans-serif" font-size="11.2" font-style="italic" lengthAdjust="spacing" textLength="71.2" x="808" y="686.8641">«persistence»</text><text fill="#000000" font-family="sans-serif" font-size="11.2" lengthAdjust="spacing" textLength="97.6" x="794.8" y="700.9516">PersistenceContext</text><rect fill="#FEFECE" filter="url(#feyqtmtj98bbv)" height="39.375" style="stroke:#A80036;stroke-width:1.2000000000000002;" width="104" x="909.2" y="28.3125"/><text fill="#000000" font-family="sans-serif" font-size="11.2" font-style="italic" lengthAdjust="spacing" textLength="47.2" x="937.6" y="45.5391">«factory»</text><text fill="#000000" font-family="sans-serif" font-size="11.2" lengthAdjust="spacing" textLength="92.8" x="914.8" y="59.6266">RepositoryFactory</text><rect fill="#FEFECE" filter="url(#feyqtmtj98bbv)" height="39.375" style="stroke:#A80036;stroke-width:1.2000000000000002;" width="104" x="909.2" y="669.6375"/><text fill="#000000" font-family="sans-serif" font-size="11.2" font-style="italic" lengthAdjust="spacing" textLength="47.2" x="937.6" y="686.8641">«factory»</text><text fill="#000000" font-family="sans-serif" font-size="11.2" lengthAdjust="spacing" textLength="92.8" x="914.8" y="700.9516">RepositoryFactory</text><text fill="#000000" font-family="sans-serif" font-size="11.2" font-style="italic" lengthAdjust="spacing" textLength="63.2" x="1033.6" y="55.1391">«repository»</text><text fill="#000000" font-family="sans-serif" font-size="11.2" lengthAdjust="spacing" textLength="79.2" x="1025.6" y="69.2266">TaskRepository</text><path d="M1053.2,14.7125 C1053.2,6.7125 1067.6,6.7125 1067.6,6.7125 C1067.6,6.7125 1082,6.7125 1082,14.7125 L1082,35.5125 C1082,43.5125 1067.6,43.5125 1067.6,43.5125 C1067.6,43.5125 1053.2,43.5125 1053.2,35.5125 L1053.2,14.7125 " fill="#FEFECE" filter="url(#feyqtmtj98bbv)" style="stroke:#000000;stroke-width:1.2000000000000002;"/><path d="M1053.2,14.7125 C1053.2,22.7125 1067.6,22.7125 1067.6,22.7125 C1067.6,22.7125 1082,22.7125 1082,14.7125 " fill="none" style="stroke:#000000;stroke-width:1.2000000000000002;"/><text fill="#000000" font-family="sans-serif" font-size="11.2" font-style="italic" lengthAdjust="spacing" textLength="63.2" x="1033.6" y="681.2641">«repository»</text><text fill="#000000" font-family="sans-serif" font-size="11.2" lengthAdjust="spacing" textLength="79.2" x="1025.6" y="695.3516">TaskRepository</text><path d="M1053.2,705.8125 C1053.2,697.8125 1067.6,697.8125 1067.6,697.8125 C1067.6,697.8125 1082,697.8125 1082,705.8125 L1082,726.6125 C1082,734.6125 1067.6,734.6125 1067.6,734.6125 C1067.6,734.6125 1053.2,734.6125 1053.2,726.6125 L1053.2,705.8125 " fill="#FEFECE" filter="url(#feyqtmtj98bbv)" style="stroke:#000000;stroke-width:1.2000000000000002;"/><path d="M1053.2,705.8125 C1053.2,713.8125 1067.6,713.8125 1067.6,713.8125 C1067.6,713.8125 1082,713.8125 1082,705.8125 " fill="none" style="stroke:#000000;stroke-width:1.2000000000000002;"/><text fill="#000000" font-family="sans-serif" font-size="11.2" font-style="italic" lengthAdjust="spacing" textLength="63.2" x="1124.8" y="55.1391">«repository»</text><text fill="#000000" font-family="sans-serif" font-size="11.2" lengthAdjust="spacing" textLength="77.6" x="1117.6" y="69.2266">AGVRepository</text><path d="M1144.4,14.7125 C1144.4,6.7125 1158.8,6.7125 1158.8,6.7125 C1158.8,6.7125 1173.2,6.7125 1173.2,14.7125 L1173.2,35.5125 C1173.2,43.5125 1158.8,43.5125 1158.8,43.5125 C1158.8,43.5125 1144.4,43.5125 1144.4,35.5125 L1144.4,14.7125 " fill="#FEFECE" filter="url(#feyqtmtj98bbv)" style="stroke:#000000;stroke-width:1.2000000000000002;"/><path d="M1144.4,14.7125 C1144.4,22.7125 1158.8,22.7125 1158.8,22.7125 C1158.8,22.7125 1173.2,22.7125 1173.2,14.7125 " fill="none" style="stroke:#000000;stroke-width:1.2000000000000002;"/><text fill="#000000" font-family="sans-serif" font-size="11.2" font-style="italic" lengthAdjust="spacing" textLength="63.2" x="1124.8" y="681.2641">«repository»</text><text fill="#000000" font-family="sans-serif" font-size="11.2" lengthAdjust="spacing" textLength="77.6" x="1117.6" y="695.3516">AGVRepository</text><path d="M1144.4,705.8125 C1144.4,697.8125 1158.8,697.8125 1158.8,697.8125 C1158.8,697.8125 1173.2,697.8125 1173.2,705.8125 L1173.2,726.6125 C1173.2,734.6125 1158.8,734.6125 1158.8,734.6125 C1158.8,734.6125 1144.4,734.6125 1144.4,726.6125 L1144.4,705.8125 " fill="#FEFECE" filter="url(#feyqtmtj98bbv)" style="stroke:#000000;stroke-width:1.2000000000000002;"/><path d="M1144.4,705.8125 C1144.4,713.8125 1158.8,713.8125 1158.8,713.8125 C1158.8,713.8125 1173.2,713.8125 1173.2,705.8125 " fill="none" style="stroke:#000000;stroke-width:1.2000000000000002;"/><rect fill="#FFFFFF" filter="url(#feyqtmtj98bbv)" height="576.35" style="stroke:#A80036;stroke-width:0.8000000000000002;" width="8" x="56.4" y="79.6875"/><rect fill="#FFFFFF" filter="url(#feyqtmtj98bbv)" height="218.5313" style="stroke:#A80036;stroke-width:0.8000000000000002;" width="8" x="424.4" y="97.5688"/><rect fill="#FFFFFF" filter="url(#feyqtmtj98bbv)" height="218.5313" style="stroke:#A80036;stroke-width:0.8000000000000002;" width="8" x="424.4" y="340.3813"/><rect fill="#FFFFFF" filter="url(#feyqtmtj98bbv)" height="72.8438" style="stroke:#A80036;stroke-width:0.8000000000000002;" width="8" x="424.4" y="583.1938"/><rect fill="#FFFFFF" filter="url(#feyqtmtj98bbv)" height="169.9688" style="stroke:#A80036;stroke-width:0.8000000000000002;" width="8" x="567.6" y="121.85"/><rect fill="#FFFFFF" filter="url(#feyqtmtj98bbv)" height="169.9688" style="stroke:#A80036;stroke-width:0.8000000000000002;" width="8" x="567.6" y="364.6625"/><rect fill="#FFFFFF" filter="url(#feyqtmtj98bbv)" height="24.2813" style="stroke:#A80036;stroke-width:0.8000000000000002;" width="8" x="567.6" y="607.475"/><rect fill="#FFFFFF" filter="url(#feyqtmtj98bbv)" height="48.5625" style="stroke:#A80036;stroke-width:0.8000000000000002;" width="8" x="841.2" y="146.1313"/><rect fill="#FFFFFF" filter="url(#feyqtmtj98bbv)" height="48.5625" style="stroke:#A80036;stroke-width:0.8000000000000002;" width="8" x="841.2" y="388.9438"/><rect fill="#FFFFFF" filter="url(#feyqtmtj98bbv)" height="48.5625" style="stroke:#A80036;stroke-width:0.8000000000000002;" width="8" x="958.8" y="218.975"/><rect fill="#FFFFFF" filter="url(#feyqtmtj98bbv)" height="48.5625" style="stroke:#A80036;stroke-width:0.8000000000000002;" width="8" x="958.8" y="461.7875"/><polygon fill="#A80036" points="414.8,94.3688,422.8,97.5688,414.8,100.7688,418,97.5688" style="stroke:#A80036;stroke-width:0.8000000000000002;"/><line style="stroke:#A80036;stroke-width:0.8000000000000002;" x1="64.4" x2="419.6" y1="97.5688" y2="97.5688"/><text fill="#000000" font-family="sans-serif" font-size="10.4" font-weight="bold" lengthAdjust="spacing" textLength="5.6" x="70" y="93.6836">1</text><text fill="#000000" font-family="sans-serif" font-size="10.4" lengthAdjust="spacing" textLength="307.2" x="78.8" y="93.6836">wants to access the list of orders that have already been prepared.</text><polygon fill="#A80036" points="558,118.65,566,121.85,558,125.05,561.2,121.85" style="stroke:#A80036;stroke-width:0.8000000000000002;"/><line style="stroke:#A80036;stroke-width:0.8000000000000002;" x1="432.4" x2="562.8" y1="121.85" y2="121.85"/><text fill="#000000" font-family="sans-serif" font-size="10.4" font-weight="bold" lengthAdjust="spacing" textLength="5.6" x="438" y="117.9648">2</text><text fill="#000000" font-family="sans-serif" font-size="10.4" lengthAdjust="spacing" textLength="69.6" x="446.8" y="117.9648">showAGVList()</text><polygon fill="#A80036" points="831.6,142.9313,839.6,146.1313,831.6,149.3313,834.8,146.1313" style="stroke:#A80036;stroke-width:0.8000000000000002;"/><line style="stroke:#A80036;stroke-width:0.8000000000000002;" x1="575.6" x2="836.4" y1="146.1313" y2="146.1313"/><text fill="#000000" font-family="sans-serif" font-size="10.4" font-weight="bold" lengthAdjust="spacing" textLength="5.6" x="581.2" y="142.2461">3</text><text fill="#000000" font-family="sans-serif" font-size="10.4" lengthAdjust="spacing" textLength="60" x="590" y="142.2461">repositories()</text><polygon fill="#A80036" points="953.2,167.2125,961.2,170.4125,953.2,173.6125,956.4,170.4125" style="stroke:#A80036;stroke-width:0.8000000000000002;"/><line style="stroke:#A80036;stroke-width:0.8000000000000002;" x1="849.2" x2="958" y1="170.4125" y2="170.4125"/><text fill="#000000" font-family="sans-serif" font-size="10.4" font-weight="bold" lengthAdjust="spacing" textLength="5.6" x="854.8" y="166.5273">4</text><text fill="#000000" font-family="sans-serif" font-size="10.4" lengthAdjust="spacing" textLength="35.2" x="863.6" y="166.5273">create()</text><polygon fill="#A80036" points="584.4,191.4938,576.4,194.6938,584.4,197.8938,581.2,194.6938" style="stroke:#A80036;stroke-width:0.8000000000000002;"/><line style="stroke:#A80036;stroke-width:0.8000000000000002;" x1="579.6" x2="844.4" y1="194.6938" y2="194.6938"/><text fill="#000000" font-family="sans-serif" font-size="10.4" font-weight="bold" lengthAdjust="spacing" textLength="5.6" x="589.2" y="190.8086">5</text><text fill="#000000" font-family="sans-serif" font-size="10.4" lengthAdjust="spacing" textLength="31.2" x="598" y="190.8086">factory</text><polygon fill="#A80036" points="949.2,215.775,957.2,218.975,949.2,222.175,952.4,218.975" style="stroke:#A80036;stroke-width:0.8000000000000002;"/><line style="stroke:#A80036;stroke-width:0.8000000000000002;" x1="575.6" x2="954" y1="218.975" y2="218.975"/><text fill="#000000" font-family="sans-serif" font-size="10.4" font-weight="bold" lengthAdjust="spacing" textLength="5.6" x="581.2" y="215.0898">6</text><text fill="#000000" font-family="sans-serif" font-size="10.4" lengthAdjust="spacing" textLength="27.2" x="590" y="215.0898">agvs()</text><polygon fill="#A80036" points="1149.2,240.0563,1157.2,243.2563,1149.2,246.4563,1152.4,243.2563" style="stroke:#A80036;stroke-width:0.8000000000000002;"/><line style="stroke:#A80036;stroke-width:0.8000000000000002;" x1="966.8" x2="1154" y1="243.2563" y2="243.2563"/><text fill="#000000" font-family="sans-serif" font-size="10.4" font-weight="bold" lengthAdjust="spacing" textLength="5.6" x="972.4" y="239.3711">7</text><text fill="#000000" font-family="sans-serif" font-size="10.4" lengthAdjust="spacing" textLength="34.4" x="981.2" y="239.3711">findAll()</text><polygon fill="#A80036" points="584.4,264.3375,576.4,267.5375,584.4,270.7375,581.2,267.5375" style="stroke:#A80036;stroke-width:0.8000000000000002;"/><line style="stroke:#A80036;stroke-width:0.8000000000000002;" x1="579.6" x2="962" y1="267.5375" y2="267.5375"/><text fill="#000000" font-family="sans-serif" font-size="10.4" font-weight="bold" lengthAdjust="spacing" textLength="5.6" x="589.2" y="263.6523">8</text><text fill="#000000" font-family="sans-serif" font-size="10.4" lengthAdjust="spacing" textLength="64.8" x="598" y="263.6523">agvRepository</text><polygon fill="#A80036" points="441.2,288.6188,433.2,291.8188,441.2,295.0188,438,291.8188" style="stroke:#A80036;stroke-width:0.8000000000000002;"/><line style="stroke:#A80036;stroke-width:0.8000000000000002;" x1="436.4" x2="570.8" y1="291.8188" y2="291.8188"/><text fill="#000000" font-family="sans-serif" font-size="10.4" font-weight="bold" lengthAdjust="spacing" textLength="5.6" x="446" y="287.9336">9</text><text fill="#000000" font-family="sans-serif" font-size="10.4" lengthAdjust="spacing" textLength="32" x="454.8" y="287.9336">agvList</text><polygon fill="#A80036" points="73.2,312.9,65.2,316.1,73.2,319.3,70,316.1" style="stroke:#A80036;stroke-width:0.8000000000000002;"/><line style="stroke:#A80036;stroke-width:0.8000000000000002;stroke-dasharray:2.0,2.0;" x1="68.4" x2="427.6" y1="316.1" y2="316.1"/><text fill="#000000" font-family="sans-serif" font-size="10.4" font-weight="bold" lengthAdjust="spacing" textLength="11.2" x="78" y="312.2148">10</text><text fill="#000000" font-family="sans-serif" font-size="10.4" lengthAdjust="spacing" textLength="270.4" x="92.4" y="312.2148">shows agvList and requests to select one agv from the list.</text><polygon fill="#A80036" points="414.8,337.1813,422.8,340.3813,414.8,343.5813,418,340.3813" style="stroke:#A80036;stroke-width:0.8000000000000002;"/><line style="stroke:#A80036;stroke-width:0.8000000000000002;" x1="64.4" x2="419.6" y1="340.3813" y2="340.3813"/><text fill="#000000" font-family="sans-serif" font-size="10.4" font-weight="bold" lengthAdjust="spacing" textLength="11.2" x="70" y="336.4961">11</text><text fill="#000000" font-family="sans-serif" font-size="10.4" lengthAdjust="spacing" textLength="132.8" x="84.4" y="336.4961">selects one agv from the list.</text><polygon fill="#A80036" points="558,361.4625,566,364.6625,558,367.8625,561.2,364.6625" style="stroke:#A80036;stroke-width:0.8000000000000002;"/><line style="stroke:#A80036;stroke-width:0.8000000000000002;" x1="432.4" x2="562.8" y1="364.6625" y2="364.6625"/><text fill="#000000" font-family="sans-serif" font-size="10.4" font-weight="bold" lengthAdjust="spacing" textLength="11.2" x="438" y="360.7773">12</text><text fill="#000000" font-family="sans-serif" font-size="10.4" lengthAdjust="spacing" textLength="93.6" x="452.4" y="360.7773">getTasksByAgv(agv)</text><polygon fill="#A80036" points="831.6,385.7438,839.6,388.9438,831.6,392.1438,834.8,388.9438" style="stroke:#A80036;stroke-width:0.8000000000000002;"/><line style="stroke:#A80036;stroke-width:0.8000000000000002;" x1="575.6" x2="836.4" y1="388.9438" y2="388.9438"/><text fill="#000000" font-family="sans-serif" font-size="10.4" font-weight="bold" lengthAdjust="spacing" textLength="11.2" x="581.2" y="385.0586">13</text><text fill="#000000" font-family="sans-serif" font-size="10.4" lengthAdjust="spacing" textLength="60" x="595.6" y="385.0586">repositories()</text><polygon fill="#A80036" points="953.2,410.025,961.2,413.225,953.2,416.425,956.4,413.225" style="stroke:#A80036;stroke-width:0.8000000000000002;"/><line style="stroke:#A80036;stroke-width:0.8000000000000002;" x1="849.2" x2="958" y1="413.225" y2="413.225"/><text fill="#000000" font-family="sans-serif" font-size="10.4" font-weight="bold" lengthAdjust="spacing" textLength="11.2" x="854.8" y="409.3398">14</text><text fill="#000000" font-family="sans-serif" font-size="10.4" lengthAdjust="spacing" textLength="35.2" x="869.2" y="409.3398">create()</text><polygon fill="#A80036" points="584.4,434.3063,576.4,437.5063,584.4,440.7063,581.2,437.5063" style="stroke:#A80036;stroke-width:0.8000000000000002;"/><line style="stroke:#A80036;stroke-width:0.8000000000000002;" x1="579.6" x2="844.4" y1="437.5063" y2="437.5063"/><text fill="#000000" font-family="sans-serif" font-size="10.4" font-weight="bold" lengthAdjust="spacing" textLength="11.2" x="589.2" y="433.6211">15</text><text fill="#000000" font-family="sans-serif" font-size="10.4" lengthAdjust="spacing" textLength="31.2" x="603.6" y="433.6211">factory</text><polygon fill="#A80036" points="949.2,458.5875,957.2,461.7875,949.2,464.9875,952.4,461.7875" style="stroke:#A80036;stroke-width:0.8000000000000002;"/><line style="stroke:#A80036;stroke-width:0.8000000000000002;" x1="575.6" x2="954" y1="461.7875" y2="461.7875"/><text fill="#000000" font-family="sans-serif" font-size="10.4" font-weight="bold" lengthAdjust="spacing" textLength="11.2" x="581.2" y="457.9023">16</text><text fill="#000000" font-family="sans-serif" font-size="10.4" lengthAdjust="spacing" textLength="32" x="595.6" y="457.9023">tasks()</text><polygon fill="#A80036" points="1058,482.8688,1066,486.0688,1058,489.2688,1061.2,486.0688" style="stroke:#A80036;stroke-width:0.8000000000000002;"/><line style="stroke:#A80036;stroke-width:0.8000000000000002;" x1="966.8" x2="1062.8" y1="486.0688" y2="486.0688"/><text fill="#000000" font-family="sans-serif" font-size="10.4" font-weight="bold" lengthAdjust="spacing" textLength="11.2" x="972.4" y="482.1836">17</text><text fill="#000000" font-family="sans-serif" font-size="10.4" lengthAdjust="spacing" textLength="67.2" x="986.8" y="482.1836">findByAgv(agv)</text><polygon fill="#A80036" points="584.4,507.15,576.4,510.35,584.4,513.55,581.2,510.35" style="stroke:#A80036;stroke-width:0.8000000000000002;"/><line style="stroke:#A80036;stroke-width:0.8000000000000002;" x1="579.6" x2="962" y1="510.35" y2="510.35"/><text fill="#000000" font-family="sans-serif" font-size="10.4" font-weight="bold" lengthAdjust="spacing" textLength="11.2" x="589.2" y="506.4648">18</text><text fill="#000000" font-family="sans-serif" font-size="10.4" lengthAdjust="spacing" textLength="42.4" x="603.6" y="506.4648">tasksList</text><polygon fill="#A80036" points="441.2,531.4313,433.2,534.6313,441.2,537.8313,438,534.6313" style="stroke:#A80036;stroke-width:0.8000000000000002;"/><line style="stroke:#A80036;stroke-width:0.8000000000000002;" x1="436.4" x2="570.8" y1="534.6313" y2="534.6313"/><text fill="#000000" font-family="sans-serif" font-size="10.4" font-weight="bold" lengthAdjust="spacing" textLength="11.2" x="446" y="530.7461">19</text><text fill="#000000" font-family="sans-serif" font-size="10.4" lengthAdjust="spacing" textLength="42.4" x="460.4" y="530.7461">tasksList</text><polygon fill="#A80036" points="73.2,555.7125,65.2,558.9125,73.2,562.1125,70,558.9125" style="stroke:#A80036;stroke-width:0.8000000000000002;"/><line style="stroke:#A80036;stroke-width:0.8000000000000002;stroke-dasharray:2.0,2.0;" x1="68.4" x2="427.6" y1="558.9125" y2="558.9125"/><text fill="#000000" font-family="sans-serif" font-size="10.4" font-weight="bold" lengthAdjust="spacing" textLength="11.2" x="78" y="555.0273">20</text><text fill="#000000" font-family="sans-serif" font-size="10.4" lengthAdjust="spacing" textLength="326.4" x="92.4" y="555.0273">shows id of orders processed by the given agv and asks to choose one</text><polygon fill="#A80036" points="414.8,579.9938,422.8,583.1938,414.8,586.3938,418,583.1938" style="stroke:#A80036;stroke-width:0.8000000000000002;"/><line style="stroke:#A80036;stroke-width:0.8000000000000002;stroke-dasharray:2.0,2.0;" x1="64.4" x2="419.6" y1="583.1938" y2="583.1938"/><text fill="#000000" font-family="sans-serif" font-size="10.4" font-weight="bold" lengthAdjust="spacing" textLength="11.2" x="70" y="579.3086">21</text><text fill="#000000" font-family="sans-serif" font-size="10.4" lengthAdjust="spacing" textLength="117.6" x="84.4" y="579.3086">selects order from the list</text><polygon fill="#A80036" points="558,604.275,566,607.475,558,610.675,561.2,607.475" style="stroke:#A80036;stroke-width:0.8000000000000002;"/><line style="stroke:#A80036;stroke-width:0.8000000000000002;" x1="432.4" x2="562.8" y1="607.475" y2="607.475"/><text fill="#000000" font-family="sans-serif" font-size="10.4" font-weight="bold" lengthAdjust="spacing" textLength="11.2" x="438" y="603.5898">22</text><text fill="#000000" font-family="sans-serif" font-size="10.4" lengthAdjust="spacing" textLength="105.6" x="452.4" y="603.5898">alterOrderStatus(order)</text><polygon fill="#A80036" points="724.4,628.5563,732.4,631.7563,724.4,634.9563,727.6,631.7563" style="stroke:#A80036;stroke-width:0.8000000000000002;"/><line style="stroke:#A80036;stroke-width:0.8000000000000002;" x1="571.6" x2="729.2" y1="631.7563" y2="631.7563"/><text fill="#000000" font-family="sans-serif" font-size="10.4" font-weight="bold" lengthAdjust="spacing" textLength="11.2" x="577.2" y="627.8711">23</text><text fill="#000000" font-family="sans-serif" font-size="10.4" lengthAdjust="spacing" textLength="124.8" x="591.6" y="627.8711">setStatus("DISPATCHED")</text><polygon fill="#A80036" points="69.2,652.8375,61.2,656.0375,69.2,659.2375,66,656.0375" style="stroke:#A80036;stroke-width:0.8000000000000002;"/><line style="stroke:#A80036;stroke-width:0.8000000000000002;stroke-dasharray:2.0,2.0;" x1="64.4" x2="427.6" y1="656.0375" y2="656.0375"/><text fill="#000000" font-family="sans-serif" font-size="10.4" font-weight="bold" lengthAdjust="spacing" textLength="11.2" x="74" y="652.1523">24</text><text fill="#000000" font-family="sans-serif" font-size="10.4" lengthAdjust="spacing" textLength="124.8" x="88.4" y="652.1523">informs operation success.</text><!--MD5=[a9af2a80a808a8db8fcc9188411dd7f1]
@startuml
'https://plantuml.com/sequence-diagram

autonumber

actor WarehouseEmployee as WE
participant DispatchOrderUI as UI
participant DispatchOrderController as Controller
participant "order:TheOrder" as Domain1 <<domain>>
participant PersistenceContext as Persistence <<persistence>>
participant RepositoryFactory as Factory <<factory>>
database TaskRepository as taskRepository <<repository>>
database AGVRepository as agvRepository <<repository>>

activate WE

WE -> UI: wants to access the list of orders that have already been prepared.

activate UI

UI -> Controller: showAGVList()

activate Controller

Controller -> Persistence: repositories()

activate Persistence

Persistence -> Factory: create()

Persistence -> Controller: factory

deactivate Persistence

Controller -> Factory: agvs()

activate Factory

Factory -> agvRepository: findAll()

Factory -> Controller: agvRepository

deactivate Factory

Controller -> UI: agvList

deactivate Controller

UI - -> WE: shows agvList and requests to select one agv from the list.

deactivate UI

WE -> UI: selects one agv from the list.

activate UI

UI -> Controller: getTasksByAgv(agv)

activate Controller

Controller -> Persistence : repositories()

activate Persistence

Persistence -> Factory : create()

Persistence -> Controller : factory

deactivate Persistence

Controller -> Factory : tasks()

activate Factory

Factory -> taskRepository : findByAgv(agv)

Factory -> Controller : tasksList

deactivate Factory

Controller -> UI : tasksList

deactivate Controller

UI - -> WE : shows id of orders processed by the given agv and asks to choose one

deactivate UI

WE - -> UI : selects order from the list

activate UI
UI -> Controller : alterOrderStatus(order)

activate Controller

Controller -> Domain1 : setStatus("DISPATCHED")
deactivate Controller

UI - -> WE: informs operation success.

deactivate UI

deactivate WE

@enduml

@startuml

autonumber

actor WarehouseEmployee as WE
participant DispatchOrderUI as UI
participant DispatchOrderController as Controller
participant "order:TheOrder" as Domain1 <<domain>>
participant PersistenceContext as Persistence <<persistence>>
participant RepositoryFactory as Factory <<factory>>
database TaskRepository as taskRepository <<repository>>
database AGVRepository as agvRepository <<repository>>

activate WE

WE -> UI: wants to access the list of orders that have already been prepared.

activate UI

UI -> Controller: showAGVList()

activate Controller

Controller -> Persistence: repositories()

activate Persistence

Persistence -> Factory: create()

Persistence -> Controller: factory

deactivate Persistence

Controller -> Factory: agvs()

activate Factory

Factory -> agvRepository: findAll()

Factory -> Controller: agvRepository

deactivate Factory

Controller -> UI: agvList

deactivate Controller

UI - -> WE: shows agvList and requests to select one agv from the list.

deactivate UI

WE -> UI: selects one agv from the list.

activate UI

UI -> Controller: getTasksByAgv(agv)

activate Controller

Controller -> Persistence : repositories()

activate Persistence

Persistence -> Factory : create()

Persistence -> Controller : factory

deactivate Persistence

Controller -> Factory : tasks()

activate Factory

Factory -> taskRepository : findByAgv(agv)

Factory -> Controller : tasksList

deactivate Factory

Controller -> UI : tasksList

deactivate Controller

UI - -> WE : shows id of orders processed by the given agv and asks to choose one

deactivate UI

WE - -> UI : selects order from the list

activate UI
UI -> Controller : alterOrderStatus(order)

activate Controller

Controller -> Domain1 : setStatus("DISPATCHED")
deactivate Controller

UI - -> WE: informs operation success.

deactivate UI

deactivate WE

@enduml

PlantUML version 1.2021.11(Sat Oct 02 14:26:11 BST 2021)
(GPL source distribution)
Java Runtime: OpenJDK Runtime Environment
JVM: OpenJDK 64-Bit Server VM
Default Encoding: Cp1252
Language: pt
Country: PT
--></g></svg>