<?xml version="1.0" encoding="UTF-8" standalone="no"?><svg xmlns="http://www.w3.org/2000/svg" xmlns:xlink="http://www.w3.org/1999/xlink" contentScriptType="application/ecmascript" contentStyleType="text/css" height="377px" preserveAspectRatio="none" style="width:491px;height:377px;" version="1.1" viewBox="0 0 491 377" width="491px" zoomAndPan="magnify"><defs><filter height="300%" id="f1x8g6cruj4a5l" width="300%" x="-1" y="-1"><feGaussianBlur result="blurOut" stdDeviation="2.0"/><feColorMatrix in="blurOut" result="blurOut2" type="matrix" values="0 0 0 0 0 0 0 0 0 0 0 0 0 0 0 0 0 0 .4 0"/><feOffset dx="4.0" dy="4.0" in="blurOut2" result="blurOut3"/><feBlend in="SourceGraphic" in2="blurOut3" mode="normal"/></filter></defs><g><rect fill="#FFFFFF" filter="url(#f1x8g6cruj4a5l)" height="174.1094" style="stroke:#A80036;stroke-width:1.0;" width="10" x="21" y="99.6094"/><rect fill="#FFFFFF" filter="url(#f1x8g6cruj4a5l)" height="30.3516" style="stroke:#A80036;stroke-width:1.0;" width="10" x="442" y="121.9609"/><rect fill="#FFFFFF" filter="url(#f1x8g6cruj4a5l)" height="30.3516" style="stroke:#A80036;stroke-width:1.0;" width="10" x="442" y="182.6641"/><rect fill="#FFFFFF" filter="url(#f1x8g6cruj4a5l)" height="30.3516" style="stroke:#A80036;stroke-width:1.0;" width="10" x="442" y="243.3672"/><line style="stroke:#A80036;stroke-width:1.0;stroke-dasharray:5.0,5.0;" x1="26" x2="26" y1="89.6094" y2="291.7188"/><line style="stroke:#A80036;stroke-width:1.0;stroke-dasharray:5.0,5.0;" x1="447" x2="447" y1="89.6094" y2="291.7188"/><text fill="#000000" font-family="sans-serif" font-size="14" lengthAdjust="spacing" textLength="36" x="5" y="86.5332">Client</text><ellipse cx="26" cy="15" fill="#FEFECE" filter="url(#f1x8g6cruj4a5l)" rx="8" ry="8" style="stroke:#A80036;stroke-width:2.0;"/><path d="M26,23 L26,50 M13,31 L39,31 M26,50 L13,65 M26,50 L39,65 " fill="none" filter="url(#f1x8g6cruj4a5l)" style="stroke:#A80036;stroke-width:2.0;"/><text fill="#000000" font-family="sans-serif" font-size="14" lengthAdjust="spacing" textLength="36" x="5" y="305.252">Client</text><ellipse cx="26" cy="318.3281" fill="#FEFECE" filter="url(#f1x8g6cruj4a5l)" rx="8" ry="8" style="stroke:#A80036;stroke-width:2.0;"/><path d="M26,326.3281 L26,353.3281 M13,334.3281 L39,334.3281 M26,353.3281 L13,368.3281 M26,353.3281 L39,368.3281 " fill="none" filter="url(#f1x8g6cruj4a5l)" style="stroke:#A80036;stroke-width:2.0;"/><rect fill="#FEFECE" filter="url(#f1x8g6cruj4a5l)" height="31.6094" style="stroke:#A80036;stroke-width:1.5;" width="64" x="413" y="53"/><text fill="#000000" font-family="sans-serif" font-size="14" lengthAdjust="spacing" textLength="50" x="420" y="74.5332">:System</text><rect fill="#FEFECE" filter="url(#f1x8g6cruj4a5l)" height="31.6094" style="stroke:#A80036;stroke-width:1.5;" width="64" x="413" y="290.7188"/><text fill="#000000" font-family="sans-serif" font-size="14" lengthAdjust="spacing" textLength="50" x="420" y="312.252">:System</text><rect fill="#FFFFFF" filter="url(#f1x8g6cruj4a5l)" height="174.1094" style="stroke:#A80036;stroke-width:1.0;" width="10" x="21" y="99.6094"/><rect fill="#FFFFFF" filter="url(#f1x8g6cruj4a5l)" height="30.3516" style="stroke:#A80036;stroke-width:1.0;" width="10" x="442" y="121.9609"/><rect fill="#FFFFFF" filter="url(#f1x8g6cruj4a5l)" height="30.3516" style="stroke:#A80036;stroke-width:1.0;" width="10" x="442" y="182.6641"/><rect fill="#FFFFFF" filter="url(#f1x8g6cruj4a5l)" height="30.3516" style="stroke:#A80036;stroke-width:1.0;" width="10" x="442" y="243.3672"/><polygon fill="#A80036" points="430,117.9609,440,121.9609,430,125.9609,434,121.9609" style="stroke:#A80036;stroke-width:1.0;"/><line style="stroke:#A80036;stroke-width:1.0;" x1="31" x2="436" y1="121.9609" y2="121.9609"/><text fill="#000000" font-family="sans-serif" font-size="13" font-weight="bold" lengthAdjust="spacing" textLength="7" x="38" y="117.1045">1</text><text fill="#000000" font-family="sans-serif" font-size="13" lengthAdjust="spacing" textLength="381" x="49" y="117.1045">inicia o processo de adicionar um produto ao carrinho de compras</text><polygon fill="#A80036" points="42,148.3125,32,152.3125,42,156.3125,38,152.3125" style="stroke:#A80036;stroke-width:1.0;"/><line style="stroke:#A80036;stroke-width:1.0;stroke-dasharray:2.0,2.0;" x1="36" x2="446" y1="152.3125" y2="152.3125"/><text fill="#000000" font-family="sans-serif" font-size="13" font-weight="bold" lengthAdjust="spacing" textLength="7" x="48" y="147.4561">2</text><text fill="#000000" font-family="sans-serif" font-size="13" lengthAdjust="spacing" textLength="176" x="59" y="147.4561">mostra o catálogo de produtos</text><polygon fill="#A80036" points="430,178.6641,440,182.6641,430,186.6641,434,182.6641" style="stroke:#A80036;stroke-width:1.0;"/><line style="stroke:#A80036;stroke-width:1.0;" x1="31" x2="436" y1="182.6641" y2="182.6641"/><text fill="#000000" font-family="sans-serif" font-size="13" font-weight="bold" lengthAdjust="spacing" textLength="7" x="38" y="177.8076">3</text><text fill="#000000" font-family="sans-serif" font-size="13" lengthAdjust="spacing" textLength="136" x="49" y="177.8076">introduz o id do produto</text><polygon fill="#A80036" points="42,209.0156,32,213.0156,42,217.0156,38,213.0156" style="stroke:#A80036;stroke-width:1.0;"/><line style="stroke:#A80036;stroke-width:1.0;stroke-dasharray:2.0,2.0;" x1="36" x2="446" y1="213.0156" y2="213.0156"/><text fill="#000000" font-family="sans-serif" font-size="13" font-weight="bold" lengthAdjust="spacing" textLength="7" x="48" y="208.1592">4</text><text fill="#000000" font-family="sans-serif" font-size="13" lengthAdjust="spacing" textLength="119" x="59" y="208.1592">solicita a quantidade</text><polygon fill="#A80036" points="430,239.3672,440,243.3672,430,247.3672,434,243.3672" style="stroke:#A80036;stroke-width:1.0;"/><line style="stroke:#A80036;stroke-width:1.0;" x1="31" x2="436" y1="243.3672" y2="243.3672"/><text fill="#000000" font-family="sans-serif" font-size="13" font-weight="bold" lengthAdjust="spacing" textLength="7" x="38" y="238.5107">5</text><text fill="#000000" font-family="sans-serif" font-size="13" lengthAdjust="spacing" textLength="124" x="49" y="238.5107">introduz a quantidade</text><polygon fill="#A80036" points="37,269.7188,27,273.7188,37,277.7188,33,273.7188" style="stroke:#A80036;stroke-width:1.0;"/><line style="stroke:#A80036;stroke-width:1.0;stroke-dasharray:2.0,2.0;" x1="31" x2="446" y1="273.7188" y2="273.7188"/><text fill="#000000" font-family="sans-serif" font-size="13" font-weight="bold" lengthAdjust="spacing" textLength="7" x="43" y="268.8623">6</text><text fill="#000000" font-family="sans-serif" font-size="13" lengthAdjust="spacing" textLength="181" x="54" y="268.8623">informa o sucesso da operação</text><!--MD5=[81cfc280b30e442db35cb4d047822fca]
@startuml

autonumber
actor "Client" as C

activate C
C -> ":System" : inicia o processo de adicionar um produto ao carrinho de compras
activate ":System"

":System" - -> C : mostra o catálogo de produtos
deactivate ":System"
C -> ":System" : introduz o id do produto
activate ":System"
":System" - -> C : solicita a quantidade
deactivate ":System"
C -> ":System" : introduz a quantidade
activate ":System"
":System" - -> C : informa o sucesso da operação
deactivate ":System"
deactivate C



@enduml

PlantUML version 1.2021.4(Sun Apr 04 09:49:39 BST 2021)
(GPL source distribution)
Java Runtime: OpenJDK Runtime Environment
JVM: OpenJDK 64-Bit Server VM
Default Encoding: Cp1252
Language: pt
Country: PT
--></g></svg>